<?xml version="1.0" encoding="utf-8"?>
<!-- Generator: Adobe Illustrator 27.5.0, SVG Export Plug-In . SVG Version: 6.00 Build 0)  -->
<svg version="1.1" id="Ñëîé_1" xmlns="http://www.w3.org/2000/svg" xmlns:xlink="http://www.w3.org/1999/xlink" x="0px" y="0px"
	 viewBox="0 0 2517.91 2200" style="enable-background:new 0 0 2517.91 2200;" xml:space="preserve">
<rect x="0" y="0" style="fill:#FFFFFF;" width="2517.91" height="2200"/>
<g>
	<path style="fill:#322A28;" d="M839.82,339.516c0-7.838,1.314-14.94,3.942-21.303c2.628-6.363,6.294-11.78,10.998-16.253
		c4.703-4.472,10.281-7.906,16.737-10.307c6.454-2.397,13.509-3.596,21.165-3.596c7.653,0,14.709,1.199,21.165,3.596
		c6.454,2.401,12.034,5.835,16.737,10.307c4.704,4.473,8.37,9.89,10.998,16.253c2.628,6.363,3.942,13.465,3.942,21.303
		c0,7.838-1.314,14.938-3.942,21.302c-2.628,6.363-6.294,11.782-10.998,16.255c-4.703,4.474-10.283,7.908-16.737,10.305
		c-6.456,2.397-13.511,3.596-21.165,3.596c-7.655,0-14.711-1.199-21.165-3.596c-6.456-2.397-12.034-5.831-16.737-10.305
		c-4.704-4.474-8.37-9.892-10.998-16.255C841.134,354.454,839.82,347.354,839.82,339.516z M862.23,339.516
		c0,4.612,0.714,8.831,2.144,12.657c1.429,3.828,3.48,7.148,6.156,9.959c2.673,2.813,5.879,5.004,9.613,6.57
		c3.735,1.57,7.907,2.353,12.519,2.353c4.61,0,8.784-0.783,12.519-2.353c3.734-1.566,6.938-3.756,9.613-6.57
		c2.674-2.811,4.725-6.132,6.156-9.959c1.429-3.826,2.144-8.045,2.144-12.657c0-4.518-0.715-8.716-2.144-12.588
		c-1.431-3.874-3.482-7.216-6.156-10.029c-2.675-2.813-5.879-5.002-9.613-6.572c-3.735-1.568-7.909-2.352-12.519-2.352
		c-4.612,0-8.784,0.785-12.519,2.352c-3.734,1.57-6.94,3.758-9.613,6.572c-2.676,2.813-4.727,6.155-6.156,10.029
		C862.943,330.8,862.23,334.998,862.23,339.516z"/>
	<path style="fill:#322A28;" d="M959.474,321.255h19.09v8.855h0.277c0.829-1.197,1.913-2.422,3.25-3.668
		c1.336-1.244,2.905-2.372,4.703-3.388c1.799-1.014,3.757-1.843,5.879-2.489c2.12-0.644,4.379-0.97,6.778-0.97
		c4.981,0,9.498,0.854,13.557,2.561c4.057,1.706,7.54,4.103,10.444,7.193c2.905,3.091,5.14,6.757,6.708,10.997
		c1.567,4.244,2.352,8.901,2.352,13.972c0,4.703-0.715,9.198-2.144,13.486c-1.431,4.288-3.458,8.093-6.087,11.413
		c-2.628,3.319-5.833,5.972-9.613,7.952c-3.782,1.982-8.071,2.975-12.864,2.975c-4.337,0-8.37-0.671-12.105-2.005
		c-3.734-1.336-6.802-3.619-9.199-6.847h-0.277v38.731h-20.749V321.255z M978.564,354.871c0,5.071,1.452,9.177,4.357,12.31
		c2.905,3.137,6.986,4.703,12.243,4.703c5.256,0,9.337-1.566,12.242-4.703c2.905-3.133,4.358-7.239,4.358-12.31
		c0-5.071-1.453-9.177-4.358-12.312c-2.905-3.133-6.985-4.703-12.242-4.703c-5.257,0-9.338,1.57-12.243,4.703
		C980.016,345.694,978.564,349.799,978.564,354.871z"/>
	<path style="fill:#322A28;" d="M1090.471,337.856h-18.26v22.408c0,1.847,0.091,3.529,0.277,5.05
		c0.183,1.521,0.599,2.837,1.245,3.941c0.644,1.107,1.636,1.961,2.974,2.561c1.335,0.6,3.112,0.899,5.326,0.899
		c1.107,0,2.559-0.116,4.357-0.345s3.159-0.762,4.081-1.591v17.291c-2.306,0.829-4.703,1.382-7.193,1.66
		c-2.49,0.276-4.934,0.415-7.331,0.415c-3.506,0-6.733-0.37-9.684-1.107c-2.952-0.737-5.533-1.913-7.746-3.527
		c-2.214-1.614-3.942-3.712-5.188-6.294c-1.245-2.582-1.867-5.717-1.867-9.408v-31.953h-13.28v-16.6h13.28v-19.919h20.749v19.919
		h18.26V337.856z"/>
	<path style="fill:#322A28;" d="M1099.6,300.091c0-3.319,1.176-6.155,3.528-8.506c2.351-2.353,5.187-3.529,8.507-3.529
		c3.319,0,6.156,1.176,8.507,3.529c2.352,2.35,3.527,5.187,3.527,8.506c0,3.32-1.175,6.157-3.527,8.507
		c-2.351,2.353-5.188,3.529-8.507,3.529c-3.321,0-6.156-1.176-8.507-3.529C1100.776,306.247,1099.6,303.411,1099.6,300.091z
		 M1101.26,321.255h20.75v67.229h-20.75V321.255z"/>
	<path style="fill:#322A28;" d="M1136.949,321.255h19.92v9.13h0.277c0.644-1.29,1.567-2.58,2.766-3.874
		c1.197-1.29,2.628-2.441,4.288-3.457c1.66-1.014,3.549-1.843,5.672-2.489c2.12-0.644,4.426-0.97,6.916-0.97
		c4.704,0,8.875,0.97,12.519,2.906c3.642,1.936,6.385,4.981,8.231,9.13c2.397-4.335,5.302-7.424,8.715-9.269
		c3.41-1.843,7.608-2.767,12.588-2.767c4.517,0,8.321,0.762,11.412,2.283c3.088,1.521,5.533,3.596,7.331,6.224
		c1.798,2.628,3.089,5.719,3.873,9.269c0.783,3.55,1.176,7.354,1.176,11.411v39.701h-20.749v-39.148c0-3.133-0.67-5.831-2.006-8.093
		c-1.338-2.258-3.713-3.388-7.124-3.388c-2.399,0-4.405,0.393-6.017,1.176c-1.615,0.785-2.905,1.867-3.873,3.251
		c-0.969,1.383-1.66,2.996-2.076,4.84c-0.415,1.847-0.622,3.783-0.622,5.81v35.551h-20.75v-35.551c0-1.198-0.047-2.673-0.138-4.425
		c-0.093-1.751-0.416-3.411-0.968-4.981c-0.553-1.568-1.453-2.904-2.698-4.011c-1.246-1.107-3.067-1.66-5.465-1.66
		c-2.676,0-4.841,0.484-6.501,1.452c-1.66,0.968-2.929,2.262-3.803,3.874c-0.878,1.614-1.453,3.436-1.73,5.463
		c-0.277,2.031-0.415,4.152-0.415,6.363v33.477h-20.75V321.255z"/>
	<path style="fill:#322A28;" d="M1255.911,300.091c0-3.319,1.176-6.155,3.528-8.506c2.352-2.353,5.187-3.529,8.508-3.529
		c3.319,0,6.156,1.176,8.507,3.529c2.351,2.35,3.527,5.187,3.527,8.506c0,3.32-1.175,6.157-3.527,8.507
		c-2.352,2.353-5.188,3.529-8.507,3.529c-3.321,0-6.156-1.176-8.508-3.529C1257.088,306.247,1255.911,303.411,1255.911,300.091z
		 M1257.572,321.255h20.75v67.229h-20.75V321.255z"/>
	<path style="fill:#322A28;" d="M1290.632,367.734l34.859-29.879h-34.029v-16.6h58.099v19.921l-36.519,30.708h37.349v16.6h-59.759
		V367.734z"/>
	<path style="fill:#322A28;" d="M1404.615,380.046h-0.277c-2.306,3.596-5.373,6.18-9.199,7.746
		c-3.828,1.568-7.862,2.353-12.104,2.353c-3.136,0-6.156-0.44-9.061-1.315c-2.905-0.875-5.464-2.189-7.677-3.941
		c-2.214-1.751-3.966-3.918-5.257-6.502c-1.292-2.58-1.936-5.578-1.936-8.992c0-3.874,0.714-7.146,2.144-9.821
		c1.429-2.674,3.365-4.888,5.81-6.641c2.442-1.751,5.232-3.112,8.369-4.08c3.134-0.968,6.385-1.682,9.752-2.144
		c3.366-0.461,6.731-0.737,10.098-0.829c3.365-0.091,6.478-0.139,9.337-0.139c0-3.687-1.314-6.616-3.942-8.783
		s-5.74-3.251-9.337-3.251c-3.413,0-6.525,0.715-9.338,2.144c-2.814,1.431-5.326,3.388-7.539,5.879l-11.066-11.344
		c3.873-3.596,8.39-6.294,13.556-8.093c5.164-1.797,10.513-2.698,16.046-2.698c6.087,0,11.089,0.762,15.01,2.283
		c3.918,1.521,7.055,3.758,9.406,6.708c2.352,2.954,3.988,6.572,4.91,10.86c0.921,4.288,1.384,9.246,1.384,14.871v34.167h-19.09
		V380.046z M1399.498,359.02c-1.57,0-3.528,0.069-5.879,0.206c-2.352,0.139-4.612,0.532-6.778,1.176
		c-2.168,0.646-4.012,1.614-5.533,2.906c-1.522,1.292-2.283,3.091-2.283,5.393c0,2.491,1.06,4.337,3.182,5.534
		c2.121,1.199,4.334,1.799,6.64,1.799c2.028,0,3.988-0.278,5.879-0.831c1.889-0.553,3.573-1.336,5.049-2.351
		c1.474-1.014,2.65-2.304,3.527-3.874c0.875-1.568,1.314-3.411,1.314-5.534v-4.425H1399.498z"/>
	<path style="fill:#322A28;" d="M1482.494,337.856h-18.26v22.408c0,1.847,0.091,3.529,0.277,5.05
		c0.183,1.521,0.599,2.837,1.245,3.941c0.644,1.107,1.636,1.961,2.974,2.561c1.335,0.6,3.112,0.899,5.326,0.899
		c1.107,0,2.559-0.116,4.357-0.345s3.159-0.762,4.081-1.591v17.291c-2.306,0.829-4.703,1.382-7.193,1.66
		c-2.49,0.276-4.934,0.415-7.331,0.415c-3.506,0-6.733-0.37-9.684-1.107c-2.952-0.737-5.533-1.913-7.746-3.527
		c-2.214-1.614-3.942-3.712-5.188-6.294c-1.245-2.582-1.867-5.717-1.867-9.408v-31.953h-13.28v-16.6h13.28v-19.919h20.749v19.919
		h18.26V337.856z"/>
	<path style="fill:#322A28;" d="M1491.623,300.091c0-3.319,1.176-6.155,3.528-8.506c2.352-2.353,5.187-3.529,8.508-3.529
		c3.32,0,6.156,1.176,8.508,3.529c2.351,2.35,3.527,5.187,3.527,8.506c0,3.32-1.175,6.157-3.527,8.507
		c-2.352,2.353-5.188,3.529-8.508,3.529c-3.32,0-6.156-1.176-8.508-3.529C1492.799,306.247,1491.623,303.411,1491.623,300.091z
		 M1493.283,321.255h20.75v67.229h-20.75V321.255z"/>
	<path style="fill:#322A28;" d="M1526.483,354.871c0-5.347,0.968-10.189,2.905-14.526c1.936-4.333,4.586-8.045,7.954-11.136
		c3.365-3.089,7.331-5.463,11.895-7.123c4.565-1.66,9.428-2.491,14.594-2.491c5.164,0,10.029,0.831,14.594,2.491
		c4.565,1.66,8.529,4.034,11.896,7.123c3.365,3.091,6.017,6.803,7.954,11.136c1.936,4.337,2.905,9.178,2.905,14.526
		c0,5.349-0.969,10.191-2.905,14.524c-1.937,4.337-4.589,8.047-7.954,11.136c-3.368,3.091-7.331,5.465-11.896,7.125
		c-4.565,1.658-9.43,2.489-14.594,2.489c-5.166,0-10.029-0.831-14.594-2.489c-4.564-1.66-8.531-4.034-11.895-7.125
		c-3.368-3.089-6.018-6.799-7.954-11.136C1527.451,365.061,1526.483,360.22,1526.483,354.871z M1547.232,354.871
		c0,5.071,1.453,9.177,4.358,12.31c2.905,3.137,6.985,4.703,12.242,4.703c5.256,0,9.338-1.566,12.243-4.703
		c2.905-3.133,4.357-7.239,4.357-12.31c0-5.071-1.452-9.177-4.357-12.312c-2.905-3.133-6.986-4.703-12.243-4.703
		c-5.256,0-9.337,1.57-12.242,4.703C1548.685,345.694,1547.232,349.799,1547.232,354.871z"/>
	<path style="fill:#322A28;" d="M1613.351,321.255h19.92v9.13h0.277c0.644-1.29,1.567-2.58,2.766-3.874
		c1.198-1.29,2.628-2.441,4.289-3.457c1.66-1.014,3.549-1.843,5.672-2.489c2.12-0.644,4.426-0.97,6.916-0.97
		c5.256,0,9.498,0.81,12.727,2.422c3.227,1.614,5.74,3.851,7.54,6.708c1.798,2.86,3.019,6.225,3.666,10.098
		c0.644,3.874,0.968,8.072,0.968,12.588v37.073h-20.749v-32.923c0-1.936-0.069-3.941-0.208-6.016
		c-0.138-2.075-0.553-3.988-1.245-5.74c-0.691-1.751-1.753-3.182-3.182-4.288c-1.431-1.107-3.481-1.66-6.156-1.66
		c-2.675,0-4.841,0.484-6.501,1.452c-1.66,0.968-2.929,2.262-3.804,3.874c-0.878,1.614-1.453,3.436-1.73,5.463
		c-0.277,2.031-0.415,4.152-0.415,6.363v33.477h-20.75V321.255z"/>
</g>
<g>
	<path style="fill:#E5F0F8;" d="M417.018,2000.123c0,0-630.072-1561.272,526.179-1455.59
		c495.229,45.264,402.78,319.871,621.501,576.808c141.772,166.544,414.443,30.301,516.625,175.832
		c102.181,145.531-17.898,560.495-60.02,702.95H417.018z"/>
	<g>
		<path style="fill:#40A87B;" d="M1955.752,1994.506c0,0,46.059-183.727,160.873-240.429s237.354,20.927,206.238,102.556
			c-26.831,70.387-137.161-16.161-223.004,17.874c-85.843,34.035-99.375,119.999-99.375,119.999H1955.752z"/>
		<path style="fill:none;stroke:#6ADB6A;stroke-width:5.1736;stroke-miterlimit:10;" d="M2300.669,1807.682
			c0,0-123.224-70.225-214.649-5.3c-91.425,64.925-120.358,192.124-120.358,192.124"/>
		
			<line style="fill:none;stroke:#6ADB6A;stroke-width:5.1736;stroke-miterlimit:10;" x1="2280.794" y1="1774.839" x2="2252.125" y2="1787.338"/>
		
			<line style="fill:none;stroke:#6ADB6A;stroke-width:5.1736;stroke-miterlimit:10;" x1="2239.388" y1="1748.057" x2="2182.284" y2="1774.839"/>
		
			<line style="fill:none;stroke:#6ADB6A;stroke-width:5.1736;stroke-miterlimit:10;" x1="2153.594" y1="1748.057" x2="2123.886" y2="1783.15"/>
		
			<line style="fill:none;stroke:#6ADB6A;stroke-width:5.1736;stroke-miterlimit:10;" x1="2097.282" y1="1771.575" x2="2083.927" y2="1803.894"/>
		
			<line style="fill:none;stroke:#6ADB6A;stroke-width:5.1736;stroke-miterlimit:10;" x1="2266.459" y1="1852.4" x2="2222.448" y2="1779.589"/>
		
			<line style="fill:none;stroke:#6ADB6A;stroke-width:5.1736;stroke-miterlimit:10;" x1="2188.707" y1="1841.966" x2="2148.341" y2="1777.139"/>
		
			<line style="fill:none;stroke:#6ADB6A;stroke-width:5.1736;stroke-miterlimit:10;" x1="2120.138" y1="1832.028" x2="2059.454" y2="1824.487"/>
		
			<line style="fill:none;stroke:#6ADB6A;stroke-width:5.1736;stroke-miterlimit:10;" x1="2049.49" y1="1868.797" x2="2014.705" y2="1880.218"/>
	</g>
	<g>
		<path style="fill:#6ADB6A;" d="M1916.25,1995.041c0,0-32.5-615.845,261.649-536.484
			c294.149,79.361-229.453,411.272-229.007,536.484H1916.25z"/>
		<path style="fill:none;stroke:#40A87B;stroke-width:5.1736;stroke-miterlimit:10;" d="M1928.137,1995.041
			c0,0,10.27-321.759,219.949-480.857"/>
		
			<line style="fill:none;stroke:#40A87B;stroke-width:5.1736;stroke-miterlimit:10;" x1="2056.122" y1="1607.48" x2="2061.361" y2="1496.528"/>
		
			<line style="fill:none;stroke:#40A87B;stroke-width:5.1736;stroke-miterlimit:10;" x1="2220.63" y1="1561.506" x2="2078.905" y2="1579.979"/>
		
			<line style="fill:none;stroke:#40A87B;stroke-width:5.1736;stroke-miterlimit:10;" x1="2165.514" y1="1656.201" x2="2015.665" y2="1673.66"/>
		
			<line style="fill:none;stroke:#40A87B;stroke-width:5.1736;stroke-miterlimit:10;" x1="2090.59" y1="1750.042" x2="1974.849" y2="1766.399"/>
		
			<line style="fill:none;stroke:#40A87B;stroke-width:5.1736;stroke-miterlimit:10;" x1="1963.746" y1="1662.36" x2="1990.275" y2="1726.812"/>
		
			<line style="fill:none;stroke:#40A87B;stroke-width:5.1736;stroke-miterlimit:10;" x1="2007.338" y1="1557.755" x2="2029.954" y2="1648.496"/>
		
			<line style="fill:none;stroke:#40A87B;stroke-width:5.1736;stroke-miterlimit:10;" x1="1938.981" y1="1769.958" x2="1960.116" y2="1812.083"/>
		
			<line style="fill:none;stroke:#40A87B;stroke-width:5.1736;stroke-miterlimit:10;" x1="2029.954" y1="1837.036" x2="1947.017" y2="1863.184"/>
	</g>
	<g>
		<path style="fill:#40A87B;" d="M493.368,1994.605c0,0-37.542-149.754-131.125-195.971
			c-93.583-46.217-193.465,17.057-168.102,83.592c21.87,57.372,111.799-13.172,181.768,14.569
			c69.97,27.741,80.999,97.81,80.999,97.81H493.368z"/>
		<path style="fill:none;stroke:#6ADB6A;stroke-width:4.2169;stroke-miterlimit:10;" d="M212.23,1842.326
			c0,0,100.439-57.239,174.958-4.32s98.102,156.598,98.102,156.598"/>
		
			<line style="fill:none;stroke:#6ADB6A;stroke-width:4.2169;stroke-miterlimit:10;" x1="228.43" y1="1815.557" x2="251.798" y2="1825.744"/>
		
			<line style="fill:none;stroke:#6ADB6A;stroke-width:4.2169;stroke-miterlimit:10;" x1="262.179" y1="1793.727" x2="308.724" y2="1815.557"/>
		
			<line style="fill:none;stroke:#6ADB6A;stroke-width:4.2169;stroke-miterlimit:10;" x1="332.108" y1="1793.727" x2="356.323" y2="1822.331"/>
		
			<line style="fill:none;stroke:#6ADB6A;stroke-width:4.2169;stroke-miterlimit:10;" x1="378.008" y1="1812.897" x2="388.893" y2="1839.239"/>
		
			<line style="fill:none;stroke:#6ADB6A;stroke-width:4.2169;stroke-miterlimit:10;" x1="240.114" y1="1878.776" x2="275.987" y2="1819.428"/>
		
			<line style="fill:none;stroke:#6ADB6A;stroke-width:4.2169;stroke-miterlimit:10;" x1="303.489" y1="1870.271" x2="336.39" y2="1817.431"/>
		
			<line style="fill:none;stroke:#6ADB6A;stroke-width:4.2169;stroke-miterlimit:10;" x1="359.378" y1="1862.171" x2="408.842" y2="1856.025"/>
		
			<line style="fill:none;stroke:#6ADB6A;stroke-width:4.2169;stroke-miterlimit:10;" x1="416.963" y1="1892.141" x2="445.315" y2="1901.45"/>
	</g>
	<g>
		<path style="fill:#6ADB6A;" d="M525.565,1995.041c0,0,26.49-501.968-213.267-437.282s187.024,335.223,186.661,437.282H525.565z"/>
		<path style="fill:none;stroke:#40A87B;stroke-width:4.2169;stroke-miterlimit:10;" d="M515.876,1995.041
			c0,0-8.371-262.262-179.278-391.941"/>
		
			<line style="fill:none;stroke:#40A87B;stroke-width:4.2169;stroke-miterlimit:10;" x1="411.557" y1="1679.144" x2="407.287" y2="1588.708"/>
		
			<line style="fill:none;stroke:#40A87B;stroke-width:4.2169;stroke-miterlimit:10;" x1="277.469" y1="1641.672" x2="392.987" y2="1656.729"/>
		
			<line style="fill:none;stroke:#40A87B;stroke-width:4.2169;stroke-miterlimit:10;" x1="322.393" y1="1718.856" x2="444.533" y2="1733.087"/>
		
			<line style="fill:none;stroke:#40A87B;stroke-width:4.2169;stroke-miterlimit:10;" x1="383.463" y1="1795.345" x2="477.802" y2="1808.677"/>
		
			<line style="fill:none;stroke:#40A87B;stroke-width:4.2169;stroke-miterlimit:10;" x1="486.852" y1="1723.876" x2="465.229" y2="1776.41"/>
		
			<line style="fill:none;stroke:#40A87B;stroke-width:4.2169;stroke-miterlimit:10;" x1="451.321" y1="1638.614" x2="432.886" y2="1712.576"/>
		
			<line style="fill:none;stroke:#40A87B;stroke-width:4.2169;stroke-miterlimit:10;" x1="507.037" y1="1811.578" x2="489.81" y2="1845.914"/>
		
			<line style="fill:none;stroke:#40A87B;stroke-width:4.2169;stroke-miterlimit:10;" x1="432.886" y1="1866.252" x2="500.487" y2="1887.566"/>
	</g>
	<g>
		<path style="fill:#E5F0F8;" d="M1823.796,645.642h236.115c3.468,0,6.358-2.694,6.548-6.157
			c0.716-13.049-0.747-42.301-28.247-42.317c-30.456-0.018-40.343,12.995-40.343,12.995s2.664-52.967-49.477-52.89
			c-48.004,0.071-65.462,49.22-65.462,49.22s-45.953-21.635-65.267,30.24C1816.06,641.041,1819.2,645.642,1823.796,645.642z"/>
		<polygon style="fill:#FFFFFF;" points="1941.912,576.651 1924.023,601.27 1932.668,601.27 1932.668,626.265 1951.155,626.265 
			1951.155,601.27 1959.8,601.27 		"/>
	</g>
	<path style="fill:#0775EF;" d="M2040.925,2038.056H379.814c-11.286,0-20.435-9.149-20.435-20.435v-7.473
		c0-11.286,9.149-20.435,20.435-20.435h1661.112c11.286,0,20.435,9.149,20.435,20.435v7.473
		C2061.361,2028.907,2052.211,2038.056,2040.925,2038.056z"/>
	<g>
		<rect x="1848.319" y="858.942" style="fill:#E5F0F8;" width="19.972" height="54.542"/>
		<rect x="1879.952" y="830.889" style="fill:#E5F0F8;" width="19.972" height="82.594"/>
		<rect x="1911.584" y="789.121" style="fill:#E5F0F8;" width="19.972" height="124.362"/>
		<rect x="1943.216" y="814.888" style="fill:#E5F0F8;" width="19.972" height="98.595"/>
		<rect x="1974.848" y="825.756" style="fill:#E5F0F8;" width="19.972" height="87.728"/>
		<rect x="2006.48" y="804.401" style="fill:#E5F0F8;" width="19.972" height="109.083"/>
		<rect x="2038.112" y="780.128" style="fill:#E5F0F8;" width="19.972" height="133.355"/>
	</g>
	<g>
		<path style="fill:#BBDBF3;" d="M2139.829,970.978h-436.477c-5.167,0-9.357,4.906-9.357,10.957v25.368v225.699h455.19v-225.699
			v-25.368C2149.186,975.884,2144.997,970.978,2139.829,970.978z"/>
		<rect x="1699.08" y="1001.183" style="fill:#FFFFFF;" width="445.021" height="225.417"/>
		<g>
			<g>
				<path style="fill:#F9ECB8;" d="M1730.447,1119.441c0,0,16.545-35.716,48.068-29.043c31.523,6.672,9.66,73.278,44.742,79.887
					c35.082,6.61,54.403-96.356,133.719-80.718c79.316,15.638,152.59-34.189,152.59-34.189v156.906h-379.12V1119.441z"/>
				<path style="fill:#E7888B;" d="M1730.447,1181.47c23.663-2.034,26.714-66.452,64.847-70.596
					c38.133-4.144,33.049,54.326,54.911,61.953s30.456-18.812,71.665-16.778c41.208,2.034,45.276,32.972,69.173,32.972
					c23.896,0,67.231-21.786,118.525-17.719v40.983h-379.12V1181.47z"/>
				
					<line style="fill:none;stroke:#BBDBF3;stroke-width:1.6901;stroke-linecap:round;stroke-linejoin:round;stroke-miterlimit:10;stroke-dasharray:10.1025;" x1="1729.888" y1="1189.021" x2="2109.567" y2="1189.021"/>
				
					<line style="fill:none;stroke:#BBDBF3;stroke-width:1.6901;stroke-linecap:round;stroke-linejoin:round;stroke-miterlimit:10;stroke-dasharray:10.1025;" x1="1729.888" y1="1139.709" x2="2109.567" y2="1139.709"/>
				
					<line style="fill:none;stroke:#BBDBF3;stroke-width:1.6901;stroke-linecap:round;stroke-linejoin:round;stroke-miterlimit:10;stroke-dasharray:10.1025;" x1="1729.888" y1="1115.053" x2="2109.567" y2="1115.053"/>
				
					<line style="fill:none;stroke:#BBDBF3;stroke-width:1.6901;stroke-linecap:round;stroke-linejoin:round;stroke-miterlimit:10;stroke-dasharray:10.1025;" x1="2109.567" y1="1164.365" x2="1729.888" y2="1164.365"/>
				
					<line style="fill:none;stroke:#BBDBF3;stroke-width:1.6901;stroke-linecap:round;stroke-linejoin:round;stroke-miterlimit:10;stroke-dasharray:10.1025;" x1="1729.888" y1="1090.398" x2="2109.567" y2="1090.398"/>
				
					<line style="fill:none;stroke:#BBDBF3;stroke-width:1.6901;stroke-linecap:round;stroke-linejoin:round;stroke-miterlimit:10;stroke-dasharray:10.1025;" x1="1729.888" y1="1065.742" x2="2109.567" y2="1065.742"/>
				
					<line style="fill:none;stroke:#BBDBF3;stroke-width:1.6901;stroke-linecap:round;stroke-linejoin:round;stroke-miterlimit:10;stroke-dasharray:10.1025;" x1="1729.888" y1="1041.086" x2="2109.567" y2="1041.086"/>
				
					<polyline style="fill:none;stroke:#BBDBF3;stroke-width:3.3802;stroke-linecap:round;stroke-linejoin:round;stroke-miterlimit:10;" points="
					1730.447,1015.499 1730.447,1212.285 2113.293,1212.285 				"/>
			</g>
		</g>
	</g>
	<polygon style="fill:#088CFC;" points="1961.728,974.029 1788.464,1074.063 1961.728,1174.097 	"/>
	<g>
		<g>
			<polygon style="fill:#586773;" points="1784.963,1721.839 1823.84,1704.563 1754.484,1706.761 1755.304,1724.612 			"/>
			<polygon style="fill:#586773;" points="557.569,841.247 520.324,864.141 533.071,962.495 			"/>
			<path style="fill:#586773;" d="M1773.208,1724.61H636.129c-15.196,0-28.931-12.171-30.699-27.163l-84.991-719.569l-0.136-1.088
				l-7.377-62.281l-1.666-14.143l-0.748-6.425c-1.768-14.924,4.352-32.841,19.48-32.841l1135.617-23.22
				c15.162,0,28.897,12.103,30.699,27.027l101.071,832.539C1799.214,1712.439,1788.37,1724.61,1773.208,1724.61z"/>
			<path style="fill:#93ACBF;" d="M676.138,1706.761h1137.037c15.178,0,25.996-11.917,24.163-26.616L1735.58,864.379
				c-1.825-14.632-15.58-26.493-30.722-26.493H570.535c-15.142,0-25.976,11.861-24.199,26.493l99.087,815.766
				C647.208,1694.844,660.96,1706.761,676.138,1706.761z"/>
			<polygon style="fill:#BBDBF3;" points="581.975,871.514 584.198,889.681 679.434,1672.98 1801.572,1672.98 1701.676,871.514 			
				"/>
			<polygon style="fill:#E5F0F8;" points="584.198,889.681 679.434,1672.98 1786.183,1672.98 1688.553,889.681 			"/>
			<g>
				<polygon style="fill:#BBDBF3;" points="1574.871,948.276 1669.336,948.276 1667.498,933.582 1573.038,933.582 				"/>
				<polygon style="fill:#BBDBF3;" points="1328.102,970.892 1456.908,970.892 1698.682,970.892 1704.945,1020.91 600.128,1020.91 
					594.088,970.892 				"/>
				<polygon style="fill:#BBDBF3;" points="1458.67,948.276 1553.135,948.276 1551.303,933.582 1456.844,933.582 				"/>
				<polygon style="fill:#BBDBF3;" points="1342.468,948.276 1436.933,948.276 1435.109,933.582 1340.649,933.582 				"/>
				<polygon style="fill:#BBDBF3;" points="1226.267,948.276 1320.732,948.276 1318.914,933.582 1224.455,933.582 				"/>
				<polygon style="fill:#FFFFFF;" points="1556.098,1000.672 1675.892,1000.672 1674.65,990.744 1554.861,990.744 				"/>
				<polygon style="fill:#FFFFFF;" points="1408.74,1000.672 1528.534,1000.672 1527.298,990.744 1407.509,990.744 				"/>
				<polygon style="fill:#FFFFFF;" points="1261.382,1000.672 1381.176,1000.672 1379.946,990.744 1260.157,990.744 				"/>
				<polygon style="fill:#FFFFFF;" points="1114.024,1000.672 1233.818,1000.672 1232.593,990.744 1112.805,990.744 				"/>
				<polygon style="fill:#BBDBF3;" points="1110.066,948.276 1204.531,948.276 1202.72,933.582 1108.26,933.582 				"/>
				<polygon style="fill:#BBDBF3;" points="993.864,948.276 1088.329,948.276 1086.525,933.582 992.066,933.582 				"/>
				<polygon style="fill:none;stroke:#BBDBF3;stroke-width:4.4486;stroke-miterlimit:10;" points="782.735,961.457 920.041,961.457 
					914.554,916.509 777.273,916.509 				"/>
				<polygon style="fill:#BBDBF3;" points="626.373,961.457 763.679,961.457 758.22,916.509 620.939,916.509 				"/>
				<g>
					<g>
						<g>
							<polygon style="fill:#BBDBF3;" points="1183.571,1186.231 1700.724,1186.231 1705.726,1226.21 1188.49,1226.21 							"/>
							<polygon style="fill:#FFFFFF;" points="1705.726,1226.21 1723.592,1368.993 1206.057,1368.993 1188.49,1226.21 							"/>
							<polygon style="fill:#FFFFFF;" points="1517.513,1210.597 1685.313,1210.597 1684.2,1201.697 1516.406,1201.697 							"/>
							<polygon style="fill:#FFFFFF;" points="1393.658,1210.597 1507.285,1210.597 1506.179,1201.697 1392.556,1201.697 							"/>
							<polygon style="fill:none;stroke:#BBDBF3;stroke-width:2.3356;stroke-miterlimit:10;" points="1222.858,1354.751 
								1703.256,1354.751 1688.962,1240.437 1208.785,1240.437 							"/>
							<polygon style="fill:none;stroke:#BBDBF3;stroke-width:2.3356;stroke-miterlimit:10;" points="1661.573,1354.751 
								1703.256,1354.751 1688.962,1240.437 1647.297,1240.437 							"/>
							<polygon style="fill:none;stroke:#BBDBF3;stroke-width:2.3356;stroke-miterlimit:10;" points="1420.625,1354.751 
								1661.573,1354.751 1647.297,1240.437 1406.461,1240.437 							"/>
							<polygon style="fill:none;stroke:#BBDBF3;stroke-width:2.3356;stroke-miterlimit:10;" points="1222.858,1354.751 
								1260.881,1354.751 1246.79,1240.437 1208.785,1240.437 							"/>
							<polygon style="fill:none;stroke:#BBDBF3;stroke-width:2.3356;stroke-miterlimit:10;" points="1260.881,1354.751 
								1298.903,1354.751 1284.795,1240.437 1246.79,1240.437 							"/>
							<polygon style="fill:none;stroke:#BBDBF3;stroke-width:2.3356;stroke-miterlimit:10;" points="1298.903,1354.751 
								1346.41,1354.751 1332.281,1240.437 1284.795,1240.437 							"/>
							<polygon style="fill:none;stroke:#BBDBF3;stroke-width:2.3356;stroke-miterlimit:10;" points="1346.41,1354.751 
								1420.625,1354.751 1406.461,1240.437 1332.281,1240.437 							"/>
							<polygon style="fill:none;stroke:#BBDBF3;stroke-width:2.3356;stroke-miterlimit:10;" points="1216.273,1301.258 
								1696.567,1301.258 1693.224,1274.521 1212.981,1274.521 							"/>
							<polygon style="fill:none;stroke:#BBDBF3;stroke-width:2.3356;stroke-miterlimit:10;" points="1219.565,1328.002 
								1699.911,1328.002 1696.567,1301.258 1216.273,1301.258 							"/>
							<polygon style="fill:none;stroke:#BBDBF3;stroke-width:2.3356;stroke-miterlimit:10;" points="1222.858,1354.751 
								1703.256,1354.751 1699.911,1328.002 1219.565,1328.002 							"/>
						</g>
					</g>
					<g>
						<g>
							<polygon style="fill:#BBDBF3;" points="646.411,1186.231 1163.564,1186.231 1168.479,1226.21 651.243,1226.21 							"/>
							<polygon style="fill:#FFFFFF;" points="1168.479,1226.21 1186.035,1368.993 668.5,1368.993 651.243,1226.21 							"/>
							<polygon style="fill:#FFFFFF;" points="980.3,1210.597 1148.1,1210.597 1147.006,1201.697 979.212,1201.697 							"/>
							<polygon style="fill:#FFFFFF;" points="856.445,1210.597 970.072,1210.597 968.985,1201.697 855.362,1201.697 							"/>
							<polygon style="fill:none;stroke:#BBDBF3;stroke-width:2.3356;stroke-miterlimit:10;" points="685.332,1354.751 
								1165.73,1354.751 1151.683,1240.437 671.507,1240.437 							"/>
							<polygon style="fill:none;stroke:#BBDBF3;stroke-width:2.3356;stroke-miterlimit:10;" points="1124.047,1354.751 
								1165.73,1354.751 1151.683,1240.437 1110.019,1240.437 							"/>
							<polygon style="fill:none;stroke:#BBDBF3;stroke-width:2.3356;stroke-miterlimit:10;" points="883.099,1354.751 
								1124.047,1354.751 1110.019,1240.437 869.183,1240.437 							"/>
							<polygon style="fill:none;stroke:#BBDBF3;stroke-width:2.3356;stroke-miterlimit:10;" points="685.332,1354.751 
								723.354,1354.751 709.512,1240.437 671.507,1240.437 							"/>
							<polygon style="fill:none;stroke:#BBDBF3;stroke-width:2.3356;stroke-miterlimit:10;" points="723.354,1354.751 
								761.377,1354.751 747.517,1240.437 709.512,1240.437 							"/>
							<polygon style="fill:none;stroke:#BBDBF3;stroke-width:2.3356;stroke-miterlimit:10;" points="761.377,1354.751 
								808.884,1354.751 795.002,1240.437 747.517,1240.437 							"/>
							<polygon style="fill:none;stroke:#BBDBF3;stroke-width:2.3356;stroke-miterlimit:10;" points="808.884,1354.751 
								883.099,1354.751 869.183,1240.437 795.002,1240.437 							"/>
							<polygon style="fill:none;stroke:#BBDBF3;stroke-width:2.3356;stroke-miterlimit:10;" points="678.863,1301.258 
								1159.157,1301.258 1155.871,1274.521 675.629,1274.521 							"/>
							<polygon style="fill:none;stroke:#BBDBF3;stroke-width:2.3356;stroke-miterlimit:10;" points="682.097,1328.002 
								1162.443,1328.002 1159.157,1301.258 678.863,1301.258 							"/>
							<polygon style="fill:none;stroke:#BBDBF3;stroke-width:2.3356;stroke-miterlimit:10;" points="685.332,1354.751 
								1165.73,1354.751 1162.443,1328.002 682.097,1328.002 							"/>
						</g>
					</g>
				</g>
				<g>
					<g>
						<g>
							<polygon style="fill:#BBDBF3;" points="1162.899,1034.473 1679.8,1034.473 1683.977,1065.049 1167.03,1065.049 							"/>
							<polygon style="fill:#FFFFFF;" points="1683.977,1065.049 1698.888,1174.211 1181.778,1174.211 1167.03,1065.049 							"/>
							<polygon style="fill:#FFFFFF;" points="1496.185,1053.109 1663.896,1053.109 1662.966,1046.302 1495.259,1046.302 							"/>
							<polygon style="fill:#FFFFFF;" points="1372.396,1053.109 1485.962,1053.109 1485.036,1046.302 1371.472,1046.302 							"/>
							<polygon style="fill:none;stroke:#BBDBF3;stroke-width:2.0382;stroke-miterlimit:10;" points="1198.846,1163.325 
								1678.862,1163.325 1666.929,1075.928 1187.034,1075.928 							"/>
							<polygon style="fill:none;stroke:#BBDBF3;stroke-width:2.0382;stroke-miterlimit:10;" points="1637.212,1163.325 
								1678.862,1163.325 1666.929,1075.928 1625.289,1075.928 							"/>
							<polygon style="fill:none;stroke:#BBDBF3;stroke-width:2.0382;stroke-miterlimit:10;" points="1396.456,1163.325 
								1637.212,1163.325 1625.289,1075.928 1384.594,1075.928 							"/>
							<polygon style="fill:none;stroke:#BBDBF3;stroke-width:2.0382;stroke-miterlimit:10;" points="1198.846,1163.325 
								1236.838,1163.325 1225.016,1075.928 1187.034,1075.928 							"/>
							<polygon style="fill:none;stroke:#BBDBF3;stroke-width:2.0382;stroke-miterlimit:10;" points="1236.838,1163.325 
								1274.83,1163.325 1262.999,1075.928 1225.016,1075.928 							"/>
							<polygon style="fill:none;stroke:#BBDBF3;stroke-width:2.0382;stroke-miterlimit:10;" points="1274.83,1163.325 
								1322.3,1163.325 1310.457,1075.928 1262.999,1075.928 							"/>
							<polygon style="fill:none;stroke:#BBDBF3;stroke-width:2.0382;stroke-miterlimit:10;" points="1322.3,1163.325 
								1396.456,1163.325 1384.594,1075.928 1310.457,1075.928 							"/>
							<polygon style="fill:none;stroke:#BBDBF3;stroke-width:2.0382;stroke-miterlimit:10;" points="1193.319,1122.433 
								1673.279,1122.433 1670.487,1101.99 1190.557,1101.99 							"/>
							<polygon style="fill:none;stroke:#BBDBF3;stroke-width:2.0382;stroke-miterlimit:10;" points="1196.083,1142.878 
								1676.07,1142.878 1673.279,1122.433 1193.319,1122.433 							"/>
							<polygon style="fill:none;stroke:#BBDBF3;stroke-width:2.0382;stroke-miterlimit:10;" points="1198.846,1163.325 
								1678.862,1163.325 1676.07,1142.878 1196.083,1142.878 							"/>
						</g>
					</g>
					<g>
						<g>
							<polygon style="fill:#BBDBF3;" points="626,1034.473 1142.901,1034.473 1147.031,1065.049 630.084,1065.049 							"/>
							<polygon style="fill:#FFFFFF;" points="1147.031,1065.049 1161.772,1174.211 644.662,1174.211 630.084,1065.049 							"/>
							<polygon style="fill:#FFFFFF;" points="959.257,1053.109 1126.968,1053.109 1126.049,1046.302 958.341,1046.302 							"/>
							<polygon style="fill:#FFFFFF;" points="835.468,1053.109 949.035,1053.109 948.119,1046.302 834.555,1046.302 							"/>
							<polygon style="fill:none;stroke:#BBDBF3;stroke-width:2.0382;stroke-miterlimit:10;" points="661.747,1163.325 
								1141.763,1163.325 1129.965,1075.928 650.071,1075.928 							"/>
							<polygon style="fill:none;stroke:#BBDBF3;stroke-width:2.0382;stroke-miterlimit:10;" points="1100.113,1163.325 
								1141.763,1163.325 1129.965,1075.928 1088.326,1075.928 							"/>
							<polygon style="fill:none;stroke:#BBDBF3;stroke-width:2.0382;stroke-miterlimit:10;" points="859.357,1163.325 
								1100.113,1163.325 1088.326,1075.928 847.63,1075.928 							"/>
							<polygon style="fill:none;stroke:#BBDBF3;stroke-width:2.0382;stroke-miterlimit:10;" points="661.747,1163.325 
								699.739,1163.325 688.053,1075.928 650.071,1075.928 							"/>
							<polygon style="fill:none;stroke:#BBDBF3;stroke-width:2.0382;stroke-miterlimit:10;" points="699.739,1163.325 
								737.732,1163.325 726.036,1075.928 688.053,1075.928 							"/>
							<polygon style="fill:none;stroke:#BBDBF3;stroke-width:2.0382;stroke-miterlimit:10;" points="737.732,1163.325 
								785.201,1163.325 773.494,1075.928 726.036,1075.928 							"/>
							<polygon style="fill:none;stroke:#BBDBF3;stroke-width:2.0382;stroke-miterlimit:10;" points="785.201,1163.325 
								859.357,1163.325 847.63,1075.928 773.494,1075.928 							"/>
							<polygon style="fill:none;stroke:#BBDBF3;stroke-width:2.0382;stroke-miterlimit:10;" points="656.284,1122.433 
								1136.243,1122.433 1133.484,1101.99 653.553,1101.99 							"/>
							<polygon style="fill:none;stroke:#BBDBF3;stroke-width:2.0382;stroke-miterlimit:10;" points="659.016,1142.878 
								1139.003,1142.878 1136.243,1122.433 656.284,1122.433 							"/>
							<polygon style="fill:none;stroke:#BBDBF3;stroke-width:2.0382;stroke-miterlimit:10;" points="661.747,1163.325 
								1141.763,1163.325 1139.003,1142.878 659.016,1142.878 							"/>
						</g>
					</g>
				</g>
				<g>
					<g>
						<path style="fill:#BBDBF3;" d="M976.67,1527.77c7.551,61.879,63.752,112.012,125.47,112.012
							c61.718,0,105.639-50.132,98.032-112.012h-21.92c6.098,49.641-29.248,90.032-78.804,90.032s-94.796-40.391-100.858-90.032
							c-6.052-49.563,29.299-89.909,78.819-89.909l-2.688-21.943C1013.06,1415.918,969.13,1465.979,976.67,1527.77z"/>
						<path style="fill:#F9E181;" d="M1074.722,1415.918l2.688,21.943c49.52,0,94.755,40.346,100.843,89.909h21.92
							C1192.577,1465.979,1136.384,1415.918,1074.722,1415.918z"/>
						<path style="fill:#F9ECB8;" d="M1077.41,1437.861l3.002,24.509c35.981,0,68.88,29.347,73.305,65.4h24.536
							C1172.164,1478.207,1126.93,1437.861,1077.41,1437.861z"/>
						<path style="fill:#FFFFFF;" d="M998.591,1527.77c6.062,49.641,51.302,90.032,100.858,90.032s84.902-40.391,78.804-90.032
							h-24.536c4.427,36.063-21.281,65.435-57.28,65.435s-68.902-29.371-73.309-65.435c-4.406-36.053,21.304-65.4,57.285-65.4
							l-3.002-24.509C1027.89,1437.861,992.538,1478.207,998.591,1527.77z"/>
					</g>
					<g>
						<path style="fill:#BBDBF3;" d="M703.701,1527.77c7.483,61.879,63.63,112.011,125.347,112.011s105.694-50.132,98.156-112.011
							c-4.513-37.043-26.475-69.883-56.673-90.2l-10.809,17.697c24.26,16.419,41.946,42.798,45.562,72.503
							c6.043,49.641-29.348,90.032-78.903,90.032c-49.556,0-94.752-40.392-100.759-90.032
							c-5.998-49.563,29.399-89.909,78.919-89.909l-2.663-21.943C740.214,1415.918,696.229,1465.979,703.701,1527.77z"/>
						<path style="fill:#FFFFFF;" d="M725.621,1527.77c6.007,49.641,51.203,90.032,100.759,90.032
							c49.555,0,84.946-40.392,78.903-90.032c-3.616-29.705-21.302-56.084-45.562-72.503l-12.075,19.738
							c17.612,11.937,30.472,31.155,33.1,52.765c4.387,36.063-21.352,65.434-57.352,65.434s-68.87-29.371-73.238-65.434
							c-4.367-36.053,21.376-65.4,57.357-65.4l-2.975-24.509C755.02,1437.861,719.623,1478.207,725.621,1527.77z"/>
						<path style="fill:#F9E181;" d="M801.876,1415.918l2.663,21.943c19.82,0,38.971,6.461,55.182,17.406l10.809-17.697
							C850.393,1423.95,826.576,1415.918,801.876,1415.918z"/>
						<path style="fill:#F9ECB8;" d="M804.54,1437.861l2.975,24.509c14.416,0,28.357,4.716,40.133,12.635l12.075-19.738
							C843.511,1444.323,824.36,1437.861,804.54,1437.861z"/>
					</g>
					<polygon style="fill:#FFFFFF;" points="998.035,1397.934 1147.004,1397.934 1145.938,1389.255 996.975,1389.255 					"/>
					<polygon style="fill:#FFFFFF;" points="725.209,1397.934 874.178,1397.934 873.122,1389.255 724.158,1389.255 					"/>
					<g>
						<path style="fill:#BBDBF3;" d="M1503.945,1527.77c7.683,61.879,63.991,112.012,125.708,112.012
							c61.718,0,105.532-50.132,97.794-112.012h-21.92c6.204,49.641-29.056,90.032-78.612,90.032
							c-49.556,0-94.882-40.391-101.05-90.032c-6.158-49.563,29.107-89.909,78.628-89.909l-2.734-21.943
							C1540.097,1415.918,1496.274,1465.979,1503.945,1527.77z"/>
						<path style="fill:#F9E181;" d="M1601.759,1415.918l2.734,21.943c49.52,0,94.84,40.346,101.034,89.909h21.92
							C1719.72,1465.979,1663.421,1415.918,1601.759,1415.918z"/>
						<path style="fill:#F9ECB8;" d="M1604.493,1437.861l3.054,24.509c35.981,0,68.942,29.347,73.444,65.4h24.536
							C1699.333,1478.207,1654.013,1437.861,1604.493,1437.861z"/>
						<path style="fill:#FFFFFF;" d="M1525.865,1527.77c6.168,49.641,51.493,90.032,101.05,90.032
							c49.556,0,84.816-40.391,78.612-90.032h-24.536c4.503,36.063-21.141,65.435-57.141,65.435c-36,0-68.964-29.371-73.448-65.435
							c-4.483-36.053,21.165-65.4,57.145-65.4l-3.054-24.509C1554.973,1437.861,1519.707,1478.207,1525.865,1527.77z"/>
					</g>
					<g>
						<path style="fill:#BBDBF3;" d="M1230.976,1527.77c7.615,61.879,63.868,112.011,125.586,112.011
							c61.718,0,105.587-50.132,97.917-112.011c-4.592-37.043-26.623-69.883-56.865-90.2l-10.772,17.697
							c24.295,16.419,42.037,42.798,45.716,72.503c6.149,49.641-29.156,90.032-78.712,90.032
							c-49.556,0-94.838-40.392-100.951-90.032c-6.103-49.563,29.207-89.909,78.727-89.909l-2.71-21.943
							C1267.251,1415.918,1223.372,1465.979,1230.976,1527.77z"/>
						<path style="fill:#FFFFFF;" d="M1252.896,1527.77c6.113,49.641,51.395,90.032,100.951,90.032
							c49.555,0,84.86-40.392,78.712-90.032c-3.68-29.705-21.422-56.084-45.716-72.503l-12.033,19.738
							c17.638,11.937,30.538,31.155,33.213,52.765c4.464,36.063-21.213,65.434-57.213,65.434s-68.932-29.371-73.377-65.434
							c-4.443-36.053,21.237-65.4,57.218-65.4l-3.027-24.509C1282.103,1437.861,1246.792,1478.207,1252.896,1527.77z"/>
						<path style="fill:#F9E181;" d="M1328.913,1415.918l2.71,21.943c19.82,0,38.985,6.461,55.219,17.406l10.772-17.697
							C1377.447,1423.95,1353.613,1415.918,1328.913,1415.918z"/>
						<path style="fill:#F9ECB8;" d="M1331.623,1437.861l3.027,24.509c14.416,0,28.367,4.716,40.159,12.635l12.033-19.738
							C1370.608,1444.323,1351.443,1437.861,1331.623,1437.861z"/>
					</g>
					<polygon style="fill:#FFFFFF;" points="1525.033,1397.934 1674.002,1397.934 1672.918,1389.255 1523.954,1389.255 					"/>
					<polygon style="fill:#FFFFFF;" points="1252.207,1397.934 1401.176,1397.934 1400.101,1389.255 1251.138,1389.255 					"/>
				</g>
			</g>
			<path style="fill:#93ACBF;" d="M1637.602,1047.519l-3.106-23.464c-0.741-5.594-5.874-10.127-11.465-10.127h-472.298
				c-5.591,0-9.573,4.533-8.893,10.127l2.854,23.464l25.513,209.826h495.177L1637.602,1047.519z"/>
			<g>
				<path style="fill:#0775EF;" d="M1638.262,995.675h-472.298c-5.591,0-9.573,4.533-8.893,10.127l2.853,23.464l25.514,209.825
					h495.177l-27.781-209.825l-3.107-23.464C1648.987,1000.209,1643.854,995.675,1638.262,995.675z"/>
				<polygon style="fill:#FFFFFF;" points="1164.74,1023.603 1190.241,1233.113 1674.292,1233.113 1646.578,1023.603 				"/>
				<g>
					<polygon style="fill:#E5F0F8;" points="1627.368,1182.302 1224.259,1182.302 1210.99,1074.063 1613.146,1074.063 					"/>
					<polygon style="fill:#6ADB6A;" points="1600.215,1119.385 1605.975,1163.359 1240.818,1163.359 1235.409,1119.385 					"/>
					<polygon style="fill:#98EB98;" points="1270.247,1119.385 1258.102,1163.359 1240.818,1163.359 1240.799,1163.206 
						1252.828,1119.385 					"/>
					<polygon style="fill:#98EB98;" points="1300.597,1119.385 1288.48,1163.359 1271.197,1163.359 1283.254,1119.385 					"/>
					<polygon style="fill:#98EB98;" points="1331.023,1119.385 1318.936,1163.359 1301.576,1163.359 1313.604,1119.385 					"/>
					<polygon style="fill:#98EB98;" points="1361.373,1119.385 1349.315,1163.359 1331.955,1163.359 1343.953,1119.385 					"/>
					<polygon style="fill:#98EB98;" points="1391.722,1119.385 1379.77,1163.359 1362.41,1163.359 1374.379,1119.385 					"/>
					<polygon style="fill:#98EB98;" points="1422.148,1119.385 1410.149,1163.359 1392.789,1163.359 1404.729,1119.385 					"/>
					<polygon style="fill:#98EB98;" points="1452.498,1119.385 1440.604,1163.359 1423.244,1163.359 1435.155,1119.385 					"/>
					<polygon style="fill:#FFFFFF;" points="1451.706,1163.339 1605.99,1163.339 1600.231,1119.368 1446.094,1119.368 					"/>
					<polygon style="fill:#FFFFFF;" points="1490.205,1101.518 1340.881,1101.518 1339.646,1091.664 1488.937,1091.664 					"/>
				</g>
			</g>
			<path style="fill:#F74242;" d="M520.745,977.708l-0.306,0.17l-0.136-1.088c0.136,0.306,0.272,0.578,0.408,0.884L520.745,977.708z
				"/>
		</g>
		<polygon style="fill:#586773;" points="1150.837,1934.192 1354.544,1934.192 1328.897,1724.55 1125.19,1724.55 		"/>
		<polygon style="fill:#93ACBF;" points="1176.484,1934.192 1380.191,1934.192 1354.544,1724.55 1150.837,1724.55 		"/>
		<path style="fill:#586773;" d="M927.383,1989.712h541.395v-55.521H944.141c-9.255,0-16.758,7.503-16.758,16.758V1989.712z"/>
		<path style="fill:#93ACBF;" d="M1069.735,1989.712h458.82v-41.42c0-7.788-6.313-14.101-14.101-14.101h-430.619
			c-7.788,0-14.101,6.313-14.101,14.101V1989.712z"/>
	</g>
	<g>
		<path style="fill:#088CFC;" d="M1617.947,622.98l-56.327,61.361l-20.413,22.234v-17.818c-4.478,1.328-8.863,2.903-13.125,4.725
			c-43.48,18.282-75.257,59.045-80.723,107.652l-53.239-48.885l-52.097,47.866c7.072-106.633,84.367-194.026,186.058-216.446
			c4.323-0.957,8.709-1.791,13.125-2.501v-41.751l35.544,38.694L1617.947,622.98z"/>
		<path style="fill:#F9E181;" d="M1817.686,816.295c-0.062,113.766-79.889,208.88-186.614,232.411
			c-4.324,0.957-8.709,1.791-13.125,2.501v26.28l-21.833-23.778l-54.907-59.786l41.041-44.716l35.699-38.879v33.259
			c4.478-1.359,8.862-2.934,13.125-4.725c47.773-20.135,81.433-67.352,81.557-122.32l52.405,48.113L1817.686,816.295z"/>
		<path style="fill:#F74242;" d="M1848.629,770.097l-31.56,28.936v0.031l-52.035,47.742l-53.733-49.317l-29.831-27.391h22.914
			c-1.637-4.509-3.552-8.894-5.682-13.155c-21.678-43.45-66.456-73.466-118.151-73.837l55.216-60.125l-40.763-44.407
			c104.193,6.67,190.166,80.353,215.241,178.369c1.142,4.323,2.13,8.739,2.964,13.155H1848.629z"/>
		<path style="fill:#6ADB6A;" d="M1578.821,1054.296c-116.206-0.371-212.833-83.966-233.337-194.335
			c-0.803-4.354-1.483-8.739-2.069-13.155h-32.888l30.974-28.411l52.621-48.298l52.405,48.082v0.031l31.159,28.596h-27.608
			c1.019,4.478,2.316,8.863,3.829,13.155c16.615,47.588,59.539,82.916,111.234,88.505l-41.751,45.457L1578.821,1054.296z"/>
	</g>
	<polyline style="fill:none;stroke:#088CFC;stroke-width:38.2771;stroke-miterlimit:10;" points="659.016,1482.815 
		1044.07,1629.572 1575.323,1744.515 1911.354,1065.049 	"/>
	<g>
		<path style="fill:#F74242;" d="M856.322,1603.745H477.223c-6.55,0-11.845,5.316-11.845,11.866v74.192h402.811v-74.192
			C868.189,1609.061,862.873,1603.745,856.322,1603.745z M566.881,1664.563c-10.695,0-19.38-8.664-19.38-19.38
			c0-10.694,8.685-19.38,19.38-19.38s19.38,8.685,19.38,19.38C586.261,1655.899,577.576,1664.563,566.881,1664.563z
			 M766.664,1664.563c-10.694,0-19.38-8.664-19.38-19.38c0-10.694,8.686-19.38,19.38-19.38c10.695,0,19.38,8.685,19.38,19.38
			C786.044,1655.899,777.359,1664.563,766.664,1664.563z"/>
		<path style="fill:#FFFFFF;" d="M465.368,1689.804v288.131c0,6.553,5.312,11.865,11.865,11.865h379.082
			c6.553,0,11.865-5.312,11.865-11.865v-288.131H465.368z"/>
		<g>
			<rect x="495.482" y="1717.957" style="fill:#E5F0F8;" width="63.06" height="63.06"/>
			<rect x="495.482" y="1808.272" style="fill:#E5F0F8;" width="63.06" height="63.06"/>
			<rect x="495.482" y="1898.587" style="fill:#E5F0F8;" width="63.06" height="63.06"/>
		</g>
		<g>
			<rect x="588.657" y="1717.957" style="fill:#E5F0F8;" width="63.06" height="63.06"/>
			<rect x="588.657" y="1808.272" style="fill:#BBDBF3;" width="63.06" height="63.06"/>
			<rect x="588.657" y="1898.587" style="fill:#E5F0F8;" width="63.06" height="63.06"/>
		</g>
		<g>
			<rect x="681.831" y="1717.957" style="fill:#E5F0F8;" width="63.06" height="63.06"/>
			<rect x="681.831" y="1808.272" style="fill:#E5F0F8;" width="63.06" height="63.06"/>
			<rect x="681.831" y="1898.587" style="fill:#E5F0F8;" width="63.06" height="63.06"/>
		</g>
		<g>
			<rect x="775.006" y="1717.957" style="fill:#E5F0F8;" width="63.06" height="63.06"/>
			<rect x="775.006" y="1808.272" style="fill:#E5F0F8;" width="63.06" height="63.06"/>
			<rect x="775.006" y="1898.587" style="fill:#E5F0F8;" width="63.06" height="63.06"/>
		</g>
		<path style="fill:#586773;" d="M766.665,1573.054v83.705c6.27,0,11.399-3.861,11.399-8.58v-66.545
			C778.064,1576.915,772.935,1573.054,766.665,1573.054z"/>
		<path style="fill:#93ACBF;" d="M755.266,1581.634v66.545c0,4.719,5.13,8.58,11.399,8.58v-83.705
			C760.396,1573.054,755.266,1576.915,755.266,1581.634z"/>
		<path style="fill:#93ACBF;" d="M555.484,1581.634v66.545c0,4.719,5.128,8.579,11.397,8.58v-83.705
			C560.612,1573.055,555.484,1576.916,555.484,1581.634z"/>
		<path style="fill:#586773;" d="M566.883,1573.054c-0.001,0-0.002,0-0.002,0v83.705c0,0,0.001,0,0.002,0
			c6.269,0,11.399-3.861,11.399-8.58v-66.545C578.282,1576.915,573.152,1573.054,566.883,1573.054z"/>
	</g>
	<g>
		<g>
			<g>
				<path style="fill:#2EC6FC;" d="M589.695,1481.517c-0.178,10.481-8.255,19.018-18.448,19.968
					c1.986,9.552,5.541,18.819,10.714,27.428c8.141-6.274,19.839-5.591,27.165,2.017c1.925,1.97,3.352,4.275,4.321,6.689
					c2.646,6.771,1.513,14.688-3.289,20.508c5.437,3.542,11.172,6.414,17.103,8.668c2.689,1.005,5.433,1.892,8.19,2.63
					c0.541,0.171,1.111,0.301,1.646,0.437c1.36-10.191,10.151-17.924,20.632-17.746c5.299,0.116,10.064,2.188,13.604,5.553
					c3.528,3.294,5.86,7.84,6.365,12.895c9.516-1.98,18.784-5.535,27.357-10.703c-6.203-8.152-5.479-19.819,2.058-27.135
					c7.578-7.285,19.271-7.555,27.197-1.032c5.461-8.381,9.368-17.544,11.693-26.97c-10.155-1.366-17.883-10.121-17.669-20.608
					c0.178-10.481,8.255-19.019,18.448-19.969c-1.981-9.516-5.541-18.82-10.709-27.392c-7.254,5.62-17.45,5.618-24.747,0.058
					c-0.823-0.567-1.633-1.282-2.382-2.081c-7.327-7.608-7.597-19.302-1.033-27.197c-5.112-3.337-10.501-6.116-16.093-8.314
					c-2.69-1.005-5.404-1.934-8.166-2.707c-0.921-0.258-1.842-0.516-2.757-0.738c-1.325,10.185-10.116,17.919-20.602,17.705
					c-1.912-0.028-3.756-0.324-5.484-0.821c-7.854-2.354-13.673-9.246-14.478-17.591c-9.516,1.98-18.784,5.535-27.356,10.703
					c6.202,8.152,5.478,19.82-2.058,27.135c-7.578,7.285-19.271,7.555-27.197,1.032c-5.46,8.381-9.368,17.544-11.729,26.976
					C582.175,1462.24,589.873,1471.036,589.695,1481.517z M628.864,1451.563c4.804-4.646,10.406-7.952,16.367-9.921
					c7.699-2.573,15.968-2.926,23.82-1.049c2.776,0.625,5.532,1.584,8.148,2.821c4.782,2.179,9.234,5.289,13.095,9.301
					c4.824,4.996,8.21,10.879,10.141,17.066c4.785,15.198,0.952,32.491-11.304,44.293c-1.465,1.405-3.019,2.714-4.636,3.85
					c-10.123,7.431-22.686,9.856-34.409,7.38c-2.807-0.584-5.551-1.47-8.227-2.625c-5.151-2.194-9.954-5.432-14.08-9.732
					c-1.624-1.687-3.08-3.474-4.404-5.356C611.382,1490.413,613.3,1466.565,628.864,1451.563z"/>
			</g>
		</g>
		<g>
			<path style="fill:#F9ECB8;" d="M635.28,1514.417c14.99,11.248,35.395,10.246,49.164-1.319c2.26-1.917,4.327-4.089,6.193-6.575
				c1.84-2.452,3.373-5.078,4.556-7.749c7.255-16.453,2.549-36.299-12.476-47.573c-14.99-11.248-35.36-10.22-49.129,1.345
				c-2.233,1.882-4.327,4.089-6.167,6.54c-1.866,2.487-3.373,5.078-4.582,7.784C615.584,1483.324,620.29,1503.169,635.28,1514.417z"
				/>
			<path style="fill:#F9E181;" d="M622.839,1466.87l61.605,46.228c2.26-1.917,4.327-4.089,6.193-6.575
				c1.84-2.452,3.373-5.078,4.556-7.749l-61.605-46.228c-2.233,1.882-4.327,4.089-6.167,6.54
				C625.555,1461.573,624.048,1464.165,622.839,1466.87z"/>
		</g>
	</g>
	<g>
		<path style="fill:#088CFC;" d="M827.784,584.186H302.23c-6.222,0-11.266,5.907-11.266,13.193v30.546v271.76H839.05v-271.76
			v-30.546C839.05,590.093,834.006,584.186,827.784,584.186z"/>
		<rect x="297.086" y="620.556" style="fill:#FFFFFF;" width="535.842" height="271.42"/>
		<g>
			
				<line style="fill:none;stroke:#BBDBF3;stroke-width:2.146;stroke-linecap:round;stroke-linejoin:round;stroke-miterlimit:10;stroke-dasharray:12.8274;" x1="321.597" y1="851.659" x2="803.686" y2="851.659"/>
			
				<line style="fill:none;stroke:#BBDBF3;stroke-width:2.146;stroke-linecap:round;stroke-linejoin:round;stroke-miterlimit:10;stroke-dasharray:12.8274;" x1="321.597" y1="820.353" x2="803.686" y2="820.353"/>
			
				<line style="fill:none;stroke:#BBDBF3;stroke-width:2.146;stroke-linecap:round;stroke-linejoin:round;stroke-miterlimit:10;stroke-dasharray:12.8274;" x1="803.686" y1="789.047" x2="321.597" y2="789.047"/>
			
				<line style="fill:none;stroke:#BBDBF3;stroke-width:2.146;stroke-linecap:round;stroke-linejoin:round;stroke-miterlimit:10;stroke-dasharray:12.8274;" x1="321.597" y1="757.741" x2="803.686" y2="757.741"/>
			
				<line style="fill:none;stroke:#BBDBF3;stroke-width:2.146;stroke-linecap:round;stroke-linejoin:round;stroke-miterlimit:10;stroke-dasharray:12.8274;" x1="321.597" y1="726.435" x2="803.686" y2="726.435"/>
			
				<line style="fill:none;stroke:#BBDBF3;stroke-width:2.146;stroke-linecap:round;stroke-linejoin:round;stroke-miterlimit:10;stroke-dasharray:12.8274;" x1="321.597" y1="695.129" x2="803.686" y2="695.129"/>
			
				<line style="fill:none;stroke:#BBDBF3;stroke-width:2.146;stroke-linecap:round;stroke-linejoin:round;stroke-miterlimit:10;stroke-dasharray:12.8274;" x1="321.597" y1="663.823" x2="803.686" y2="663.823"/>
			
				<path style="fill:none;stroke:#2EC6FC;stroke-width:4.292;stroke-linecap:round;stroke-linejoin:round;stroke-miterlimit:10;" d="
				M322.308,709.819c0,0,22.954-11.256,40.641,2.68c17.687,13.936,38.59,47.695,110.41,44.954s109.615,19.472,155.432,43.227
				c57.349,29.733,100.763-14.123,118.45-53.028c17.687-38.905,56.445-37.297,56.445-37.297"/>
			
				<path style="fill:none;stroke:#F74242;stroke-width:4.292;stroke-linecap:round;stroke-linejoin:round;stroke-miterlimit:10;" d="
				M322.308,839.659c0,0,24.026-39.919,82.447-29.612c58.421,10.307,120.594,10.307,165.616-20.999
				c27.642-19.221,64.317-65.608,130.777-25.63c66.461,39.978,88.771,38.59,102.538,36.982"/>
			
				<ellipse transform="matrix(0.153 -0.9882 0.9882 0.153 -467.5795 1073.9744)" style="fill:#FFFFFF;stroke:#F74242;stroke-width:4.292;stroke-linecap:round;stroke-linejoin:round;stroke-miterlimit:10;" cx="392.731" cy="809.757" rx="12.829" ry="12.83"/>
			
				<circle style="fill:#FFFFFF;stroke:#F74242;stroke-width:4.292;stroke-linecap:round;stroke-linejoin:round;stroke-miterlimit:10;" cx="508.56" cy="813.509" r="12.829"/>
			
				<circle style="fill:#FFFFFF;stroke:#F74242;stroke-width:4.292;stroke-linecap:round;stroke-linejoin:round;stroke-miterlimit:10;" cx="649.158" cy="747.652" r="12.83"/>
			
				<circle style="fill:#FFFFFF;stroke:#2EC6FC;stroke-width:4.292;stroke-linecap:round;stroke-linejoin:round;stroke-miterlimit:10;" cx="451.92" cy="756.266" r="12.83"/>
			
				<circle style="fill:#FFFFFF;stroke:#2EC6FC;stroke-width:4.292;stroke-linecap:round;stroke-linejoin:round;stroke-miterlimit:10;" cx="665.238" cy="810.473" r="12.829"/>
			
				<ellipse transform="matrix(0.1608 -0.987 0.987 0.1608 -55.9149 1366.5195)" style="fill:#FFFFFF;stroke:#2EC6FC;stroke-width:4.292;stroke-linecap:round;stroke-linejoin:round;stroke-miterlimit:10;" cx="775.648" cy="716.141" rx="12.829" ry="12.83"/>
			
				<circle style="fill:#FFFFFF;stroke:#F74242;stroke-width:4.292;stroke-linecap:round;stroke-linejoin:round;stroke-miterlimit:10;" cx="769.752" cy="796.928" r="12.83"/>
			
				<polyline style="fill:none;stroke:#BBDBF3;stroke-width:4.292;stroke-linecap:round;stroke-linejoin:round;stroke-miterlimit:10;" points="
				322.308,631.334 322.308,881.198 808.417,881.198 			"/>
		</g>
	</g>
	<g>
		<g>
			<g>
				<path style="fill:#2EC6FC;" d="M1009.508,1688.049c8.851,5.616,11.925,16.96,7.422,26.153
					c9.186,3.286,18.948,5.084,28.991,5.157c-1.109-10.218,5.572-19.844,15.884-22.129c2.684-0.616,5.396-0.632,7.961-0.2
					c7.157,1.272,13.323,6.367,15.785,13.498c5.857-2.793,11.298-6.19,16.313-10.076c2.26-1.771,4.448-3.65,6.515-5.618
					c0.428-0.372,0.836-0.791,1.231-1.177c-7.987-6.474-10.003-18.008-4.387-26.859c2.862-4.462,7.114-7.448,11.831-8.713
					c4.65-1.293,9.745-0.913,14.322,1.292c3.272-9.153,5.071-18.915,5.13-28.925c-10.191,1.043-19.769-5.658-22.082-15.904
					c-2.266-10.264,3.6-20.384,13.299-23.746c-4.305-9.03-10.086-17.141-16.918-24.039c-6.461,7.953-17.961,9.983-26.797,4.333
					c-8.851-5.616-11.925-16.96-7.422-26.153c-9.153-3.271-18.948-5.084-28.958-5.143c1.014,9.12-4.304,17.82-12.852,21.148
					c-0.913,0.407-1.946,0.725-3.018,0.948c-10.312,2.286-20.432-3.581-23.747-13.298c-5.512,2.622-10.694,5.772-15.485,9.399
					c-2.26,1.771-4.467,3.603-6.568,5.557c-0.7,0.651-1.401,1.303-2.067,1.968c8,6.441,10.017,17.974,4.367,26.812
					c-1.021,1.617-2.234,3.036-3.56,4.252c-6.103,5.475-15.019,6.848-22.559,3.183c-3.272,9.153-5.07,18.915-5.129,28.925
					c10.19-1.042,19.769,5.658,22.082,15.904c2.266,10.265-3.6,20.384-13.299,23.747c4.305,9.029,10.087,17.141,16.904,24.073
					C989.138,1684.415,1000.657,1682.432,1009.508,1688.049z M1004.369,1639.008c-1.46-6.522-1.36-13.026,0.068-19.139
					c1.818-7.912,5.828-15.152,11.524-20.873c1.981-2.043,4.235-3.895,6.655-5.482c4.352-2.945,9.328-5.122,14.764-6.326
					c6.778-1.512,13.564-1.334,19.85,0.244c15.464,3.841,28.222,16.127,31.903,32.739c0.435,1.983,0.742,3.991,0.868,5.963
					c1.063,12.512-3.418,24.497-11.642,33.21c-1.961,2.091-4.149,3.97-6.529,5.652c-4.557,3.252-9.825,5.661-15.646,6.941
					c-2.286,0.506-4.57,0.817-6.866,0.965C1028.407,1674.181,1009.056,1660.111,1004.369,1639.008z"/>
			</g>
		</g>
		<g>
			<path style="fill:#F9ECB8;" d="M1061.35,1666.303c17.413-6.927,27.197-24.862,24.507-42.641
				c-0.458-2.928-1.233-5.824-2.382-8.713c-1.133-2.848-2.575-5.526-4.237-7.928c-10.257-14.769-29.646-21.1-47.1-14.157
				c-17.414,6.927-27.156,24.845-24.466,42.625c0.442,2.887,1.233,5.824,2.366,8.672c1.149,2.889,2.575,5.526,4.254,7.968
				C1024.548,1666.899,1043.936,1673.229,1061.35,1666.303z"/>
			<path style="fill:#F9E181;" d="M1014.29,1652.13l71.567-28.468c-0.458-2.928-1.233-5.824-2.382-8.713
				c-1.133-2.848-2.575-5.526-4.237-7.928l-71.567,28.468c0.442,2.887,1.233,5.824,2.366,8.672
				C1011.186,1647.05,1012.612,1649.687,1014.29,1652.13z"/>
		</g>
	</g>
	<g>
		<g>
			<g>
				<path style="fill:#2EC6FC;" d="M1513.709,1776.3c4.823,9.307,1.772,20.657-6.745,26.335c6.286,7.462,13.817,13.927,22.46,19.044
					c4.183-9.389,14.8-14.346,24.861-11.132c2.63,0.818,4.981,2.169,6.98,3.833c5.545,4.7,8.31,12.205,6.85,19.608
					c6.467,0.533,12.878,0.335,19.168-0.499c2.844-0.393,5.68-0.916,8.457-1.577c0.557-0.106,1.121-0.263,1.656-0.398
					c-3.645-9.614,0.416-20.595,9.723-25.418c4.718-2.416,9.895-2.857,14.608-1.577c4.669,1.222,8.881,4.114,11.727,8.322
					c7.433-6.264,13.899-13.795,18.987-22.416c-9.331-4.226-14.238-14.836-11.082-24.854c3.206-10.01,13.367-15.804,23.441-13.83
					c0.823-9.969-0.092-19.888-2.525-29.287c-9.585,3.623-20.545-0.409-25.339-9.738c-4.823-9.307-1.772-20.657,6.745-26.336
					c-6.264-7.432-13.817-13.927-22.438-19.014c-3.713,8.392-12.686,13.234-21.747,11.809c-0.993-0.108-2.046-0.352-3.085-0.699
					c-10.062-3.213-15.855-13.374-13.831-23.44c-6.083-0.508-12.146-0.392-18.111,0.331c-2.845,0.393-5.673,0.866-8.472,1.498
					c-0.933,0.21-1.866,0.421-2.777,0.661c3.673,9.592-0.387,20.573-9.716,25.368c-1.696,0.883-3.458,1.499-5.216,1.883
					c-8.029,1.661-16.425-1.639-21.098-8.6c-7.433,6.264-13.899,13.795-18.986,22.416c9.331,4.227,14.237,14.837,11.081,24.854
					c-3.206,10.011-13.367,15.804-23.441,13.83c-0.823,9.969,0.093,19.888,2.497,29.309
					C1497.934,1762.911,1508.886,1766.993,1513.709,1776.3z M1533.943,1731.333c2.02-6.371,5.379-11.942,9.688-16.506
					c5.552-5.922,12.661-10.161,20.461-12.24c2.74-0.769,5.62-1.235,8.51-1.389c5.243-0.355,10.639,0.267,15.942,1.962
					c6.618,2.104,12.393,5.672,17.032,10.198c11.431,11.1,16.275,28.137,11.098,44.345c-0.621,1.932-1.367,3.822-2.25,5.59
					c-5.376,11.348-15.279,19.451-26.771,22.842c-2.747,0.82-5.583,1.343-8.486,1.599c-5.575,0.517-11.34-0.051-17.013-1.874
					c-2.23-0.713-4.361-1.594-6.419-2.62C1537.02,1773.824,1527.376,1751.929,1533.943,1731.333z"/>
			</g>
		</g>
		<g>
			<path style="fill:#F9ECB8;" d="M1569.453,1783.591c18.534,2.775,36.013-7.801,42.634-24.52c1.077-2.761,1.865-5.653,2.325-8.728
				c0.454-3.031,0.555-6.071,0.327-8.983c-1.433-17.925-15.004-33.151-33.581-35.933c-18.534-2.776-35.969,7.808-42.591,24.526
				c-1.071,2.717-1.865,5.653-2.319,8.685c-0.46,3.075-0.555,6.071-0.333,9.026
				C1537.348,1765.59,1550.919,1780.816,1569.453,1783.591z"/>
			<path style="fill:#F9E181;" d="M1535.915,1747.665l76.172,11.406c1.077-2.761,1.865-5.653,2.325-8.728
				c0.454-3.031,0.555-6.071,0.327-8.983l-76.172-11.406c-1.071,2.717-1.865,5.653-2.319,8.685
				C1535.788,1741.713,1535.693,1744.71,1535.915,1747.665z"/>
		</g>
	</g>
	<g>
		<g>
			<g>
				<path style="fill:#2EC6FC;" d="M1694.15,1366.221c-0.178,10.481-8.255,19.018-18.448,19.968
					c1.986,9.552,5.541,18.819,10.714,27.428c8.141-6.274,19.839-5.591,27.165,2.017c1.925,1.97,3.353,4.275,4.321,6.689
					c2.646,6.771,1.513,14.688-3.289,20.508c5.437,3.542,11.172,6.414,17.103,8.668c2.689,1.005,5.433,1.892,8.19,2.63
					c0.541,0.171,1.111,0.301,1.646,0.437c1.361-10.191,10.151-17.924,20.632-17.746c5.3,0.116,10.064,2.188,13.604,5.553
					c3.528,3.294,5.86,7.84,6.365,12.895c9.516-1.98,18.784-5.535,27.357-10.703c-6.203-8.152-5.479-19.819,2.058-27.135
					c7.578-7.285,19.271-7.556,27.197-1.032c5.461-8.381,9.368-17.544,11.693-26.97c-10.155-1.366-17.883-10.121-17.669-20.608
					c0.178-10.481,8.255-19.019,18.448-19.969c-1.981-9.516-5.541-18.819-10.709-27.392c-7.254,5.62-17.45,5.618-24.747,0.058
					c-0.823-0.567-1.633-1.282-2.382-2.081c-7.327-7.608-7.597-19.302-1.033-27.197c-5.112-3.337-10.501-6.116-16.093-8.314
					c-2.69-1.005-5.404-1.934-8.166-2.707c-0.921-0.258-1.842-0.516-2.757-0.738c-1.325,10.185-10.116,17.919-20.603,17.705
					c-1.912-0.028-3.755-0.324-5.484-0.821c-7.854-2.353-13.674-9.246-14.478-17.591c-9.517,1.98-18.784,5.535-27.357,10.703
					c6.202,8.152,5.478,19.82-2.058,27.135c-7.578,7.285-19.271,7.556-27.197,1.032c-5.46,8.381-9.368,17.544-11.729,26.976
					C1686.631,1346.944,1694.328,1355.74,1694.15,1366.221z M1733.319,1336.268c4.804-4.646,10.406-7.952,16.367-9.921
					c7.699-2.573,15.968-2.926,23.82-1.049c2.776,0.625,5.532,1.583,8.148,2.821c4.782,2.179,9.234,5.289,13.095,9.301
					c4.824,4.996,8.21,10.879,10.141,17.066c4.785,15.198,0.952,32.491-11.304,44.293c-1.465,1.405-3.018,2.714-4.636,3.85
					c-10.123,7.431-22.686,9.856-34.409,7.38c-2.807-0.584-5.551-1.47-8.227-2.625c-5.151-2.194-9.954-5.432-14.08-9.732
					c-1.624-1.687-3.08-3.474-4.403-5.356C1715.838,1375.118,1717.755,1351.27,1733.319,1336.268z"/>
			</g>
		</g>
		<g>
			<path style="fill:#F9ECB8;" d="M1739.736,1399.122c14.99,11.248,35.395,10.246,49.164-1.319c2.26-1.917,4.327-4.089,6.193-6.575
				c1.84-2.452,3.373-5.078,4.556-7.749c7.255-16.453,2.549-36.299-12.476-47.573c-14.99-11.248-35.36-10.22-49.129,1.345
				c-2.233,1.882-4.327,4.089-6.167,6.54c-1.866,2.487-3.373,5.078-4.582,7.784
				C1720.039,1368.028,1724.746,1387.874,1739.736,1399.122z"/>
			<path style="fill:#F9E181;" d="M1727.295,1351.575l61.605,46.228c2.26-1.917,4.327-4.089,6.193-6.575
				c1.84-2.452,3.373-5.078,4.556-7.749l-61.605-46.228c-2.233,1.882-4.327,4.089-6.167,6.54
				C1730.011,1346.278,1728.504,1348.87,1727.295,1351.575z"/>
		</g>
	</g>
	<g>
		<polygon style="fill:#FDAE97;" points="1776.451,1479.198 1821.726,1478.429 1819.355,1430.889 1818.222,1408.155 
			1818.158,1407.023 1782.733,1392.131 1781.579,1408.198 1780.724,1419.907 		"/>
		<path style="fill:#088CFC;" d="M1864.994,1626.355l19.039,157.605c0.598,3.984,0.579,8.125-0.234,12.306
			c-3.825,19.679-22.879,32.531-42.558,28.706c-19.679-3.825-27.21-19.02-30.745-41.616
			c-6.785-43.376-30.482-173.518-30.482-173.518L1864.994,1626.355z"/>
		<polygon style="fill:#088CFC;" points="1741.543,1618.422 1811.48,1623.115 1811.132,1700.597 1802.831,1712.873 
			1795.136,1787.569 1724.343,1781.91 		"/>
		<path style="fill:#F74242;" d="M1922.526,1583.234l-0.237,0.158c-10.433,6.942-24.65,4.086-31.592-6.347l-56.566-85.01
			c-6.942-10.433-4.086-24.65,6.347-31.592l0.237-0.158c10.433-6.942,24.65-4.086,31.592,6.347l56.566,85.01
			C1935.816,1562.075,1932.959,1576.292,1922.526,1583.234z"/>
		<polygon style="fill:#E89780;" points="1615.743,1476.48 1639.762,1499.987 1664.028,1485.214 1648.416,1460.905 
			1616.779,1461.927 		"/>
		<path style="fill:#F74242;" d="M1709.009,1587.88c-11.305,6.574-25.371,3.777-31.144-6.216l-28.57-52.211l-10.077-18.507
			l-10.546-19.263l17.538-12.121l12.452-8.599l1.202-0.848l12.798,18.991l11.755,17.394l34.586,51.221
			C1724.775,1567.714,1720.314,1581.305,1709.009,1587.88z"/>
		<path style="fill:#FDAE97;" d="M1798.501,1459.317c-16.612,0.366-23.687-7.891-25.821-11.135l6.212-2.807l41.081-2.067l4.935,1.58
			C1822.825,1448.766,1815.473,1458.943,1798.501,1459.317z"/>
		<path style="fill:#F74242;" d="M1739.547,1562.673l-0.983,67.936h127.882l-1.516-171.275l-43.884-15.857
			c-0.492,0.901-1.024,1.844-1.68,2.827l-0.164,0.205c-2.377,3.032-6.925,5.901-19.668,6.187
			c-10.612,0.246-15.816-1.229-18.766-3.155l-0.041-0.041c-1.598-1.065-2.54-2.336-3.278-3.483l-41.426,9.137l2.786,86.457
			L1739.547,1562.673z"/>
		<path style="fill:#088CFC;" d="M1897.292,1943.929l-65.784-0.045l-19.83-153.087c-2.07-19.95,12.392-37.814,32.316-39.914
			c19.95-2.07,37.786,12.39,39.887,32.314c0.189,1.732,0.211,3.424,0.148,5.138l11.452,134.367L1897.292,1943.929L1897.292,1943.929
			z"/>
		<path style="fill:#F74242;" d="M1686.091,1588.88L1686.091,1588.88c11.339,5.78,25.344,1.231,31.124-10.107l46.446-91.121
			c5.78-11.339,1.231-25.344-10.108-31.124l0,0c-11.339-5.779-25.344-1.231-31.124,10.108l-46.446,91.121
			C1670.204,1569.095,1674.752,1583.1,1686.091,1588.88z"/>
		<path style="fill:#D6EAFF;" d="M1780.768,1449.542l18.766,29.666l19.668-32.698c-2.377,3.032-6.925,5.901-19.668,6.187
			C1788.922,1452.943,1783.718,1451.468,1780.768,1449.542z"/>
		<g>
			<path style="fill:#93ACBF;" d="M1998.268,1786.427c-9.742-5.601-32.592-15.751-44.804-21.738
				c-17.7-8.678-28.337-42.086,1.325-68.323c24.078-21.298,61.502,8.108,75.241,18.11c2.163,1.575,5.125-0.232,4.757-2.882
				c-1.051-7.577-5.519-22.028-19.134-36.344c-24.945-26.228-47.739-31.108-65.505-28.938c-3.765,0.46-7.647,0.419-11.449,0.059
				c-14.842-1.405-28.797-7.709-40.241-17.262l-270.764-226.025c-36.258-33.593-16.562-66.485-46.775-96.695
				c-22.419-22.417-64.676-20.809-82.439-19.13c-2.705,0.256-3.505,3.818-1.149,5.172c9.742,5.601,26.6,11.474,38.813,17.462
				c17.7,8.678,25.8,46.62-3.862,72.856c-24.078,21.297-56.38-4.526-70.119-14.528c-2.163-1.575-5.125,0.232-4.757,2.882
				c1.051,7.577,5.258,20.425,18.874,34.741c24.946,26.228,51.407,28.872,69.173,26.702c7.531-0.92,15.643,0.863,22.667,3.334
				c9.435,3.319,18.098,8.522,25.776,14.932l279.278,233.133c5.904,4.928,10.638,11.146,13.657,18.219
				c10.397,24.362,1.762,47.518,24.009,69.763c22.419,22.417,68.519,21.352,86.282,19.673
				C1999.824,1791.344,2000.624,1787.782,1998.268,1786.427z"/>
			<path style="fill:#586773;" d="M1892.314,1672.762l-301.523-251.702c-4.312-3.6-4.895-10.073-1.295-14.385l0,0
				c3.6-4.312,10.073-4.895,14.385-1.296l301.523,251.702c4.312,3.6,4.895,10.073,1.296,14.385v0
				C1903.099,1675.779,1896.626,1676.362,1892.314,1672.762z"/>
		</g>
		<path style="fill:#FDAE97;" d="M1763.287,1594.265c0.271,1.993,12.193,4.554,21.043,3.612c7.501-0.79,24.597-4.473,29.629-5.594
			l-1.886-23.921c-3.024-0.148-6.352-0.421-9.178-1.01c-6.966-1.396-26.335-3.034-26.548-0.22
			c-0.233,2.785,12.833,6.584,11.778,7.685c-1.055,1.1-11.283,0.542-15.609-0.044c-4.354-0.566-13.447-3.312-15.222-1.48
			c-1.804,1.852,0.164,5.074,0.164,5.074s-3.359-1.452-3.881,0.811s4.138,5.828,4.138,5.828s-1.757-1.014-1.715,1.617
			c0.062,2.659,8.802,5.571,8.802,5.571S1762.967,1592.263,1763.287,1594.265z"/>
		<path style="fill:#088CFC;" d="M1795.389,1784.816l-16.893,159.113h-64.628l10.363-159.985c-0.084-1.686,0.393-3.569,0.534-5.312
			c1.771-19.982,17.649-34.905,37.631-33.163C1782.349,1747.241,1797.131,1764.834,1795.389,1784.816z"/>
		<path style="fill:#F74242;" d="M1808.117,1560.666l22.877-4.606l20.714-4.144l55.261-11.114
			c11.439-1.523,22.227,7.812,23.988,20.782c1.733,12.964-6.215,24.838-17.661,26.388l-57.685,4.257l-20.961,1.57l-21.663,1.604
			L1808.117,1560.666z"/>
		<polygon style="fill:#EA9D85;" points="1779.476,1437.233 1804.926,1418.676 1780.724,1419.907 		"/>
		<path style="fill:#FDAE97;" d="M1783.257,1365.768c0,0-4.032,14.671-6.892,25.079l-2.364,8.602
			c-1.868,6.796-2.733,17.402,4.275,21.836c6.983,4.427,18.366,4.13,27.874-1.807c9.515-5.962,35.636-37.409,16.686-56.885
			C1803.861,1343.109,1784.749,1362.402,1783.257,1365.768z"/>
		<path style="fill:#322A28;" d="M1818.689,1417.531c0,0-12.294-18.902-5.595-29.664c6.699-10.762,0-13.465-4.701-12.642
			c-4.701,0.823-12.876,0.588-16.193-0.705c0,0,9.964,0.235,14.195-2.233c0,0-19.641,1.609-23.924-3.661l-1.053,3.832
			c0,0-7.078-16.669,3.565-20.547c10.643-3.878,15.065,0.515,15.065,0.515s-3.386-6.817,1.48-8.109
			c4.866-1.293,9.332,8.58,9.332,8.58s6.817-8.462,13.868-0.118c7.052,8.344,4.113,15.984,4.113,15.984s8.227,6.817,4.231,17.512
			C1829.078,1396.967,1819.583,1407.068,1818.689,1417.531z"/>
		<g>
			<path style="fill:#FDAE97;" d="M1812.915,1403.822c-3.795,3.426-5.308,6.156-2.618,9.135c2.69,2.98,8.295,3.813,12.09,0.387
				c3.795-3.426,4.692-8.619,2.002-11.598C1821.699,1398.766,1816.71,1400.396,1812.915,1403.822z"/>
		</g>
		<path style="fill:#332B27;" d="M1798.329,1390.437c-0.433,1.577-1.611,2.627-2.631,2.347c-1.02-0.28-1.495-1.786-1.062-3.362
			c0.433-1.576,1.611-2.627,2.631-2.347C1798.287,1387.356,1798.762,1388.861,1798.329,1390.437z"/>
		<path style="fill:#332B27;" d="M1779.26,1385.197c-0.433,1.577,0.042,3.082,1.062,3.362c1.02,0.28,2.198-0.771,2.631-2.347
			c0.433-1.576-0.042-3.082-1.062-3.362C1780.872,1382.569,1779.694,1383.62,1779.26,1385.197z"/>
		<path style="fill:#E89780;" d="M1792.533,1400.04c0.087,1.582,2.707,2.724,5.852,2.551s5.624-1.596,5.537-3.177
			c-0.087-1.582-2.707-2.724-5.852-2.551C1794.925,1397.036,1792.446,1398.459,1792.533,1400.04z"/>
		<path style="fill:#E89780;" d="M1776.365,1390.847l-1.537,5.593c2.281,0.924,4.392,0.802,5.056-0.337
			C1780.634,1394.745,1779.067,1392.399,1776.365,1390.847z"/>
		
			<path style="fill:none;stroke:#EA9D85;stroke-width:1.1811;stroke-linecap:round;stroke-linejoin:round;stroke-miterlimit:10;" d="
			M1819.522,1409.375c-2.441-1.194-4.692-1.289-4.692-1.289c3.474-3.664,6.688-2.243,6.688-2.243"/>
		<path style="fill:none;stroke:#332B27;stroke-width:0.7555;stroke-miterlimit:10;" d="M1792.223,1408.016
			c0,0-4.21,4.587-10.804,1.427"/>
		<path style="fill:none;stroke:#332B27;stroke-width:0.7555;stroke-miterlimit:10;" d="M1790.187,1389.373l-6.246,9.111
			c-0.633,0.923-0.556,2.158,0.187,2.995l1.15,1.296l1.178,1.328"/>
		<path style="fill:none;stroke:#332B27;stroke-width:0.7555;stroke-miterlimit:10;" d="M1801.529,1387.867
			c0,0-2.458-4.264-6.698-4.272"/>
		<path style="fill:none;stroke:#332B27;stroke-width:0.7555;stroke-miterlimit:10;" d="M1778.892,1379.831
			c0,0,3.399-1.823,6.632,0.92"/>
		<polygon style="fill:#FFFFFF;" points="1778.994,1443.924 1799.53,1452.712 1788.738,1465.821 1776.451,1446.448 		"/>
		<polygon style="fill:#FFFFFF;" points="1819.908,1441.98 1799.53,1452.712 1809.249,1465.269 1821.726,1443.745 		"/>
		<polygon style="fill:#FDAE97;" points="1769.17,1968.796 1770.902,1943.929 1722.481,1943.929 1720.59,1968.796 		"/>
		<polygon style="fill:#EA9D85;" points="1721.625,1955.195 1770.902,1943.929 1722.481,1943.929 		"/>
		<polygon style="fill:#FDAE97;" points="1841.043,1968.796 1839.186,1943.889 1888.782,1943.929 1889.623,1968.796 		"/>
		<path style="fill:#FDAE97;" d="M1617.118,1457.627l7.035,0.172c1.89,0.046,3.531,1.362,4.109,3.296l4.423,14.796
			c0.926,3.099-1.202,6.339-4.233,6.444l-7.642,0.264c-2.062,0.071-3.88-1.376-4.416-3.516l-3.815-15.232
			C1611.787,1460.691,1614.076,1457.552,1617.118,1457.627z"/>
		<polygon style="fill:#EA9D85;" points="1840.221,1957.781 1888.782,1943.929 1839.186,1943.889 		"/>
		<path style="fill:#322A28;" d="M1827.315,1368.056c0,0,5.759-3.056,11.518,1.763c0,0-9.872-2.821-11.518,0.94
			C1825.67,1374.52,1827.315,1368.056,1827.315,1368.056z"/>
		
			<polyline style="fill:none;stroke:#FFFFFF;stroke-width:0.6146;stroke-linecap:round;stroke-linejoin:round;stroke-miterlimit:10;" points="
			1824.131,1448.764 1799.53,1488.334 1775.256,1451.318 		"/>
		
			<line style="fill:none;stroke:#322A28;stroke-width:0.6146;stroke-linecap:round;stroke-linejoin:round;stroke-miterlimit:10;" x1="1871.244" y1="1547.81" x2="1880.621" y2="1546.1"/>
		
			<line style="fill:none;stroke:#322A28;stroke-width:0.6146;stroke-linecap:round;stroke-linejoin:round;stroke-miterlimit:10;" x1="1865.638" y1="1539.386" x2="1859.91" y2="1530.776"/>
		<path style="fill:#322A28;" d="M1696.728,1989.712h71.501l0.123-2.909l0.878-19.271h-48.655c-6.023,0-11.596,3.537-15.857,7.224
			c-3.524,3.155-6.146,7.294-7.376,12.047C1697.056,1987.746,1696.851,1988.729,1696.728,1989.712z"/>
		<path style="fill:#FFF1F0;" d="M1696.728,1989.712h71.501l0.123-2.909h-71.009
			C1697.056,1987.746,1696.851,1988.729,1696.728,1989.712z"/>
		<g>
			
				<path style="fill:none;stroke:#FFF1F0;stroke-width:0.9355;stroke-linecap:round;stroke-linejoin:round;stroke-miterlimit:10;" d="
				M1719.112,1971.497c0,0,6.18-10.847,10.343-6.559C1733.616,1969.227,1719.112,1971.497,1719.112,1971.497"/>
			
				<path style="fill:none;stroke:#FFF1F0;stroke-width:0.9355;stroke-linecap:round;stroke-linejoin:round;stroke-miterlimit:10;" d="
				M1721.287,1973.657l-2.176-2.16c0,0-6.18-10.847-10.343-6.559c-4.162,4.288,10.343,6.559,10.343,6.559"/>
			
				<line style="fill:none;stroke:#FFF1F0;stroke-width:0.9355;stroke-linecap:round;stroke-linejoin:round;stroke-miterlimit:10;" x1="1717.451" y1="1973.657" x2="1719.112" y2="1971.497"/>
		</g>
		<path style="fill:#322A28;" d="M1913.113,1989.712h-71.501l-0.123-2.909l-0.878-19.271h48.654c6.024,0,11.596,3.537,15.857,7.224
			c3.524,3.155,6.146,7.294,7.376,12.047C1912.785,1987.746,1912.99,1988.729,1913.113,1989.712z"/>
		<path style="fill:#FFF1F0;" d="M1913.113,1989.712h-71.501l-0.123-2.909h71.009
			C1912.785,1987.746,1912.99,1988.729,1913.113,1989.712z"/>
		<g>
			
				<path style="fill:none;stroke:#FFF1F0;stroke-width:0.9355;stroke-linecap:round;stroke-linejoin:round;stroke-miterlimit:10;" d="
				M1890.73,1972.154c0,0-6.18-10.847-10.343-6.559C1876.225,1969.883,1890.73,1972.154,1890.73,1972.154"/>
			
				<path style="fill:none;stroke:#FFF1F0;stroke-width:0.9355;stroke-linecap:round;stroke-linejoin:round;stroke-miterlimit:10;" d="
				M1888.554,1974.314l2.176-2.16c0,0,6.18-10.847,10.343-6.559s-10.343,6.559-10.343,6.559"/>
			
				<line style="fill:none;stroke:#FFF1F0;stroke-width:0.9355;stroke-linecap:round;stroke-linejoin:round;stroke-miterlimit:10;" x1="1892.391" y1="1974.314" x2="1890.73" y2="1972.154"/>
		</g>
		<polyline style="fill:none;stroke:#FFFFFF;stroke-width:1.3549;stroke-miterlimit:10;" points="1801.056,1730.112 
			1798.73,1711.062 1787.038,1702.996 1777.539,1664.295 		"/>
		
			<line style="fill:none;stroke:#FFFFFF;stroke-width:1.3549;stroke-miterlimit:10;" x1="1720.59" y1="1924.433" x2="1766.578" y2="1924.433"/>
		
			<line style="fill:none;stroke:#FFFFFF;stroke-width:1.3549;stroke-miterlimit:10;" x1="1843.635" y1="1924.433" x2="1889.623" y2="1924.433"/>
	</g>
	<g>
		<path style="fill:#0775EF;" d="M754.469,1102.884H323.424c-5.103,0-9.24,5.326-9.24,11.895v27.541v245.027h449.525V1142.32
			v-27.541C763.709,1108.21,759.572,1102.884,754.469,1102.884z"/>
		<rect x="319.205" y="1135.676" style="fill:#FFFFFF;" width="439.482" height="244.721"/>
		<g>
			<g>
				<rect x="351.136" y="1210.272" style="fill:#BBDBF3;" width="15.009" height="162.595"/>
				<rect x="369.043" y="1287.902" style="fill:#F9ECB8;" width="15.009" height="84.965"/>
				<rect x="405.351" y="1232.28" style="fill:#BBDBF3;" width="15.009" height="140.587"/>
				<rect x="423.258" y="1186.402" style="fill:#F9ECB8;" width="15.009" height="186.465"/>
				<rect x="459.566" y="1286.276" style="fill:#BBDBF3;" width="15.009" height="86.591"/>
				<rect x="477.473" y="1226.865" style="fill:#F9ECB8;" width="15.009" height="146.002"/>
				<rect x="513.78" y="1200.189" style="fill:#BBDBF3;" width="15.009" height="172.678"/>
				<rect x="531.688" y="1223.42" style="fill:#F9ECB8;" width="15.009" height="149.447"/>
				<rect x="567.995" y="1323.583" style="fill:#BBDBF3;" width="15.009" height="49.285"/>
				<rect x="622.21" y="1284.418" style="fill:#BBDBF3;" width="15.009" height="88.449"/>
				<rect x="585.903" y="1244.755" style="fill:#F9ECB8;" width="15.009" height="128.113"/>
				<rect x="640.117" y="1336.596" style="fill:#F9ECB8;" width="15.009" height="36.271"/>
				<rect x="676.425" y="1189.976" style="fill:#BBDBF3;" width="15.009" height="182.891"/>
				<rect x="694.332" y="1216.978" style="fill:#F9ECB8;" width="15.009" height="155.889"/>
				<polyline style="fill:none;stroke:#BBDBF3;stroke-width:2.6854;stroke-miterlimit:10;" points="328.996,1143.205 
					328.996,1372.867 748.897,1372.867 				"/>
			</g>
		</g>
	</g>
	<path style="fill:#FFFFFF;" d="M984.196,626.427h-21.562v-29.794c0-15.861-12.903-28.765-28.765-28.765
		c-15.861,0-28.766,12.904-28.766,28.765v29.794h-21.562c-1.431,0-2.589,1.158-2.589,2.58v79.094c0,1.431,1.158,2.58,2.589,2.58
		h50.332h50.323c1.431,0,2.589-1.149,2.589-2.58v-79.094C986.785,627.584,985.627,626.427,984.196,626.427z M914.22,596.633
		c0-10.834,8.815-19.648,19.649-19.648c10.834,0,19.649,8.815,19.649,19.648v29.794h-19.645H914.22V596.633z"/>
	<path style="fill:#FFFFFF;" d="M1276.156,777.285L1276.156,777.285l22.033-17.95l-3.687-4.526l-6.451,5.256l-3.341-4.101
		l6.451-5.256l-5.294-6.498l-8.664,7.058l-3.34-4.1l8.664-7.058l-4.939-6.063l-12.107,9.864l0,0l-2.702,2.202l-9.519,7.755
		l-1.19,0.97l0,0l0,0l-58.586-71.913l0.009-0.008l14.232-11.606c8.803-7.186,10.124-20.254,2.978-29.012l-13.36-16.42
		c-7.167-8.759-20.233-10.123-29.013-2.957l-0.201,0.161l-3.664,2.987l-0.112,0.102l-29.357,23.938l-1.965,1.594l-6.099,4.965
		c-3.73,3.027-6.1,7.107-7.048,11.495c-0.022,0.02-0.022,0.02-0.022,0.02c-0.033,0.234-0.088,0.467-0.121,0.701
		c-0.734,3.949-0.342,8.082,1.248,11.847c0.749,1.73,1.736,3.408,2.987,4.95l0.363,0.447l0.021,0.001l5.671,6.97l0.928,1.139
		l6.357,7.819c1.513,1.876,3.322,3.402,5.276,4.593c1.165,0.701,2.378,1.276,3.62,1.724c4.524,1.642,9.536,1.679,14.119,0.023
		c2.137-0.75,4.165-1.869,6.019-3.383l11.886-9.688l1.497-1.232l0.492-0.404l0.006-0.005l81.323,99.823
		c1.207,1.481,3.382,1.695,4.864,0.488l3.934-3.205l0,0l3.943-3.212c1.472-1.199,1.702-3.373,0.496-4.854l-2.119-2.601l2.544-2.073
		L1276.156,777.285z M1137.542,680.877l-3.068-3.754c-0.011-0.014-0.018-0.029-0.029-0.043c-0.271-0.335-0.5-0.691-0.698-1.061
		c-0.057-0.105-0.099-0.216-0.149-0.323c-0.138-0.294-0.262-0.594-0.357-0.901c-0.034-0.109-0.062-0.22-0.091-0.33
		c-0.085-0.333-0.148-0.669-0.185-1.009c-0.009-0.083-0.021-0.165-0.027-0.247c-0.095-1.307,0.161-2.632,0.753-3.81
		c0.04-0.079,0.088-0.155,0.131-0.232c0.169-0.307,0.36-0.604,0.576-0.885c0.054-0.07,0.108-0.14,0.164-0.209
		c0.274-0.329,0.571-0.642,0.911-0.92l16.04-13.066l0.174-0.14l5.529-4.506l10.962-8.929l2.135-1.744l2.284-1.855l4.289-3.491
		c0.577-0.474,1.227-0.803,1.901-1.058c2.78-1.043,6.118-0.305,8.056,2.081l13.355,16.378c0.777,0.956,1.226,2.076,1.423,3.232
		c0.415,2.466-0.419,5.108-2.455,6.755l-22.743,18.528l-1.608,1.312l-13.65,11.121l-3.373,2.745
		c-1.248,1.018-2.769,1.503-4.295,1.539c-2.134,0.049-4.278-0.804-5.696-2.534l-7.228-8.898l-1.213-1.492L1137.542,680.877z"/>
	<path style="fill:#FFFFFF;" d="M382.806,1482.451c13.028,18.836,37.584,24.753,57.63,15.221l48.362,69.92l12.117-8.381
		l-48.355-69.911c16.046-15.376,19.134-40.436,6.084-59.304c-14.475-20.927-43.203-26.243-64.13-11.769
		C373.586,1432.703,368.331,1461.524,382.806,1482.451z M450.402,1435.697c11.272,16.297,7.161,38.854-9.136,50.126
		c-16.39,11.336-38.854,7.16-50.126-9.137c-11.336-16.389-7.253-38.789,9.137-50.125
		C416.574,1415.289,439.066,1419.308,450.402,1435.697z"/>
	<g>
		<polygon style="fill:#2D628C;" points="496.646,1064.159 496.425,1030.699 535.686,1036.491 		"/>
		<path style="fill:#FDAE97;" d="M709.077,905.435l3.543-10.383c0,0,6.38-9.926,8.284-13.768c1.073-2.166,4.564-7.697,5.466-8.383
			c0.714-0.543,2.792-0.336,2.975,0.523c0.239,1.116-1.521,7.296-2.163,9.73c-0.61,2.315-2.44,9.258-2.44,9.258
			s13.411-12.185,17.669-16.521c2.396-2.441,9.093-9.865,10.901-8.309c1.377,1.186-4.628,9.546-6.656,12.427
			c-1.864,2.648-7.381,10.644-7.381,10.644s9.356-9.73,12.475-12.973c2.269-2.36,8.148-10.246,10.22-8.56
			c2.051,1.669-4.304,9.016-6.15,11.704c-2.606,3.794-10.425,15.178-10.425,15.178s10.019-9.957,13.358-13.276
			c1.848-1.837,6.643-8.023,8.472-6.315c1.863,1.74-3.777,7.346-5.404,9.444c-2.787,3.593-11.15,14.373-11.15,14.373
			s7.436-6.998,9.915-9.331c1.059-0.997,4.309-3.872,5.255-2.804c1.288,1.454-2.809,5.66-4.028,7.219L751.745,908.2
			c-0.815,1.042-1.746,1.983-2.774,2.8l-17.054,17.123L709.077,905.435z"/>
		<path style="fill:#B86B76;" d="M576.72,1025.196l132.874,84.143c3.811,1.596,7.431,3.816,10.663,6.753
			c15.216,13.825,16.344,37.367,2.519,52.583s-37.367,16.344-52.583,2.519l-153.172-80.291L576.72,1025.196z"/>
		<path style="fill:#B86B76;" d="M732.286,1148.832c0.243-1.716,0.411-3.456,0.411-5.24c0-20.558-16.666-37.224-37.224-37.224
			c-20.558,0-37.224,16.666-37.224,37.224l2.201,166.218h61.942L732.286,1148.832z"/>
		<path style="fill:#E7888B;" d="M506.285,1090.181l83.222,99.546c14.691,17.572,41.088,19.93,58.66,5.239l0,0
			c17.572-14.691,19.93-41.088,5.239-58.66l-83.222-99.546c-14.691-17.572-41.088-19.93-58.66-5.239h0
			C493.952,1046.212,491.595,1072.609,506.285,1090.181z"/>
		<polygon style="fill:#E5F0F8;" points="574.388,865.456 613.753,883.182 608.326,1043.089 496.425,1044.823 480.81,869.758 
			534.12,862.533 		"/>
		<path style="fill:#FDAE97;" d="M574.377,842.361v24.973c0,0-1.492,5.392-14.188,5.445c-12.669,0.026-26.072-8.377-26.072-8.377
			l3.927-54.605L574.377,842.361z"/>
		<polygon style="fill:#E89780;" points="574.388,863.909 548.452,836.984 574.388,836.644 		"/>
		<path style="fill:#FDAE97;" d="M585.006,792.128c0,0,0,15.314,0,26.177v8.979c0,7.094-1.99,17.617-9.974,20.052
			c-7.958,2.434-18.926-0.89-26.569-9.188c-7.644-8.324-24.606-45.81-1.021-59.657C571.053,764.642,584.456,788.463,585.006,792.128
			z"/>
		<path style="fill:#F9E181;" d="M638.4,1010.984c8.317,6.822,20.309,6.504,28.296-0.221l0,0l69.998-81.005l-9.612-10.128
			l-17.688-18.691l-2.034-2.178l-72.084,81.162C627.581,989.319,629.004,1003.289,638.4,1010.984z"/>
		<path style="fill:#E7888B;" d="M663.257,1159.342c0-20.558-16.666-37.224-37.224-37.224c-20.558,0-31.841,8.572-36.325,29.075
			c-10.411,47.599-32.25,174.367-32.25,174.367h64.499l40.889-160.978C663.089,1162.866,663.257,1161.126,663.257,1159.342z"/>
		<path style="fill:#F9E181;" d="M664.287,1011.999L664.287,1011.999c-12.313,6.984-28.101,2.625-35.086-9.687l-46.433-81.854
			c-6.985-12.313-2.625-28.101,9.687-35.086h0c12.313-6.985,28.101-2.625,35.086,9.687l46.433,81.854
			C680.959,989.226,676.6,1005.015,664.287,1011.999z"/>
		<path style="fill:#322A28;" d="M549.89,777.191c0,0,28.539-13.166,35.121-4.519c6.582,8.647-4.383,11.666-4.383,11.666
			s13.612-1.607,13.082,7.569c-0.529,9.177-34.589-3.353-34.589-3.353s11.294,5.118,4.765,9.177
			c-6.529,4.059-13.996-1.235-13.996-1.235s-6.476,3.703-5.416,20.709c1.06,17.006-9.091,20.762-9.091,20.762
			s1.216-25.765-3.758-32.648C526.65,798.437,533.952,772.886,549.89,777.191z"/>
		<g>
			<path style="fill:#FDAE97;" d="M546.073,821.148c2.77,4.337,3.509,7.39,0.104,9.564c-3.405,2.174-9.067,1.488-11.836-2.849
				c-2.77-4.337-2.254-9.616,1.151-11.79C538.897,813.898,543.304,816.811,546.073,821.148z"/>
			<path style="fill:none;stroke:#E89780;stroke-width:0.6272;stroke-miterlimit:10;" d="M537.184,820.815
				c0,0,3.498-0.522,5.893,3.96c0,0-2.21-0.507-4.897,0"/>
		</g>
		<path style="fill:#2C3447;" d="M563.799,812.049c0,1.646,0.863,2.979,1.927,2.979s1.927-1.334,1.927-2.979
			c0-1.645-0.863-2.979-1.927-2.979S563.799,810.404,563.799,812.049z"/>
		<path style="fill:none;stroke:#2C3447;stroke-width:0.7853;stroke-miterlimit:10;" d="M565.036,830.737
			c0,0,2.863,5.575,10.104,4.267"/>
		<path style="fill:none;stroke:#2C3447;stroke-width:0.7853;stroke-miterlimit:10;" d="M571.984,813.188l3.632,10.508
			c0.368,1.065-0.036,2.243-0.981,2.857l-2.96,1.926"/>
		<path style="fill:none;stroke:#2C3447;stroke-width:0.7853;stroke-miterlimit:10;" d="M560.763,807.103
			c0,0,4.059-2.839,7.928-1.039"/>
		<path style="fill:#2C3447;" d="M583.702,812.049c0,1.646-0.863,2.979-1.927,2.979c-1.064,0-1.927-1.334-1.927-2.979
			c0-1.645,0.863-2.979,1.927-2.979C582.839,809.07,583.702,810.404,583.702,812.049z"/>
		<path style="fill:none;stroke:#2C3447;stroke-width:0.7853;stroke-miterlimit:10;" d="M585.491,806.94
			c0,0-2.812-2.676-6.682-0.876"/>
		<path style="fill:#F9E181;" d="M456.931,1010.923L456.931,1010.923c-13.703-3.553-22.006-17.672-18.453-31.374l23.622-91.094
			c3.553-13.703,17.672-22.006,31.374-18.453l0,0c13.702,3.553,22.006,17.672,18.453,31.374l-23.622,91.094
			C484.752,1006.173,470.634,1014.477,456.931,1010.923z"/>
		<path style="fill:#FDAE97;" d="M422.755,1081.519l-30.32-18.744l-0.065,0.099c-4.55,8.108-21.559,24.916-27.836,30.984
			c-1.395,1.396-1.802,3.444-1.006,5.246l7.408,17.138c1.15,2.698,3.392,4.745,6.143,5.664l11.903,4.03
			c1.216,0.378,2.394-0.689,2.115-1.913l-2.439-9.697c-0.313-1.388,0.36-2.836,1.671-3.389l11.501-5.172l-9.618,15.353
			c-0.532,0.878-0.352,2.037,0.493,2.69l1.208,0.892c0.846,0.653,2.049,0.549,2.768-0.253l20.665-24.135l4.78-17.98
			C422.124,1082.332,422.353,1082.057,422.755,1081.519z"/>
		<path style="fill:#E89780;" d="M566.862,822.914c-0.506,1.512-3.354,1.921-6.359,0.914c-3.006-1.007-5.032-3.048-4.526-4.56
			c0.506-1.512,3.354-1.921,6.359-0.914C565.342,819.361,567.368,821.403,566.862,822.914z"/>
		<path style="fill:#E89780;" d="M585.006,818.305v5.837c-2.461,0.288-4.476-0.393-4.817-1.675
			C579.823,820.949,581.969,819.09,585.006,818.305z"/>
		<polygon style="fill:#FDAE97;" points="667.886,1334.735 666.602,1309.81 716.907,1309.81 717.704,1334.735 		"/>
		<polygon style="fill:#E89780;" points="717.37,1324.3 666.602,1309.81 716.907,1309.81 		"/>
		<polygon style="fill:#FDAE97;" points="557.144,1350.485 561.259,1325.56 610.358,1325.56 604.11,1350.485 		"/>
		<polygon style="fill:#F74242;" points="567.13,877.217 558.02,877.217 557.222,878.946 561.42,882.071 565.002,882.071 
			567.995,878.414 		"/>
		<polygon style="fill:#E89780;" points="607.356,1337.535 561.259,1325.56 610.358,1325.56 		"/>
		<path style="fill:#F9E181;" d="M478.315,958.718c-11.208-7.874-26.128-6.189-33.067,3.746l-60.183,98.803l42.107,26.014
			l60.016-91.473C494.127,985.874,489.578,966.581,478.315,958.718z"/>
		<polygon style="fill:#FFFFFF;" points="534.272,862.246 562.908,872.779 557.687,884.732 533.009,864.872 		"/>
		<polygon style="fill:#FFFFFF;" points="574.377,865.147 575.751,867.948 568.328,883.601 562.908,872.779 		"/>
		<polygon style="fill:#F74242;" points="565.002,882.071 578.569,987.371 567.995,1001.004 554.247,988.638 561.42,882.071 		"/>
		
			<line style="fill:none;stroke:#2C3447;stroke-width:0.7853;stroke-miterlimit:10;" x1="504.942" y1="933.984" x2="489.878" y2="996.224"/>
		
			<line style="fill:none;stroke:#2C3447;stroke-width:0.7853;stroke-miterlimit:10;" x1="610.81" y1="971.77" x2="612.093" y2="933.984"/>
		<path style="fill:#403534;" d="M557.144,1350.485l-4.414,18.168h65.892l0,0c2.133-9.299-4.932-18.168-14.472-18.168h-0.041
			H557.144z"/>
		<path style="fill:#403534;" d="M667.886,1334.735v19.782h69.016l-0.084-1.631c-0.526-10.172-8.927-18.15-19.113-18.15l0,0H667.886
			z"/>
		
			<path style="fill:none;stroke:#FFFFFF;stroke-width:0.4179;stroke-linecap:round;stroke-linejoin:round;stroke-miterlimit:10;" d="
			M718.695,1338.669c0,0,1.502-6.573,5.211-4.789c3.709,1.784-4.977,5.024-4.977,5.024l5.164,3.568"/>
		
			<path style="fill:none;stroke:#FFFFFF;stroke-width:0.4179;stroke-linecap:round;stroke-linejoin:round;stroke-miterlimit:10;" d="
			M718.695,1338.669c0,0-1.502-6.573-5.212-4.789c-3.709,1.784,4.977,5.024,4.977,5.024l-5.164,3.568"/>
		
			<path style="fill:none;stroke:#FFFFFF;stroke-width:0.4179;stroke-linecap:round;stroke-linejoin:round;stroke-miterlimit:10;" d="
			M603.639,1355.163c0,0,1.502-6.573,5.211-4.789c3.709,1.784-4.977,5.024-4.977,5.024l5.164,3.568"/>
		
			<path style="fill:none;stroke:#FFFFFF;stroke-width:0.4179;stroke-linecap:round;stroke-linejoin:round;stroke-miterlimit:10;" d="
			M603.639,1355.163c0,0-1.502-6.573-5.211-4.789c-3.709,1.784,4.977,5.024,4.977,5.024l-5.164,3.568"/>
		<path style="fill:#F9E181;" d="M578.533,867.369c0,0,2.693,28.161,7.054,70.686c4.36,42.526,4.074,108.9,17.809,121.638
			c0,0,14.15,1.053,42.799,9.498c0,0-8.012-26.929-17.823-42.175c-9.811-15.246-14.618-143.834-14.618-143.834L578.533,867.369z"/>
		<polygon style="fill:#E5F0F8;" points="580.859,891.16 584.185,924.317 573.612,915.307 574.377,891.808 		"/>
		<path style="fill:#F9E181;" d="M523.968,863.909c0,0,10.984,47.401,16.163,89.691c5.179,42.29,3.422,83.186,16.747,108.019
			c0,0-53.448,9.615-53.324,31.173c0,0-15.067-16.617-15.198-39.377c-0.13-22.76-7.546-183.657-7.546-183.657L523.968,863.909z"/>
		
			<line style="fill:none;stroke:#322A28;stroke-width:0.9168;stroke-miterlimit:10;" x1="620.675" y1="987.281" x2="613.753" y2="950.355"/>
		
			<line style="fill:none;stroke:#322A28;stroke-width:0.9168;stroke-miterlimit:10;" x1="488.306" y1="992.47" x2="497.41" y2="950.355"/>
	</g>
	<g>
		<path style="fill:#FDAE97;" d="M1131.494,1475.48c0.995,1.766-7.021,11.074-14.7,15.701c-6.503,3.929-22.472,11.371-27.194,13.531
			l-13.037-20.355c2.338-1.958,4.844-4.202,6.755-6.395c4.744-5.358,19.301-18.456,21.183-16.327
			c1.882,2.094-6.3,13.094-4.783,13.335c1.517,0.241,9.39-6.428,12.506-9.531c3.152-3.104,8.783-10.839,11.323-10.449
			c2.575,0.39,2.955,4.174,2.955,4.174s1.814-3.209,3.61-1.71c1.796,1.499,0.222,7.197,0.222,7.197s0.794-1.883,2.36,0.255
			c1.568,2.173-3.679,9.828-3.679,9.828S1130.533,1473.678,1131.494,1475.48z"/>
		<path style="fill:#322A28;" d="M926.828,1354.751c-16.917,1.471-31.606,15.847-31.813,36.381
			c-0.207,20.535-3.931,31.099-16.344,28.713c0,0,34.769,20.164,80.588,2.372c0,0-5.743-6.81-6.547-22.231
			C951.908,1384.565,926.828,1354.751,926.828,1354.751z"/>
		<path style="fill:#F9E181;" d="M1015.798,1564.544L1015.798,1564.544c-10.779,5.801-24.345,1.729-30.147-9.051l-43.608-81.024
			c-5.801-10.779-1.729-24.345,9.051-30.146l0,0c10.779-5.802,24.345-1.729,30.147,9.05l43.607,81.024
			C1030.65,1545.176,1026.577,1558.742,1015.798,1564.544z"/>
		<path style="fill:#B86B76;" d="M916.689,1591.502c-14.572,19.079-20.062,58.634-10.771,101.245
			c9.291,42.611,12.43,70.622,12.43,70.622c2.422,19.725,20.375,33.751,40.1,31.329c19.724-2.422,33.751-20.375,31.329-40.1
			l-14.815-163.097H916.689z"/>
		<path style="fill:#F9E181;" d="M913.476,1435.091l-38.95,17.641c0,0,8.66,100.269,9.555,111.237
			c0.895,10.968-2.462,27.533-2.462,27.533h93.342c0,0-1.119-53.722,5.148-68.719c4.246-10.16,7.163-16.34,4.701-27.98
			c-2.462-11.64-20.479-32.217-17.569-52.363l-20.32-6.508L913.476,1435.091z"/>
		<path style="fill:#F9E181;" d="M843.278,1580.72L843.278,1580.72c-11.495-4.209-17.456-17.057-13.247-28.552l31.637-86.403
			c4.209-11.495,17.057-17.456,28.552-13.247l0,0c11.495,4.209,17.456,17.057,13.247,28.552l-31.637,86.404
			C867.621,1578.968,854.773,1584.929,843.278,1580.72z"/>
		<path style="fill:#332B27;" d="M951.619,1376.986c0,0,5.299-13.038-7.439-16.986L951.619,1376.986z"/>
		<path style="fill:#FDAE97;" d="M946.917,1390.614v45.309c0,0-0.913,9.94-12.715,10.818c-10.186,0.773-16.684-5.936-19.423-9.518
			l-1.44-2.108l-0.035-0.035l4.812-44.466H946.917z"/>
		<polygon style="fill:#E89780;" points="946.91,1430.764 926.828,1408.927 946.922,1416.475 		"/>
		<path style="fill:#FDAE97;" d="M926.991,1413.764c9.388,5.535,20.464,5.528,27.145,1.034c6.687-4.468,5.588-14.765,3.597-21.302
			c-0.007-0.025-0.007-0.025-0.013-0.051c-0.415-1.351-1.005-3.252-1.662-5.406c-2.554-8.445-6.33-20.951-6.33-20.951
			c-1.652-6.609-20.582-21.477-38.504-2.088C893.308,1384.413,917.603,1408.229,926.991,1413.764z"/>
		<path style="fill:#322A28;" d="M949.129,1364.416c0,0-0.246,7.92-11.34,13.211c-11.094,5.292-21.625,13.384-20.297,25.08
			c1.327,11.696-2.682,18.295-2.682,18.295s-1.651-14.576-9.003-26.92c-2.852-4.788-5.35-14.889-0.614-23.598
			C912.664,1356.743,931.956,1346.303,949.129,1364.416z"/>
		<path style="fill:#FDAE97;" d="M919.389,1400.194c2.386,3.526,3.065,6.034,0.297,7.908c-2.768,1.873-7.466,1.43-9.852-2.096
			c-2.386-3.526-2.076-7.903,0.692-9.776C913.294,1394.356,917.003,1396.668,919.389,1400.194z"/>
		
			<path style="fill:none;stroke:#E89780;stroke-width:0.5288;stroke-linecap:round;stroke-linejoin:round;stroke-miterlimit:10;" d="
			M913.144,1402.823c2.323-1.132,4.347-0.116,4.347-0.116c-1.605-4.022-6.435-2.396-6.435-2.396"/>
		<path style="fill:#2C3447;" d="M936.82,1389.752c0.44,1.585,1.629,2.639,2.654,2.354c1.025-0.285,1.499-1.801,1.059-3.385
			c-0.44-1.585-1.628-2.639-2.654-2.354C936.854,1386.651,936.38,1388.167,936.82,1389.752z"/>
		<path style="fill:#2C3447;" d="M949.706,1384.805c0.407,1.464,1.504,2.437,2.451,2.174s1.385-1.663,0.978-3.127
			c-0.407-1.464-1.504-2.437-2.451-2.174C949.737,1381.942,949.3,1383.342,949.706,1384.805z"/>
		<path style="fill:#B86B76;" d="M1002.69,1948.948h-63.224l-21.704-185.834l-0.278-4.254c0-20.204,16.646-36.489,36.989-35.878
			c18.342,0.528,33.71,15.452,34.794,33.793L1002.69,1948.948z"/>
		<path style="fill:none;stroke:#2C3447;stroke-width:0.785;stroke-miterlimit:10;" d="M931.394,1387.245
			c0,0,2.084-4.834,6.189-4.435"/>
		<path style="fill:none;stroke:#2C3447;stroke-width:0.785;stroke-miterlimit:10;" d="M947.924,1379.173
			c0,0,2.191-1.073,5.348,0.746"/>
		<path style="fill:#E7888B;" d="M887.234,1948.948h-60.333l19.148-191.95l0.055-0.667c1.279-18.648,16.841-33.377,35.822-33.377
			c19.843,0,35.905,16.063,35.905,35.905c0,1.112-0.055,2.196-0.167,3.252L887.234,1948.948z"/>
		<path style="fill:#F9E181;" d="M1095.717,1514.286l-73.834,46.718l-4.368,3.627c-8.904,6.169-21.953,2.96-28.962-7.152
			c-7.009-10.112-5.423-23.435,3.481-29.604l82.698-46.351l1.83,2.833l13.037,20.355L1095.717,1514.286z"/>
		<path style="fill:none;stroke:#2C3447;stroke-width:0.785;stroke-miterlimit:10;" d="M944.363,1385.99
			c0,0,2.364,7.802,7.239,7.482c0,0-1.095,1.742-2.78,2.801"/>
		<path style="fill:#E7888B;" d="M945.688,1591.519l-0.843,5.233l-27.08,165.466c-2.072,19.774-19.774,34.105-39.549,32.032
			c-19.739-2.072-34.105-19.774-32.032-39.549c0,0,3.266-27.993,3.793-71.616c0.422-33.789,8.079-61.044,20.126-78.676
			c3.512-5.128,7.376-9.448,11.52-12.89H945.688z"/>
		<path style="fill:none;stroke:#2C3447;stroke-width:0.785;stroke-miterlimit:10;" d="M951.421,1402.597
			c0,0-4.521,3.582-9.773-1.04"/>
		<path style="fill:#E89780;" d="M929.156,1396.676c-0.047,1.713,2.638,3.178,5.998,3.271s6.122-1.221,6.169-2.934
			c0.047-1.714-2.638-3.178-5.998-3.271C931.966,1393.648,929.204,1394.962,929.156,1396.676z"/>
		<path style="fill:#E89780;" d="M954.171,1392.634c0.541,0.911,1.91,1.169,3.548,0.812c-0.415-1.351-1.005-3.252-1.662-5.406
			C954.294,1389.648,953.461,1391.496,954.171,1392.634z"/>
		<path style="fill:none;stroke:#FFFFFF;stroke-width:0.6948;stroke-miterlimit:10;" d="M920.984,1408.098
			c0.39,1.46-0.477,2.961-1.938,3.351c-1.46,0.39-2.961-0.477-3.351-1.938c-0.39-1.46,0.477-2.961,1.938-3.351
			C919.094,1405.77,920.594,1406.637,920.984,1408.098z"/>
		<polygon style="fill:#FDAE97;" points="814.757,1989.712 861.331,1989.712 867.372,1980.51 867.236,1989.712 877.492,1989.712 
			876.574,1963.124 878.822,1948.934 840.889,1948.934 840.748,1963.124 		"/>
		<path style="fill:#BBDBF3;" d="M948.352,1435.739l-2.348,47.636l-31.225-46.152c2.74,3.582,9.238,10.291,19.423,9.518
			C946.004,1445.863,948.352,1435.739,948.352,1435.739z"/>
		<polygon style="fill:#FFFFFF;" points="913.591,1432.509 936.875,1446.361 931.955,1454.978 910.308,1436.526 		"/>
		<polygon style="fill:#FFFFFF;" points="946.91,1434.496 936.875,1446.361 942.936,1453.675 949.255,1436.679 		"/>
		<g>
			<polygon style="fill:#A5BBD6;" points="1072.074,1581.373 946.69,1586.631 975.475,1491.367 1100.86,1486.108 			"/>
			<g>
				<polygon style="fill:#89A5C7;" points="947.866,1582.016 905.345,1547.469 1026.62,1542.383 1073.251,1576.757 				"/>
				<polygon style="fill:#A5BBD6;" points="1069.619,1579.394 944.234,1584.653 973.02,1489.388 1098.404,1484.13 				"/>
				<polygon style="fill:#89A5C7;" points="1098.404,1484.13 1100.86,1486.108 975.475,1491.367 946.69,1586.631 944.234,1584.653 
					973.02,1489.388 				"/>
				<polygon style="fill:#586773;" points="905.345,1547.469 904.168,1552.085 946.69,1586.631 948.087,1582.007 				"/>
			</g>
			<path style="fill:#89A5C7;" d="M1043.008,1536.633c0.142,3.398-5.966,6.414-13.643,6.736c-7.678,0.322-14.017-2.172-14.16-5.57
				c-0.143-3.398,5.966-6.414,13.643-6.736C1036.526,1530.741,1042.866,1533.235,1043.008,1536.633z"/>
		</g>
		<polygon style="fill:#FDAE97;" points="982.287,1989.712 971.152,1981.423 972.1,1989.712 961.739,1989.712 956.647,1963.124 
			953.907,1948.934 994.088,1948.934 995.633,1963.124 1027.877,1989.712 		"/>
		<polygon style="fill:#322A28;" points="840.748,1963.124 814.757,1989.712 861.331,1989.712 867.372,1980.51 867.236,1989.712 
			877.492,1989.712 876.574,1963.124 		"/>
		<polygon style="fill:#322A28;" points="982.287,1989.712 971.152,1981.423 972.1,1989.712 961.739,1989.712 956.647,1963.124 
			995.633,1963.124 1027.877,1989.712 		"/>
		<path style="fill:#FDAE97;" d="M998.457,1558.703c1.818,1.853-0.136,5.112-0.136,5.112s3.389-1.488,3.898,0.775
			c0.498,2.106-3.499,5.433-4.019,5.864c0.38-0.184,1.67-0.639,1.631,1.662c-0.022,2.537-7.993,5.362-8.746,5.621
			c0.287,0.042,1.751,0.268,1.489,2.098c-0.31,2.038-12.277,4.694-21.19,3.823c-7.518-0.751-24.677-4.384-29.811-5.48l1.357-24.066
			c3.139-0.147,6.659-0.478,9.542-1.111c7.029-1.466,26.525-3.214,26.76-0.38c0.249,2.801-12.887,6.721-11.817,7.81
			c1.07,1.089,11.357,0.475,15.708-0.121C987.52,1559.694,996.671,1556.863,998.457,1558.703z"/>
		<path style="fill:#F9E181;" d="M943.352,1546.836l-0.422,7.275l-1.357,24.066l-0.36,6.388l-93.309-1.546
			c-10.83-0.372-19.354-10.735-18.947-23.032c0.453-12.316,9.676-22.034,20.539-21.65l7.031,1.195l0.033,0.013L943.352,1546.836z"/>
		<polyline style="fill:none;stroke:#2C3447;stroke-width:0.785;stroke-miterlimit:10;" points="925.834,1545.365 881.295,1541.624 
			890.45,1516.619 		"/>
		
			<line style="fill:none;stroke:#2C3447;stroke-width:0.785;stroke-miterlimit:10;" x1="882.945" y1="1583.6" x2="862.699" y2="1583.6"/>
		<path style="fill:none;stroke:#FFFFFF;stroke-width:1.0229;stroke-miterlimit:10;" d="M942.06,1388.707
			c1.383,2.785,0.784,5.896-1.338,6.949c-2.121,1.053-4.962-0.35-6.344-3.135s-0.784-5.896,1.338-6.949
			C937.837,1384.519,940.677,1385.922,942.06,1388.707z"/>
		<path style="fill:none;stroke:#FFFFFF;stroke-width:1.0229;stroke-miterlimit:10;" d="M954.785,1383.833
			c1.383,2.784,0.784,5.896-1.338,6.949c-2.121,1.053-4.962-0.35-6.344-3.135c-1.383-2.784-0.784-5.896,1.338-6.949
			S953.402,1381.048,954.785,1383.833z"/>
		
			<line style="fill:none;stroke:#FFFFFF;stroke-width:1.0229;stroke-miterlimit:10;" x1="941.31" y1="1387.513" x2="946.466" y2="1385.74"/>
	</g>
</g>
</svg>
