<svg width="2518" height="2200" viewBox="0 0 2518 2200" fill="none" xmlns="http://www.w3.org/2000/svg">
<path d="M2239.2 1995H255.848C242.372 1995 231.448 1984.08 231.448 1970.6V1961.68C231.448 1948.2 242.372 1937.28 255.848 1937.28H2239.2C2252.67 1937.28 2263.6 1948.2 2263.6 1961.68V1970.6C2263.6 1984.08 2252.67 1995 2239.2 1995Z" fill="#0775EF"/>
<path d="M2033.07 587.149H2009.23V652.272H2033.07V587.149Z" fill="#E5F0F8"/>
<path d="M2070.84 553.653H2047V652.27H2070.84V553.653Z" fill="#E5F0F8"/>
<path d="M2108.61 503.784H2084.77V652.271H2108.61V503.784Z" fill="#E5F0F8"/>
<path d="M2146.38 534.548H2122.53V652.27H2146.38V534.548Z" fill="#E5F0F8"/>
<path d="M2184.15 547.525H2160.3V652.271H2184.15V547.525Z" fill="#E5F0F8"/>
<path d="M2221.92 522.027H2198.07V652.271H2221.92V522.027Z" fill="#E5F0F8"/>
<path d="M2259.69 493.046H2235.84V652.27H2259.69V493.046Z" fill="#E5F0F8"/>
<path d="M2357.29 720.919H1836.14C1829.97 720.919 1824.97 726.777 1824.97 734.001V764.291V1033.77H2368.46V764.291V734.001C2368.46 726.777 2363.46 720.919 2357.29 720.919Z" fill="#BBDBF3"/>
<path d="M2362.39 756.983H1831.04V1026.13H2362.39V756.983Z" fill="white"/>
<path d="M1868.49 898.182C1868.49 898.182 1888.24 855.537 1925.88 863.505C1963.52 871.471 1937.42 950.998 1979.3 958.889C2021.19 966.782 2044.26 843.841 2138.96 862.513C2233.67 881.184 2321.15 821.691 2321.15 821.691V1009.04H1868.49L1868.49 898.182Z" fill="#F9ECB8"/>
<path d="M1868.49 972.244C1896.74 969.816 1900.39 892.901 1945.92 887.953C1991.45 883.005 1985.38 952.818 2011.48 961.925C2037.58 971.031 2047.84 939.463 2097.05 941.892C2146.25 944.32 2151.11 981.26 2179.64 981.26C2208.17 981.26 2259.91 955.248 2321.16 960.104V1009.04H1868.49L1868.49 972.244Z" fill="#E7888B"/>
<path d="M1867.82 981.26H2321.16" stroke="#BBDBF3" stroke-width="1.6901" stroke-miterlimit="10" stroke-linecap="round" stroke-linejoin="round" stroke-dasharray="10.1 10.1"/>
<path d="M1867.82 922.382H2321.16" stroke="#BBDBF3" stroke-width="1.6901" stroke-miterlimit="10" stroke-linecap="round" stroke-linejoin="round" stroke-dasharray="10.1 10.1"/>
<path d="M1867.82 892.943H2321.16" stroke="#BBDBF3" stroke-width="1.6901" stroke-miterlimit="10" stroke-linecap="round" stroke-linejoin="round" stroke-dasharray="10.1 10.1"/>
<path d="M2321.16 951.821H1867.82" stroke="#BBDBF3" stroke-width="1.6901" stroke-miterlimit="10" stroke-linecap="round" stroke-linejoin="round" stroke-dasharray="10.1 10.1"/>
<path d="M1867.82 863.505H2321.16" stroke="#BBDBF3" stroke-width="1.6901" stroke-miterlimit="10" stroke-linecap="round" stroke-linejoin="round" stroke-dasharray="10.1 10.1"/>
<path d="M1867.82 834.066H2321.16" stroke="#BBDBF3" stroke-width="1.6901" stroke-miterlimit="10" stroke-linecap="round" stroke-linejoin="round" stroke-dasharray="10.1 10.1"/>
<path d="M1867.82 804.627H2321.16" stroke="#BBDBF3" stroke-width="1.6901" stroke-miterlimit="10" stroke-linecap="round" stroke-linejoin="round" stroke-dasharray="10.1 10.1"/>
<path d="M1868.49 774.077V1009.04H2325.6" stroke="#BBDBF3" stroke-width="3.3802" stroke-miterlimit="10" stroke-linecap="round" stroke-linejoin="round"/>
<path d="M2144.64 724.562L1937.76 844.001L2144.64 963.441V724.562Z" fill="#088CFC"/>
<path d="M1933.58 1617.44L1980 1596.81L1897.19 1599.44L1898.17 1620.75L1933.58 1617.44Z" fill="#586773"/>
<path d="M468.085 566.021L423.615 593.357L438.835 710.79L468.085 566.021Z" fill="#586773"/>
<path d="M1919.55 1620.75H561.885C543.741 1620.75 527.342 1606.22 525.231 1588.32L423.752 729.157L423.59 727.858L414.782 653.495L412.793 636.609L411.9 628.937C409.789 611.118 417.096 589.725 435.159 589.725L1791.07 562.001C1809.18 562.001 1825.58 576.452 1827.73 594.271L1948.41 1588.31C1950.6 1606.22 1937.65 1620.75 1919.55 1620.75Z" fill="#586773"/>
<path d="M609.655 1599.44H1967.27C1985.39 1599.44 1998.31 1585.21 1996.12 1567.66L1874.62 593.64C1872.44 576.17 1856.02 562.008 1837.94 562.008H483.566C465.487 562.008 452.551 576.17 454.673 593.64L572.982 1567.66C575.113 1585.21 591.533 1599.44 609.655 1599.44Z" fill="#93ACBF"/>
<path d="M497.226 602.159L499.88 623.85L613.591 1559.1H1953.41L1834.14 602.159H497.226Z" fill="#BBDBF3"/>
<path d="M499.88 623.851L613.591 1559.1H1935.04L1818.47 623.851H499.88Z" fill="#E5F0F8"/>
<path d="M1682.73 693.813H1795.52L1793.33 676.269H1680.55L1682.73 693.813Z" fill="#BBDBF3"/>
<path d="M1388.09 720.816H1541.89H1830.56L1838.04 780.537H518.9L511.689 720.816H1388.09Z" fill="#BBDBF3"/>
<path d="M1543.99 693.813H1656.78L1654.59 676.269H1541.81L1543.99 693.813Z" fill="#BBDBF3"/>
<path d="M1405.25 693.813H1518.04L1515.86 676.269H1403.08L1405.25 693.813Z" fill="#BBDBF3"/>
<path d="M1266.5 693.813H1379.29L1377.12 676.269H1264.34L1266.5 693.813Z" fill="#BBDBF3"/>
<path d="M1660.32 756.373H1803.35L1801.87 744.519H1658.84L1660.32 756.373Z" fill="white"/>
<path d="M1484.38 756.373H1627.41L1625.93 744.519H1482.91L1484.38 756.373Z" fill="white"/>
<path d="M1308.43 756.373H1451.46L1450 744.519H1306.97L1308.43 756.373Z" fill="white"/>
<path d="M1132.49 756.373H1275.52L1274.06 744.519H1131.03L1132.49 756.373Z" fill="white"/>
<path d="M1127.76 693.813H1240.55L1238.39 676.269H1125.61L1127.76 693.813Z" fill="#BBDBF3"/>
<path d="M989.017 693.813H1101.81L1099.65 676.269H986.871L989.017 693.813Z" fill="#BBDBF3"/>
<path d="M736.931 709.551H900.873L894.322 655.883H730.41L736.931 709.551Z" stroke="#BBDBF3" stroke-width="4.4486" stroke-miterlimit="10"/>
<path d="M550.237 709.551H714.179L707.661 655.883H543.748L550.237 709.551Z" fill="#BBDBF3"/>
<path d="M1215.53 977.929H1833L1838.97 1025.66H1221.4L1215.53 977.929Z" fill="#BBDBF3"/>
<path d="M1838.97 1025.66L1860.31 1196.15H1242.37L1221.4 1025.66H1838.97Z" fill="white"/>
<path d="M1614.25 1007.02H1814.6L1813.27 996.396H1612.93L1614.25 1007.02Z" fill="white"/>
<path d="M1466.37 1007.02H1602.04L1600.72 996.396H1465.05L1466.37 1007.02Z" fill="white"/>
<path d="M1262.43 1179.14H1836.02L1818.96 1042.65H1245.63L1262.43 1179.14Z" stroke="#BBDBF3" stroke-width="2.3356" stroke-miterlimit="10"/>
<path d="M1786.26 1179.14H1836.02L1818.96 1042.65H1769.21L1786.26 1179.14Z" stroke="#BBDBF3" stroke-width="2.3356" stroke-miterlimit="10"/>
<path d="M1498.57 1179.14H1786.26L1769.21 1042.65H1481.65L1498.57 1179.14Z" stroke="#BBDBF3" stroke-width="2.3356" stroke-miterlimit="10"/>
<path d="M1262.43 1179.14H1307.83L1291.01 1042.65H1245.63L1262.43 1179.14Z" stroke="#BBDBF3" stroke-width="2.3356" stroke-miterlimit="10"/>
<path d="M1307.83 1179.14H1353.23L1336.39 1042.65H1291.01L1307.83 1179.14Z" stroke="#BBDBF3" stroke-width="2.3356" stroke-miterlimit="10"/>
<path d="M1353.23 1179.14H1409.95L1393.08 1042.65H1336.39L1353.23 1179.14Z" stroke="#BBDBF3" stroke-width="2.3356" stroke-miterlimit="10"/>
<path d="M1409.95 1179.14H1498.57L1481.65 1042.65H1393.08L1409.95 1179.14Z" stroke="#BBDBF3" stroke-width="2.3356" stroke-miterlimit="10"/>
<path d="M1254.57 1115.27H1828.04L1824.05 1083.35H1250.64L1254.57 1115.27Z" stroke="#BBDBF3" stroke-width="2.3356" stroke-miterlimit="10"/>
<path d="M1258.5 1147.2H1832.03L1828.04 1115.27H1254.57L1258.5 1147.2Z" stroke="#BBDBF3" stroke-width="2.3356" stroke-miterlimit="10"/>
<path d="M1262.43 1179.14H1836.02L1832.03 1147.2H1258.5L1262.43 1179.14Z" stroke="#BBDBF3" stroke-width="2.3356" stroke-miterlimit="10"/>
<path d="M574.162 977.929H1191.64L1197.51 1025.66H579.931L574.162 977.929Z" fill="#BBDBF3"/>
<path d="M1197.51 1025.66L1218.47 1196.15H600.536L579.931 1025.66H1197.51Z" fill="white"/>
<path d="M972.822 1007.02H1173.17L1171.87 996.396H971.523L972.822 1007.02Z" fill="white"/>
<path d="M824.94 1007.02H960.61L959.312 996.396H823.647L824.94 1007.02Z" fill="white"/>
<path d="M620.633 1179.14H1194.22L1177.45 1042.65H604.126L620.633 1179.14Z" stroke="#BBDBF3" stroke-width="2.3356" stroke-miterlimit="10"/>
<path d="M1144.45 1179.14H1194.22L1177.45 1042.65H1127.71L1144.45 1179.14Z" stroke="#BBDBF3" stroke-width="2.3356" stroke-miterlimit="10"/>
<path d="M856.765 1179.14H1144.45L1127.71 1042.65H840.149L856.765 1179.14Z" stroke="#BBDBF3" stroke-width="2.3356" stroke-miterlimit="10"/>
<path d="M620.633 1179.14H666.031L649.504 1042.65H604.126L620.633 1179.14Z" stroke="#BBDBF3" stroke-width="2.3356" stroke-miterlimit="10"/>
<path d="M666.031 1179.14H711.43L694.881 1042.65H649.504L666.031 1179.14Z" stroke="#BBDBF3" stroke-width="2.3356" stroke-miterlimit="10"/>
<path d="M711.43 1179.14H768.153L751.578 1042.65H694.881L711.43 1179.14Z" stroke="#BBDBF3" stroke-width="2.3356" stroke-miterlimit="10"/>
<path d="M768.153 1179.14H856.765L840.149 1042.65H751.578L768.153 1179.14Z" stroke="#BBDBF3" stroke-width="2.3356" stroke-miterlimit="10"/>
<path d="M612.909 1115.27H1186.38L1182.45 1083.35H609.048L612.909 1115.27Z" stroke="#BBDBF3" stroke-width="2.3356" stroke-miterlimit="10"/>
<path d="M616.77 1147.2H1190.3L1186.38 1115.27H612.909L616.77 1147.2Z" stroke="#BBDBF3" stroke-width="2.3356" stroke-miterlimit="10"/>
<path d="M620.633 1179.14H1194.22L1190.3 1147.2H616.771L620.633 1179.14Z" stroke="#BBDBF3" stroke-width="2.3356" stroke-miterlimit="10"/>
<path d="M1190.84 796.731H1808.02L1813.01 833.238H1195.78L1190.84 796.731Z" fill="#BBDBF3"/>
<path d="M1813.01 833.239L1830.81 963.577H1213.38L1195.78 833.239H1813.01Z" fill="white"/>
<path d="M1588.78 818.982H1789.03L1787.92 810.854H1587.68L1588.78 818.982Z" fill="white"/>
<path d="M1440.98 818.982H1576.58L1575.47 810.854H1439.88L1440.98 818.982Z" fill="white"/>
<path d="M1233.76 950.579H1806.9L1792.65 846.228H1219.66L1233.76 950.579Z" stroke="#BBDBF3" stroke-width="2.0382" stroke-miterlimit="10"/>
<path d="M1757.17 950.579H1806.9L1792.65 846.228H1742.93L1757.17 950.579Z" stroke="#BBDBF3" stroke-width="2.0382" stroke-miterlimit="10"/>
<path d="M1469.71 950.579H1757.17L1742.93 846.228H1455.55L1469.71 950.579Z" stroke="#BBDBF3" stroke-width="2.0382" stroke-miterlimit="10"/>
<path d="M1233.76 950.579H1279.13L1265.01 846.228H1219.66L1233.76 950.579Z" stroke="#BBDBF3" stroke-width="2.0382" stroke-miterlimit="10"/>
<path d="M1279.13 950.579H1324.49L1310.36 846.228H1265.01L1279.13 950.579Z" stroke="#BBDBF3" stroke-width="2.0382" stroke-miterlimit="10"/>
<path d="M1324.49 950.579H1381.17L1367.03 846.228H1310.36L1324.49 950.579Z" stroke="#BBDBF3" stroke-width="2.0382" stroke-miterlimit="10"/>
<path d="M1381.17 950.579H1469.71L1455.55 846.228H1367.03L1381.17 950.579Z" stroke="#BBDBF3" stroke-width="2.0382" stroke-miterlimit="10"/>
<path d="M1227.16 901.754H1800.23L1796.9 877.346H1223.87L1227.16 901.754Z" stroke="#BBDBF3" stroke-width="2.0382" stroke-miterlimit="10"/>
<path d="M1230.46 926.166H1803.56L1800.23 901.754H1227.16L1230.46 926.166Z" stroke="#BBDBF3" stroke-width="2.0382" stroke-miterlimit="10"/>
<path d="M1233.76 950.579H1806.9L1803.56 926.166H1230.46L1233.76 950.579Z" stroke="#BBDBF3" stroke-width="2.0382" stroke-miterlimit="10"/>
<path d="M549.791 796.731H1166.97L1171.9 833.238H554.667L549.791 796.731Z" fill="#BBDBF3"/>
<path d="M1171.9 833.239L1189.5 963.577H572.073L554.667 833.239H1171.9Z" fill="white"/>
<path d="M947.697 818.982H1147.94L1146.84 810.854H946.603L947.697 818.982Z" fill="white"/>
<path d="M799.894 818.982H935.492L934.398 810.854H798.804L799.894 818.982Z" fill="white"/>
<path d="M592.473 950.579H1165.61L1151.52 846.228H578.532L592.473 950.579Z" stroke="#BBDBF3" stroke-width="2.0382" stroke-miterlimit="10"/>
<path d="M1115.88 950.579H1165.61L1151.52 846.228H1101.8L1115.88 950.579Z" stroke="#BBDBF3" stroke-width="2.0382" stroke-miterlimit="10"/>
<path d="M828.417 950.579H1115.88L1101.8 846.228H814.415L828.417 950.579Z" stroke="#BBDBF3" stroke-width="2.0382" stroke-miterlimit="10"/>
<path d="M592.473 950.579H637.835L623.882 846.228H578.532L592.473 950.579Z" stroke="#BBDBF3" stroke-width="2.0382" stroke-miterlimit="10"/>
<path d="M637.835 950.579H683.198L669.233 846.228H623.882L637.835 950.579Z" stroke="#BBDBF3" stroke-width="2.0382" stroke-miterlimit="10"/>
<path d="M683.198 950.579H739.876L725.898 846.228H669.233L683.198 950.579Z" stroke="#BBDBF3" stroke-width="2.0382" stroke-miterlimit="10"/>
<path d="M739.876 950.579H828.417L814.415 846.228H725.898L739.876 950.579Z" stroke="#BBDBF3" stroke-width="2.0382" stroke-miterlimit="10"/>
<path d="M585.95 901.754H1159.02L1155.72 877.346H582.689L585.95 901.754Z" stroke="#BBDBF3" stroke-width="2.0382" stroke-miterlimit="10"/>
<path d="M589.212 926.166H1162.31L1159.02 901.754H585.95L589.212 926.166Z" stroke="#BBDBF3" stroke-width="2.0382" stroke-miterlimit="10"/>
<path d="M592.473 950.579H1165.61L1162.31 926.166H589.212L592.473 950.579Z" stroke="#BBDBF3" stroke-width="2.0382" stroke-miterlimit="10"/>
<path d="M968.488 1385.72C977.504 1459.61 1044.61 1519.46 1118.3 1519.46C1191.99 1519.46 1244.43 1459.61 1235.35 1385.72H1209.17C1216.46 1444.99 1174.25 1493.22 1115.08 1493.22C1055.91 1493.22 1001.9 1444.99 994.66 1385.72C987.434 1326.55 1029.64 1278.37 1088.77 1278.37L1085.56 1252.17C1011.94 1252.17 959.485 1311.95 968.488 1385.72Z" fill="#BBDBF3"/>
<path d="M1085.56 1252.17L1088.77 1278.37C1147.9 1278.37 1201.91 1326.55 1209.18 1385.72H1235.35C1226.28 1311.95 1159.18 1252.17 1085.56 1252.17Z" fill="#F9E181"/>
<path d="M1088.77 1278.37L1092.35 1307.64C1135.32 1307.64 1174.6 1342.68 1179.88 1385.72H1209.18C1201.91 1326.55 1147.9 1278.37 1088.77 1278.37Z" fill="#F9ECB8"/>
<path d="M994.661 1385.72C1001.9 1444.99 1055.92 1493.22 1115.08 1493.22C1174.25 1493.22 1216.46 1444.99 1209.18 1385.72H1179.88C1185.17 1428.78 1154.47 1463.85 1111.49 1463.85C1068.51 1463.85 1029.22 1428.78 1023.96 1385.72C1018.7 1342.68 1049.4 1307.64 1092.36 1307.64L1088.77 1278.37C1029.64 1278.37 987.434 1326.55 994.661 1385.72Z" fill="white"/>
<path d="M642.566 1385.72C651.5 1459.61 718.539 1519.46 792.229 1519.46C865.918 1519.46 918.426 1459.61 909.426 1385.72C904.037 1341.49 877.815 1302.28 841.759 1278.03L828.853 1299.16C857.819 1318.76 878.936 1350.26 883.254 1385.72C890.469 1444.99 848.212 1493.22 789.044 1493.22C729.875 1493.22 675.911 1444.99 668.739 1385.72C661.577 1326.55 703.841 1278.37 762.968 1278.37L759.788 1252.17C686.162 1252.17 633.644 1311.95 642.566 1385.72Z" fill="#BBDBF3"/>
<path d="M668.738 1385.72C675.91 1444.99 729.874 1493.22 789.043 1493.22C848.211 1493.22 890.468 1444.99 883.252 1385.72C878.935 1350.26 857.818 1318.76 828.852 1299.16L814.434 1322.72C835.463 1336.97 850.818 1359.92 853.955 1385.72C859.194 1428.78 828.461 1463.85 785.478 1463.85C742.494 1463.85 703.248 1428.78 698.032 1385.72C692.818 1342.68 723.555 1307.64 766.516 1307.64L762.964 1278.37C703.84 1278.37 661.576 1326.55 668.738 1385.72Z" fill="white"/>
<path d="M759.785 1252.17L762.965 1278.37C786.63 1278.37 809.496 1286.09 828.852 1299.16L841.758 1278.03C817.714 1261.76 789.277 1252.17 759.785 1252.17Z" fill="#F9E181"/>
<path d="M762.966 1278.37L766.518 1307.64C783.731 1307.64 800.376 1313.27 814.437 1322.72L828.854 1299.16C809.497 1286.09 786.631 1278.37 762.966 1278.37Z" fill="#F9ECB8"/>
<path d="M993.997 1230.7H1171.87L1170.59 1220.34H992.732L993.997 1230.7Z" fill="white"/>
<path d="M668.246 1230.7H846.113L844.853 1220.34H666.991L668.246 1230.7Z" fill="white"/>
<path d="M1598.05 1385.72C1607.22 1459.61 1674.45 1519.46 1748.14 1519.46C1821.83 1519.46 1874.15 1459.61 1864.91 1385.72H1838.74C1846.14 1444.99 1804.04 1493.22 1744.87 1493.22C1685.7 1493.22 1631.59 1444.99 1624.22 1385.72C1616.87 1326.55 1658.98 1278.37 1718.1 1278.37L1714.84 1252.17C1641.21 1252.17 1588.89 1311.95 1598.05 1385.72Z" fill="#BBDBF3"/>
<path d="M1714.84 1252.17L1718.1 1278.37C1777.23 1278.37 1831.34 1326.55 1838.74 1385.72H1864.91C1855.68 1311.95 1788.46 1252.17 1714.84 1252.17Z" fill="#F9E181"/>
<path d="M1718.1 1278.37L1721.75 1307.64C1764.71 1307.64 1804.07 1342.68 1809.44 1385.72H1838.74C1831.34 1326.55 1777.23 1278.37 1718.1 1278.37Z" fill="#F9ECB8"/>
<path d="M1624.22 1385.72C1631.59 1444.99 1685.7 1493.22 1744.87 1493.22C1804.04 1493.22 1846.14 1444.99 1838.74 1385.72H1809.44C1814.82 1428.78 1784.2 1463.85 1741.21 1463.85C1698.23 1463.85 1658.87 1428.78 1653.52 1385.72C1648.17 1342.68 1678.79 1307.64 1721.75 1307.64L1718.1 1278.37C1658.98 1278.37 1616.87 1326.55 1624.22 1385.72Z" fill="white"/>
<path d="M1272.13 1385.72C1281.22 1459.61 1348.38 1519.46 1422.08 1519.46C1495.77 1519.46 1548.15 1459.61 1538.99 1385.72C1533.5 1341.49 1507.2 1302.28 1471.09 1278.03L1458.23 1299.16C1487.24 1318.76 1508.42 1350.26 1512.81 1385.72C1520.16 1444.99 1478 1493.22 1418.83 1493.22C1359.66 1493.22 1305.6 1444.99 1298.3 1385.72C1291.01 1326.55 1333.17 1278.37 1392.3 1278.37L1389.06 1252.17C1315.44 1252.17 1263.05 1311.95 1272.13 1385.72Z" fill="#BBDBF3"/>
<path d="M1298.3 1385.72C1305.6 1444.99 1359.66 1493.22 1418.83 1493.22C1478 1493.22 1520.16 1444.99 1512.81 1385.72C1508.42 1350.26 1487.24 1318.76 1458.23 1299.16L1443.86 1322.72C1464.92 1336.97 1480.33 1359.92 1483.52 1385.72C1488.85 1428.78 1458.19 1463.85 1415.21 1463.85C1372.22 1463.85 1332.9 1428.78 1327.6 1385.72C1322.29 1342.68 1352.95 1307.64 1395.91 1307.64L1392.3 1278.37C1333.17 1278.37 1291.01 1326.55 1298.3 1385.72Z" fill="white"/>
<path d="M1389.06 1252.17L1392.3 1278.37C1415.96 1278.37 1438.85 1286.09 1458.23 1299.16L1471.09 1278.03C1447.01 1261.76 1418.55 1252.17 1389.06 1252.17Z" fill="#F9E181"/>
<path d="M1392.3 1278.37L1395.91 1307.64C1413.13 1307.64 1429.78 1313.27 1443.86 1322.72L1458.23 1299.16C1438.85 1286.09 1415.96 1278.37 1392.3 1278.37Z" fill="#F9ECB8"/>
<path d="M1623.23 1230.7H1801.1L1799.8 1220.34H1621.94L1623.23 1230.7Z" fill="white"/>
<path d="M1297.48 1230.7H1475.34L1474.06 1220.34H1296.2L1297.48 1230.7Z" fill="white"/>
<path d="M1757.63 812.308L1753.93 784.292C1753.04 777.613 1746.91 772.201 1740.24 772.201H1176.32C1169.64 772.201 1164.89 777.613 1165.7 784.292L1169.11 812.308L1199.57 1062.84H1790.81L1757.63 812.308Z" fill="#93ACBF"/>
<path d="M1758.42 750.407H1194.5C1187.83 750.407 1183.07 755.819 1183.89 762.498L1187.29 790.514L1217.75 1041.04H1808.99L1775.82 790.514L1772.11 762.498C1771.23 755.82 1765.1 750.407 1758.42 750.407Z" fill="#0775EF"/>
<path d="M1193.04 783.752L1223.49 1033.91H1801.44L1768.35 783.752H1193.04Z" fill="white"/>
<path d="M1745.42 973.238H1264.11L1248.26 844.001H1728.43L1745.42 973.238Z" fill="#E5F0F8"/>
<path d="M1712.99 898.115L1719.87 950.62H1283.88L1277.42 898.115H1712.99Z" fill="#6ADB6A"/>
<path d="M1319.02 898.115L1304.52 950.62H1283.88L1283.86 950.437L1298.22 898.115H1319.02Z" fill="#98EB98"/>
<path d="M1355.25 898.115L1340.79 950.62H1320.15L1334.55 898.115H1355.25Z" fill="#98EB98"/>
<path d="M1391.58 898.115L1377.15 950.62H1356.42L1370.78 898.115H1391.58Z" fill="#98EB98"/>
<path d="M1427.82 898.115L1413.42 950.62H1392.69L1407.02 898.115H1427.82Z" fill="#98EB98"/>
<path d="M1464.06 898.115L1449.79 950.62H1429.06L1443.35 898.115H1464.06Z" fill="#98EB98"/>
<path d="M1500.38 898.115L1486.06 950.62H1465.33L1479.59 898.115H1500.38Z" fill="#98EB98"/>
<path d="M1536.62 898.115L1522.42 950.62H1501.69L1515.91 898.115H1536.62Z" fill="#98EB98"/>
<path d="M1535.68 950.596H1719.89L1713.01 898.095H1528.98L1535.68 950.596Z" fill="white"/>
<path d="M1581.64 876.783H1403.35L1401.88 865.017H1580.13L1581.64 876.783Z" fill="white"/>
<path d="M424.118 728.955L423.752 729.157L423.59 727.858C423.752 728.224 423.915 728.549 424.077 728.914L424.118 728.955Z" fill="#F74242"/>
<path d="M1176.44 1870.99H1419.67L1389.04 1620.68H1145.82L1176.44 1870.99Z" fill="#586773"/>
<path d="M1207.06 1870.99H1450.29L1419.67 1620.68H1176.44L1207.06 1870.99Z" fill="#93ACBF"/>
<path d="M909.64 1937.28H1556.06V1870.99H929.649C918.598 1870.99 909.64 1879.94 909.64 1890.99V1937.28Z" fill="#586773"/>
<path d="M1079.61 1937.28H1627.43V1887.82C1627.43 1878.52 1619.9 1870.99 1610.6 1870.99H1096.44C1087.14 1870.99 1079.61 1878.52 1079.61 1887.82L1079.61 1937.28Z" fill="#93ACBF"/>
<path d="M1734.17 305.413L1666.91 378.677L1642.54 405.224V383.95C1637.19 385.535 1631.96 387.416 1626.87 389.591C1574.95 411.42 1537.01 460.09 1530.49 518.127L1466.92 459.759L1404.72 516.91C1413.16 389.591 1505.45 285.245 1626.87 258.476C1632.03 257.333 1637.27 256.337 1642.54 255.49V205.639L1684.98 251.839L1734.17 305.413Z" fill="#088CFC"/>
<path d="M1972.65 536.229C1972.58 672.064 1877.27 785.629 1749.84 813.725C1744.67 814.868 1739.44 815.864 1734.17 816.711V848.089L1708.1 819.699L1642.54 748.315L1691.54 694.924L1734.17 648.503V688.214C1739.51 686.591 1744.75 684.711 1749.84 682.572C1806.88 658.531 1847.07 602.155 1847.22 536.523L1909.79 593.97L1972.65 536.229Z" fill="#F9E181"/>
<path d="M2009.6 481.069L1971.92 515.619V515.656L1909.79 572.659L1845.63 513.775L1810.01 481.07H1837.37C1835.42 475.687 1833.13 470.451 1830.59 465.363C1804.7 413.485 1751.24 377.646 1689.52 377.203L1755.44 305.414L1706.77 252.393C1831.18 260.356 1933.83 348.333 1963.77 465.363C1965.13 470.525 1966.31 475.798 1967.31 481.07H2009.6V481.069Z" fill="#F74242"/>
<path d="M1687.45 820.4C1548.7 819.957 1433.33 720.146 1408.85 588.366C1407.89 583.167 1407.08 577.932 1406.38 572.659H1367.11L1404.09 538.737L1466.92 481.069L1529.49 538.479V538.516L1566.7 572.659H1533.73C1534.95 578.006 1536.5 583.242 1538.3 588.366C1558.14 645.186 1609.39 687.367 1671.12 694.04L1621.27 748.315L1687.45 820.4Z" fill="#6ADB6A"/>
<path d="M589.212 1332.05L1048.96 1507.27L1683.27 1644.51L2084.49 833.238" stroke="#088CFC" stroke-width="38.2771" stroke-miterlimit="10"/>
<path d="M824.793 1476.44H372.153C364.332 1476.44 358.01 1482.78 358.01 1490.6V1579.19H838.963V1490.6C838.963 1482.78 832.615 1476.44 824.793 1476.44ZM479.204 1549.05C466.434 1549.05 456.064 1538.71 456.064 1525.91C456.064 1513.14 466.434 1502.77 479.204 1502.77C491.973 1502.77 502.343 1513.14 502.343 1525.91C502.343 1538.71 491.973 1549.05 479.204 1549.05ZM717.743 1549.05C704.974 1549.05 694.603 1538.71 694.603 1525.91C694.603 1513.14 704.974 1502.77 717.743 1502.77C730.512 1502.77 740.882 1513.14 740.882 1525.91C740.882 1538.71 730.512 1549.05 717.743 1549.05Z" fill="#F74242"/>
<path d="M357.998 1579.19V1923.22C357.998 1931.04 364.341 1937.38 372.165 1937.38H824.785C832.609 1937.38 838.952 1931.04 838.952 1923.22V1579.19H357.998Z" fill="white"/>
<path d="M469.247 1612.8H393.954V1688.1H469.247V1612.8Z" fill="#E5F0F8"/>
<path d="M469.247 1720.64H393.954V1795.93H469.247V1720.64Z" fill="#E5F0F8"/>
<path d="M469.247 1828.48H393.954V1903.77H469.247V1828.48Z" fill="#E5F0F8"/>
<path d="M580.497 1612.8H505.204V1688.1H580.497V1612.8Z" fill="#E5F0F8"/>
<path d="M580.497 1720.64H505.204V1795.93H580.497V1720.64Z" fill="#BBDBF3"/>
<path d="M580.497 1828.48H505.204V1903.77H580.497V1828.48Z" fill="#E5F0F8"/>
<path d="M691.746 1612.8H616.453V1688.1H691.746V1612.8Z" fill="#E5F0F8"/>
<path d="M691.746 1720.64H616.453V1795.93H691.746V1720.64Z" fill="#E5F0F8"/>
<path d="M691.746 1828.48H616.453V1903.77H691.746V1828.48Z" fill="#E5F0F8"/>
<path d="M802.996 1612.8H727.703V1688.1H802.996V1612.8Z" fill="#E5F0F8"/>
<path d="M802.996 1720.64H727.703V1795.93H802.996V1720.64Z" fill="#E5F0F8"/>
<path d="M802.996 1828.48H727.703V1903.77H802.996V1828.48Z" fill="#E5F0F8"/>
<path d="M717.744 1439.79V1539.73C725.23 1539.73 731.354 1535.12 731.354 1529.49V1450.04C731.354 1444.4 725.23 1439.79 717.744 1439.79Z" fill="#586773"/>
<path d="M704.134 1450.04V1529.49C704.134 1535.12 710.259 1539.73 717.744 1539.73V1439.79C710.259 1439.79 704.134 1444.4 704.134 1450.04Z" fill="#93ACBF"/>
<path d="M465.596 1450.04V1529.49C465.596 1535.12 471.719 1539.73 479.204 1539.73V1439.79C471.719 1439.79 465.596 1444.4 465.596 1450.04Z" fill="#93ACBF"/>
<path d="M479.206 1439.79H479.204V1539.73H479.206C486.691 1539.73 492.816 1535.12 492.816 1529.49V1450.04C492.816 1444.4 486.691 1439.79 479.206 1439.79Z" fill="#586773"/>
<path d="M506.444 1330.5C506.231 1343.01 496.587 1353.2 484.417 1354.34C486.788 1365.74 491.033 1376.81 497.209 1387.09C506.929 1379.6 520.897 1380.41 529.644 1389.5C531.942 1391.85 533.646 1394.6 534.803 1397.48C537.963 1405.57 536.61 1415.02 530.876 1421.97C537.368 1426.2 544.215 1429.63 551.297 1432.32C554.508 1433.52 557.784 1434.58 561.076 1435.46C561.722 1435.66 562.402 1435.82 563.041 1435.98C564.665 1423.81 575.161 1414.58 587.675 1414.79C594.002 1414.93 599.692 1417.4 603.919 1421.42C608.131 1425.36 610.915 1430.78 611.518 1436.82C622.88 1434.45 633.946 1430.21 644.182 1424.04C636.776 1414.31 637.64 1400.38 646.639 1391.64C655.688 1382.94 669.649 1382.62 679.112 1390.41C685.633 1380.4 690.298 1369.46 693.074 1358.21C680.949 1356.58 671.722 1346.12 671.977 1333.6C672.19 1321.09 681.834 1310.89 694.004 1309.76C691.639 1298.4 687.388 1287.29 681.217 1277.05C672.556 1283.76 660.382 1283.76 651.67 1277.12C650.687 1276.44 649.72 1275.59 648.826 1274.64C640.077 1265.55 639.755 1251.59 647.592 1242.16C641.489 1238.18 635.054 1234.86 628.377 1232.24C625.166 1231.04 621.925 1229.93 618.627 1229C617.528 1228.7 616.428 1228.39 615.335 1228.12C613.753 1240.28 603.257 1249.52 590.737 1249.26C588.454 1249.23 586.252 1248.88 584.189 1248.28C574.811 1245.47 567.864 1237.24 566.902 1227.28C555.54 1229.64 544.474 1233.89 534.24 1240.06C541.645 1249.79 540.78 1263.72 531.782 1272.46C522.734 1281.16 508.773 1281.48 499.309 1273.69C492.79 1283.7 488.124 1294.64 485.305 1305.9C497.465 1307.48 506.656 1317.98 506.444 1330.5ZM553.211 1294.73C558.947 1289.19 565.636 1285.24 572.753 1282.89C581.946 1279.81 591.819 1279.39 601.194 1281.63C604.508 1282.38 607.799 1283.53 610.922 1285C616.632 1287.6 621.948 1291.32 626.558 1296.11C632.318 1302.07 636.36 1309.1 638.666 1316.48C644.379 1334.63 639.803 1355.28 625.169 1369.37C623.42 1371.05 621.565 1372.61 619.634 1373.97C607.547 1382.84 592.547 1385.73 578.55 1382.78C575.198 1382.08 571.922 1381.02 568.727 1379.64C562.577 1377.02 556.842 1373.16 551.915 1368.02C549.976 1366.01 548.238 1363.88 546.657 1361.63C532.338 1341.12 534.628 1312.64 553.211 1294.73Z" fill="#2EC6FC"/>
<path d="M560.872 1369.78C578.77 1383.21 603.133 1382.01 619.573 1368.2C622.271 1365.92 624.739 1363.32 626.967 1360.35C629.164 1357.43 630.995 1354.29 632.407 1351.1C641.07 1331.46 635.451 1307.76 617.511 1294.3C599.613 1280.87 575.291 1282.1 558.851 1295.91C556.185 1298.15 553.685 1300.79 551.488 1303.72C549.26 1306.68 547.461 1309.78 546.017 1313.01C537.355 1332.65 542.974 1356.35 560.872 1369.78Z" fill="#F9ECB8"/>
<path d="M546.017 1313.01L619.573 1368.2C622.271 1365.92 624.739 1363.32 626.967 1360.35C629.164 1357.43 630.995 1354.29 632.407 1351.1L558.851 1295.91C556.185 1298.15 553.685 1300.79 551.488 1303.71C549.26 1306.68 547.461 1309.78 546.017 1313.01Z" fill="#F9E181"/>
<path d="M790.719 259.093H163.213C155.784 259.093 149.761 266.146 149.761 274.845V311.317V635.796H804.171V311.317V274.845C804.171 266.146 798.148 259.093 790.719 259.093Z" fill="#088CFC"/>
<path d="M796.861 302.519H157.071V626.591H796.861V302.519Z" fill="white"/>
<path d="M186.337 578.453H761.947" stroke="#BBDBF3" stroke-width="2.146" stroke-miterlimit="10" stroke-linecap="round" stroke-linejoin="round" stroke-dasharray="12.83 12.83"/>
<path d="M186.337 541.074H761.947" stroke="#BBDBF3" stroke-width="2.146" stroke-miterlimit="10" stroke-linecap="round" stroke-linejoin="round" stroke-dasharray="12.83 12.83"/>
<path d="M761.947 503.695H186.337" stroke="#BBDBF3" stroke-width="2.146" stroke-miterlimit="10" stroke-linecap="round" stroke-linejoin="round" stroke-dasharray="12.83 12.83"/>
<path d="M186.337 466.316H761.947" stroke="#BBDBF3" stroke-width="2.146" stroke-miterlimit="10" stroke-linecap="round" stroke-linejoin="round" stroke-dasharray="12.83 12.83"/>
<path d="M186.337 428.937H761.947" stroke="#BBDBF3" stroke-width="2.146" stroke-miterlimit="10" stroke-linecap="round" stroke-linejoin="round" stroke-dasharray="12.83 12.83"/>
<path d="M186.337 391.558H761.947" stroke="#BBDBF3" stroke-width="2.146" stroke-miterlimit="10" stroke-linecap="round" stroke-linejoin="round" stroke-dasharray="12.83 12.83"/>
<path d="M186.337 354.179H761.947" stroke="#BBDBF3" stroke-width="2.146" stroke-miterlimit="10" stroke-linecap="round" stroke-linejoin="round" stroke-dasharray="12.83 12.83"/>
<path d="M187.186 409.097C187.186 409.097 214.593 395.658 235.711 412.297C256.829 428.937 281.787 469.245 367.539 465.972C453.292 462.699 498.419 489.221 553.124 517.584C621.598 553.085 673.434 500.722 694.552 454.269C715.67 407.817 761.947 409.737 761.947 409.737" stroke="#2EC6FC" stroke-width="4.292" stroke-miterlimit="10" stroke-linecap="round" stroke-linejoin="round"/>
<path d="M187.186 564.125C187.186 564.125 215.873 516.463 285.627 528.769C355.381 541.075 429.615 541.075 483.371 503.696C516.375 480.747 560.165 425.361 639.517 473.094C718.871 520.828 745.509 519.171 761.947 517.251" stroke="#F74242" stroke-width="4.292" stroke-miterlimit="10" stroke-linecap="round" stroke-linejoin="round"/>
<path d="M286.384 530.782C287.678 522.422 281.95 514.596 273.589 513.301C265.228 512.007 257.402 517.735 256.107 526.095C254.813 534.454 260.541 542.281 268.902 543.575C277.262 544.87 285.089 539.142 286.384 530.782Z" fill="white" stroke="#F74242" stroke-width="4.292" stroke-miterlimit="10" stroke-linecap="round" stroke-linejoin="round"/>
<path d="M409.569 548.22C418.029 548.22 424.887 541.362 424.887 532.903C424.887 524.443 418.029 517.585 409.569 517.585C401.109 517.585 394.251 524.443 394.251 532.903C394.251 541.362 401.109 548.22 409.569 548.22Z" fill="white" stroke="#F74242" stroke-width="4.292" stroke-miterlimit="10" stroke-linecap="round" stroke-linejoin="round"/>
<path d="M577.442 469.589C585.902 469.589 592.761 462.73 592.761 454.27C592.761 445.81 585.902 438.951 577.442 438.951C568.981 438.951 562.123 445.81 562.123 454.27C562.123 462.73 568.981 469.589 577.442 469.589Z" fill="white" stroke="#F74242" stroke-width="4.292" stroke-miterlimit="10" stroke-linecap="round" stroke-linejoin="round"/>
<path d="M341.941 479.874C350.402 479.874 357.26 473.015 357.26 464.555C357.26 456.094 350.402 449.236 341.941 449.236C333.481 449.236 326.622 456.094 326.622 464.555C326.622 473.015 333.481 479.874 341.941 479.874Z" fill="white" stroke="#2EC6FC" stroke-width="4.292" stroke-miterlimit="10" stroke-linecap="round" stroke-linejoin="round"/>
<path d="M596.641 544.595C605.101 544.595 611.959 537.737 611.959 529.278C611.959 520.818 605.101 513.96 596.641 513.96C588.181 513.96 581.323 520.818 581.323 529.278C581.323 537.737 588.181 544.595 596.641 544.595Z" fill="white" stroke="#2EC6FC" stroke-width="4.292" stroke-miterlimit="10" stroke-linecap="round" stroke-linejoin="round"/>
<path d="M743.58 419.073C744.941 410.723 739.274 402.851 730.924 401.491C722.573 400.13 714.701 405.796 713.341 414.146C711.98 422.496 717.647 430.367 725.997 431.728C734.348 433.088 742.22 427.422 743.58 419.073Z" fill="white" stroke="#2EC6FC" stroke-width="4.292" stroke-miterlimit="10" stroke-linecap="round" stroke-linejoin="round"/>
<path d="M721.43 528.424C729.89 528.424 736.749 521.565 736.749 513.105C736.749 504.645 729.89 497.786 721.43 497.786C712.969 497.786 706.111 504.645 706.111 513.105C706.111 521.565 712.969 528.424 721.43 528.424Z" fill="white" stroke="#F74242" stroke-width="4.292" stroke-miterlimit="10" stroke-linecap="round" stroke-linejoin="round"/>
<path d="M187.186 315.387V613.722H767.595" stroke="#BBDBF3" stroke-width="4.292" stroke-miterlimit="10" stroke-linecap="round" stroke-linejoin="round"/>
<path d="M1007.7 1577.09C1018.26 1583.8 1021.93 1597.34 1016.56 1608.32C1027.53 1612.24 1039.18 1614.39 1051.17 1614.48C1049.85 1602.28 1057.83 1590.79 1070.14 1588.06C1073.34 1587.32 1076.58 1587.3 1079.64 1587.82C1088.19 1589.34 1095.55 1595.42 1098.49 1603.93C1105.48 1600.6 1111.98 1596.54 1117.97 1591.9C1120.67 1589.79 1123.28 1587.55 1125.75 1585.2C1126.26 1584.75 1126.75 1584.25 1127.22 1583.79C1117.68 1576.06 1115.27 1562.29 1121.98 1551.72C1125.4 1546.39 1130.47 1542.83 1136.1 1541.32C1141.66 1539.77 1147.74 1540.23 1153.21 1542.86C1157.11 1531.93 1159.26 1520.28 1159.33 1508.32C1147.16 1509.57 1135.73 1501.57 1132.96 1489.34C1130.26 1477.08 1137.26 1465 1148.84 1460.98C1143.7 1450.2 1136.8 1440.52 1128.64 1432.28C1120.93 1441.78 1107.2 1444.2 1096.65 1437.45C1086.08 1430.75 1082.41 1417.2 1087.79 1406.23C1076.86 1402.32 1065.16 1400.16 1053.21 1400.09C1054.42 1410.98 1048.07 1421.36 1037.87 1425.34C1036.78 1425.82 1035.54 1426.2 1034.26 1426.47C1021.95 1429.2 1009.87 1422.19 1005.91 1410.59C999.327 1413.72 993.14 1417.48 987.42 1421.81C984.721 1423.93 982.086 1426.12 979.578 1428.45C978.742 1429.23 977.905 1430 977.11 1430.8C986.662 1438.49 989.07 1452.26 982.324 1462.81C981.105 1464.74 979.656 1466.44 978.073 1467.89C970.786 1474.43 960.141 1476.07 951.138 1471.69C947.231 1482.62 945.084 1494.27 945.014 1506.23C957.181 1504.98 968.618 1512.98 971.38 1525.21C974.085 1537.47 967.081 1549.55 955.501 1553.57C960.641 1564.35 967.545 1574.03 975.684 1582.31C983.375 1572.76 997.128 1570.39 1007.7 1577.09ZM1001.56 1518.54C999.817 1510.75 999.936 1502.99 1001.64 1495.69C1003.81 1486.24 1008.6 1477.6 1015.4 1470.77C1017.77 1468.33 1020.46 1466.12 1023.35 1464.22C1028.54 1460.7 1034.48 1458.11 1040.98 1456.67C1049.07 1454.86 1057.17 1455.07 1064.68 1456.96C1083.14 1461.55 1098.37 1476.21 1102.77 1496.05C1103.29 1498.42 1103.65 1500.81 1103.8 1503.17C1105.07 1518.11 1099.72 1532.42 1089.9 1542.82C1087.56 1545.32 1084.95 1547.56 1082.11 1549.57C1076.67 1553.45 1070.38 1556.33 1063.43 1557.86C1060.7 1558.46 1057.97 1558.83 1055.23 1559.01C1030.26 1560.54 1007.16 1543.74 1001.56 1518.54Z" fill="#2EC6FC"/>
<path d="M1069.59 1551.13C1090.39 1542.86 1102.07 1521.44 1098.86 1500.22C1098.31 1496.72 1097.38 1493.26 1096.01 1489.81C1094.66 1486.41 1092.94 1483.22 1090.95 1480.35C1078.71 1462.71 1055.56 1455.15 1034.72 1463.44C1013.92 1471.72 1002.29 1493.11 1005.5 1514.34C1006.03 1517.79 1006.98 1521.29 1008.33 1524.69C1009.7 1528.14 1011.4 1531.29 1013.41 1534.21C1025.65 1551.84 1048.8 1559.4 1069.59 1551.13Z" fill="#F9ECB8"/>
<path d="M1013.41 1534.21L1098.86 1500.22C1098.31 1496.72 1097.38 1493.26 1096.01 1489.81C1094.66 1486.41 1092.94 1483.22 1090.95 1480.35L1005.5 1514.34C1006.03 1517.79 1006.97 1521.29 1008.33 1524.69C1009.7 1528.14 1011.4 1531.29 1013.41 1534.21Z" fill="#F9E181"/>
<path d="M1609.71 1682.47C1615.47 1693.58 1611.82 1707.13 1601.65 1713.91C1609.16 1722.82 1618.15 1730.54 1628.47 1736.65C1633.47 1725.44 1646.14 1719.52 1658.15 1723.36C1661.29 1724.33 1664.1 1725.95 1666.49 1727.93C1673.11 1733.54 1676.41 1742.51 1674.67 1751.34C1682.39 1751.98 1690.04 1751.74 1697.55 1750.75C1700.95 1750.28 1704.34 1749.65 1707.65 1748.87C1708.32 1748.74 1708.99 1748.55 1709.63 1748.39C1705.28 1736.91 1710.13 1723.8 1721.24 1718.04C1726.87 1715.16 1733.05 1714.63 1738.68 1716.16C1744.25 1717.62 1749.28 1721.07 1752.68 1726.1C1761.56 1718.62 1769.28 1709.62 1775.35 1699.33C1764.21 1694.28 1758.35 1681.62 1762.12 1669.66C1765.95 1657.7 1778.08 1650.79 1790.11 1653.14C1791.09 1641.24 1790 1629.4 1787.09 1618.17C1775.65 1622.5 1762.56 1617.69 1756.84 1606.55C1751.08 1595.43 1754.72 1581.88 1764.89 1575.1C1757.41 1566.23 1748.4 1558.47 1738.1 1552.4C1733.67 1562.42 1722.95 1568.2 1712.14 1566.5C1710.95 1566.37 1709.69 1566.08 1708.45 1565.66C1696.44 1561.83 1689.52 1549.7 1691.94 1537.68C1684.68 1537.07 1677.44 1537.21 1670.31 1538.07C1666.92 1538.54 1663.54 1539.11 1660.2 1539.86C1659.08 1540.11 1657.97 1540.36 1656.88 1540.65C1661.27 1552.1 1656.42 1565.21 1645.28 1570.94C1643.26 1571.99 1641.15 1572.73 1639.05 1573.19C1629.47 1575.17 1619.44 1571.23 1613.86 1562.92C1604.99 1570.4 1597.27 1579.39 1591.19 1589.68C1602.34 1594.73 1608.19 1607.4 1604.42 1619.36C1600.6 1631.31 1588.46 1638.23 1576.44 1635.87C1575.45 1647.78 1576.55 1659.62 1579.42 1670.87C1590.87 1666.48 1603.95 1671.35 1609.71 1682.47ZM1633.87 1628.78C1636.28 1621.17 1640.29 1614.52 1645.43 1609.07C1652.06 1602 1660.55 1596.94 1669.86 1594.45C1673.14 1593.53 1676.57 1592.98 1680.02 1592.79C1686.28 1592.37 1692.73 1593.11 1699.06 1595.14C1706.96 1597.65 1713.86 1601.91 1719.4 1607.31C1733.04 1620.57 1738.83 1640.91 1732.65 1660.26C1731.9 1662.57 1731.01 1664.82 1729.96 1666.94C1723.54 1680.48 1711.72 1690.16 1698 1694.21C1694.72 1695.19 1691.33 1695.81 1687.86 1696.12C1681.21 1696.73 1674.32 1696.06 1667.55 1693.88C1664.89 1693.03 1662.34 1691.98 1659.89 1690.75C1637.54 1679.51 1626.03 1653.37 1633.87 1628.78Z" fill="#2EC6FC"/>
<path d="M1676.26 1691.17C1698.39 1694.48 1719.26 1681.86 1727.17 1661.89C1728.46 1658.6 1729.4 1655.14 1729.95 1651.47C1730.49 1647.85 1730.61 1644.22 1730.34 1640.75C1728.63 1619.35 1712.42 1601.17 1690.24 1597.84C1668.11 1594.53 1647.29 1607.17 1639.39 1627.13C1638.11 1630.37 1637.16 1633.88 1636.62 1637.5C1636.07 1641.17 1635.96 1644.75 1636.22 1648.27C1637.93 1669.68 1654.14 1687.86 1676.26 1691.17Z" fill="#F9ECB8"/>
<path d="M1636.22 1648.28L1727.17 1661.89C1728.46 1658.6 1729.4 1655.14 1729.95 1651.47C1730.49 1647.85 1730.61 1644.22 1730.34 1640.75L1639.39 1627.13C1638.11 1630.37 1637.16 1633.88 1636.62 1637.5C1636.07 1641.17 1635.96 1644.75 1636.22 1648.28Z" fill="#F9E181"/>
<path d="M1825.15 1192.84C1824.94 1205.35 1815.3 1215.54 1803.13 1216.68C1805.5 1228.08 1809.74 1239.15 1815.92 1249.43C1825.64 1241.93 1839.61 1242.75 1848.35 1251.83C1850.65 1254.19 1852.36 1256.94 1853.51 1259.82C1856.67 1267.91 1855.32 1277.36 1849.58 1284.31C1856.08 1288.54 1862.92 1291.97 1870.01 1294.66C1873.22 1295.86 1876.49 1296.92 1879.78 1297.8C1880.43 1298 1881.11 1298.16 1881.75 1298.32C1883.37 1286.15 1893.87 1276.92 1906.38 1277.13C1912.71 1277.27 1918.4 1279.74 1922.63 1283.76C1926.84 1287.69 1929.62 1293.12 1930.23 1299.16C1941.59 1296.79 1952.65 1292.55 1962.89 1286.38C1955.48 1276.64 1956.35 1262.71 1965.35 1253.98C1974.4 1245.28 1988.36 1244.96 1997.82 1252.75C2004.34 1242.74 2009.01 1231.8 2011.78 1220.54C1999.66 1218.91 1990.43 1208.46 1990.69 1195.94C1990.9 1183.42 2000.54 1173.23 2012.71 1172.1C2010.35 1160.73 2006.1 1149.63 1999.93 1139.39C1991.26 1146.1 1979.09 1146.1 1970.38 1139.46C1969.4 1138.78 1968.43 1137.93 1967.53 1136.97C1958.79 1127.89 1958.46 1113.93 1966.3 1104.5C1960.2 1100.52 1953.76 1097.2 1947.09 1094.57C1943.87 1093.37 1940.63 1092.27 1937.34 1091.34C1936.24 1091.03 1935.14 1090.73 1934.04 1090.46C1932.46 1102.62 1921.97 1111.86 1909.44 1111.6C1907.16 1111.57 1904.96 1111.21 1902.9 1110.62C1893.52 1107.81 1886.57 1099.58 1885.61 1089.62C1874.25 1091.98 1863.18 1096.23 1852.95 1102.4C1860.35 1112.13 1859.49 1126.06 1850.49 1134.8C1841.44 1143.49 1827.48 1143.82 1818.02 1136.03C1811.5 1146.03 1806.83 1156.98 1804.01 1168.24C1816.17 1169.82 1825.36 1180.32 1825.15 1192.84ZM1871.92 1157.07C1877.66 1151.52 1884.34 1147.58 1891.46 1145.23C1900.65 1142.15 1910.53 1141.73 1919.9 1143.97C1923.22 1144.72 1926.51 1145.86 1929.63 1147.34C1935.34 1149.94 1940.66 1153.66 1945.27 1158.45C1951.03 1164.41 1955.07 1171.44 1957.37 1178.82C1963.09 1196.97 1958.51 1217.62 1943.88 1231.71C1942.13 1233.39 1940.27 1234.95 1938.34 1236.31C1926.26 1245.18 1911.26 1248.07 1897.26 1245.12C1893.91 1244.42 1890.63 1243.36 1887.44 1241.98C1881.28 1239.36 1875.55 1235.5 1870.62 1230.36C1868.68 1228.35 1866.95 1226.22 1865.37 1223.97C1851.05 1203.46 1853.34 1174.98 1871.92 1157.07Z" fill="#2EC6FC"/>
<path d="M1879.58 1232.12C1897.48 1245.55 1921.84 1244.35 1938.28 1230.54C1940.98 1228.25 1943.45 1225.66 1945.68 1222.69C1947.87 1219.77 1949.7 1216.63 1951.12 1213.44C1959.78 1193.8 1954.16 1170.1 1936.22 1156.64C1918.32 1143.21 1894 1144.44 1877.56 1158.25C1874.89 1160.49 1872.39 1163.13 1870.2 1166.05C1867.97 1169.02 1866.17 1172.12 1864.73 1175.35C1856.06 1194.99 1861.68 1218.69 1879.58 1232.12Z" fill="#F9ECB8"/>
<path d="M1864.73 1175.35L1938.28 1230.54C1940.98 1228.25 1943.45 1225.66 1945.68 1222.69C1947.87 1219.77 1949.7 1216.63 1951.12 1213.44L1877.56 1158.25C1874.89 1160.49 1872.39 1163.13 1870.2 1166.05C1867.97 1169.02 1866.17 1172.12 1864.73 1175.35Z" fill="#F9E181"/>
<path d="M1923.42 1327.73L1977.48 1326.81L1974.65 1270.05L1973.29 1242.9L1973.22 1241.55L1930.92 1223.77L1929.54 1242.96L1928.52 1256.94L1923.42 1327.73Z" fill="#FDAE97"/>
<path d="M2029.14 1503.43L2051.87 1691.61C2052.58 1696.37 2052.56 1701.31 2051.59 1706.3C2047.02 1729.8 2024.27 1745.15 2000.78 1740.58C1977.28 1736.01 1968.29 1717.87 1964.07 1690.89C1955.97 1639.1 1927.67 1483.71 1927.67 1483.71L2029.14 1503.43Z" fill="#088CFC"/>
<path d="M1881.74 1493.96L1965.24 1499.56L1964.83 1592.08L1954.92 1606.73L1945.73 1695.92L1861.2 1689.16L1881.74 1493.96Z" fill="#088CFC"/>
<path d="M2097.83 1451.95L2097.55 1452.14C2085.09 1460.42 2068.12 1457.01 2059.83 1444.56L1992.29 1343.06C1984 1330.6 1987.41 1313.62 1999.87 1305.34L2000.15 1305.15C2012.61 1296.86 2029.58 1300.27 2037.87 1312.73L2105.41 1414.23C2113.7 1426.68 2110.29 1443.66 2097.83 1451.95Z" fill="#F74242"/>
<path d="M1731.53 1324.48L1760.21 1352.55L1789.19 1334.91L1770.55 1305.89L1732.77 1307.11L1731.53 1324.48Z" fill="#E89780"/>
<path d="M1842.89 1457.49C1829.4 1465.34 1812.6 1462 1805.71 1450.07L1771.6 1387.73L1759.56 1365.64L1746.97 1342.64L1767.91 1328.16L1782.78 1317.9L1784.21 1316.88L1799.5 1339.56L1813.53 1360.33L1854.83 1421.48C1861.72 1433.42 1856.39 1449.64 1842.89 1457.49Z" fill="#F74242"/>
<path d="M1949.75 1303.99C1929.91 1304.43 1921.46 1294.57 1918.92 1290.7L1926.33 1287.34L1975.38 1284.88L1981.28 1286.76C1978.79 1291.39 1970.01 1303.54 1949.75 1303.99Z" fill="#FDAE97"/>
<path d="M1879.36 1427.4L1878.18 1508.51H2030.87L2029.06 1304.01L1976.66 1285.08C1976.08 1286.15 1975.44 1287.28 1974.66 1288.45L1974.46 1288.7C1971.62 1292.32 1966.19 1295.74 1950.98 1296.09C1938.31 1296.38 1932.1 1294.62 1928.57 1292.32L1928.52 1292.27C1926.62 1291 1925.49 1289.48 1924.61 1288.11L1875.15 1299.02L1878.47 1402.25L1879.36 1427.4Z" fill="#F74242"/>
<path d="M2067.7 1882.61L1989.16 1882.56L1965.48 1699.77C1963.01 1675.95 1980.28 1654.63 2004.06 1652.12C2027.88 1649.65 2049.18 1666.91 2051.69 1690.7C2051.91 1692.77 2051.94 1694.79 2051.87 1696.84L2065.54 1857.27L2067.7 1882.61Z" fill="#088CFC"/>
<path d="M1815.53 1458.69C1829.07 1465.59 1845.79 1460.16 1852.69 1446.62L1908.15 1337.82C1915.05 1324.28 1909.62 1307.56 1896.08 1300.66C1882.54 1293.76 1865.82 1299.19 1858.92 1312.73L1803.46 1421.53C1796.56 1435.06 1801.99 1451.79 1815.53 1458.69Z" fill="#F74242"/>
<path d="M1928.57 1292.32L1950.98 1327.74L1974.46 1288.7C1971.62 1292.32 1966.19 1295.74 1950.98 1296.09C1938.31 1296.38 1932.1 1294.62 1928.57 1292.32Z" fill="#D6EAFF"/>
<path d="M2188.27 1694.56C2176.63 1687.87 2149.35 1675.75 2134.77 1668.6C2113.64 1658.24 2100.94 1618.35 2136.35 1587.03C2165.1 1561.6 2209.79 1596.71 2226.19 1608.65C2228.77 1610.53 2232.31 1608.37 2231.87 1605.21C2230.61 1596.16 2225.28 1578.91 2209.02 1561.81C2179.24 1530.5 2152.02 1524.67 2130.81 1527.26C2126.32 1527.81 2121.68 1527.76 2117.14 1527.33C2099.42 1525.65 2082.76 1518.13 2069.09 1506.72L1745.8 1236.85C1702.51 1196.74 1726.03 1157.47 1689.96 1121.4C1663.19 1094.63 1612.73 1096.55 1591.52 1098.56C1588.29 1098.86 1587.34 1103.11 1590.15 1104.73C1601.78 1111.42 1621.91 1118.43 1636.49 1125.58C1657.63 1135.94 1667.3 1181.24 1631.88 1212.57C1603.13 1238 1564.57 1207.17 1548.16 1195.22C1545.58 1193.34 1542.04 1195.5 1542.48 1198.66C1543.74 1207.71 1548.76 1223.05 1565.02 1240.14C1594.8 1271.46 1626.4 1274.62 1647.61 1272.03C1656.6 1270.93 1666.29 1273.06 1674.67 1276.01C1685.94 1279.97 1696.28 1286.18 1705.45 1293.84L2038.9 1572.19C2045.95 1578.08 2051.61 1585.5 2055.21 1593.95C2067.63 1623.04 2057.31 1650.68 2083.88 1677.24C2110.65 1704.01 2165.69 1702.74 2186.9 1700.73C2190.12 1700.43 2191.08 1696.18 2188.27 1694.56Z" fill="#93ACBF"/>
<path d="M2061.76 1558.84L1701.74 1258.31C1696.59 1254.01 1695.9 1246.29 1700.2 1241.14C1704.49 1235.99 1712.22 1235.29 1717.37 1239.59L2077.39 1540.12C2082.54 1544.42 2083.23 1552.15 2078.93 1557.29C2074.63 1562.44 2066.91 1563.14 2061.76 1558.84Z" fill="#586773"/>
<path d="M1907.7 1465.12C1908.02 1467.5 1922.26 1470.55 1932.83 1469.43C1941.78 1468.49 1962.19 1464.09 1968.2 1462.75L1965.95 1434.19C1962.34 1434.01 1958.37 1433.69 1954.99 1432.98C1946.68 1431.32 1923.55 1429.36 1923.29 1432.72C1923.02 1436.05 1938.62 1440.58 1937.36 1441.9C1936.1 1443.21 1923.89 1442.54 1918.72 1441.84C1913.52 1441.17 1902.66 1437.89 1900.55 1440.08C1898.39 1442.29 1900.74 1446.14 1900.74 1446.14C1900.74 1446.14 1896.73 1444.4 1896.11 1447.1C1895.48 1449.81 1901.05 1454.06 1901.05 1454.06C1901.05 1454.06 1898.95 1452.85 1899 1455.99C1899.07 1459.17 1909.51 1462.64 1909.51 1462.64C1909.51 1462.64 1907.32 1462.73 1907.7 1465.12Z" fill="#FDAE97"/>
<path d="M1946.03 1692.63L1925.86 1882.61H1848.7L1861.07 1691.59C1860.97 1689.58 1861.54 1687.33 1861.71 1685.25C1863.82 1661.39 1882.78 1643.57 1906.64 1645.65C1930.46 1647.77 1948.11 1668.78 1946.03 1692.63Z" fill="#088CFC"/>
<path d="M1961.23 1425L1988.54 1419.5L2013.27 1414.55L2079.26 1401.28C2092.91 1399.46 2105.79 1410.61 2107.9 1426.1C2109.97 1441.58 2100.48 1455.75 2086.81 1457.6L2017.93 1462.69L1992.91 1464.56L1967.04 1466.48L1961.23 1425Z" fill="#F74242"/>
<path d="M1927.03 1277.62L1957.42 1255.47L1928.52 1256.94L1927.03 1277.62Z" fill="#EA9D85"/>
<path d="M1931.54 1192.29C1931.54 1192.29 1926.73 1209.81 1923.32 1222.24L1920.49 1232.51C1918.26 1240.62 1917.23 1253.29 1925.6 1258.58C1933.94 1263.87 1947.53 1263.51 1958.88 1256.42C1970.24 1249.31 2001.43 1211.76 1978.8 1188.5C1956.15 1165.24 1933.33 1188.28 1931.54 1192.29Z" fill="#FDAE97"/>
<path d="M1973.85 1254.1C1973.85 1254.1 1959.17 1231.53 1967.17 1218.68C1975.17 1205.83 1967.17 1202.6 1961.56 1203.59C1955.94 1204.57 1946.18 1204.29 1942.22 1202.74C1942.22 1202.74 1954.12 1203.02 1959.17 1200.08C1959.17 1200.08 1935.72 1202 1930.61 1195.71L1929.35 1200.28C1929.35 1200.28 1920.9 1180.38 1933.61 1175.75C1946.31 1171.12 1951.59 1176.36 1951.59 1176.36C1951.59 1176.36 1947.55 1168.22 1953.36 1166.68C1959.17 1165.14 1964.5 1176.93 1964.5 1176.93C1964.5 1176.93 1972.64 1166.82 1981.06 1176.79C1989.48 1186.75 1985.97 1195.87 1985.97 1195.87C1985.97 1195.87 1995.79 1204.01 1991.02 1216.78C1986.25 1229.55 1974.92 1241.61 1973.85 1254.1Z" fill="#322A28"/>
<path d="M1966.96 1237.73C1962.43 1241.82 1960.62 1245.08 1963.83 1248.64C1967.04 1252.2 1973.73 1253.19 1978.27 1249.1C1982.8 1245.01 1983.87 1238.81 1980.66 1235.25C1977.44 1231.69 1971.49 1233.64 1966.96 1237.73Z" fill="#FDAE97"/>
<path d="M1949.54 1221.75C1949.02 1223.63 1947.62 1224.89 1946.4 1224.55C1945.18 1224.22 1944.61 1222.42 1945.13 1220.54C1945.65 1218.66 1947.05 1217.4 1948.27 1217.73C1949.49 1218.07 1950.06 1219.87 1949.54 1221.75Z" fill="#332B27"/>
<path d="M1926.77 1215.49C1926.26 1217.38 1926.82 1219.17 1928.04 1219.51C1929.26 1219.84 1930.66 1218.59 1931.18 1216.7C1931.7 1214.82 1931.13 1213.02 1929.91 1212.69C1928.7 1212.35 1927.29 1213.61 1926.77 1215.49Z" fill="#332B27"/>
<path d="M1942.62 1233.21C1942.72 1235.1 1945.85 1236.47 1949.61 1236.26C1953.36 1236.05 1956.32 1234.36 1956.22 1232.47C1956.11 1230.58 1952.99 1229.22 1949.23 1229.42C1945.48 1229.63 1942.52 1231.33 1942.62 1233.21Z" fill="#E89780"/>
<path d="M1923.32 1222.24L1921.48 1228.92C1924.2 1230.02 1926.72 1229.87 1927.52 1228.51C1928.41 1226.89 1926.54 1224.09 1923.32 1222.24Z" fill="#E89780"/>
<path d="M1974.84 1244.36C1971.93 1242.94 1969.24 1242.82 1969.24 1242.82C1973.39 1238.45 1977.23 1240.14 1977.23 1240.14" stroke="#EA9D85" stroke-width="1.1811" stroke-miterlimit="10" stroke-linecap="round" stroke-linejoin="round"/>
<path d="M1942.25 1242.74C1942.25 1242.74 1937.22 1248.22 1929.35 1244.44" stroke="#332B27" stroke-width="0.7555" stroke-miterlimit="10"/>
<path d="M1939.82 1220.48L1932.36 1231.36C1931.61 1232.46 1931.7 1233.93 1932.58 1234.93L1933.96 1236.48L1935.36 1238.07" stroke="#332B27" stroke-width="0.7555" stroke-miterlimit="10"/>
<path d="M1953.36 1218.68C1953.36 1218.68 1950.43 1213.59 1945.36 1213.58" stroke="#332B27" stroke-width="0.7555" stroke-miterlimit="10"/>
<path d="M1926.33 1209.09C1926.33 1209.09 1930.39 1206.91 1934.25 1210.18" stroke="#332B27" stroke-width="0.7555" stroke-miterlimit="10"/>
<path d="M1926.45 1285.61L1950.97 1296.1L1938.09 1311.76L1923.42 1288.63L1926.45 1285.61Z" fill="white"/>
<path d="M1975.31 1283.29L1950.97 1296.1L1962.58 1311.1L1977.48 1285.4L1975.31 1283.29Z" fill="white"/>
<path d="M1914.73 1912.3L1916.79 1882.61H1858.98L1856.72 1912.3H1914.73Z" fill="#FDAE97"/>
<path d="M1857.96 1896.06L1916.79 1882.61H1858.98L1857.96 1896.06Z" fill="#EA9D85"/>
<path d="M2000.54 1912.3L1998.32 1882.57L2057.54 1882.61L2058.54 1912.3H2000.54Z" fill="#FDAE97"/>
<path d="M1733.18 1301.97L1741.58 1302.18C1743.83 1302.23 1745.79 1303.8 1746.48 1306.11L1751.76 1323.78C1752.87 1327.48 1750.33 1331.35 1746.71 1331.47L1737.58 1331.79C1735.12 1331.87 1732.95 1330.15 1732.31 1327.59L1727.76 1309.4C1726.81 1305.63 1729.54 1301.88 1733.18 1301.97Z" fill="#FDAE97"/>
<path d="M1999.56 1899.15L2057.54 1882.61L1998.32 1882.57L1999.56 1899.15Z" fill="#EA9D85"/>
<path d="M1984.15 1195.03C1984.15 1195.03 1991.03 1191.38 1997.9 1197.13C1997.9 1197.13 1986.11 1193.76 1984.15 1198.25C1982.19 1202.74 1984.15 1195.03 1984.15 1195.03Z" fill="#322A28"/>
<path d="M1980.35 1291.39L1950.97 1338.64L1921.99 1294.44" stroke="white" stroke-width="0.6146" stroke-miterlimit="10" stroke-linecap="round" stroke-linejoin="round"/>
<path d="M2036.6 1409.65L2047.8 1407.61" stroke="#322A28" stroke-width="0.6146" stroke-miterlimit="10" stroke-linecap="round" stroke-linejoin="round"/>
<path d="M2029.91 1399.59L2023.07 1389.31" stroke="#322A28" stroke-width="0.6146" stroke-miterlimit="10" stroke-linecap="round" stroke-linejoin="round"/>
<path d="M1828.23 1937.28H1913.6L1913.75 1933.8L1914.8 1910.79H1856.7C1849.51 1910.79 1842.86 1915.02 1837.77 1919.42C1833.56 1923.19 1830.43 1928.13 1828.96 1933.8C1828.62 1934.93 1828.38 1936.1 1828.23 1937.28Z" fill="#322A28"/>
<path d="M1828.23 1937.28H1913.6L1913.75 1933.8H1828.96C1828.62 1934.93 1828.38 1936.1 1828.23 1937.28Z" fill="#FFF1F0"/>
<path d="M1854.96 1915.53C1854.96 1915.53 1862.34 1902.58 1867.31 1907.7C1872.27 1912.82 1854.96 1915.53 1854.96 1915.53Z" stroke="#FFF1F0" stroke-width="0.9355" stroke-miterlimit="10" stroke-linecap="round" stroke-linejoin="round"/>
<path d="M1857.55 1918.11L1854.96 1915.53M1854.96 1915.53C1854.96 1915.53 1847.58 1902.58 1842.61 1907.7C1837.64 1912.82 1854.96 1915.53 1854.96 1915.53Z" stroke="#FFF1F0" stroke-width="0.9355" stroke-miterlimit="10" stroke-linecap="round" stroke-linejoin="round"/>
<path d="M1852.97 1918.11L1854.96 1915.53" stroke="#FFF1F0" stroke-width="0.9355" stroke-miterlimit="10" stroke-linecap="round" stroke-linejoin="round"/>
<path d="M2086.59 1937.28H2001.22L2001.07 1933.8L2000.03 1910.79H2058.12C2065.31 1910.79 2071.96 1915.02 2077.05 1919.42C2081.26 1923.19 2084.39 1928.13 2085.86 1933.8C2086.2 1934.93 2086.44 1936.1 2086.59 1937.28Z" fill="#322A28"/>
<path d="M2086.59 1937.28H2001.22L2001.07 1933.8H2085.86C2086.2 1934.93 2086.44 1936.1 2086.59 1937.28Z" fill="#FFF1F0"/>
<path d="M2059.87 1916.31C2059.87 1916.31 2052.49 1903.36 2047.52 1908.48C2042.55 1913.6 2059.87 1916.31 2059.87 1916.31Z" stroke="#FFF1F0" stroke-width="0.9355" stroke-miterlimit="10" stroke-linecap="round" stroke-linejoin="round"/>
<path d="M2057.27 1918.89L2059.87 1916.31M2059.87 1916.31C2059.87 1916.31 2067.25 1903.36 2072.22 1908.48C2077.19 1913.6 2059.87 1916.31 2059.87 1916.31Z" stroke="#FFF1F0" stroke-width="0.9355" stroke-miterlimit="10" stroke-linecap="round" stroke-linejoin="round"/>
<path d="M2061.85 1918.89L2059.87 1916.31" stroke="#FFF1F0" stroke-width="0.9355" stroke-miterlimit="10" stroke-linecap="round" stroke-linejoin="round"/>
<path d="M1952.8 1627.32L1950.02 1604.57L1936.06 1594.94L1924.72 1548.73" stroke="white" stroke-width="1.3549" stroke-miterlimit="10"/>
<path d="M1856.72 1859.33H1911.63" stroke="white" stroke-width="1.3549" stroke-miterlimit="10"/>
<path d="M2003.64 1859.33H2058.54" stroke="white" stroke-width="1.3549" stroke-miterlimit="10"/>
<path d="M703.182 878.413H188.518C182.425 878.413 177.486 884.772 177.486 892.616V925.499V1218.06H714.214V925.499V892.616C714.214 884.772 709.275 878.413 703.182 878.413Z" fill="#0775EF"/>
<path d="M708.218 917.566H183.481V1209.76H708.218V917.566Z" fill="white"/>
<path d="M239.527 1006.63H221.606V1200.77H239.527V1006.63Z" fill="#BBDBF3"/>
<path d="M260.908 1099.32H242.987V1200.77H260.908V1099.32Z" fill="#F9ECB8"/>
<path d="M304.259 1032.91H286.338V1200.77H304.259V1032.91Z" fill="#BBDBF3"/>
<path d="M325.64 978.132H307.719V1200.77H325.64V978.132Z" fill="#F9ECB8"/>
<path d="M368.991 1097.38H351.071V1200.77H368.991V1097.38Z" fill="#BBDBF3"/>
<path d="M390.372 1026.45H372.451V1200.77H390.372V1026.45Z" fill="#F9ECB8"/>
<path d="M433.722 994.594H415.802V1200.77H433.722V994.594Z" fill="#BBDBF3"/>
<path d="M455.104 1022.33H437.184V1200.77H455.104V1022.33Z" fill="#F9ECB8"/>
<path d="M498.454 1141.93H480.534V1200.77H498.454V1141.93Z" fill="#BBDBF3"/>
<path d="M563.187 1095.16H545.266V1200.77H563.187V1095.16Z" fill="#BBDBF3"/>
<path d="M519.836 1047.81H501.916V1200.77H519.836V1047.81Z" fill="#F9ECB8"/>
<path d="M584.567 1157.46H566.647V1200.77H584.567V1157.46Z" fill="#F9ECB8"/>
<path d="M627.919 982.4H609.998V1200.77H627.919V982.4Z" fill="#BBDBF3"/>
<path d="M649.3 1014.64H631.379V1200.77H649.3V1014.64Z" fill="#F9ECB8"/>
<path d="M195.171 926.556V1200.77H696.529" stroke="#BBDBF3" stroke-width="2.6854" stroke-miterlimit="10"/>
<path d="M977.474 309.528H951.729V273.955C951.729 255.017 936.323 239.609 917.384 239.609C898.446 239.609 883.038 255.017 883.038 273.955V309.528H857.293C855.584 309.528 854.202 310.911 854.202 312.609V407.046C854.202 408.755 855.584 410.127 857.293 410.127H917.389H977.474C979.182 410.127 980.565 408.755 980.565 407.046V312.609C980.565 310.91 979.182 309.528 977.474 309.528ZM893.923 273.955C893.923 261.019 904.448 250.495 917.384 250.495C930.32 250.495 940.845 261.02 940.845 273.955V309.528H917.389H893.923V273.955Z" fill="white"/>
<path d="M1326.07 489.651L1352.38 468.219L1347.98 462.815L1340.27 469.091L1336.28 464.194L1343.99 457.919L1337.67 450.16L1327.32 458.587L1323.33 453.692L1333.68 445.265L1327.78 438.026L1313.33 449.803L1310.1 452.432L1298.73 461.692L1297.31 462.85L1227.36 376.987L1227.37 376.977L1244.37 363.119C1254.88 354.539 1256.45 338.936 1247.92 328.479L1231.97 308.874C1223.41 298.416 1207.81 296.787 1197.33 305.344L1197.09 305.536L1192.71 309.102L1192.58 309.224L1157.53 337.806L1155.18 339.709L1147.9 345.637C1143.45 349.251 1140.62 354.123 1139.48 359.362C1139.46 359.386 1139.46 359.386 1139.46 359.386C1139.42 359.665 1139.35 359.944 1139.31 360.223C1138.44 364.938 1138.9 369.873 1140.8 374.368C1141.7 376.434 1142.88 378.437 1144.37 380.278L1144.8 380.812L1144.83 380.813L1151.6 389.135L1152.71 390.495L1160.3 399.831C1162.1 402.071 1164.26 403.893 1166.6 405.315C1167.99 406.152 1169.44 406.839 1170.92 407.374C1176.32 409.334 1182.31 409.378 1187.78 407.401C1190.33 406.506 1192.75 405.169 1194.96 403.362L1209.16 391.794L1210.94 390.323L1211.53 389.841L1211.54 389.835L1308.64 509.023C1310.08 510.791 1312.67 511.047 1314.44 509.605L1319.14 505.779L1323.85 501.944C1325.61 500.512 1325.88 497.916 1324.44 496.148L1321.91 493.042L1324.95 490.567L1326.07 489.651ZM1160.57 374.541L1156.9 370.059C1156.89 370.042 1156.88 370.024 1156.87 370.008C1156.55 369.608 1156.27 369.183 1156.04 368.741C1155.97 368.615 1155.92 368.483 1155.86 368.355C1155.69 368.004 1155.55 367.646 1155.43 367.279C1155.39 367.149 1155.36 367.017 1155.32 366.885C1155.22 366.488 1155.15 366.087 1155.1 365.681C1155.09 365.582 1155.08 365.484 1155.07 365.386C1154.96 363.825 1155.26 362.243 1155.97 360.837C1156.02 360.742 1156.07 360.652 1156.13 360.56C1156.33 360.193 1156.56 359.838 1156.81 359.503C1156.88 359.419 1156.94 359.336 1157.01 359.253C1157.34 358.861 1157.69 358.487 1158.1 358.155L1177.25 342.554L1177.46 342.387L1184.06 337.007L1197.15 326.346L1199.7 324.263L1202.42 322.049L1207.54 317.88C1208.23 317.314 1209.01 316.922 1209.81 316.617C1213.13 315.372 1217.12 316.253 1219.43 319.102L1235.38 338.657C1236.31 339.798 1236.84 341.136 1237.08 342.516C1237.57 345.46 1236.58 348.615 1234.15 350.581L1206.99 372.704L1205.07 374.27L1188.77 387.549L1184.75 390.826C1183.26 392.042 1181.44 392.621 1179.62 392.664C1177.07 392.722 1174.51 391.704 1172.82 389.638L1164.19 379.014L1162.74 377.232L1160.57 374.541Z" fill="white"/>
<path d="M259.42 1331.61C274.975 1354.1 304.295 1361.17 328.23 1349.79L385.974 1433.27L400.441 1423.26L342.706 1339.79C361.864 1321.43 365.551 1291.51 349.97 1268.98C332.687 1244 298.386 1237.65 273.399 1254.93C248.411 1272.21 242.137 1306.63 259.42 1331.61ZM340.129 1275.79C353.588 1295.25 348.679 1322.18 329.221 1335.64C309.651 1349.17 282.829 1344.19 269.371 1324.73C255.836 1305.16 260.711 1278.42 280.28 1264.88C299.739 1251.42 326.594 1256.22 340.129 1275.79Z" fill="white"/>
<path d="M395.344 832.177L395.08 792.226L441.957 799.141L395.344 832.177Z" fill="#2D628C"/>
<path d="M648.984 642.661L653.215 630.264C653.215 630.264 660.832 618.412 663.106 613.825C664.387 611.239 668.555 604.635 669.632 603.816C670.485 603.168 672.966 603.415 673.184 604.44C673.469 605.773 671.368 613.152 670.602 616.058C669.873 618.822 667.688 627.112 667.688 627.112C667.688 627.112 683.701 612.563 688.785 607.386C691.646 604.471 699.642 595.607 701.801 597.465C703.445 598.881 696.275 608.863 693.853 612.303C691.628 615.464 685.04 625.012 685.04 625.012C685.04 625.012 696.211 613.394 699.935 609.522C702.645 606.704 709.664 597.288 712.138 599.301C714.587 601.294 706.999 610.066 704.795 613.276C701.684 617.806 692.348 631.398 692.348 631.398C692.348 631.398 704.31 619.51 708.297 615.547C710.503 613.353 716.229 605.967 718.412 608.007C720.637 610.084 713.903 616.778 711.96 619.283C708.633 623.573 698.647 636.444 698.647 636.444C698.647 636.444 707.526 628.088 710.486 625.303C711.75 624.112 715.631 620.68 716.76 621.955C718.298 623.691 713.406 628.713 711.951 630.574L699.93 645.963C698.956 647.207 697.845 648.33 696.617 649.306L676.255 669.75L648.984 642.661Z" fill="#FDAE97"/>
<path d="M490.951 785.655L649.602 886.121C654.152 888.026 658.474 890.677 662.333 894.184C680.501 910.691 681.848 938.8 665.341 956.967C648.834 975.135 620.725 976.482 602.557 959.975L419.671 864.108L490.951 785.655Z" fill="#B86B76"/>
<path d="M676.696 933.275C676.986 931.226 677.186 929.148 677.186 927.018C677.186 902.472 657.287 882.573 632.741 882.573C608.195 882.573 588.296 902.472 588.296 927.018L590.924 1125.48H664.882L676.696 933.275Z" fill="#B86B76"/>
<path d="M406.853 863.246L506.219 982.103C523.76 1003.08 555.278 1005.9 576.258 988.358C597.239 970.818 600.055 939.3 582.514 918.319L483.148 799.462C465.607 778.481 434.089 775.666 413.108 793.207C392.127 810.748 389.313 842.265 406.853 863.246Z" fill="#E7888B"/>
<path d="M488.167 594.927L535.169 616.092L528.689 807.019L395.08 809.09L376.436 600.064L440.087 591.437L488.167 594.927Z" fill="#E5F0F8"/>
<path d="M488.154 567.352V597.169C488.154 597.169 486.373 603.607 471.214 603.671C456.087 603.702 440.084 593.669 440.084 593.669L444.773 528.471L488.154 567.352Z" fill="#FDAE97"/>
<path d="M488.167 593.08L457.2 560.931L488.167 560.525V593.08Z" fill="#E89780"/>
<path d="M500.845 507.374C500.845 507.374 500.845 525.658 500.845 538.629V549.35C500.845 557.82 498.469 570.384 488.936 573.291C479.434 576.198 466.339 572.229 457.213 562.321C448.086 552.382 427.834 507.624 455.994 491.091C484.185 474.556 500.188 502.998 500.845 507.374Z" fill="#FDAE97"/>
<path d="M564.597 768.686C574.527 776.831 588.845 776.452 598.382 768.422L681.959 671.703L670.482 659.61L649.363 637.293L646.934 634.693L560.867 731.6C551.679 742.818 553.378 759.498 564.597 768.686Z" fill="#F9E181"/>
<path d="M594.276 945.824C594.276 921.278 574.377 901.379 549.831 901.379C525.285 901.379 511.813 911.614 506.459 936.094C494.028 992.927 467.953 1144.29 467.953 1144.29H544.964L593.785 952.081C594.075 950.032 594.276 947.954 594.276 945.824Z" fill="#E7888B"/>
<path d="M595.506 769.898C580.804 778.237 561.953 773.032 553.613 758.332L498.173 660.599C489.833 645.897 495.038 627.046 509.739 618.706C524.44 610.366 543.291 615.572 551.631 630.273L607.072 728.005C615.412 742.707 610.207 761.559 595.506 769.898Z" fill="#F9E181"/>
<path d="M458.917 489.539C458.917 489.539 492.992 473.819 500.851 484.144C508.71 494.468 495.618 498.073 495.618 498.073C495.618 498.073 511.87 496.154 511.237 507.11C510.606 518.067 469.938 503.107 469.938 503.107C469.938 503.107 483.423 509.218 475.628 514.064C467.832 518.91 458.917 512.589 458.917 512.589C458.917 512.589 451.184 517.011 452.45 537.316C453.716 557.621 441.595 562.105 441.595 562.105C441.595 562.105 443.047 531.342 437.108 523.124C431.168 514.907 439.887 484.399 458.917 489.539Z" fill="#322A28"/>
<path d="M454.359 542.023C457.667 547.202 458.549 550.847 454.483 553.442C450.418 556.038 443.657 555.219 440.351 550.041C437.044 544.862 437.66 538.559 441.726 535.964C445.791 533.367 451.053 536.845 454.359 542.023Z" fill="#FDAE97"/>
<path d="M443.746 541.626C443.746 541.626 447.922 541.003 450.782 546.354C450.782 546.354 448.143 545.749 444.935 546.354" stroke="#E89780" stroke-width="0.6272" stroke-miterlimit="10"/>
<path d="M475.524 531.159C475.524 533.125 476.554 534.716 477.825 534.716C479.095 534.716 480.126 533.124 480.126 531.159C480.126 529.195 479.095 527.603 477.825 527.603C476.554 527.603 475.524 529.195 475.524 531.159Z" fill="#2C3447"/>
<path d="M477.001 553.473C477.001 553.473 480.419 560.129 489.065 558.567" stroke="#2C3447" stroke-width="0.7853" stroke-miterlimit="10"/>
<path d="M485.297 532.519L489.633 545.065C490.073 546.337 489.59 547.744 488.462 548.477L484.928 550.776" stroke="#2C3447" stroke-width="0.7853" stroke-miterlimit="10"/>
<path d="M471.899 525.254C471.899 525.254 476.745 521.864 481.365 524.013" stroke="#2C3447" stroke-width="0.7853" stroke-miterlimit="10"/>
<path d="M499.288 531.159C499.288 533.125 498.257 534.716 496.987 534.716C495.717 534.716 494.686 533.124 494.686 531.159C494.686 529.195 495.717 527.603 496.987 527.603C498.257 527.603 499.288 529.195 499.288 531.159Z" fill="#2C3447"/>
<path d="M501.424 525.06C501.424 525.06 498.066 521.865 493.446 524.014" stroke="#2C3447" stroke-width="0.7853" stroke-miterlimit="10"/>
<path d="M347.924 768.613C331.563 764.371 321.649 747.513 325.892 731.153L354.096 622.388C358.338 606.027 375.196 596.113 391.556 600.355C407.916 604.597 417.831 621.455 413.589 637.815L385.385 746.581C381.142 762.942 364.286 772.857 347.924 768.613Z" fill="#F9E181"/>
<path d="M307.119 852.904L270.917 830.524L270.839 830.642C265.407 840.323 245.098 860.392 237.603 867.637C235.938 869.304 235.452 871.749 236.402 873.9L245.247 894.363C246.62 897.584 249.297 900.028 252.582 901.126L266.794 905.938C268.246 906.389 269.653 905.115 269.319 903.653L266.407 892.075C266.034 890.418 266.837 888.689 268.402 888.029L282.134 881.854L270.651 900.185C270.016 901.233 270.23 902.617 271.239 903.397L272.682 904.462C273.692 905.241 275.128 905.117 275.987 904.16L300.66 875.343L306.368 853.875C306.365 853.875 306.639 853.546 307.119 852.904Z" fill="#FDAE97"/>
<path d="M479.181 544.132C478.577 545.937 475.176 546.426 471.588 545.223C467.999 544.021 465.58 541.584 466.184 539.779C466.789 537.973 470.189 537.485 473.777 538.687C477.366 539.89 479.785 542.328 479.181 544.132Z" fill="#E89780"/>
<path d="M500.845 538.629V545.598C497.906 545.942 495.501 545.129 495.093 543.598C494.656 541.786 497.219 539.566 500.845 538.629Z" fill="#E89780"/>
<path d="M599.803 1155.24L598.27 1125.48H658.333L659.285 1155.24H599.803Z" fill="#FDAE97"/>
<path d="M658.886 1142.78L598.27 1125.48H658.333L658.886 1142.78Z" fill="#E89780"/>
<path d="M467.578 1174.05L472.491 1144.29H531.115L523.655 1174.05H467.578Z" fill="#FDAE97"/>
<path d="M479.501 608.97H468.624L467.671 611.034L472.683 614.765H476.96L480.534 610.399L479.501 608.97Z" fill="#F74242"/>
<path d="M527.531 1158.58L472.491 1144.29H531.115L527.531 1158.58Z" fill="#E89780"/>
<path d="M373.457 706.281C360.075 696.88 342.26 698.892 333.975 710.754L262.117 828.724L312.393 859.784L384.051 750.566C392.336 738.705 386.905 715.67 373.457 706.281Z" fill="#F9E181"/>
<path d="M440.269 591.094L474.46 603.671L468.226 617.942L438.761 594.23L440.269 591.094Z" fill="white"/>
<path d="M488.154 594.558L489.794 597.902L480.931 616.592L474.46 603.67L488.154 594.558Z" fill="white"/>
<path d="M476.96 614.765L493.159 740.492L480.534 756.77L464.119 742.005L472.683 614.765H476.96Z" fill="#F74242"/>
<path d="M405.249 676.749L387.263 751.063" stroke="#2C3447" stroke-width="0.7853" stroke-miterlimit="10"/>
<path d="M531.655 721.865L533.187 676.749" stroke="#2C3447" stroke-width="0.7853" stroke-miterlimit="10"/>
<path d="M467.578 1174.05L462.308 1195.74H540.982C543.529 1184.64 535.093 1174.05 523.703 1174.05H523.654H467.578Z" fill="#403534"/>
<path d="M599.803 1155.24V1178.86H682.207L682.107 1176.91C681.479 1164.77 671.448 1155.24 659.286 1155.24L599.803 1155.24Z" fill="#403534"/>
<path d="M660.468 1159.94C660.468 1159.94 662.262 1152.09 666.69 1154.22C671.119 1156.35 660.748 1160.22 660.748 1160.22L666.913 1164.48" stroke="white" stroke-width="0.4179" stroke-miterlimit="10" stroke-linecap="round" stroke-linejoin="round"/>
<path d="M660.468 1159.94C660.468 1159.94 658.675 1152.09 654.245 1154.22C649.817 1156.35 660.188 1160.22 660.188 1160.22L654.022 1164.48" stroke="white" stroke-width="0.4179" stroke-miterlimit="10" stroke-linecap="round" stroke-linejoin="round"/>
<path d="M523.092 1179.63C523.092 1179.63 524.886 1171.78 529.314 1173.91C533.743 1176.04 523.372 1179.91 523.372 1179.91L529.538 1184.17" stroke="white" stroke-width="0.4179" stroke-miterlimit="10" stroke-linecap="round" stroke-linejoin="round"/>
<path d="M523.092 1179.63C523.092 1179.63 521.299 1171.78 516.871 1173.91C512.442 1176.04 522.813 1179.91 522.813 1179.91L516.647 1184.17" stroke="white" stroke-width="0.4179" stroke-miterlimit="10" stroke-linecap="round" stroke-linejoin="round"/>
<path d="M493.116 597.211C493.116 597.211 496.332 630.835 501.539 681.609C506.744 732.385 506.403 811.635 522.802 826.844C522.802 826.844 539.697 828.101 573.904 838.185C573.904 838.185 564.338 806.031 552.623 787.828C540.909 769.624 535.17 616.091 535.17 616.091L493.116 597.211Z" fill="#F9E181"/>
<path d="M495.893 625.617L499.865 665.206L487.241 654.449L488.154 626.391L495.893 625.617Z" fill="#E5F0F8"/>
<path d="M427.966 593.08C427.966 593.08 441.081 649.676 447.265 700.17C453.448 750.664 451.35 799.493 467.26 829.143C467.26 829.143 403.444 840.624 403.592 866.364C403.592 866.364 385.602 846.523 385.446 819.348C385.29 792.173 376.436 600.063 376.436 600.063L427.966 593.08Z" fill="#F9E181"/>
<path d="M543.433 740.385L535.168 696.295" stroke="#322A28" stroke-width="0.9168" stroke-miterlimit="10"/>
<path d="M385.386 746.58L396.256 696.295" stroke="#322A28" stroke-width="0.9168" stroke-miterlimit="10"/>
<path d="M1153.35 1323.29C1154.53 1325.4 1144.96 1336.51 1135.79 1342.04C1128.03 1346.73 1108.96 1355.61 1103.33 1358.19L1087.76 1333.89C1090.55 1331.55 1093.54 1328.87 1095.82 1326.25C1101.49 1319.86 1118.87 1304.22 1121.12 1306.76C1123.36 1309.26 1113.59 1322.39 1115.41 1322.68C1117.22 1322.97 1126.62 1315.01 1130.34 1311.3C1134.1 1307.59 1140.82 1298.36 1143.86 1298.82C1146.93 1299.29 1147.39 1303.81 1147.39 1303.81C1147.39 1303.81 1149.55 1299.98 1151.7 1301.77C1153.84 1303.56 1151.96 1310.36 1151.96 1310.36C1151.96 1310.36 1152.91 1308.11 1154.78 1310.66C1156.65 1313.26 1150.39 1322.4 1150.39 1322.4C1150.39 1322.4 1152.2 1321.14 1153.35 1323.29Z" fill="#FDAE97"/>
<path d="M908.977 1179.14C888.778 1180.9 871.24 1198.06 870.993 1222.58C870.746 1247.1 866.299 1259.71 851.478 1256.86C851.478 1256.86 892.992 1280.94 947.699 1259.69C947.699 1259.69 940.842 1251.56 939.882 1233.15C938.922 1214.74 908.977 1179.14 908.977 1179.14Z" fill="#322A28"/>
<path d="M1015.21 1429.63C1002.34 1436.56 986.139 1431.7 979.211 1418.82L927.144 1322.08C920.217 1309.21 925.079 1293.01 937.95 1286.09C950.82 1279.16 967.018 1284.02 973.946 1296.89L1026.01 1393.64C1032.94 1406.51 1028.08 1422.7 1015.21 1429.63Z" fill="#F9E181"/>
<path d="M896.871 1461.82C879.472 1484.6 872.917 1531.83 884.011 1582.7C895.104 1633.58 898.852 1667.03 898.852 1667.03C901.744 1690.58 923.18 1707.32 946.731 1704.43C970.281 1701.54 987.029 1680.11 984.138 1656.55L966.449 1461.82L896.871 1461.82Z" fill="#B86B76"/>
<path d="M893.035 1275.06L846.529 1296.13C846.529 1296.13 856.869 1415.85 857.938 1428.94C859.006 1442.04 854.998 1461.82 854.998 1461.82H966.447C966.447 1461.82 965.111 1397.67 972.594 1379.77C977.664 1367.64 981.147 1360.26 978.207 1346.36C975.267 1332.46 953.755 1307.89 957.23 1283.84L932.968 1276.07L893.035 1275.06Z" fill="#F9E181"/>
<path d="M809.219 1448.94C795.494 1443.92 788.377 1428.58 793.402 1414.85L831.177 1311.69C836.202 1297.96 851.543 1290.85 865.267 1295.87C878.992 1300.9 886.11 1316.24 881.084 1329.96L843.31 1433.13C838.284 1446.85 822.944 1453.97 809.219 1448.94Z" fill="#F9E181"/>
<path d="M938.577 1205.69C938.577 1205.69 944.904 1190.12 929.695 1185.41L938.577 1205.69Z" fill="#332B27"/>
<path d="M932.963 1221.96V1276.06C932.963 1276.06 931.873 1287.93 917.782 1288.98C905.62 1289.9 897.861 1281.89 894.591 1277.61L892.871 1275.09L892.83 1275.05L898.575 1221.96H932.963Z" fill="#FDAE97"/>
<path d="M932.955 1269.9L908.977 1243.83L932.969 1252.84L932.955 1269.9Z" fill="#E89780"/>
<path d="M909.172 1249.6C920.381 1256.21 933.605 1256.2 941.583 1250.84C949.567 1245.5 948.255 1233.21 945.877 1225.4C945.869 1225.37 945.869 1225.37 945.862 1225.34C945.366 1223.73 944.662 1221.46 943.877 1218.89C940.828 1208.8 936.319 1193.87 936.319 1193.87C934.347 1185.98 911.745 1168.23 890.346 1191.38C868.954 1214.56 897.963 1242.99 909.172 1249.6Z" fill="#FDAE97"/>
<path d="M935.604 1190.68C935.604 1190.68 935.311 1200.14 922.064 1206.45C908.818 1212.77 896.244 1222.43 897.83 1236.4C899.414 1250.36 894.628 1258.24 894.628 1258.24C894.628 1258.24 892.656 1240.84 883.878 1226.1C880.473 1220.38 877.49 1208.32 883.145 1197.93C892.065 1181.52 915.1 1169.05 935.604 1190.68Z" fill="#322A28"/>
<path d="M900.095 1233.4C902.944 1237.61 903.755 1240.6 900.45 1242.84C897.145 1245.08 891.535 1244.55 888.686 1240.34C885.838 1236.13 886.208 1230.9 889.513 1228.67C892.818 1226.43 897.246 1229.19 900.095 1233.4Z" fill="#FDAE97"/>
<path d="M892.639 1236.54C895.412 1235.19 897.829 1236.4 897.829 1236.4C895.912 1231.6 890.146 1233.54 890.146 1233.54" stroke="#E89780" stroke-width="0.5288" stroke-miterlimit="10" stroke-linecap="round" stroke-linejoin="round"/>
<path d="M920.907 1220.93C921.433 1222.82 922.852 1224.08 924.076 1223.74C925.3 1223.4 925.866 1221.59 925.341 1219.7C924.815 1217.81 923.397 1216.55 922.172 1216.89C920.948 1217.23 920.382 1219.04 920.907 1220.93Z" fill="#2C3447"/>
<path d="M936.293 1215.02C936.779 1216.77 938.089 1217.93 939.22 1217.62C940.35 1217.31 940.873 1215.63 940.387 1213.89C939.901 1212.14 938.592 1210.98 937.461 1211.29C936.33 1211.61 935.808 1213.28 936.293 1215.02Z" fill="#2C3447"/>
<path d="M999.556 1888.61H924.067L898.152 1666.72L897.82 1661.64C897.82 1637.52 917.696 1618.08 941.985 1618.8C963.885 1619.43 982.234 1637.25 983.529 1659.15L999.556 1888.61Z" fill="#B86B76"/>
<path d="M914.429 1217.94C914.429 1217.94 916.917 1212.17 921.818 1212.64" stroke="#2C3447" stroke-width="0.785" stroke-miterlimit="10"/>
<path d="M934.166 1208.3C934.166 1208.3 936.782 1207.02 940.551 1209.19" stroke="#2C3447" stroke-width="0.785" stroke-miterlimit="10"/>
<path d="M861.702 1888.61H789.665L812.528 1659.42L812.593 1658.62C814.121 1636.36 832.701 1618.77 855.365 1618.77C879.057 1618.77 898.235 1637.95 898.235 1661.64C898.235 1662.97 898.169 1664.26 898.035 1665.52L861.702 1888.61Z" fill="#E7888B"/>
<path d="M1110.63 1369.62L1022.47 1425.4L1017.26 1429.73C1006.63 1437.1 991.045 1433.27 982.676 1421.2C974.307 1409.12 976.201 1393.21 986.832 1385.85L1085.57 1330.51L1087.76 1333.89L1103.32 1358.19L1110.63 1369.62Z" fill="#F9E181"/>
<path d="M929.914 1216.44C929.914 1216.44 932.736 1225.75 938.557 1225.37C938.557 1225.37 937.25 1227.45 935.238 1228.72" stroke="#2C3447" stroke-width="0.785" stroke-miterlimit="10"/>
<path d="M931.496 1461.84L930.489 1468.09L898.156 1665.65C895.682 1689.26 874.546 1706.37 850.935 1703.9C827.367 1701.42 810.214 1680.29 812.689 1656.68C812.689 1656.68 816.588 1623.25 817.218 1571.17C817.722 1530.82 826.864 1498.28 841.248 1477.23C845.441 1471.11 850.055 1465.95 855.003 1461.84H931.496Z" fill="#E7888B"/>
<path d="M938.341 1236.27C938.341 1236.27 932.943 1240.54 926.672 1235.03" stroke="#2C3447" stroke-width="0.785" stroke-miterlimit="10"/>
<path d="M911.757 1229.2C911.701 1231.24 914.906 1232.99 918.918 1233.1C922.93 1233.21 926.228 1231.65 926.284 1229.6C926.34 1227.55 923.134 1225.81 919.122 1225.7C915.112 1225.58 911.814 1227.15 911.757 1229.2Z" fill="#E89780"/>
<path d="M941.624 1224.37C942.27 1225.46 943.905 1225.77 945.861 1225.34C945.365 1223.73 944.661 1221.46 943.876 1218.89C941.771 1220.81 940.777 1223.01 941.624 1224.37Z" fill="#E89780"/>
<path d="M901.999 1242.84C902.465 1244.58 901.43 1246.37 899.685 1246.84C897.942 1247.3 896.15 1246.27 895.684 1244.52C895.219 1242.78 896.254 1240.99 897.998 1240.52C899.743 1240.06 901.534 1241.09 901.999 1242.84Z" stroke="white" stroke-width="0.6948" stroke-miterlimit="10"/>
<path d="M775.165 1937.28H830.774L837.987 1926.29L837.825 1937.28H850.07L848.974 1905.53L851.658 1888.59H806.367L806.198 1905.53L775.165 1937.28Z" fill="#FDAE97"/>
<path d="M934.677 1275.84L931.873 1332.72L894.591 1277.61C897.862 1281.89 905.621 1289.9 917.782 1288.98C931.873 1287.93 934.677 1275.84 934.677 1275.84Z" fill="#BBDBF3"/>
<path d="M893.172 1271.98L920.973 1288.52L915.099 1298.81L889.252 1276.78L893.172 1271.98Z" fill="white"/>
<path d="M932.955 1274.35L920.973 1288.52L928.21 1297.25L935.755 1276.96L932.955 1274.35Z" fill="white"/>
<path d="M1082.4 1449.72L932.692 1456L967.061 1342.26L1116.77 1335.98L1082.4 1449.72Z" fill="#A5BBD6"/>
<path d="M934.096 1450.49L883.327 1409.24L1028.13 1403.17L1083.8 1444.21L934.096 1450.49Z" fill="#89A5C7"/>
<path d="M1079.47 1447.36L929.76 1453.64L964.13 1339.9L1113.84 1333.62L1079.47 1447.36Z" fill="#A5BBD6"/>
<path d="M1113.84 1333.62L1116.77 1335.98L967.061 1342.26L932.692 1456L929.76 1453.64L964.13 1339.9L1113.84 1333.62Z" fill="#89A5C7"/>
<path d="M883.327 1409.24L881.921 1414.75L932.692 1456L934.36 1450.48L883.327 1409.24Z" fill="#586773"/>
<path d="M1047.69 1396.31C1047.86 1400.36 1040.57 1403.96 1031.41 1404.35C1022.24 1404.73 1014.67 1401.75 1014.5 1397.7C1014.33 1393.64 1021.62 1390.04 1030.79 1389.65C1039.96 1389.27 1047.53 1392.25 1047.69 1396.31Z" fill="#89A5C7"/>
<path d="M975.195 1937.28L961.899 1927.38L963.031 1937.28H950.66L944.581 1905.53L941.309 1888.59H989.285L991.13 1905.53L1029.63 1937.28H975.195Z" fill="#FDAE97"/>
<path d="M806.198 1905.53L775.165 1937.28H830.774L837.987 1926.29L837.825 1937.28H850.07L848.974 1905.53H806.198Z" fill="#322A28"/>
<path d="M975.195 1937.28L961.899 1927.38L963.031 1937.28H950.66L944.581 1905.53H991.13L1029.63 1937.28H975.195Z" fill="#322A28"/>
<path d="M994.501 1422.66C996.672 1424.87 994.339 1428.76 994.339 1428.76C994.339 1428.76 998.385 1426.98 998.993 1429.69C999.588 1432.2 994.815 1436.17 994.195 1436.69C994.648 1436.47 996.189 1435.92 996.142 1438.67C996.116 1441.7 986.598 1445.07 985.699 1445.38C986.042 1445.43 987.79 1445.7 987.477 1447.89C987.107 1450.32 972.819 1453.49 962.176 1452.45C953.2 1451.56 932.712 1447.22 926.582 1445.91L928.203 1417.18C931.951 1417 936.153 1416.6 939.596 1415.85C947.988 1414.1 971.266 1412.01 971.547 1415.4C971.844 1418.74 956.16 1423.42 957.438 1424.72C958.715 1426.02 970.998 1425.29 976.193 1424.58C981.443 1423.84 992.369 1420.46 994.501 1422.66Z" fill="#FDAE97"/>
<path d="M928.707 1408.49L928.203 1417.17L926.582 1445.91L926.153 1453.54L814.743 1451.69C801.812 1451.25 791.634 1438.87 792.12 1424.19C792.661 1409.49 803.673 1397.88 816.643 1398.34L825.038 1399.77L825.078 1399.78L928.707 1408.49Z" fill="#F9E181"/>
<path d="M907.79 1406.73L854.611 1402.26L865.542 1372.41" stroke="#2C3447" stroke-width="0.785" stroke-miterlimit="10"/>
<path d="M856.581 1452.38H832.408" stroke="#2C3447" stroke-width="0.785" stroke-miterlimit="10"/>
<path d="M927.164 1219.68C928.815 1223.01 928.1 1226.72 925.566 1227.98C923.034 1229.24 919.642 1227.56 917.992 1224.24C916.342 1220.91 917.056 1217.2 919.589 1215.94C922.122 1214.68 925.513 1216.36 927.164 1219.68Z" stroke="white" stroke-width="1.0229" stroke-miterlimit="10"/>
<path d="M942.357 1213.86C944.009 1217.19 943.294 1220.9 940.76 1222.16C938.227 1223.42 934.835 1221.74 933.185 1218.42C931.534 1215.09 932.249 1211.38 934.783 1210.12C937.316 1208.86 940.706 1210.54 942.357 1213.86Z" stroke="white" stroke-width="1.0229" stroke-miterlimit="10"/>
<path d="M926.268 1218.26L932.425 1216.14" stroke="white" stroke-width="1.0229" stroke-miterlimit="10"/>
</svg>
