<svg width="500" height="500" viewBox="0 0 500 500" fill="none" xmlns="http://www.w3.org/2000/svg">
<path d="M443.92 330.198H263.174C259.942 330.198 257.312 327.568 257.312 324.336V61.062C257.312 57.83 259.942 55.2 263.174 55.2H443.92C447.152 55.2 449.782 57.829 449.782 61.062V324.335C449.783 327.568 447.153 330.198 443.92 330.198ZM263.174 55.45C260.079 55.45 257.562 57.968 257.562 61.062V324.335C257.562 327.43 260.08 329.947 263.174 329.947H443.92C447.015 329.947 449.532 327.429 449.532 324.335V61.062C449.532 57.968 447.014 55.45 443.92 55.45H263.174Z" fill="#E0E0E0"/>
<path d="M235.493 330.198H54.746C51.514 330.198 48.884 327.568 48.884 324.336V61.062C48.884 57.83 51.513 55.2 54.746 55.2H235.493C238.725 55.2 241.355 57.829 241.355 61.062V324.335C241.355 327.568 238.725 330.198 235.493 330.198ZM54.746 55.45C51.652 55.45 49.134 57.968 49.134 61.062V324.335C49.134 327.43 51.652 329.947 54.746 329.947H235.493C238.588 329.947 241.105 327.429 241.105 324.335V61.062C241.105 57.968 238.587 55.45 235.493 55.45H54.746Z" fill="#E0E0E0"/>
<path d="M500 391.267H0V391.517H500V391.267Z" fill="#E0E0E0"/>
<path d="M67.7321 405.531H51.6721V405.781H67.7321V405.531Z" fill="#E0E0E0"/>
<path d="M223.882 402.821H170.352V403.071H223.882V402.821Z" fill="#E0E0E0"/>
<path d="M104.982 414.821H68.7319V415.071H104.982V414.821Z" fill="#E0E0E0"/>
<path d="M421.542 402.691H378.352V402.941H421.542V402.691Z" fill="#E0E0E0"/>
<path d="M436.782 402.691H430.452V402.941H436.782V402.691Z" fill="#E0E0E0"/>
<path d="M370.102 408.921H316.212V409.171H370.102V408.921Z" fill="#E0E0E0"/>
<path d="M53.18 254.837V206.856H82.887V217.798H102.688V97.9431H140.762V145.117H152.186V121.561H181.893V236.444H223.783V195.854H250.048V107.85H282.464V166.52H312.931V292.91H336.536V231.364H360.911V191.762H386.803V161.356L415.692 176.595V257.942H446.159V241.162H486.856V392.246L13.144 392.474V254.837H53.18Z" fill="#F0F0F0"/>
<path d="M275.049 118.238H265.564V129.108H275.049V118.238Z" fill="#FAFAFA"/>
<path d="M275.049 136.463H265.564V147.333H275.049V136.463Z" fill="#FAFAFA"/>
<path d="M275.049 154.699H265.564V165.569H275.049V154.699Z" fill="#FAFAFA"/>
<path d="M275.049 172.923H265.564V183.793H275.049V172.923Z" fill="#FAFAFA"/>
<path d="M275.049 191.148H265.564V202.018H275.049V191.148Z" fill="#FAFAFA"/>
<path d="M275.049 209.384H265.564V220.254H275.049V209.384Z" fill="#FAFAFA"/>
<path d="M275.049 227.608H265.564V238.478H275.049V227.608Z" fill="#FAFAFA"/>
<path d="M275.049 245.845H265.564V256.715H275.049V245.845Z" fill="#FAFAFA"/>
<path d="M132.565 103.685H123.08V114.555H132.565V103.685Z" fill="#FAFAFA"/>
<path d="M132.565 121.91H123.08V132.78H132.565V121.91Z" fill="#FAFAFA"/>
<path d="M132.565 140.146H123.08V151.016H132.565V140.146Z" fill="#FAFAFA"/>
<path d="M132.565 158.37H123.08V169.24H132.565V158.37Z" fill="#FAFAFA"/>
<path d="M132.565 176.607H123.08V187.477H132.565V176.607Z" fill="#FAFAFA"/>
<path d="M132.565 194.831H123.08V205.701H132.565V194.831Z" fill="#FAFAFA"/>
<path d="M132.565 213.068H123.08V223.938H132.565V213.068Z" fill="#FAFAFA"/>
<path d="M132.565 231.292H123.08V242.162H132.565V231.292Z" fill="#FAFAFA"/>
<path d="M307.466 392.332V217.521H345.203V392.314L307.466 392.332Z" fill="#E0E0E0"/>
<path d="M342.337 223.07H337.763V232.507H342.337V223.07Z" fill="#FAFAFA"/>
<path d="M333.189 223.07H328.615V232.507H333.189V223.07Z" fill="#FAFAFA"/>
<path d="M324.041 223.07H319.467V232.507H324.041V223.07Z" fill="#FAFAFA"/>
<path d="M314.892 223.07H310.318V232.507H314.892V223.07Z" fill="#FAFAFA"/>
<path d="M342.337 238.899H337.763V248.336H342.337V238.899Z" fill="#FAFAFA"/>
<path d="M333.189 238.899H328.615V248.336H333.189V238.899Z" fill="#FAFAFA"/>
<path d="M324.041 238.899H319.467V248.336H324.041V238.899Z" fill="#FAFAFA"/>
<path d="M314.892 238.899H310.318V248.336H314.892V238.899Z" fill="#FAFAFA"/>
<path d="M342.337 254.716H337.763V264.153H342.337V254.716Z" fill="#FAFAFA"/>
<path d="M333.189 254.716H328.615V264.153H333.189V254.716Z" fill="#FAFAFA"/>
<path d="M324.041 254.716H319.467V264.153H324.041V254.716Z" fill="#FAFAFA"/>
<path d="M314.892 254.716H310.318V264.153H314.892V254.716Z" fill="#FAFAFA"/>
<path d="M342.337 270.533H337.763V279.97H342.337V270.533Z" fill="#FAFAFA"/>
<path d="M333.189 270.533H328.615V279.97H333.189V270.533Z" fill="#FAFAFA"/>
<path d="M324.041 270.533H319.467V279.97H324.041V270.533Z" fill="#FAFAFA"/>
<path d="M314.892 270.533H310.318V279.97H314.892V270.533Z" fill="#FAFAFA"/>
<path d="M342.337 286.35H337.763V295.787H342.337V286.35Z" fill="#FAFAFA"/>
<path d="M333.189 286.35H328.615V295.787H333.189V286.35Z" fill="#FAFAFA"/>
<path d="M324.041 286.35H319.467V295.787H324.041V286.35Z" fill="#FAFAFA"/>
<path d="M314.892 286.35H310.318V295.787H314.892V286.35Z" fill="#FAFAFA"/>
<path d="M342.337 302.167H337.763V311.604H342.337V302.167Z" fill="#FAFAFA"/>
<path d="M333.189 302.167H328.615V311.604H333.189V302.167Z" fill="#FAFAFA"/>
<path d="M324.041 302.167H319.467V311.604H324.041V302.167Z" fill="#FAFAFA"/>
<path d="M314.892 302.167H310.318V311.604H314.892V302.167Z" fill="#FAFAFA"/>
<path d="M342.337 317.984H337.763V327.421H342.337V317.984Z" fill="#FAFAFA"/>
<path d="M333.189 317.984H328.615V327.421H333.189V317.984Z" fill="#FAFAFA"/>
<path d="M324.041 317.984H319.467V327.421H324.041V317.984Z" fill="#FAFAFA"/>
<path d="M314.892 317.984H310.318V327.421H314.892V317.984Z" fill="#FAFAFA"/>
<path d="M342.337 333.813H337.763V343.25H342.337V333.813Z" fill="#FAFAFA"/>
<path d="M333.189 333.813H328.615V343.25H333.189V333.813Z" fill="#FAFAFA"/>
<path d="M324.041 333.813H319.467V343.25H324.041V333.813Z" fill="#FAFAFA"/>
<path d="M314.892 333.813H310.318V343.25H314.892V333.813Z" fill="#FAFAFA"/>
<path d="M176.332 392.396V197.347H254.574V392.451C254.574 392.451 176.932 392.474 176.332 392.396Z" fill="#E6E6E6"/>
<path d="M248.7 203.799H239.215V214.669H248.7V203.799Z" fill="#E0E0E0"/>
<path d="M229.717 203.799H220.232V214.669H229.717V203.799Z" fill="#E0E0E0"/>
<path d="M210.746 203.799H201.261V214.669H210.746V203.799Z" fill="#E0E0E0"/>
<path d="M191.764 203.799H182.279V214.669H191.764V203.799Z" fill="#E0E0E0"/>
<path d="M248.7 222.035H239.215V232.905H248.7V222.035Z" fill="#E0E0E0"/>
<path d="M229.717 222.035H220.232V232.905H229.717V222.035Z" fill="#E0E0E0"/>
<path d="M210.746 222.035H201.261V232.905H210.746V222.035Z" fill="#E0E0E0"/>
<path d="M191.764 222.035H182.279V232.905H191.764V222.035Z" fill="#E0E0E0"/>
<path d="M248.7 240.26H239.215V251.13H248.7V240.26Z" fill="#E0E0E0"/>
<path d="M229.717 240.26H220.232V251.13H229.717V240.26Z" fill="#E0E0E0"/>
<path d="M210.746 240.26H201.261V251.13H210.746V240.26Z" fill="#E0E0E0"/>
<path d="M191.764 240.26H182.279V251.13H191.764V240.26Z" fill="#E0E0E0"/>
<path d="M248.7 258.484H239.215V269.354H248.7V258.484Z" fill="#E0E0E0"/>
<path d="M229.717 258.484H220.232V269.354H229.717V258.484Z" fill="#E0E0E0"/>
<path d="M210.746 258.484H201.261V269.354H210.746V258.484Z" fill="#E0E0E0"/>
<path d="M191.764 258.484H182.279V269.354H191.764V258.484Z" fill="#E0E0E0"/>
<path d="M248.7 276.72H239.215V287.59H248.7V276.72Z" fill="#E0E0E0"/>
<path d="M229.717 276.72H220.232V287.59H229.717V276.72Z" fill="#E0E0E0"/>
<path d="M210.746 276.72H201.261V287.59H210.746V276.72Z" fill="#E0E0E0"/>
<path d="M191.764 276.72H182.279V287.59H191.764V276.72Z" fill="#E0E0E0"/>
<path d="M248.7 294.945H239.215V305.815H248.7V294.945Z" fill="#E0E0E0"/>
<path d="M229.717 294.945H220.232V305.815H229.717V294.945Z" fill="#E0E0E0"/>
<path d="M210.746 294.945H201.261V305.815H210.746V294.945Z" fill="#E0E0E0"/>
<path d="M191.764 294.945H182.279V305.815H191.764V294.945Z" fill="#E0E0E0"/>
<path d="M248.7 313.181H239.215V324.051H248.7V313.181Z" fill="#E0E0E0"/>
<path d="M229.717 313.181H220.232V324.051H229.717V313.181Z" fill="#E0E0E0"/>
<path d="M210.746 313.181H201.261V324.051H210.746V313.181Z" fill="#E0E0E0"/>
<path d="M191.764 313.181H182.279V324.051H191.764V313.181Z" fill="#E0E0E0"/>
<path d="M248.7 331.405H239.215V342.275H248.7V331.405Z" fill="#E0E0E0"/>
<path d="M229.717 331.405H220.232V342.275H229.717V331.405Z" fill="#E0E0E0"/>
<path d="M210.746 331.405H201.261V342.275H210.746V331.405Z" fill="#E0E0E0"/>
<path d="M191.764 331.405H182.279V342.275H191.764V331.405Z" fill="#E0E0E0"/>
<path d="M358.925 392.308V183.708H391.293V392.474C381.049 392.222 358.925 392.308 358.925 392.308Z" fill="#E6E6E6"/>
<path d="M386.502 187.573H377.017V198.443H386.502V187.573Z" fill="#FAFAFA"/>
<path d="M386.502 205.797H377.017V216.667H386.502V205.797Z" fill="#FAFAFA"/>
<path d="M386.502 224.033H377.017V234.903H386.502V224.033Z" fill="#FAFAFA"/>
<path d="M386.502 242.258H377.017V253.128H386.502V242.258Z" fill="#FAFAFA"/>
<path d="M386.502 260.482H377.017V271.352H386.502V260.482Z" fill="#FAFAFA"/>
<path d="M386.502 278.719H377.017V289.589H386.502V278.719Z" fill="#FAFAFA"/>
<path d="M386.502 296.943H377.017V307.813H386.502V296.943Z" fill="#FAFAFA"/>
<path d="M386.502 315.179H377.017V326.049H386.502V315.179Z" fill="#FAFAFA"/>
<path d="M373.814 187.573H364.329V198.443H373.814V187.573Z" fill="#FAFAFA"/>
<path d="M373.814 205.797H364.329V216.667H373.814V205.797Z" fill="#FAFAFA"/>
<path d="M373.814 224.033H364.329V234.903H373.814V224.033Z" fill="#FAFAFA"/>
<path d="M373.814 242.258H364.329V253.128H373.814V242.258Z" fill="#FAFAFA"/>
<path d="M373.814 260.482H364.329V271.352H373.814V260.482Z" fill="#FAFAFA"/>
<path d="M373.814 278.719H364.329V289.589H373.814V278.719Z" fill="#FAFAFA"/>
<path d="M373.814 296.943H364.329V307.813H373.814V296.943Z" fill="#FAFAFA"/>
<path d="M373.814 315.179H364.329V326.049H373.814V315.179Z" fill="#FAFAFA"/>
<path d="M106.025 187.428H48.896V392.474H106.025V187.428Z" fill="#E6E6E6"/>
<path d="M97.5741 195.902H80.8301V206.772H97.5741V195.902Z" fill="#FAFAFA"/>
<path d="M97.5741 214.139H80.8301V225.009H97.5741V214.139Z" fill="#FAFAFA"/>
<path d="M97.5741 232.363H80.8301V243.233H97.5741V232.363Z" fill="#FAFAFA"/>
<path d="M97.5741 250.6H80.8301V261.47H97.5741V250.6Z" fill="#FAFAFA"/>
<path d="M97.5741 268.824H80.8301V279.694H97.5741V268.824Z" fill="#FAFAFA"/>
<path d="M97.5741 287.048H80.8301V297.918H97.5741V287.048Z" fill="#FAFAFA"/>
<path d="M97.5741 305.285H80.8301V316.155H97.5741V305.285Z" fill="#FAFAFA"/>
<path d="M97.5741 323.509H80.8301V334.379H97.5741V323.509Z" fill="#FAFAFA"/>
<path d="M75.173 195.902H58.429V206.772H75.173V195.902Z" fill="#FAFAFA"/>
<path d="M75.173 214.139H58.429V225.009H75.173V214.139Z" fill="#FAFAFA"/>
<path d="M75.173 232.363H58.429V243.233H75.173V232.363Z" fill="#FAFAFA"/>
<path d="M75.173 250.6H58.429V261.47H75.173V250.6Z" fill="#FAFAFA"/>
<path d="M75.173 268.824H58.429V279.694H75.173V268.824Z" fill="#FAFAFA"/>
<path d="M75.173 287.048H58.429V297.918H75.173V287.048Z" fill="#FAFAFA"/>
<path d="M75.173 305.285H58.429V316.155H75.173V305.285Z" fill="#FAFAFA"/>
<path d="M75.173 323.509H58.429V334.379H75.173V323.509Z" fill="#FAFAFA"/>
<path d="M143.398 392.412V240.26H168.315V392.4L143.398 392.412Z" fill="#E0E0E0"/>
<path d="M166.425 245.074H163.404V253.175H166.425V245.074Z" fill="#FAFAFA"/>
<path d="M160.383 245.074H157.362V253.175H160.383V245.074Z" fill="#FAFAFA"/>
<path d="M154.352 245.074H151.331V253.175H154.352V245.074Z" fill="#FAFAFA"/>
<path d="M148.309 245.074H145.288V253.175H148.309V245.074Z" fill="#FAFAFA"/>
<path d="M166.425 258.664H163.404V266.765H166.425V258.664Z" fill="#FAFAFA"/>
<path d="M160.383 258.664H157.362V266.765H160.383V258.664Z" fill="#FAFAFA"/>
<path d="M154.352 258.664H151.331V266.765H154.352V258.664Z" fill="#FAFAFA"/>
<path d="M148.309 258.664H145.288V266.765H148.309V258.664Z" fill="#FAFAFA"/>
<path d="M166.425 272.254H163.404V280.355H166.425V272.254Z" fill="#FAFAFA"/>
<path d="M160.383 272.254H157.362V280.355H160.383V272.254Z" fill="#FAFAFA"/>
<path d="M154.352 272.254H151.331V280.355H154.352V272.254Z" fill="#FAFAFA"/>
<path d="M148.309 272.254H145.288V280.355H148.309V272.254Z" fill="#FAFAFA"/>
<path d="M166.425 285.845H163.404V293.946H166.425V285.845Z" fill="#FAFAFA"/>
<path d="M160.383 285.845H157.362V293.946H160.383V285.845Z" fill="#FAFAFA"/>
<path d="M154.352 285.845H151.331V293.946H154.352V285.845Z" fill="#FAFAFA"/>
<path d="M148.309 285.845H145.288V293.946H148.309V285.845Z" fill="#FAFAFA"/>
<path d="M166.425 299.447H163.404V307.548H166.425V299.447Z" fill="#FAFAFA"/>
<path d="M160.383 299.447H157.362V307.548H160.383V299.447Z" fill="#FAFAFA"/>
<path d="M154.352 299.447H151.331V307.548H154.352V299.447Z" fill="#FAFAFA"/>
<path d="M148.309 299.447H145.288V307.548H148.309V299.447Z" fill="#FAFAFA"/>
<path d="M166.425 313.037H163.404V321.138H166.425V313.037Z" fill="#FAFAFA"/>
<path d="M160.383 313.037H157.362V321.138H160.383V313.037Z" fill="#FAFAFA"/>
<path d="M154.352 313.037H151.331V321.138H154.352V313.037Z" fill="#FAFAFA"/>
<path d="M148.309 313.037H145.288V321.138H148.309V313.037Z" fill="#FAFAFA"/>
<path d="M166.425 326.627H163.404V334.728H166.425V326.627Z" fill="#FAFAFA"/>
<path d="M160.383 326.627H157.362V334.728H160.383V326.627Z" fill="#FAFAFA"/>
<path d="M154.352 326.627H151.331V334.728H154.352V326.627Z" fill="#FAFAFA"/>
<path d="M148.309 326.627H145.288V334.728H148.309V326.627Z" fill="#FAFAFA"/>
<path d="M166.425 340.217H163.404V348.318H166.425V340.217Z" fill="#FAFAFA"/>
<path d="M160.383 340.217H157.362V348.318H160.383V340.217Z" fill="#FAFAFA"/>
<path d="M154.352 340.217H151.331V348.318H154.352V340.217Z" fill="#FAFAFA"/>
<path d="M148.309 340.217H145.288V348.318H148.309V340.217Z" fill="#FAFAFA"/>
<path d="M388.404 392.474V262.817H455.018V392.261L388.404 392.474Z" fill="#FAFAFA"/>
<path d="M449.974 266.85H441.897V273.651H449.974V266.85Z" fill="#E0E0E0"/>
<path d="M433.82 266.85H425.743V273.651H433.82V266.85Z" fill="#E0E0E0"/>
<path d="M417.679 266.85H409.602V273.651H417.679V266.85Z" fill="#E0E0E0"/>
<path d="M401.525 266.85H393.448V273.651H401.525V266.85Z" fill="#E0E0E0"/>
<path d="M449.974 278.249H441.897V285.05H449.974V278.249Z" fill="#E0E0E0"/>
<path d="M433.82 278.249H425.743V285.05H433.82V278.249Z" fill="#E0E0E0"/>
<path d="M417.679 278.249H409.602V285.05H417.679V278.249Z" fill="#E0E0E0"/>
<path d="M401.525 278.249H393.448V285.05H401.525V278.249Z" fill="#E0E0E0"/>
<path d="M449.974 289.648H441.897V296.449H449.974V289.648Z" fill="#E0E0E0"/>
<path d="M433.82 289.648H425.743V296.449H433.82V289.648Z" fill="#E0E0E0"/>
<path d="M417.679 289.648H409.602V296.449H417.679V289.648Z" fill="#E0E0E0"/>
<path d="M401.525 289.648H393.448V296.449H401.525V289.648Z" fill="#E0E0E0"/>
<path d="M449.974 301.047H441.897V307.848H449.974V301.047Z" fill="#E0E0E0"/>
<path d="M433.82 301.047H425.743V307.848H433.82V301.047Z" fill="#E0E0E0"/>
<path d="M417.679 301.047H409.602V307.848H417.679V301.047Z" fill="#E0E0E0"/>
<path d="M401.525 301.047H393.448V307.848H401.525V301.047Z" fill="#E0E0E0"/>
<path d="M449.974 312.435H441.897V319.236H449.974V312.435Z" fill="#E0E0E0"/>
<path d="M433.82 312.435H425.743V319.236H433.82V312.435Z" fill="#E0E0E0"/>
<path d="M417.679 312.435H409.602V319.236H417.679V312.435Z" fill="#E0E0E0"/>
<path d="M401.525 312.435H393.448V319.236H401.525V312.435Z" fill="#E0E0E0"/>
<path d="M449.974 323.834H441.897V330.635H449.974V323.834Z" fill="#E0E0E0"/>
<path d="M433.82 323.834H425.743V330.635H433.82V323.834Z" fill="#E0E0E0"/>
<path d="M417.679 323.834H409.602V330.635H417.679V323.834Z" fill="#E0E0E0"/>
<path d="M401.525 323.834H393.448V330.635H401.525V323.834Z" fill="#E0E0E0"/>
<path d="M449.974 335.233H441.897V342.034H449.974V335.233Z" fill="#E0E0E0"/>
<path d="M433.82 335.233H425.743V342.034H433.82V335.233Z" fill="#E0E0E0"/>
<path d="M417.679 335.233H409.602V342.034H417.679V335.233Z" fill="#E0E0E0"/>
<path d="M401.525 335.233H393.448V342.034H401.525V335.233Z" fill="#E0E0E0"/>
<path d="M414.211 373.493C416.193 371.628 420.403 378.843 420.403 378.843C420.403 378.843 415.871 363.126 420.414 363.073C424.957 363.02 425.184 376.482 425.184 376.482C425.184 376.482 426.643 349.72 432.55 351.837C438.456 353.954 429.836 377.839 429.836 377.839C429.836 377.839 437.475 360.858 440.403 364.196C443.331 367.535 433.679 381.74 433.679 381.74C433.679 381.74 440.729 377.184 440.272 380.432C439.816 383.68 424.53 392.174 424.53 392.174C419.637 386.379 412.229 375.358 414.211 373.493Z" fill="#E6E6E6"/>
<path d="M424.497 392.332C424.497 392.332 426.895 380.893 428.274 373.106" stroke="#E0E0E0" stroke-width="0.5" stroke-miterlimit="10" stroke-linecap="round" stroke-linejoin="round"/>
<path d="M426.077 384.772L430.748 378.974" stroke="#E0E0E0" stroke-width="0.5" stroke-miterlimit="10" stroke-linecap="round" stroke-linejoin="round"/>
<path d="M34.0181 376.655C35.4641 374.35 41.3611 380.266 41.3611 380.266C41.3611 380.266 33.0021 366.206 37.3831 365.006C41.7651 363.806 45.3881 376.773 45.3881 376.773C45.3881 376.773 40.0331 350.512 46.2831 351.066C52.5331 351.621 50.2321 376.91 50.2321 376.91C50.2321 376.91 53.3281 358.549 57.0051 361.038C60.6821 363.528 54.9351 379.712 54.9351 379.712C54.9351 379.712 60.6041 373.522 60.9831 376.779C61.3631 380.037 48.7221 392.12 48.7221 392.12C42.5251 387.751 32.5711 378.96 34.0181 376.655Z" fill="#E0E0E0"/>
<path d="M48.7331 392.281C48.7331 392.281 48.1611 380.607 47.5251 372.725" stroke="#E0E0E0" stroke-width="0.5" stroke-miterlimit="10" stroke-linecap="round" stroke-linejoin="round"/>
<path d="M48.3501 384.567L51.4031 377.776" stroke="#E0E0E0" stroke-width="0.5" stroke-miterlimit="10" stroke-linecap="round" stroke-linejoin="round"/>
<path d="M178.735 60.6389C180.249 59.4949 182.459 59.3649 184.097 60.3249C186.271 55.9319 192.33 53.9929 196.651 56.3069C197.778 51.5729 202.443 47.9339 207.309 47.9919C212.175 48.0499 216.751 51.8009 217.764 56.5609C217.925 57.3179 218.032 58.1459 218.573 58.6989C219.452 59.5969 220.919 59.2949 222.172 59.1979C226.113 58.8909 230.078 61.6569 231.15 65.4619L176.878 65.2639C176.402 63.4269 177.22 61.7829 178.735 60.6389Z" fill="#E0E0E0"/>
<path d="M23.6851 133.02C25.1991 131.876 27.4091 131.746 29.0471 132.706C31.2211 128.313 37.2801 126.374 41.6011 128.688C42.7281 123.954 47.3931 120.315 52.2591 120.373C57.1251 120.432 61.7011 124.182 62.7141 128.942C62.8751 129.698 62.9821 130.527 63.5231 131.08C64.4021 131.978 65.8701 131.677 67.1221 131.579C71.0631 131.271 75.0281 134.038 76.1001 137.843L21.8291 137.646C21.3521 135.808 22.1701 134.164 23.6851 133.02Z" fill="#F0F0F0"/>
<path d="M68.152 76.022C69.417 75.066 71.262 74.958 72.629 75.759C74.444 72.091 79.503 70.472 83.111 72.405C84.052 68.452 87.947 65.414 92.01 65.463C96.073 65.512 99.894 68.643 100.74 72.618C100.874 73.25 100.963 73.941 101.415 74.403C102.149 75.153 103.374 74.901 104.42 74.819C107.71 74.562 111.022 76.873 111.916 80.049L66.601 79.884C66.204 78.35 66.887 76.977 68.152 76.022Z" fill="#F5F5F5"/>
<path d="M431.745 195.424C433.01 194.468 434.855 194.36 436.222 195.161C438.037 191.493 443.096 189.874 446.704 191.806C447.645 187.853 451.54 184.815 455.603 184.864C459.666 184.913 463.487 188.044 464.333 192.019C464.467 192.651 464.556 193.342 465.008 193.804C465.742 194.554 466.967 194.302 468.013 194.22C471.303 193.963 474.615 196.273 475.509 199.45L430.194 199.285C429.797 197.751 430.48 196.379 431.745 195.424Z" fill="#F5F5F5"/>
<path d="M302.99 55.052C304.255 54.097 306.1 53.988 307.467 54.789C309.282 51.121 314.341 49.502 317.949 51.435C318.89 47.482 322.785 44.444 326.848 44.492C330.911 44.541 334.732 47.672 335.578 51.647C335.712 52.279 335.801 52.97 336.253 53.432C336.987 54.182 338.212 53.93 339.258 53.848C342.549 53.591 345.86 55.902 346.754 59.079L301.439 58.914C301.043 57.38 301.726 56.008 302.99 55.052Z" fill="#F5F5F5"/>
<path d="M433.967 112.387C435.232 111.431 437.077 111.323 438.444 112.124C440.259 108.456 445.318 106.837 448.926 108.77C449.867 104.817 453.762 101.779 457.825 101.828C461.888 101.877 465.709 105.008 466.555 108.983C466.689 109.615 466.778 110.307 467.23 110.768C467.964 111.518 469.189 111.266 470.235 111.184C473.526 110.927 476.837 113.238 477.732 116.414L432.417 116.249C432.02 114.714 432.703 113.342 433.967 112.387Z" fill="#E0E0E0"/>
<path d="M197.033 118.476C198.127 117.65 199.722 117.556 200.905 118.249C202.475 115.076 206.85 113.676 209.97 115.348C210.784 111.929 214.152 109.302 217.666 109.344C221.18 109.386 224.484 112.094 225.216 115.532C225.332 116.078 225.409 116.677 225.8 117.076C226.435 117.724 227.494 117.507 228.399 117.436C231.245 117.214 234.108 119.212 234.882 121.959L195.692 121.817C195.349 120.489 195.94 119.302 197.033 118.476Z" fill="#F5F5F5"/>
<path d="M308.38 140.434C309.918 139.273 312.161 139.141 313.824 140.115C316.031 135.655 322.182 133.686 326.569 136.036C327.713 131.23 332.449 127.535 337.389 127.595C342.329 127.655 346.974 131.462 348.003 136.294C348.166 137.062 348.275 137.903 348.824 138.464C349.716 139.375 351.206 139.07 352.478 138.97C356.479 138.658 360.505 141.467 361.593 145.329L306.495 145.129C306.012 143.265 306.843 141.596 308.38 140.434Z" fill="#F0F0F0"/>
<path d="M429.27 93.1769C429.27 71.7109 411.461 54.4049 389.812 55.2279C369.951 55.9829 353.844 72.2989 353.329 92.1679C353.131 99.8069 355.189 106.952 358.885 112.986C359.338 113.726 359.82 114.445 360.321 115.15H360.315L360.389 115.24C361.342 116.572 362.38 117.838 363.493 119.034L386.986 147.749C389.213 150.471 393.375 150.471 395.602 147.749L419.058 119.077C420.182 117.873 421.226 116.594 422.188 115.251L422.271 115.149H422.26C426.669 108.946 429.27 101.368 429.27 93.1769ZM393.089 113.014C379.767 114.065 368.734 103.031 369.784 89.7089C370.61 79.2299 379.101 70.7389 389.58 69.9129C402.901 68.8629 413.935 79.8959 412.885 93.2169C412.058 103.698 403.568 112.188 393.089 113.014Z" fill="#E0E0E0"/>
<path d="M463.449 443.052C463.449 446.439 369.932 449.184 254.574 449.184C139.216 449.184 45.699 446.439 45.699 443.052C45.699 439.665 139.215 436.92 254.574 436.92C369.933 436.92 463.449 439.665 463.449 443.052Z" fill="#F5F5F5"/>
<path d="M49.7051 328.228C64.0371 328.228 78.3691 328.228 92.7011 328.228" stroke="black" stroke-width="0.75" stroke-miterlimit="10" stroke-linecap="round" stroke-linejoin="round"/>
<path d="M39.3191 333.813C53.6511 333.813 67.9831 333.813 82.3151 333.813" stroke="black" stroke-width="0.75" stroke-miterlimit="10" stroke-linecap="round" stroke-linejoin="round"/>
<path d="M181.31 180.232C191.176 180.232 201.042 180.232 210.908 180.232" stroke="black" stroke-width="0.75" stroke-miterlimit="10" stroke-linecap="round" stroke-linejoin="round"/>
<path d="M174.161 183.852C184.027 183.852 193.893 183.852 203.759 183.852" stroke="black" stroke-width="0.75" stroke-miterlimit="10" stroke-linecap="round" stroke-linejoin="round"/>
<path d="M75.4599 159.887C75.4599 159.887 61.1359 177.632 53.2959 179.403C53.2959 179.403 60.8229 181.065 73.0229 179.403C85.2229 177.741 84.6119 176.488 84.6119 176.488L75.4599 159.887Z" fill="#407BFF"/>
<path d="M98.831 211.386C94.666 196.741 88.913 182.555 81.671 169.16C79.58 165.293 77.362 161.495 75.033 157.767C74.523 156.95 73.224 157.702 73.738 158.524C84.076 175.07 92.047 193.019 97.385 211.785C97.648 212.712 99.096 212.318 98.831 211.386Z" fill="#263238"/>
<path d="M172.618 296.376H86.8969C82.5679 296.376 79.0579 292.866 79.0579 288.537V218.569C79.0579 214.24 82.5679 210.73 86.8969 210.73H172.618C176.947 210.73 180.457 214.24 180.457 218.569V288.537C180.458 292.867 176.948 296.376 172.618 296.376Z" fill="#407BFF"/>
<g opacity="0.3">
<path d="M79.7069 219.305C105.77 219.305 131.833 219.305 157.896 219.305C165.2 219.305 172.505 219.305 179.809 219.305C180.774 219.305 180.776 217.805 179.809 217.805C153.746 217.805 127.683 217.805 101.62 217.805C94.3159 217.805 87.0109 217.805 79.7069 217.805C78.7419 217.805 78.7399 219.305 79.7069 219.305Z" fill="black"/>
</g>
<path d="M183.145 296.376H92.2949C90.1249 296.376 88.3669 298.135 88.3669 300.304C88.3669 302.46 90.1039 304.214 92.2599 304.232C101.256 304.309 122.761 304.465 123.298 304.197C123.978 303.857 136.283 322.031 138.344 321.208L143.36 338.005L195.046 318.953L183.145 296.376Z" fill="#263238"/>
<path opacity="0.3" d="M183.145 296.376H92.2949C90.1249 296.376 88.3669 298.135 88.3669 300.304C88.3669 302.46 90.1039 304.214 92.2599 304.232C101.256 304.309 122.761 304.465 123.298 304.197C123.978 303.857 136.283 322.031 138.344 321.208L143.36 338.005L195.046 318.953L183.145 296.376Z" fill="black"/>
<path d="M182.457 303.018C182.197 302.237 175.687 281.405 193.654 282.447C211.621 283.489 276.199 307.583 276.98 312.852C277.761 318.121 261.096 326.193 261.096 326.193C261.096 326.193 248.076 349.368 257.45 361.606C266.824 373.844 278.021 375.928 291.301 376.188C304.581 376.448 328.537 374.365 327.496 347.805C326.454 321.245 326.715 301.715 321.247 288.956C315.779 276.197 317.081 260.834 317.081 260.052C317.081 259.271 332.184 253.552 332.184 253.552L373.847 314.879L355.88 362.386C355.88 362.386 329.841 393.894 329.059 394.414C328.278 394.935 270.47 407.173 269.689 407.173C268.908 407.173 218.652 402.486 218.391 401.444C218.131 400.402 207.975 378.529 207.975 378.529L182.457 303.018Z" fill="#263238"/>
<path d="M409.387 310.649C409.387 310.649 415.441 313.762 419.782 322.1C424.123 330.439 421.381 336.721 421.381 336.721L409.387 310.649Z" fill="#407BFF"/>
<path opacity="0.5" d="M409.387 310.649C409.387 310.649 415.441 313.762 419.782 322.1C424.123 330.439 421.381 336.721 421.381 336.721L409.387 310.649Z" fill="white"/>
<path d="M218.955 409.63V412.911H212.118V417.282C212.118 417.282 252.33 419.191 253.971 417.282C255.612 415.373 259.168 406.812 259.168 406.812L218.955 409.63Z" fill="#263238"/>
<path d="M150.958 443.052C179.079 443.052 201.875 420.308 201.875 392.251C201.875 364.194 179.079 341.45 150.958 341.45C122.837 341.45 100.041 364.194 100.041 392.251C100.041 420.308 122.837 443.052 150.958 443.052Z" fill="#263238"/>
<path opacity="0.4" d="M150.958 423.396C168.198 423.396 182.174 409.452 182.174 392.251C182.174 375.05 168.198 361.106 150.958 361.106C133.718 361.106 119.742 375.05 119.742 392.251C119.742 409.452 133.718 423.396 150.958 423.396Z" fill="white"/>
<g opacity="0.3">
<path d="M153.453 366.719V382.685C153.453 384.059 152.337 385.172 150.96 385.172H150.944C149.567 385.172 148.451 384.059 148.451 382.685V366.719C148.451 365.345 149.567 364.232 150.944 364.232H150.96C152.337 364.232 153.453 365.345 153.453 366.719Z" fill="white"/>
</g>
<g opacity="0.3">
<path d="M153.453 401.811V417.777C153.453 419.151 152.337 420.264 150.96 420.264H150.944C149.567 420.264 148.451 419.151 148.451 417.777V401.811C148.451 400.437 149.567 399.324 150.944 399.324H150.96C152.337 399.324 153.453 400.437 153.453 401.811Z" fill="white"/>
</g>
<g opacity="0.3">
<path d="M160.478 389.636C159.287 390.308 157.776 389.89 157.103 388.702L157.102 388.701C156.41 387.514 156.813 385.991 158.003 385.301L171.866 377.278C171.868 377.277 171.87 377.275 171.872 377.274C173.066 376.59 174.59 377.001 175.275 378.192C175.276 378.194 175.277 378.196 175.279 378.198C175.965 379.389 175.553 380.909 174.359 381.593L160.512 389.616C160.501 389.623 160.49 389.629 160.478 389.636Z" fill="white"/>
</g>
<g opacity="0.3">
<path d="M126.627 406.191C126.626 406.189 126.624 406.187 126.623 406.185C125.938 404.994 126.35 403.474 127.543 402.79L141.39 394.767C142.585 394.074 144.117 394.476 144.816 395.666C145.508 396.863 145.098 398.392 143.899 399.084L130.052 407.107C128.854 407.797 127.321 407.387 126.627 406.191Z" fill="white"/>
</g>
<g opacity="0.3">
<path d="M175.272 406.262C174.583 407.451 173.058 407.858 171.866 407.17L158.003 399.147C156.81 398.45 156.408 396.922 157.102 395.729L157.103 395.728C157.796 394.541 159.322 394.139 160.512 394.831L174.359 402.854C174.361 402.855 174.363 402.857 174.366 402.858C175.558 403.546 175.965 405.067 175.276 406.256C175.275 406.258 175.274 406.26 175.272 406.262Z" fill="white"/>
</g>
<g opacity="0.3">
<path d="M144.802 388.727C144.106 389.912 142.579 390.31 141.391 389.616L127.544 381.593C127.542 381.592 127.54 381.59 127.538 381.589C126.346 380.901 125.939 379.38 126.628 378.191C127.321 376.995 128.854 376.586 130.053 377.276L143.9 385.3C143.902 385.301 143.904 385.302 143.906 385.304C145.098 385.992 145.505 387.513 144.816 388.702C144.811 388.71 144.807 388.719 144.802 388.727Z" fill="white"/>
</g>
<path d="M150.96 388.06C153.278 388.06 155.158 389.935 155.158 392.248C155.158 394.561 153.279 396.436 150.96 396.436C148.642 396.436 146.763 394.561 146.763 392.248C146.762 389.935 148.642 388.06 150.96 388.06Z" fill="#263238"/>
<path d="M395.788 443.052C423.909 443.052 446.705 420.308 446.705 392.251C446.705 364.194 423.909 341.45 395.788 341.45C367.667 341.45 344.871 364.194 344.871 392.251C344.871 420.308 367.667 443.052 395.788 443.052Z" fill="#263238"/>
<path opacity="0.4" d="M395.788 423.396C413.028 423.396 427.004 409.452 427.004 392.251C427.004 375.05 413.028 361.106 395.788 361.106C378.548 361.106 364.572 375.05 364.572 392.251C364.572 409.452 378.548 423.396 395.788 423.396Z" fill="white"/>
<g opacity="0.3">
<path d="M398.282 366.719V382.685C398.282 384.059 397.166 385.172 395.789 385.172H395.773C394.396 385.172 393.28 384.059 393.28 382.685V366.719C393.28 365.345 394.396 364.232 395.773 364.232H395.789C397.166 364.232 398.282 365.345 398.282 366.719Z" fill="white"/>
</g>
<g opacity="0.3">
<path d="M398.282 401.811V417.777C398.282 419.151 397.166 420.264 395.789 420.264H395.773C394.396 420.264 393.28 419.151 393.28 417.777V401.811C393.28 400.437 394.396 399.324 395.773 399.324H395.789C397.166 399.324 398.282 400.437 398.282 401.811Z" fill="white"/>
</g>
<g opacity="0.3">
<path d="M405.308 389.636C404.117 390.308 402.606 389.89 401.933 388.702L401.932 388.701C401.24 387.514 401.643 385.991 402.833 385.301L416.696 377.278C416.698 377.277 416.7 377.275 416.702 377.274C417.896 376.59 419.42 377.001 420.105 378.192C420.106 378.194 420.107 378.196 420.109 378.198C420.795 379.389 420.383 380.909 419.189 381.593L405.342 389.616C405.331 389.623 405.319 389.629 405.308 389.636Z" fill="white"/>
</g>
<g opacity="0.3">
<path d="M371.457 406.191C371.456 406.189 371.454 406.187 371.453 406.185C370.767 404.994 371.18 403.474 372.373 402.79L386.22 394.767C387.415 394.074 388.947 394.476 389.646 395.666C390.338 396.863 389.928 398.392 388.729 399.084L374.882 407.107C373.683 407.797 372.15 407.387 371.457 406.191Z" fill="white"/>
</g>
<g opacity="0.3">
<path d="M420.102 406.262C419.413 407.451 417.888 407.858 416.696 407.17L402.833 399.147C401.64 398.45 401.238 396.922 401.932 395.729L401.933 395.728C402.626 394.541 404.152 394.139 405.342 394.831L419.189 402.854C419.191 402.855 419.193 402.857 419.196 402.858C420.388 403.546 420.795 405.067 420.106 406.256C420.104 406.258 420.103 406.26 420.102 406.262Z" fill="white"/>
</g>
<g opacity="0.3">
<path d="M389.631 388.727C388.935 389.912 387.408 390.31 386.22 389.616L372.373 381.593C372.371 381.592 372.369 381.59 372.367 381.589C371.175 380.901 370.768 379.38 371.457 378.191C372.15 376.995 373.683 376.586 374.883 377.276L388.73 385.299C388.732 385.3 388.734 385.301 388.736 385.303C389.928 385.991 390.335 387.512 389.646 388.701C389.641 388.71 389.636 388.719 389.631 388.727Z" fill="white"/>
</g>
<path d="M395.789 388.06C398.107 388.06 399.986 389.935 399.986 392.248C399.986 394.561 398.107 396.436 395.789 396.436C393.471 396.436 391.591 394.561 391.591 392.248C391.592 389.935 393.471 388.06 395.789 388.06Z" fill="#263238"/>
<path d="M306.278 241.97C306.278 241.97 307.777 237.474 307.652 237.474C307.527 237.474 319.892 227.732 319.892 227.732C319.892 227.732 331.257 233.477 334.13 236.724C337.003 239.971 337.377 250.962 337.377 250.962C337.377 250.962 332.756 255.333 332.256 255.583C331.756 255.833 317.019 264.45 316.395 263.951C315.77 263.452 306.278 241.97 306.278 241.97Z" fill="#407BFF"/>
<g opacity="0.3">
<path d="M291.302 376.189C278.022 375.929 266.825 373.845 257.451 361.607C248.077 349.369 261.097 326.194 261.097 326.194C261.097 326.194 231.997 316.228 232.867 317.191C233.737 318.155 223.291 364.059 245.925 376.943C264.319 387.414 297.069 378.19 308.692 374.372C302.64 376.056 296.235 376.285 291.302 376.189Z" fill="black"/>
</g>
<path d="M89.5801 357.275C89.1021 357.992 83.8551 364.363 99.6671 366.544C115.479 368.725 210.893 384.264 211.983 384.264C213.073 384.264 234.882 357.275 227.522 336.829C220.161 316.383 187.993 307.932 170.819 309.023C153.644 310.113 120.113 311.476 89.5801 357.275Z" fill="#407BFF"/>
<path d="M206.428 392.741L205.589 412.471C205.589 412.471 308.256 412.407 322.259 407.185C334.775 402.517 338.528 396.873 340.221 389.957C345.047 389.958 349.607 387.772 352.619 384.002C360.545 374.08 380.066 355.469 413.699 357.796C414.678 357.864 415.664 357.87 416.642 357.788C421.054 357.416 433.695 356.246 432.993 355.076C432.143 353.66 410.053 323.923 373.52 327.888C373.52 327.888 384.848 322.79 380.317 314.861C375.786 306.931 334.438 254.255 334.438 254.255C334.438 254.255 320.844 266.15 330.756 280.027C340.668 293.904 352.563 314.861 352.563 323.074C352.563 331.287 347.394 375.096 325.375 391.61C315.179 399.255 206.428 392.741 206.428 392.741Z" fill="#407BFF"/>
<path opacity="0.3" d="M101.384 349.609C101.384 349.609 137.965 309.893 181.165 313.028C224.365 316.163 106.61 359.015 101.384 349.609Z" fill="white"/>
<path d="M390.889 331.49C390.889 331.49 386.808 320.439 397.18 315.168C407.551 309.897 409.081 310.067 409.081 310.067L423.023 336.59C423.023 336.59 420.558 340.939 410.017 341.449C399.476 341.959 391.592 331.777 391.592 331.777" fill="#407BFF"/>
<path d="M294.239 240.56L311.433 242.216L315.519 238.636C315.519 238.636 321.609 239.068 322.725 240.346C323.841 241.624 324.587 245.244 324.587 245.244C324.587 245.244 325.698 248.292 322.78 249.326C322.78 249.326 323.411 251.524 320.102 252.791C320.102 252.791 319.52 244.114 316.108 244.912C312.696 245.71 313.786 255.858 311.694 255.595C307.805 255.107 307.937 252.499 307.937 252.499L293.06 251.472L294.239 240.56Z" fill="#FAAC6D"/>
<path d="M314.789 256.037C318.092 256.037 320.769 253.36 320.769 250.057C320.769 246.754 318.092 244.077 314.789 244.077C311.486 244.077 308.809 246.754 308.809 250.057C308.809 253.36 311.486 256.037 314.789 256.037Z" fill="#263238"/>
<path opacity="0.3" d="M227.522 336.829C224.422 328.218 216.917 321.743 207.99 317.204C208.246 317.491 218.942 329.521 220.498 335.95C222.073 342.456 210.682 363.277 201.874 371.518C193.066 379.759 161.247 376.206 160.683 376.116C186.9 380.313 211.433 384.264 211.983 384.264C213.074 384.263 234.883 357.275 227.522 336.829Z" fill="black"/>
<path opacity="0.3" d="M373.52 327.887C373.52 327.887 365.709 331.601 362.889 335.126C360.069 338.651 355.223 350.282 355.223 350.282C355.223 350.282 362.682 347.898 364.372 341.468C366.062 335.038 369.234 331.778 369.234 331.778L373.52 327.887Z" fill="black"/>
<path opacity="0.3" d="M390.161 327.887C390.161 327.887 407.064 333.104 418.172 340.566C418.172 340.566 406.583 326.069 390.161 327.887Z" fill="black"/>
<path opacity="0.3" d="M99.8989 358.466C131.141 363.878 180.875 372.54 212.117 377.952" stroke="black" stroke-miterlimit="10" stroke-linecap="round" stroke-linejoin="round"/>
<path d="M259.848 325.767C259.225 325.555 194.99 305.041 191.746 303.882" stroke="black" stroke-miterlimit="10" stroke-linecap="round" stroke-linejoin="round"/>
<path opacity="0.3" d="M352.664 369.937C365.775 353.003 389.105 344.699 409.966 349.539" stroke="black" stroke-miterlimit="10" stroke-linecap="round" stroke-linejoin="round"/>
<path opacity="0.5" d="M321.827 232.756C322.372 233.673 329.821 241.598 329.821 241.598L336.452 242.828C336.452 242.828 335.86 239.066 334.129 236.724C332.398 234.383 322.592 229.205 322.592 229.205L321.827 232.756Z" fill="white"/>
<path opacity="0.3" d="M337.376 269.198C344.871 286.851 366.298 313.211 368.095 314.824" stroke="black" stroke-miterlimit="10" stroke-linecap="round" stroke-linejoin="round"/>
<path d="M278.56 151.258C279.813 151.582 280.845 152.643 281.133 153.904C281.421 155.165 280.953 156.57 279.966 157.406C280.939 157.469 281.482 158.708 281.174 159.634C280.866 160.56 280.01 161.185 279.156 161.658C279.625 161.923 279.837 162.514 279.786 163.05C279.736 163.586 279.469 164.078 279.173 164.528C277.884 166.486 275.904 167.978 273.667 168.678C273.667 168.678 273.822 153.173 274.295 152.976C274.769 152.778 278.56 151.258 278.56 151.258Z" fill="#263238"/>
<path d="M257.554 189.321C258.039 187.862 258.842 186.406 259.729 185.011L257.183 182.833L248.805 170.942C248.906 177.384 247.542 188.619 241.602 191.416L256.013 198.79C253.89 196.423 256.667 191.889 257.554 189.321Z" fill="#FAAC6D"/>
<path opacity="0.2" d="M257.375 189.887C254.876 187.771 252.312 184.398 253.228 181.193C253.623 179.845 254.139 178.592 254.609 177.812L258.99 186.23C258.324 187.355 258.02 188.123 257.375 189.887Z" fill="black"/>
<path d="M248.787 159.125C247.988 169.658 247.43 174.088 251.866 180.429C258.538 189.968 271.389 189.305 275.255 179.382C278.735 170.452 279.456 154.727 270.008 148.65C260.699 142.664 249.585 148.592 248.787 159.125Z" fill="#FAAC6D"/>
<path d="M260.66 164.674C260.526 165.78 260.968 166.781 261.648 166.911C262.328 167.04 262.987 166.248 263.121 165.142C263.255 164.036 262.813 163.035 262.133 162.906C261.453 162.776 260.794 163.568 260.66 164.674Z" fill="#263238"/>
<path d="M271.476 166.506C271.348 167.578 271.794 168.552 272.472 168.681C273.15 168.81 273.803 168.045 273.93 166.973C274.058 165.901 273.612 164.927 272.934 164.798C272.257 164.668 271.604 165.433 271.476 166.506Z" fill="#263238"/>
<path d="M260.133 160.579C260.263 160.616 260.403 160.6 260.522 160.523C262.369 159.313 264.081 160.136 264.101 160.145C264.355 160.268 264.65 160.162 264.757 159.9C264.863 159.638 264.742 159.324 264.486 159.197C264.397 159.153 262.249 158.118 259.956 159.621C259.728 159.771 259.669 160.094 259.825 160.343C259.9 160.464 260.012 160.545 260.133 160.579Z" fill="#263238"/>
<path d="M276.206 161.835C276.316 161.818 276.417 161.755 276.482 161.649C276.616 161.43 276.551 161.112 276.337 160.939C274.191 159.207 272.263 159.923 272.181 159.956C271.951 160.045 271.851 160.331 271.958 160.595C272.064 160.859 272.335 161.001 272.565 160.914C272.64 160.885 274.145 160.354 275.851 161.732C275.96 161.821 276.089 161.854 276.206 161.835Z" fill="#263238"/>
<path d="M269.19 165.486C269.19 165.486 270.158 169.642 271.581 172.372C271.83 172.849 271.528 173.433 270.999 173.532C269.639 173.787 268.211 173.108 268.211 173.108L269.19 165.486Z" fill="#E97F3F"/>
<path d="M261.735 162.885L264.211 162.724C264.211 162.724 262.609 164.279 261.735 162.885Z" fill="#263238"/>
<path d="M272.569 164.775L275.045 164.614C275.045 164.614 274.708 166.269 272.569 164.775Z" fill="#263238"/>
<path d="M250.33 169.069C250.33 169.069 254.092 169.153 252.978 164.595C252.978 164.595 257.443 163.045 255.867 157.651C255.867 157.651 260.231 158.574 262.059 154.188C262.059 154.188 265.568 157.691 269.471 154.781C269.471 154.781 275.233 159.69 277.563 155.359C277.563 155.359 285.984 153.388 279.516 148.27C279.516 148.27 281.025 137.014 269.905 141.236C269.905 141.236 264.857 133.212 257.245 140.197C257.245 140.197 250.899 137.086 248.497 144.781C248.497 144.781 241.567 144.054 240.768 153.826C240.768 153.826 235.054 156.899 240.161 162.531C240.161 162.531 239.119 165.218 242.151 168.291C242.151 168.291 242.813 172.206 245.426 173.037C245.426 173.037 247.262 178.487 248.7 177.999C250.138 177.512 248.649 171.528 250.33 169.069Z" fill="#263238"/>
<path d="M244.802 167.171C245.669 169.505 247.434 171.177 249.183 171.942C251.812 173.094 253.975 168.918 253.501 166.009C253.075 163.39 250.653 161.296 247.89 161.386C245.168 161.475 243.811 164.502 244.802 167.171Z" fill="#FAAC6D"/>
<path opacity="0.2" d="M251.429 167.783C251.529 166.79 251.221 165.761 250.59 164.987C249.96 164.213 249.015 163.702 248.022 163.599" stroke="black" stroke-width="0.5" stroke-miterlimit="10" stroke-linecap="round" stroke-linejoin="round"/>
<path d="M267.191 174.786C266.294 175.754 265.467 176.784 264.714 177.868L264.078 177.567C261.244 176.176 260.387 174.592 260.279 173.209C260.256 172.556 260.384 171.906 260.654 171.31C260.797 170.967 260.989 170.647 261.223 170.358C262.235 172.261 264.908 173.611 266.291 174.356C266.891 174.724 267.191 174.786 267.191 174.786Z" fill="#263238"/>
<path d="M266.225 174.278L265.471 175.165C262.846 173.842 261.1 172.568 260.664 171.341C260.807 170.999 260.999 170.678 261.233 170.39C262.301 172.051 264.861 173.593 266.225 174.278Z" fill="white"/>
<path d="M264.078 177.568C261.244 176.177 260.387 174.593 260.279 173.21C261.365 173.742 262.342 174.472 263.161 175.361C263.693 175.981 264.014 176.753 264.078 177.568Z" fill="#E8675B"/>
<path d="M237.835 159.791C237.892 162.493 238.314 165.188 239.159 167.755C240.44 171.645 242.875 176.95 246.755 177.567C256.672 179.145 255.663 171.215 256.014 169.537C256.365 167.859 256 154.185 258.99 153.506C261.98 152.827 283.541 156.253 283.541 156.253C283.541 156.253 285.442 139.093 267.191 137.145C246.747 134.965 237.444 141.389 237.835 159.791Z" fill="#407BFF"/>
<path opacity="0.2" d="M255.154 169.538C255.609 169.574 277.692 174.66 279.655 173.59C281.619 172.519 284.449 160.56 282.563 153.71C280.677 146.86 259.294 148.362 258.504 148.696C257.714 149.029 255.154 169.538 255.154 169.538Z" fill="#407BFF"/>
<path d="M237.942 155.408L256.628 159.968L256.368 163.095L237.822 158.811C237.817 157.721 237.853 156.591 237.942 155.408Z" fill="white"/>
<path d="M237.853 160.389L256.269 164.944L256.134 168.104L238.225 163.967C238.067 162.905 237.869 161.546 237.853 160.389Z" fill="white"/>
<path opacity="0.2" d="M241.602 148.972C241.602 148.972 242.44 140.601 251.447 138.992C260.454 137.382 266.238 137.382 264.795 139.958C263.352 142.534 253.544 142.534 251.311 144.143C249.078 145.752 244 152.298 241.602 148.972Z" fill="white"/>
<path opacity="0.3" d="M276.773 149.868C276.615 151.159 274.311 151.94 271.628 151.611C268.945 151.282 266.898 149.969 267.056 148.677C267.214 147.386 269.518 146.605 272.201 146.934C274.884 147.264 276.931 148.577 276.773 149.868Z" fill="white"/>
<path d="M293.699 384.351L304.003 380.974L301.312 353.526L288.673 358.148L293.699 384.351Z" fill="#FAAC6D"/>
<path opacity="0.2" d="M292.12 376.115L288.673 358.149L301.312 353.527L303.281 373.608L292.12 376.115Z" fill="black"/>
<path d="M305.544 378.047L292.812 381.584C292.385 381.703 292.097 382.115 292.118 382.575L292.6 392.839C292.65 393.903 293.657 394.645 294.638 394.353C298.715 393.142 301.639 392.061 306.798 390.627C309.972 389.745 319.635 387.43 324.019 386.212C328.307 385.021 327.787 380.31 325.885 380.398C317.356 380.796 310.626 379.946 307.415 378.244C306.837 377.939 306.169 377.873 305.544 378.047Z" fill="#263238"/>
<path opacity="0.3" d="M305.544 378.047L292.812 381.584C292.385 381.703 292.097 382.115 292.118 382.575L292.6 392.839C292.65 393.903 293.657 394.645 294.638 394.353C298.715 393.142 301.639 392.061 306.798 390.627C309.972 389.745 319.635 387.43 324.019 386.212C328.307 385.021 327.787 380.31 325.885 380.398C317.356 380.796 310.626 379.946 307.415 378.244C306.837 377.939 306.169 377.873 305.544 378.047Z" fill="black"/>
<path d="M200.857 258.629C200.857 258.629 185.669 286.895 213.143 297.529C233.843 305.542 274.445 315.394 274.445 315.394L286.626 380.1L310.15 374.946C310.15 374.946 303.281 331.635 299.033 303.213C297.672 294.106 293.953 293.228 292.049 291.934C285.933 287.779 240.223 270.936 240.223 270.936L241.277 267.09L200.857 258.629Z" fill="#407BFF"/>
<path opacity="0.3" d="M200.857 258.629C200.857 258.629 185.669 286.895 213.143 297.529C233.843 305.542 274.445 315.394 274.445 315.394L286.626 380.1L310.15 374.946C310.15 374.946 303.281 331.635 299.033 303.213C297.672 294.106 293.953 293.228 292.049 291.934C285.933 287.779 240.223 270.936 240.223 270.936L241.277 267.09L200.857 258.629Z" fill="black"/>
<path opacity="0.3" d="M274.446 315.394L280.409 310.689L275.092 318.826L274.446 315.394Z" fill="black"/>
<path d="M246.213 184.241C245.494 184.364 233.747 185.727 225.915 197.651C218.083 209.575 200.323 248.756 200.473 250.493C201.091 257.625 191.872 261.657 213.568 265.985C235.264 270.314 241.277 269.016 241.277 269.016C241.277 269.016 245.739 266.825 246.973 260.005C247.121 259.188 258.458 233.603 260.983 221.863C263.508 210.123 257.368 189.886 257.368 189.886L256.013 192.841L246.213 184.241Z" fill="#263238"/>
<path opacity="0.3" d="M253.401 243.618C253.401 243.618 232.024 209.267 230.82 210.731C230.205 211.478 233.22 223.077 238.039 233.992C238.224 234.411 241.466 233.067 241.603 233.502C245.042 244.436 249.142 253.966 249.142 253.966C249.883 252.171 253.401 243.618 253.401 243.618Z" fill="black"/>
<path d="M244.683 184.865L247.57 182.154L258.989 189.225L257.099 195.246L244.683 184.865Z" fill="#263238"/>
<path d="M246.885 195.018C245.638 193.351 235.043 193.709 232.289 201.181C229.536 208.654 256.571 251.92 263.317 254.412C272.517 257.81 307.937 252.499 308.199 252.143L311.595 241.827L272.388 238.636C270.999 238.865 251.961 201.802 246.885 195.018Z" fill="#FAAC6D"/>
<path d="M239.082 232.064L262.179 220.825C262.179 220.825 251.849 189.983 242.861 191.061C233.873 192.139 228.84 199.869 229.739 205.262C230.638 210.655 239.082 232.064 239.082 232.064Z" fill="#263238"/>
<path opacity="0.3" d="M233.22 194.965C233.22 194.965 243.564 187.545 249.453 195.451C255.342 203.357 261.592 220.544 261.592 220.544" stroke="black" stroke-width="0.75" stroke-miterlimit="10" stroke-linecap="round" stroke-linejoin="round"/>
<path opacity="0.3" d="M237.823 227.733L260.663 218.094" stroke="black" stroke-width="0.75" stroke-miterlimit="10" stroke-linecap="round" stroke-linejoin="round"/>
<path d="M104.639 262.043L104.006 264.625H109.755L109.004 267.557H101.964L103.841 260.048H99.1491L96.6382 270.138H110.717C111.023 270.138 111.327 270.068 111.656 269.905C111.984 269.739 112.266 269.528 112.546 269.27C112.828 269.036 113.064 268.754 113.274 268.45C113.463 268.143 113.602 267.839 113.697 267.557L114.354 264.929C114.378 264.835 114.378 264.695 114.33 264.554C114.283 264.413 114.213 264.248 114.142 264.085C114.05 263.944 113.979 263.803 113.909 263.662C113.814 263.521 113.767 263.428 113.721 263.333C113.792 263.287 113.909 263.17 114.05 263.029C114.189 262.888 114.354 262.747 114.517 262.583C114.658 262.442 114.799 262.277 114.916 262.114C115.035 261.973 115.106 261.832 115.152 261.737L115.573 260.048H110.882L110.388 262.043H104.639ZM114.12 256.528H100.04L99.383 259.109H115.809C115.855 258.829 115.855 258.547 115.809 258.241C115.763 257.936 115.644 257.654 115.505 257.396C115.363 257.163 115.152 256.951 114.916 256.788C114.682 256.622 114.4 256.528 114.12 256.528Z" fill="white"/>
<path d="M128.996 264.625L128.244 267.557H116.512L115.879 270.138H129.957C130.263 270.138 130.568 270.068 130.896 269.905C131.225 269.739 131.507 269.528 131.787 269.27C132.069 269.036 132.305 268.754 132.515 268.45C132.704 268.143 132.843 267.839 132.938 267.557L133.689 264.625C133.736 264.343 133.736 264.061 133.689 263.756C133.641 263.45 133.524 263.17 133.383 262.912C133.242 262.676 133.032 262.465 132.797 262.301C132.563 262.136 132.281 262.043 131.976 262.043H122.59L123.081 260.048H118.39L117.896 262.043C117.803 262.325 117.803 262.63 117.85 262.934C117.896 263.24 118.013 263.521 118.178 263.756C118.319 264.014 118.531 264.226 118.765 264.389C118.999 264.554 119.281 264.625 119.609 264.625H128.996ZM135.707 256.528H121.628C121.322 256.528 121.018 256.622 120.689 256.788C120.361 256.951 120.055 257.163 119.774 257.396C119.492 257.654 119.234 257.936 119.023 258.241C118.811 258.547 118.67 258.829 118.624 259.109H135.05L135.707 256.528Z" fill="white"/>
<path d="M148.189 270.138L156.544 260.048H152.789L148.001 265.844L146.147 260.048H141.033L144.364 270.138H148.189ZM158.96 270.138L161.471 260.048H156.778L154.267 270.138H158.96ZM138.264 270.138L140.775 260.048H137.607L135.096 270.138H138.264ZM162.362 256.528H155.722L153.563 259.109H161.705L162.362 256.528ZM137.841 259.109H145.867L145.045 256.528H138.498L137.841 259.109Z" fill="white"/>
<path d="M97.4819 277.836H97.9088L98.6975 274.114H100.312L100.397 273.722H96.7452L96.658 274.114H98.2725L97.4819 277.836Z" fill="white"/>
<path d="M99.6428 277.836H100.07L100.393 276.309C100.576 275.457 101.192 275.173 101.655 275.173C101.786 275.173 101.913 275.186 102.041 275.209L102.131 274.771C102.074 274.759 102.005 274.748 101.885 274.748C101.176 274.748 100.801 275.168 100.571 275.526H100.56L100.708 274.839H100.283L99.6428 277.836Z" fill="white"/>
<path d="M104.551 277.836H104.978L105.619 274.839H105.192L104.847 276.465C104.702 277.144 104.23 277.571 103.393 277.571C102.852 277.571 102.53 277.363 102.657 276.771L103.07 274.839H102.646L102.247 276.695C102.098 277.409 102.287 277.929 103.284 277.929C103.946 277.929 104.472 277.565 104.667 277.248H104.679L104.551 277.836Z" fill="white"/>
<path d="M108.937 275.728C109.017 275.099 108.696 274.748 107.721 274.748C106.851 274.748 106.35 275.116 106.24 275.635C106.131 276.166 106.413 276.385 107.324 276.476C108.239 276.569 108.425 276.701 108.36 277.001C108.263 277.45 107.836 277.571 107.243 277.571C106.476 277.571 106.229 277.398 106.263 276.897H105.871C105.715 277.617 106.216 277.929 107.168 277.929C108.107 277.929 108.666 277.571 108.792 276.977C108.915 276.396 108.568 276.235 107.681 276.114C106.793 275.992 106.602 275.929 106.673 275.619C106.758 275.203 107.196 275.105 107.645 275.105C108.269 275.105 108.54 275.244 108.545 275.728H108.937Z" fill="white"/>
<path d="M110.228 274.839H109.576L109.508 275.162H110.159L109.738 277.139C109.634 277.623 109.721 277.883 110.384 277.883C110.521 277.883 110.693 277.872 110.86 277.848L110.937 277.491C110.849 277.508 110.712 277.525 110.504 277.525C110.159 277.525 110.107 277.404 110.165 277.144L110.584 275.162H111.432L111.501 274.839H110.654L110.849 273.895H110.422L110.228 274.839Z" fill="white"/>
<path d="M116.013 277.3L114.94 273.722H114.319L113.443 277.836H113.869L114.623 274.275H114.636L115.69 277.836H116.082L118.652 274.281H118.663L117.908 277.836H118.335L119.211 273.722H118.606L116.013 277.3Z" fill="white"/>
<path d="M119.958 276.12C120.212 275.387 120.864 275.105 121.411 275.105C121.981 275.105 122.465 275.381 122.424 276.12H119.958ZM122.189 276.881C121.942 277.335 121.573 277.571 120.858 277.571C120.097 277.571 119.758 277.064 119.889 276.443H122.783C123.076 275.082 122.23 274.748 121.458 274.748C120.339 274.748 119.665 275.502 119.487 276.339C119.331 277.07 119.555 277.929 120.782 277.929C121.775 277.929 122.334 277.41 122.616 276.881H122.189Z" fill="white"/>
<path d="M123.922 276.12C124.176 275.387 124.828 275.105 125.375 275.105C125.945 275.105 126.429 275.381 126.389 276.12H123.922ZM126.153 276.881C125.906 277.335 125.537 277.571 124.822 277.571C124.061 277.571 123.722 277.064 123.854 276.443H126.747C127.04 275.082 126.194 274.748 125.422 274.748C124.303 274.748 123.629 275.502 123.451 276.339C123.295 277.07 123.519 277.929 124.746 277.929C125.739 277.929 126.298 277.41 126.58 276.881H126.153Z" fill="white"/>
<path d="M128.129 274.839H127.478L127.409 275.162H128.061L127.64 277.139C127.536 277.623 127.623 277.883 128.285 277.883C128.423 277.883 128.595 277.872 128.762 277.848L128.838 277.491C128.751 277.508 128.614 277.525 128.406 277.525C128.061 277.525 128.009 277.404 128.066 277.144L128.486 275.162H129.334L129.403 274.839H128.556L128.751 273.895H128.324L128.129 274.839Z" fill="white"/>
<path d="M132.532 275.728C132.611 275.099 132.29 274.748 131.316 274.748C130.446 274.748 129.945 275.116 129.835 275.635C129.726 276.166 130.008 276.385 130.919 276.476C131.834 276.569 132.019 276.701 131.955 277.001C131.858 277.45 131.431 277.571 130.837 277.571C130.071 277.571 129.824 277.398 129.857 276.897H129.466C129.31 277.617 129.811 277.929 130.763 277.929C131.702 277.929 132.261 277.571 132.387 276.977C132.509 276.396 132.162 276.235 131.275 276.114C130.388 275.992 130.197 275.929 130.268 275.619C130.353 275.203 130.791 275.105 131.24 275.105C131.864 275.105 132.135 275.244 132.14 275.728H132.532Z" fill="white"/>
<path d="M136.501 277.352L135.682 273.722H135.187L136.15 277.836H136.61L139.307 273.722H138.846L136.501 277.352Z" fill="white"/>
<path d="M139.375 276.12C139.63 275.387 140.281 275.105 140.828 275.105C141.398 275.105 141.883 275.381 141.842 276.12H139.375ZM141.606 276.881C141.359 277.335 140.99 277.571 140.275 277.571C139.514 277.571 139.175 277.064 139.307 276.443H142.2C142.493 275.082 141.647 274.748 140.875 274.748C139.756 274.748 139.082 275.502 138.904 276.339C138.748 277.07 138.973 277.929 140.199 277.929C141.192 277.929 141.751 277.41 142.033 276.881H141.606Z" fill="white"/>
<path d="M142.643 277.836H143.07L143.952 273.687H143.525L142.643 277.836Z" fill="white"/>
<path d="M144.586 276.339C144.74 275.619 145.317 275.105 146.124 275.105C146.93 275.105 147.288 275.619 147.132 276.339C146.981 277.059 146.406 277.571 145.599 277.571C144.792 277.571 144.435 277.059 144.586 276.339ZM144.159 276.339C143.981 277.174 144.372 277.929 145.525 277.929C146.677 277.929 147.38 277.174 147.559 276.339C147.737 275.502 147.351 274.748 146.198 274.748C145.046 274.748 144.337 275.502 144.159 276.339Z" fill="white"/>
<path d="M150.877 276.764C150.664 277.231 150.242 277.571 149.615 277.571C148.802 277.571 148.457 277.081 148.613 276.339C148.761 275.647 149.281 275.105 150.14 275.105C150.669 275.105 151.027 275.307 151.05 275.819H151.477C151.499 275.387 151.241 274.748 150.215 274.748C149.079 274.748 148.375 275.439 148.186 276.339C147.989 277.278 148.457 277.929 149.541 277.929C150.628 277.929 151.137 277.157 151.304 276.764H150.877Z" fill="white"/>
<path d="M151.764 277.836H152.191L152.83 274.839H152.403L151.764 277.836ZM152.512 274.321H152.939L153.073 273.687H152.646L152.512 274.321Z" fill="white"/>
<path d="M153.994 274.839H153.343L153.274 275.162H153.926L153.504 277.139C153.4 277.623 153.488 277.883 154.15 277.883C154.287 277.883 154.46 277.872 154.627 277.848L154.703 277.491C154.616 277.508 154.479 277.525 154.271 277.525C153.926 277.525 153.874 277.404 153.931 277.144L154.351 275.162H155.199L155.267 274.839H154.421L154.616 273.895H154.189L153.994 274.839Z" fill="white"/>
<path d="M156.748 277.335L156.062 274.839H155.601L156.414 277.859L156.132 278.274C155.93 278.573 155.763 278.644 155.457 278.644C155.342 278.644 155.245 278.638 155.158 278.631L155.076 278.989C155.204 279 155.355 279 155.486 279C155.96 279 156.171 278.868 156.488 278.395L158.875 274.839H158.413L156.748 277.335Z" fill="white"/>
<mask id="mask0_98_109" style="mask-type:luminance" maskUnits="userSpaceOnUse" x="125" y="238" width="23" height="13">
<path d="M125.137 238.122H147.258V251H125.137V238.122Z" fill="white"/>
</mask>
<g mask="url(#mask0_98_109)">
<path d="M147.197 238.295V245.673C147.197 245.82 147.119 245.956 146.992 246.029L145.611 246.826L139.944 250.098L139.939 250.101L138.675 250.83C138.548 250.904 138.393 250.904 138.266 250.832L136.986 250.101L136.979 250.097L130.491 246.391C130.352 246.312 130.195 246.27 130.036 246.27H127.698C127.491 246.27 127.287 246.216 127.107 246.113L125.232 245.043C125.093 244.963 125.149 244.75 125.31 244.75H130.12C130.422 244.75 130.718 244.829 130.979 244.978L133.242 246.27L138.247 249.129C138.374 249.202 138.53 249.202 138.657 249.129L145.406 245.232C145.533 245.159 145.611 245.023 145.611 244.876V239.347C145.611 239.109 145.738 238.889 145.944 238.769L146.981 238.17C147.077 238.115 147.197 238.184 147.197 238.295Z" fill="white"/>
</g>
<mask id="mask1_98_109" style="mask-type:luminance" maskUnits="userSpaceOnUse" x="116" y="231" width="32" height="17">
<path d="M116.319 231.045H147.258V247.984H116.319V231.045Z" fill="white"/>
</mask>
<g mask="url(#mask1_98_109)">
<path d="M147.258 236.234L147.257 236.377C147.256 236.531 147.174 236.674 147.041 236.754L146.304 237.195L139.955 240.992L139.474 241.278C139.342 241.358 139.259 241.501 139.259 241.656L139.254 242.36L139.225 247.143C139.222 247.557 138.886 247.891 138.471 247.891H138.444C138.026 247.891 137.688 247.551 137.691 247.134L137.721 242.327L137.725 241.699C137.725 241.542 137.643 241.397 137.509 241.316L136.966 240.992L132.002 238.024C131.893 237.958 131.895 237.799 132.005 237.736L133.048 237.142L133.063 237.133C133.202 237.054 133.372 237.056 133.51 237.138L133.517 237.142L137.737 239.665L138.233 239.961C138.373 240.045 138.548 240.045 138.688 239.961L139.271 239.613L144.492 236.491C144.617 236.416 144.615 236.235 144.488 236.163L139.619 233.396L138.69 232.868C138.554 232.791 138.387 232.791 138.251 232.868L133.445 235.608L132.168 236.335L130.856 237.084C130.789 237.122 130.713 237.142 130.636 237.142H116.584C116.399 237.142 116.334 236.896 116.495 236.804L118.329 235.759C118.503 235.66 118.7 235.608 118.9 235.608H130.23C130.307 235.608 130.382 235.588 130.449 235.55L130.656 235.431L136.92 231.861L138.25 231.103C138.386 231.026 138.552 231.026 138.688 231.103L140.02 231.86L141.169 232.513L146.284 235.419L147.034 235.846C147.174 235.925 147.259 236.073 147.258 236.234Z" fill="white"/>
</g>
<path d="M135.64 241.413C135.735 241.469 135.735 241.607 135.64 241.663L134.45 242.373C134.366 242.423 134.26 242.423 134.177 242.373L132.987 241.663L130.608 240.245C130.495 240.177 130.366 240.141 130.234 240.141H112.95C112.924 240.141 112.898 240.134 112.875 240.121L110.814 238.892C110.686 238.815 110.74 238.62 110.888 238.62H130.716C130.874 238.62 131.029 238.663 131.164 238.743" fill="#ED1C23"/>
<path d="M132.98 243.245L131.681 244.019C131.598 244.068 131.494 244.068 131.411 244.019L130.183 243.286C130.072 243.22 129.946 243.185 129.817 243.185H120.858C120.845 243.185 120.832 243.182 120.822 243.175L118.511 241.797C118.449 241.759 118.475 241.663 118.548 241.663H130.296C130.453 241.663 130.607 241.706 130.742 241.786L132.98 243.121C133.027 243.149 133.027 243.217 132.98 243.245Z" fill="#ED1C23"/>
</svg>
