<svg width="691" height="450" viewBox="0 0 691 450" fill="none" xmlns="http://www.w3.org/2000/svg">
<path d="M519.657 142.356C517.594 142.356 515.915 144.297 515.915 146.682V349.67C515.915 352.056 517.594 353.997 519.657 353.997H640.155C642.217 353.997 643.896 352.056 643.896 349.67V146.682C643.896 144.297 642.217 142.356 640.155 142.356H519.657ZM640.155 354.19H519.657C517.502 354.19 515.749 352.162 515.749 349.67V146.682C515.749 144.19 517.502 142.163 519.657 142.163H640.155C642.309 142.163 644.063 144.19 644.063 146.682V349.67C644.063 352.162 642.309 354.19 640.155 354.19Z" fill="#DADBD8"/>
<path d="M380.705 142.356C378.643 142.356 376.965 144.297 376.965 146.682V349.67C376.965 352.056 378.643 353.997 380.705 353.997H501.203C503.267 353.997 504.945 352.056 504.945 349.67V146.682C504.945 144.297 503.267 142.356 501.203 142.356H380.705ZM501.203 354.19H380.705C378.551 354.19 376.798 352.162 376.798 349.67V146.682C376.798 144.19 378.551 142.163 380.705 142.163H501.203C503.358 142.163 505.111 144.19 505.111 146.682V349.67C505.111 352.162 503.358 354.19 501.203 354.19Z" fill="#DADBD8"/>
<path d="M241.843 142.356C239.78 142.356 238.101 144.297 238.101 146.682V349.67C238.101 352.056 239.78 353.997 241.843 353.997H362.34C364.404 353.997 366.082 352.056 366.082 349.67V146.682C366.082 144.297 364.404 142.356 362.34 142.356H241.843ZM362.34 354.19H241.843C239.688 354.19 237.935 352.162 237.935 349.67V146.682C237.935 144.19 239.688 142.163 241.843 142.163H362.34C364.496 142.163 366.249 144.19 366.249 146.682V349.67C366.249 352.162 364.496 354.19 362.34 354.19Z" fill="#DADBD8"/>
<path d="M190.999 401.368H690.999V401.275H190.999V401.368Z" fill="#DADBD8"/>
<path d="M626.749 424.249H663.902V423.924H626.749V424.249Z" fill="#E7E8E5"/>
<path d="M521.028 427.445H530.779V427.769H521.028V427.445Z" fill="#E7E8E5"/>
<path d="M218.096 414.382H266.545V414.058H218.096V414.382Z" fill="#E7E8E5"/>
<path d="M276.532 414.382H283.636V414.058H276.532V414.382Z" fill="#E7E8E5"/>
<path d="M306.723 419.858H411.798V419.535H306.723V419.858Z" fill="#E7E8E5"/>
<path d="M481.193 188.553H488.024V197.479H481.193V188.553Z" fill="#FAFAF9"/>
<path d="M481.193 203.519H488.024V212.444H481.193V203.519Z" fill="#FAFAF9"/>
<path d="M481.193 227.419H488.024V218.493H481.193V227.419Z" fill="#FAFAF9"/>
<path d="M481.193 242.384H488.024V233.458H481.193V242.384Z" fill="#FAFAF9"/>
<path d="M481.193 257.349H488.024V248.423H481.193V257.349Z" fill="#FAFAF9"/>
<path d="M481.193 272.323H488.024V263.398H481.193V272.323Z" fill="#FAFAF9"/>
<path d="M481.193 287.289H488.024V278.363H481.193V287.289Z" fill="#FAFAF9"/>
<path d="M481.193 302.263H488.024V293.338H481.193V302.263Z" fill="#FAFAF9"/>
<path d="M583.816 275.349H590.648V266.423H583.816V275.349Z" fill="#FAFAF9"/>
<path d="M583.816 290.313H590.648V281.388H583.816V290.313Z" fill="#FAFAF9"/>
<path d="M457.845 413.626V270.08H430.666V413.612L457.845 413.626Z" fill="#DADBD8"/>
<path d="M432.729 282.386H436.024V274.637H432.729V282.386Z" fill="#FAFAF9"/>
<path d="M439.318 282.386H442.612V274.637H439.318V282.386Z" fill="#FAFAF9"/>
<path d="M445.907 282.386H449.202V274.637H445.907V282.386Z" fill="#FAFAF9"/>
<path d="M452.496 282.386H455.79V274.637H452.496V282.386Z" fill="#FAFAF9"/>
<path d="M432.729 295.384H436.024V287.635H432.729V295.384Z" fill="#FAFAF9"/>
<path d="M439.318 295.384H442.612V287.635H439.318V295.384Z" fill="#FAFAF9"/>
<path d="M445.907 295.384H449.202V287.635H445.907V295.384Z" fill="#FAFAF9"/>
<path d="M452.496 295.384H455.79V287.635H452.496V295.384Z" fill="#FAFAF9"/>
<path d="M432.729 308.372H436.024V300.623H432.729V308.372Z" fill="#FAFAF9"/>
<path d="M439.318 308.372H442.612V300.623H439.318V308.372Z" fill="#FAFAF9"/>
<path d="M445.907 308.372H449.202V300.623H445.907V308.372Z" fill="#FAFAF9"/>
<path d="M452.496 308.372H455.79V300.623H452.496V308.372Z" fill="#FAFAF9"/>
<path d="M432.729 321.36H436.024V313.611H432.729V321.36Z" fill="#FAFAF9"/>
<path d="M439.318 321.36H442.612V313.611H439.318V321.36Z" fill="#FAFAF9"/>
<path d="M445.907 321.36H449.202V313.611H445.907V321.36Z" fill="#FAFAF9"/>
<path d="M452.496 321.36H455.79V313.611H452.496V321.36Z" fill="#FAFAF9"/>
<path d="M432.729 334.348H436.024V326.599H432.729V334.348Z" fill="#FAFAF9"/>
<path d="M439.318 334.348H442.612V326.599H439.318V334.348Z" fill="#FAFAF9"/>
<path d="M445.907 334.348H449.202V326.599H445.907V334.348Z" fill="#FAFAF9"/>
<path d="M452.496 334.348H455.79V326.599H452.496V334.348Z" fill="#FAFAF9"/>
<path d="M432.729 347.336H436.024V339.587H432.729V347.336Z" fill="#FAFAF9"/>
<path d="M439.318 347.336H442.612V339.587H439.318V347.336Z" fill="#FAFAF9"/>
<path d="M445.907 347.336H449.202V339.587H445.907V347.336Z" fill="#FAFAF9"/>
<path d="M452.496 347.336H455.79V339.587H452.496V347.336Z" fill="#FAFAF9"/>
<path d="M432.729 360.324H436.024V352.575H432.729V360.324Z" fill="#FAFAF9"/>
<path d="M439.318 360.324H442.612V352.575H439.318V360.324Z" fill="#FAFAF9"/>
<path d="M445.907 360.324H449.202V352.575H445.907V360.324Z" fill="#FAFAF9"/>
<path d="M452.496 360.324H455.79V352.575H452.496V360.324Z" fill="#FAFAF9"/>
<path d="M432.729 373.322H436.024V365.573H432.729V373.322Z" fill="#FAFAF9"/>
<path d="M439.318 373.322H442.612V365.573H439.318V373.322Z" fill="#FAFAF9"/>
<path d="M445.907 373.322H449.202V365.573H445.907V373.322Z" fill="#FAFAF9"/>
<path d="M452.496 373.322H455.79V365.573H452.496V373.322Z" fill="#FAFAF9"/>
<path d="M552.293 413.678V253.514H495.939V413.723C495.939 413.723 551.861 413.743 552.293 413.678Z" fill="#E2E2E0"/>
<path d="M500.171 267.737H507.002V258.812H500.171V267.737Z" fill="#DADBD8"/>
<path d="M513.843 267.737H520.675V258.812H513.843V267.737Z" fill="#DADBD8"/>
<path d="M527.506 267.737H534.338V258.812H527.506V267.737Z" fill="#DADBD8"/>
<path d="M541.178 267.737H548.01V258.812H541.178V267.737Z" fill="#DADBD8"/>
<path d="M500.171 282.712H507.002V273.787H500.171V282.712Z" fill="#DADBD8"/>
<path d="M513.843 282.712H520.675V273.787H513.843V282.712Z" fill="#DADBD8"/>
<path d="M527.506 282.712H534.338V273.787H527.506V282.712Z" fill="#DADBD8"/>
<path d="M541.178 282.712H548.01V273.787H541.178V282.712Z" fill="#DADBD8"/>
<path d="M500.171 297.677H507.002V288.752H500.171V297.677Z" fill="#DADBD8"/>
<path d="M513.843 297.677H520.675V288.752H513.843V297.677Z" fill="#DADBD8"/>
<path d="M527.506 297.677H534.338V288.752H527.506V297.677Z" fill="#DADBD8"/>
<path d="M541.178 297.677H548.01V288.752H541.178V297.677Z" fill="#DADBD8"/>
<path d="M500.171 312.642H507.002V303.717H500.171V312.642Z" fill="#DADBD8"/>
<path d="M513.843 312.642H520.675V303.717H513.843V312.642Z" fill="#DADBD8"/>
<path d="M527.506 312.642H534.338V303.717H527.506V312.642Z" fill="#DADBD8"/>
<path d="M541.178 312.642H548.01V303.717H541.178V312.642Z" fill="#DADBD8"/>
<path d="M500.171 327.617H507.002V318.691H500.171V327.617Z" fill="#DADBD8"/>
<path d="M513.843 327.617H520.675V318.691H513.843V327.617Z" fill="#DADBD8"/>
<path d="M527.506 327.617H534.338V318.691H527.506V327.617Z" fill="#DADBD8"/>
<path d="M541.178 327.617H548.01V318.691H541.178V327.617Z" fill="#DADBD8"/>
<path d="M500.171 342.582H507.002V333.656H500.171V342.582Z" fill="#DADBD8"/>
<path d="M513.843 342.582H520.675V333.656H513.843V342.582Z" fill="#DADBD8"/>
<path d="M527.506 342.582H534.338V333.656H527.506V342.582Z" fill="#DADBD8"/>
<path d="M541.178 342.582H548.01V333.656H541.178V342.582Z" fill="#DADBD8"/>
<path d="M500.171 357.557H507.002V348.631H500.171V357.557Z" fill="#DADBD8"/>
<path d="M513.843 357.557H520.675V348.631H513.843V357.557Z" fill="#DADBD8"/>
<path d="M527.506 357.557H534.338V348.631H527.506V357.557Z" fill="#DADBD8"/>
<path d="M541.178 357.557H548.01V348.631H541.178V357.557Z" fill="#DADBD8"/>
<path d="M500.171 372.522H507.002V363.596H500.171V372.522Z" fill="#DADBD8"/>
<path d="M513.843 372.522H520.675V363.596H513.843V372.522Z" fill="#DADBD8"/>
<path d="M527.506 372.522H534.338V363.596H527.506V372.522Z" fill="#DADBD8"/>
<path d="M541.178 372.522H548.01V363.596H541.178V372.522Z" fill="#DADBD8"/>
<path d="M420.782 413.606V242.314H397.469V413.743C404.847 413.536 420.782 413.606 420.782 413.606Z" fill="#E2E2E0"/>
<path d="M400.919 254.413H407.751V245.488H400.919V254.413Z" fill="#FAFAF9"/>
<path d="M400.919 269.378H407.751V260.452H400.919V269.378Z" fill="#FAFAF9"/>
<path d="M400.919 284.353H407.751V275.428H400.919V284.353Z" fill="#FAFAF9"/>
<path d="M400.919 299.318H407.751V290.392H400.919V299.318Z" fill="#FAFAF9"/>
<path d="M400.919 314.283H407.751V305.357H400.919V314.283Z" fill="#FAFAF9"/>
<path d="M400.919 329.258H407.751V320.332H400.919V329.258Z" fill="#FAFAF9"/>
<path d="M400.919 344.223H407.751V335.297H400.919V344.223Z" fill="#FAFAF9"/>
<path d="M400.919 359.198H407.751V350.272H400.919V359.198Z" fill="#FAFAF9"/>
<path d="M410.058 254.413H416.89V245.488H410.058V254.413Z" fill="#FAFAF9"/>
<path d="M410.058 269.378H416.89V260.452H410.058V269.378Z" fill="#FAFAF9"/>
<path d="M410.058 284.353H416.89V275.428H410.058V284.353Z" fill="#FAFAF9"/>
<path d="M410.058 299.318H416.89V290.392H410.058V299.318Z" fill="#FAFAF9"/>
<path d="M410.058 314.283H416.89V305.357H410.058V314.283Z" fill="#FAFAF9"/>
<path d="M410.058 329.258H416.89V320.332H410.058V329.258Z" fill="#FAFAF9"/>
<path d="M410.058 344.223H416.89V335.297H410.058V344.223Z" fill="#FAFAF9"/>
<path d="M410.058 359.198H416.89V350.272H410.058V359.198Z" fill="#FAFAF9"/>
<path d="M609.018 351.073H621.077V342.147H609.018V351.073Z" fill="#FAFAF9"/>
<path d="M609.018 366.038H621.077V357.112H609.018V366.038Z" fill="#FAFAF9"/>
<path d="M625.152 351.073H637.211V342.147H625.152V351.073Z" fill="#FAFAF9"/>
<path d="M625.152 366.038H637.211V357.112H625.152V366.038Z" fill="#FAFAF9"/>
<path d="M576.013 413.692V288.752H558.066V413.682L576.013 413.692Z" fill="#DADBD8"/>
<path d="M559.428 299.357H561.604V292.705H559.428V299.357Z" fill="#FAFAF9"/>
<path d="M563.78 299.357H565.957V292.705H563.78V299.357Z" fill="#FAFAF9"/>
<path d="M568.124 299.357H570.3V292.705H568.124V299.357Z" fill="#FAFAF9"/>
<path d="M572.476 299.357H574.652V292.705H572.476V299.357Z" fill="#FAFAF9"/>
<path d="M559.428 310.517H561.604V303.865H559.428V310.517Z" fill="#FAFAF9"/>
<path d="M563.78 310.517H565.957V303.865H563.78V310.517Z" fill="#FAFAF9"/>
<path d="M568.124 310.517H570.3V303.865H568.124V310.517Z" fill="#FAFAF9"/>
<path d="M572.476 310.517H574.652V303.865H572.476V310.517Z" fill="#FAFAF9"/>
<path d="M559.428 321.676H561.604V315.024H559.428V321.676Z" fill="#FAFAF9"/>
<path d="M563.78 321.676H565.957V315.024H563.78V321.676Z" fill="#FAFAF9"/>
<path d="M568.124 321.676H570.3V315.024H568.124V321.676Z" fill="#FAFAF9"/>
<path d="M572.476 321.676H574.652V315.024H572.476V321.676Z" fill="#FAFAF9"/>
<path d="M559.428 332.836H561.604V326.184H559.428V332.836Z" fill="#FAFAF9"/>
<path d="M563.78 332.836H565.957V326.184H563.78V332.836Z" fill="#FAFAF9"/>
<path d="M568.124 332.836H570.3V326.184H568.124V332.836Z" fill="#FAFAF9"/>
<path d="M572.476 332.836H574.652V326.184H572.476V332.836Z" fill="#FAFAF9"/>
<path d="M559.428 344.005H561.604V337.353H559.428V344.005Z" fill="#FAFAF9"/>
<path d="M563.78 344.005H565.957V337.353H563.78V344.005Z" fill="#FAFAF9"/>
<path d="M568.124 344.005H570.3V337.353H568.124V344.005Z" fill="#FAFAF9"/>
<path d="M572.476 344.005H574.652V337.353H572.476V344.005Z" fill="#FAFAF9"/>
<path d="M559.428 355.165H561.604V348.513H559.428V355.165Z" fill="#FAFAF9"/>
<path d="M563.78 355.165H565.957V348.513H563.78V355.165Z" fill="#FAFAF9"/>
<path d="M568.124 355.165H570.3V348.513H568.124V355.165Z" fill="#FAFAF9"/>
<path d="M572.476 355.165H574.652V348.513H572.476V355.165Z" fill="#FAFAF9"/>
<path d="M559.428 366.324H561.604V359.672H559.428V366.324Z" fill="#FAFAF9"/>
<path d="M563.78 366.324H565.957V359.672H563.78V366.324Z" fill="#FAFAF9"/>
<path d="M568.124 366.324H570.3V359.672H568.124V366.324Z" fill="#FAFAF9"/>
<path d="M572.476 366.324H574.652V359.672H572.476V366.324Z" fill="#FAFAF9"/>
<path d="M559.428 377.483H561.604V370.831H559.428V377.483Z" fill="#FAFAF9"/>
<path d="M563.78 377.483H565.957V370.831H563.78V377.483Z" fill="#FAFAF9"/>
<path d="M568.124 377.483H570.3V370.831H568.124V377.483Z" fill="#FAFAF9"/>
<path d="M572.476 377.483H574.652V370.831H572.476V377.483Z" fill="#FAFAF9"/>
<path d="M399.55 413.743V307.275H351.572V413.568L399.55 413.743Z" fill="#FAFAF9"/>
<path d="M355.204 316.171H361.021V310.586H355.204V316.171Z" fill="#DADBD8"/>
<path d="M366.839 316.171H372.656V310.586H366.839V316.171Z" fill="#DADBD8"/>
<path d="M378.465 316.171H384.282V310.586H378.465V316.171Z" fill="#DADBD8"/>
<path d="M390.1 316.171H395.917V310.586H390.1V316.171Z" fill="#DADBD8"/>
<path d="M355.204 325.531H361.021V319.947H355.204V325.531Z" fill="#DADBD8"/>
<path d="M366.839 325.531H372.656V319.947H366.839V325.531Z" fill="#DADBD8"/>
<path d="M378.465 325.531H384.282V319.947H378.465V325.531Z" fill="#DADBD8"/>
<path d="M390.1 325.531H395.917V319.947H390.1V325.531Z" fill="#DADBD8"/>
<path d="M355.204 334.892H361.021V329.307H355.204V334.892Z" fill="#DADBD8"/>
<path d="M366.839 334.892H372.656V329.307H366.839V334.892Z" fill="#DADBD8"/>
<path d="M378.465 334.892H384.282V329.307H378.465V334.892Z" fill="#DADBD8"/>
<path d="M390.1 334.892H395.917V329.307H390.1V334.892Z" fill="#DADBD8"/>
<path d="M355.204 344.253H361.021V338.668H355.204V344.253Z" fill="#DADBD8"/>
<path d="M366.839 344.253H372.656V338.668H366.839V344.253Z" fill="#DADBD8"/>
<path d="M378.465 344.253H384.282V338.668H378.465V344.253Z" fill="#DADBD8"/>
<path d="M390.1 344.253H395.917V338.668H390.1V344.253Z" fill="#DADBD8"/>
<path d="M355.204 353.603H361.021V348.018H355.204V353.603Z" fill="#DADBD8"/>
<path d="M366.839 353.603H372.656V348.018H366.839V353.603Z" fill="#DADBD8"/>
<path d="M378.465 353.603H384.282V348.018H378.465V353.603Z" fill="#DADBD8"/>
<path d="M390.1 353.603H395.917V348.018H390.1V353.603Z" fill="#DADBD8"/>
<path d="M355.204 362.964H361.021V357.379H355.204V362.964Z" fill="#DADBD8"/>
<path d="M366.839 362.964H372.656V357.379H366.839V362.964Z" fill="#DADBD8"/>
<path d="M378.465 362.964H384.282V357.379H378.465V362.964Z" fill="#DADBD8"/>
<path d="M390.1 362.964H395.917V357.379H390.1V362.964Z" fill="#DADBD8"/>
<path d="M355.204 372.324H361.021V366.739H355.204V372.324Z" fill="#DADBD8"/>
<path d="M366.839 372.324H372.656V366.739H366.839V372.324Z" fill="#DADBD8"/>
<path d="M378.465 372.324H384.282V366.739H378.465V372.324Z" fill="#DADBD8"/>
<path d="M390.1 372.324H395.917V366.739H390.1V372.324Z" fill="#DADBD8"/>
<path d="M259.992 412.704H264.066V406.849H259.992V412.704Z" fill="#DADBD8"/>
<path d="M231.625 412.879H235.699V407.024H231.625V412.879Z" fill="#DADBD8"/>
<path d="M232.13 409.512H260.374V406.849H232.13V409.512Z" fill="#DADBD8"/>
<path d="M205.427 412.704H209.502V406.849H205.427V412.704Z" fill="#DADBD8"/>
<path d="M208.651 409.512H234.587V406.849H208.651V409.512Z" fill="#DADBD8"/>
<path d="M206.051 406.945H225.753V390.52H206.051V406.945Z" fill="#E2E2E0"/>
<path d="M225.754 406.945H221.843V390.52H225.754V406.945Z" fill="#DADBD8"/>
<path d="M215.431 398.033H219.231V392.548H215.431V398.033Z" fill="white"/>
<path d="M206.051 390.45H225.753V374.026H206.051V390.45Z" fill="#E7E8E5"/>
<path d="M225.754 390.45H221.843V374.026H225.754V390.45Z" fill="#DADBD8"/>
<path d="M215.431 381.539H219.231V376.053H215.431V381.539Z" fill="white"/>
<path d="M206.226 390.726C212.565 390.726 218.903 390.726 225.241 390.726C225.563 390.726 225.563 390.156 225.241 390.156C218.903 390.156 212.565 390.156 206.226 390.156C205.905 390.156 205.904 390.726 206.226 390.726Z" fill="#DADBD8"/>
<path d="M225.207 406.945H244.909V390.52H225.207V406.945Z" fill="#E7E8E5"/>
<path d="M240.999 406.945H244.909V390.52H240.999V406.945Z" fill="#DADBD8"/>
<path d="M234.587 398.033H238.387V392.548H234.587V398.033Z" fill="white"/>
<path d="M225.207 390.45H244.909V374.026H225.207V390.45Z" fill="#F3F2F1"/>
<path d="M240.999 390.45H244.909V374.026H240.999V390.45Z" fill="#DADBD8"/>
<path d="M234.587 381.538H238.387V376.053H234.587V381.538Z" fill="white"/>
<path d="M225.383 390.726C231.721 390.726 238.059 390.726 244.398 390.726C244.719 390.726 244.72 390.156 244.398 390.156C238.059 390.156 231.721 390.156 225.383 390.156C225.061 390.156 225.06 390.726 225.383 390.726Z" fill="#DADBD8"/>
<path d="M244.363 406.945H264.066V390.52H244.363V406.945Z" fill="#E2E2E0"/>
<path d="M264.065 406.945H260.155V390.52H264.065V406.945Z" fill="#DADBD8"/>
<path d="M253.743 398.033H257.543V392.548H253.743V398.033Z" fill="white"/>
<path d="M244.363 390.45H264.066V374.026H244.363V390.45Z" fill="#E7E8E5"/>
<path d="M264.065 390.45H260.155V374.026H264.065V390.45Z" fill="#DADBD8"/>
<path d="M253.743 381.538H257.543V376.053H253.743V381.538Z" fill="white"/>
<path d="M244.539 390.726C250.877 390.726 257.215 390.726 263.554 390.726C263.875 390.726 263.876 390.156 263.554 390.156C257.215 390.156 250.877 390.156 244.539 390.156C244.217 390.156 244.217 390.726 244.539 390.726Z" fill="#DADBD8"/>
<path d="M259.992 375.739H264.066V369.884H259.992V375.739Z" fill="#DADBD8"/>
<path d="M231.625 375.915H235.699V370.06H231.625V375.915Z" fill="#DADBD8"/>
<path d="M232.13 372.547H260.374V369.883H232.13V372.547Z" fill="#DADBD8"/>
<path d="M205.427 375.739H209.502V369.884H205.427V375.739Z" fill="#DADBD8"/>
<path d="M208.651 372.547H234.587V369.883H208.651V372.547Z" fill="#DADBD8"/>
<path d="M206.051 369.98H225.753V353.556H206.051V369.98Z" fill="#E2E2E0"/>
<path d="M221.843 369.98H225.753V353.556H221.843V369.98Z" fill="#DADBD8"/>
<path d="M215.431 361.069H219.231V355.583H215.431V361.069Z" fill="white"/>
<path d="M206.051 353.486H225.753V337.061H206.051V353.486Z" fill="#E7E8E5"/>
<path d="M221.843 353.486H225.753V337.061H221.843V353.486Z" fill="#DADBD8"/>
<path d="M215.431 344.574H219.231V339.088H215.431V344.574Z" fill="white"/>
<path d="M206.226 353.761C212.565 353.761 218.903 353.761 225.241 353.761C225.563 353.761 225.563 353.191 225.241 353.191C218.903 353.191 212.565 353.191 206.226 353.191C205.905 353.191 205.904 353.761 206.226 353.761Z" fill="#DADBD8"/>
<path d="M225.207 369.98H244.909V353.556H225.207V369.98Z" fill="#E7E8E5"/>
<path d="M244.909 369.98H240.999V353.556H244.909V369.98Z" fill="#DADBD8"/>
<path d="M234.587 361.069H238.387V355.583H234.587V361.069Z" fill="white"/>
<path d="M225.207 353.486H244.909V337.061H225.207V353.486Z" fill="#F3F2F1"/>
<path d="M244.909 353.486H240.999V337.061H244.909V353.486Z" fill="#DADBD8"/>
<path d="M234.587 344.574H238.387V339.088H234.587V344.574Z" fill="white"/>
<path d="M225.383 353.761C231.721 353.761 238.059 353.761 244.398 353.761C244.719 353.761 244.72 353.191 244.398 353.191C238.059 353.191 231.721 353.191 225.383 353.191C225.061 353.191 225.06 353.761 225.383 353.761Z" fill="#DADBD8"/>
<path d="M244.363 369.98H264.066V353.556H244.363V369.98Z" fill="#E2E2E0"/>
<path d="M260.155 369.98H264.065V353.556H260.155V369.98Z" fill="#DADBD8"/>
<path d="M253.743 361.069H257.543V355.583H253.743V361.069Z" fill="white"/>
<path d="M244.363 353.486H264.066V337.061H244.363V353.486Z" fill="#E7E8E5"/>
<path d="M260.155 353.486H264.065V337.061H260.155V353.486Z" fill="#DADBD8"/>
<path d="M253.743 344.574H257.543V339.088H253.743V344.574Z" fill="white"/>
<path d="M244.539 353.761C250.877 353.761 257.215 353.761 263.554 353.761C263.875 353.761 263.876 353.191 263.554 353.191C257.215 353.191 250.877 353.191 244.539 353.191C244.217 353.191 244.217 353.761 244.539 353.761Z" fill="#DADBD8"/>
<path d="M259.992 337.596H264.066V331.741H259.992V337.596Z" fill="#DADBD8"/>
<path d="M231.625 337.772H235.699V331.917H231.625V337.772Z" fill="#DADBD8"/>
<path d="M260.374 334.404H232.13V331.741H260.374V334.404Z" fill="#DADBD8"/>
<path d="M205.427 337.596H209.502V331.741H205.427V337.596Z" fill="#DADBD8"/>
<path d="M234.587 334.404H208.651V331.741H234.587V334.404Z" fill="#DADBD8"/>
<path d="M206.051 331.837H225.753V315.413H206.051V331.837Z" fill="#E2E2E0"/>
<path d="M225.754 331.837H221.843V315.413H225.754V331.837Z" fill="#DADBD8"/>
<path d="M215.431 322.926H219.231V317.44H215.431V322.926Z" fill="white"/>
<path d="M206.051 315.343H225.753V298.918H206.051V315.343Z" fill="#E7E8E5"/>
<path d="M225.754 315.343H221.843V298.918H225.754V315.343Z" fill="#DADBD8"/>
<path d="M215.431 306.431H219.231V300.945H215.431V306.431Z" fill="white"/>
<path d="M206.226 315.618C212.565 315.618 218.903 315.618 225.241 315.618C225.563 315.618 225.563 315.048 225.241 315.048C218.903 315.048 212.565 315.048 206.226 315.048C205.905 315.048 205.904 315.618 206.226 315.618Z" fill="#DADBD8"/>
<path d="M225.207 331.837H244.909V315.413H225.207V331.837Z" fill="#E7E8E5"/>
<path d="M244.909 331.837H240.999V315.413H244.909V331.837Z" fill="#DADBD8"/>
<path d="M234.587 322.926H238.387V317.44H234.587V322.926Z" fill="white"/>
<path d="M225.207 315.343H244.909V298.918H225.207V315.343Z" fill="#F3F2F1"/>
<path d="M244.909 315.343H240.999V298.918H244.909V315.343Z" fill="#DADBD8"/>
<path d="M234.587 306.431H238.387V300.945H234.587V306.431Z" fill="white"/>
<path d="M225.383 315.618C231.721 315.618 238.059 315.618 244.398 315.618C244.719 315.618 244.72 315.048 244.398 315.048C238.059 315.048 231.721 315.048 225.383 315.048C225.061 315.048 225.06 315.618 225.383 315.618Z" fill="#DADBD8"/>
<path d="M244.363 331.837H264.066V315.413H244.363V331.837Z" fill="#E2E2E0"/>
<path d="M264.065 331.837H260.155V315.413H264.065V331.837Z" fill="#DADBD8"/>
<path d="M253.743 322.926H257.543V317.44H253.743V322.926Z" fill="white"/>
<path d="M244.363 315.343H264.066V298.918H244.363V315.343Z" fill="#E7E8E5"/>
<path d="M264.065 315.343H260.155V298.918H264.065V315.343Z" fill="#DADBD8"/>
<path d="M253.743 306.431H257.543V300.945H253.743V306.431Z" fill="white"/>
<path d="M244.539 315.618C250.877 315.618 257.215 315.618 263.554 315.618C263.875 315.618 263.876 315.048 263.554 315.048C257.215 315.048 250.877 315.048 244.539 315.048C244.217 315.048 244.217 315.618 244.539 315.618Z" fill="#DADBD8"/>
<path d="M555.668 135.554C552.254 132.692 547.272 132.369 543.581 134.768C538.68 123.782 525.022 118.935 515.282 124.722C512.74 112.885 502.226 103.786 491.257 103.932C480.286 104.079 469.973 113.456 467.688 125.358C467.326 127.249 467.086 129.321 465.866 130.703C463.884 132.948 460.576 132.194 457.753 131.95C448.869 131.181 439.93 138.099 437.514 147.612L559.855 147.118C560.927 142.524 559.082 138.415 555.668 135.554Z" fill="#F3F2F1"/>
<path d="M358.758 123.401C356.263 121.231 352.623 120.985 349.925 122.805C346.343 114.471 336.363 110.793 329.245 115.184C327.388 106.204 319.704 99.3022 311.687 99.4132C303.671 99.5241 296.134 106.638 294.465 115.666C294.2 117.101 294.024 118.673 293.133 119.72C291.685 121.423 289.268 120.852 287.204 120.667C280.712 120.083 274.18 125.331 272.415 132.549L361.818 132.174C362.601 128.688 361.253 125.571 358.758 123.401Z" fill="#E7E8E5"/>
<path d="M135.874 179.133C133.379 176.962 129.738 176.716 127.04 178.537C123.458 170.203 113.478 166.524 106.36 170.915C104.503 161.935 96.8189 155.033 88.8028 155.144C80.7867 155.255 73.2494 162.369 71.5806 171.397C71.3149 172.833 71.1398 174.404 70.2485 175.452C68.8006 177.155 66.3831 176.584 64.3195 176.398C57.8274 175.815 51.2954 181.063 49.5298 188.28L138.933 187.906C139.716 184.42 138.369 181.303 135.874 179.133Z" fill="#F3F2F1"/>
<path d="M86.3433 86.1616C83.8484 84.0899 80.2081 83.8546 77.5108 85.5926C73.929 77.6376 63.9483 74.1264 56.8302 78.3178C54.9734 69.7456 47.2892 63.1574 39.2732 63.2633C31.257 63.3692 23.7195 70.1595 22.0504 78.7777C21.7856 80.1477 21.6099 81.6482 20.7186 82.6482C19.2708 84.2739 16.8533 83.7284 14.7897 83.5509C8.29758 82.9947 1.76562 88.0043 0 94.8931L89.4036 94.5358C90.1859 91.2086 88.8382 88.2332 86.3433 86.1616Z" fill="#E7E8E5"/>
<path d="M201.022 104.967C199.644 103.783 197.632 103.649 196.141 104.641C194.162 100.095 188.647 98.0886 184.713 100.484C183.687 95.5858 179.44 91.8216 175.011 91.8814C170.58 91.9424 166.415 95.8219 165.492 100.747C165.346 101.529 165.248 102.387 164.756 102.959C163.956 103.888 162.62 103.575 161.48 103.475C157.892 103.156 154.282 106.02 153.307 109.956L202.714 109.752C203.147 107.851 202.401 106.15 201.022 104.967Z" fill="#F3F2F1"/>
<path d="M428.624 50.7403C427.246 49.5565 425.234 49.4224 423.743 50.4155C421.764 45.8698 416.249 43.8636 412.315 46.2589C411.288 41.3607 407.042 37.5954 402.612 37.6563C398.182 37.7162 394.016 41.5968 393.094 46.5216C392.948 47.3041 392.851 48.1621 392.358 48.7329C391.558 49.6618 390.222 49.3503 389.082 49.2495C385.494 48.9313 381.884 51.7933 380.909 55.7305L430.316 55.5254C430.749 53.6244 430.004 51.9241 428.624 50.7403Z" fill="#E7E8E5"/>
<path d="M287.972 32.7133C284.558 29.7533 279.576 29.4177 275.884 31.9C270.983 20.5357 257.326 15.5208 247.585 21.5078C245.044 9.26315 234.528 -0.150197 223.559 0.00193845C212.589 0.152955 202.275 9.85269 199.991 22.1656C199.629 24.1221 199.389 26.2654 198.168 27.6939C196.187 30.0173 192.879 29.2376 190.055 28.9848C181.172 28.1895 172.233 35.3466 169.817 45.1873L292.158 44.676C293.23 39.924 291.386 35.6732 287.972 32.7133Z" fill="#EDEDEB"/>
<path d="M664.884 123.974C662.915 122.297 660.04 122.107 657.91 123.513C655.083 117.074 647.204 114.231 641.585 117.625C640.118 110.686 634.052 105.352 627.724 105.438C621.394 105.524 615.443 111.021 614.127 117.997C613.917 119.106 613.779 120.32 613.075 121.13C611.932 122.446 610.023 122.005 608.395 121.861C603.269 121.411 598.112 125.466 596.718 131.043L667.299 130.753C667.917 128.06 666.854 125.652 664.884 123.974Z" fill="#F3F2F1"/>
<path d="M570.541 27.5746C568.571 25.8976 565.698 25.7081 563.567 27.114C560.74 20.675 552.86 17.8323 547.241 21.2259C545.775 14.2867 539.709 8.95283 533.38 9.03877C527.052 9.12472 521.101 14.6205 519.784 21.5983C519.575 22.7067 519.436 23.921 518.732 24.7319C517.589 26.0475 515.681 25.6056 514.051 25.4624C508.926 25.0117 503.769 29.0664 502.375 34.6438L572.957 34.354C573.574 31.6612 572.511 29.2526 570.541 27.5746Z" fill="#F3F2F1"/>
<path d="M627.674 254.026V196.608H596.39V209.702H575.538V66.2747H535.446V122.727H523.417V94.5356H492.133V232.014H448.022V183.442H420.363V78.1289H386.228V148.338H354.146V299.587H329.289V225.937H303.621V178.544H276.356V142.158L245.934 160.395V257.742H213.852V237.661H170.996V418.461L669.833 418.734V254.026H627.674Z" fill="#EDEDEB"/>
<path d="M543.65 72.2998H554.263V85.856H543.65V72.2998Z" fill="#FAFAF9"/>
<path d="M543.65 94.8932H554.263V106.943H543.65V94.8932Z" fill="#FAFAF9"/>
<path d="M543.65 115.98H554.263V129.537H543.65V115.98Z" fill="#FAFAF9"/>
<path d="M543.65 138.574H554.263V150.624H543.65V138.574Z" fill="#FAFAF9"/>
<path d="M543.65 159.661H554.263V173.218H543.65V159.661Z" fill="#FAFAF9"/>
<path d="M543.65 182.255H554.263V195.811H543.65V182.255Z" fill="#FAFAF9"/>
<path d="M571.953 418.734H632.097V173.218H571.953V418.734Z" fill="#E2E2E0"/>
<path d="M580.208 183.761H597.897V195.811H580.208V183.761Z" fill="#FAFAF9"/>
<path d="M580.208 204.849H597.897V218.405H580.208V204.849Z" fill="#FAFAF9"/>
<path d="M580.208 227.442H597.897V239.492H580.208V227.442Z" fill="#FAFAF9"/>
<path d="M580.208 248.529H597.897V262.085H580.208V248.529Z" fill="#FAFAF9"/>
<path d="M580.208 271.123H597.897V284.679H580.208V271.123Z" fill="#FAFAF9"/>
<path d="M580.208 292.21H597.897V305.767H580.208V292.21Z" fill="#FAFAF9"/>
<path d="M603.793 183.761H621.483V195.811H603.793V183.761Z" fill="#FAFAF9"/>
<path d="M603.793 204.849H621.483V218.405H603.793V204.849Z" fill="#FAFAF9"/>
<path d="M603.793 227.442H621.483V239.492H603.793V227.442Z" fill="#FAFAF9"/>
<path d="M603.793 248.529H621.483V262.085H603.793V248.529Z" fill="#FAFAF9"/>
<path d="M603.793 271.123H621.483V284.679H603.793V271.123Z" fill="#FAFAF9"/>
<path d="M603.793 292.21H621.483V305.767H603.793V292.21Z" fill="#FAFAF9"/>
<path d="M676 436.306C676 443.574 577.493 449.465 455.979 449.465C334.465 449.465 235.958 443.574 235.958 436.306C235.958 429.039 334.465 423.147 455.979 423.147C577.493 423.147 676 429.039 676 436.306Z" fill="#F3F2F1"/>
<path d="M588.837 272.361V417.592H442.26V267.244L588.837 272.361Z" fill="#406FBF"/>
<path d="M579.708 417.592H573.526C573.527 417.566 573.528 417.54 573.53 417.513H578.088H579.711C579.71 417.54 579.708 417.566 579.708 417.592ZM453.18 417.592H443.566V272.361H588.837V275.349V281.388V290.314V346.79L581.568 346.829C581.251 346.705 580.913 346.638 580.565 346.638C580.56 346.638 580.555 346.638 580.55 346.638L569.912 346.695V329.69H540.21V346.854L528.233 346.919V329.69H498.53V347.079L482.883 347.162V329.854H453.18V417.592ZM555.326 312.425H579.59V301.579V298.351H552.742V312.425H555.326ZM529.948 312.425H548.409V301.579V298.351H521.56V312.425H524.144H526.597H529.948ZM489.118 312.425H513.382V301.579V298.351H486.533V312.425H489.118ZM457.07 312.425H478.355V301.579V298.351H451.506V312.425H454.09H457.07Z" fill="#5D87CD"/>
<path d="M351.936 216.754L270.111 273.542V425.305H443.566V270.723L351.936 216.754Z" fill="#406FBF"/>
<path d="M443.566 417.592H414.034V296.28H302.302V416.649L273.571 416.542V403.431H270.111V403.361H273.571V386.937V381.905V365.481H270.111V365.41H273.571V348.986H270.111V273.639L352.675 219.876L442.261 272.361H442.259H443.566V417.592ZM393.007 286.982H415.219V277.003V274.046H389.956V286.982H393.007ZM362.775 286.982H384.988V277.003V274.046H359.724V286.982H362.775ZM332.543 286.982H354.755V277.003V274.046H329.491V286.982H332.543ZM302.311 286.982H324.523V277.003V274.046H299.26V286.982H302.311Z" fill="#B8D2EF"/>
<path d="M302.302 416.649V296.28H414.034V417.591H593.696V425.915H267.232V416.518L302.302 416.649Z" fill="#406FBF"/>
<path d="M453.18 420.664H482.883V329.854H453.18V420.664Z" fill="#406FBF"/>
<path d="M455.085 418.351H480.977V332.167H455.085V418.351Z" fill="#17282F"/>
<path d="M498.53 420.5H528.233V329.69H498.53V420.5Z" fill="#406FBF"/>
<path d="M500.436 418.187H526.327V332.002H500.436V418.187Z" fill="#17282F"/>
<path d="M540.209 420.5H569.912V329.69H540.209V420.5Z" fill="#406FBF"/>
<path d="M542.115 418.187H568.006V332.002H542.115V418.187Z" fill="#17282F"/>
<path d="M267.232 275.514V268.622L352.676 213.323L471.952 212.929L591.228 267.244V272.361H442.261L352.676 219.876L267.232 275.514Z" fill="#406FBF"/>
<path d="M443.566 272.361H442.26V272.36L442.261 272.361H443.566Z" fill="#7B8FB2"/>
<path d="M591.228 272.361H442.261L442.26 267.244H591.228V272.361Z" fill="#2D5BB2"/>
<path d="M591.228 267.244H442.26L352.676 213.322L471.952 212.929L591.228 267.244Z" fill="#3563B7"/>
<path d="M442.26 267.529C449.991 267.529 457.723 267.529 465.454 267.529C476.03 267.529 486.606 267.529 497.182 267.529C508.783 267.529 520.383 267.529 531.984 267.529C542.789 267.529 553.594 267.529 564.399 267.529C572.608 267.529 580.817 267.529 589.026 267.529C589.76 267.529 590.494 267.529 591.228 267.529C591.549 267.529 591.55 266.959 591.228 266.959C583.496 266.959 575.764 266.959 568.033 266.959C557.457 266.959 546.881 266.959 536.305 266.959C524.704 266.959 513.104 266.959 501.504 266.959C490.698 266.959 479.894 266.959 469.088 266.959C460.88 266.959 452.67 266.959 444.462 266.959C443.728 266.959 442.994 266.959 442.26 266.959C441.938 266.959 441.938 267.529 442.26 267.529Z" fill="#17282F"/>
<path d="M548.409 312.425H529.947C529.947 312.425 530.745 309.898 533.538 307.807C533.911 307.527 534.291 307.408 534.677 307.408C535.784 307.408 536.93 308.389 538.044 309.371C539.158 310.352 540.239 311.333 541.218 311.333C541.471 311.333 541.718 311.267 541.957 311.118C544.245 309.689 545.778 304.851 546.584 301.558L548.409 301.579V312.425ZM526.597 312.425H524.144V301.293L544.283 301.531C544.245 303.667 543.927 306.38 542.713 308.006C541.995 308.966 541.335 309.35 540.621 309.35C539.114 309.35 537.367 307.636 534.335 306.013C533.801 305.727 533.285 305.602 532.788 305.602C529.133 305.602 526.597 312.425 526.597 312.425Z" fill="#92B7E4"/>
<path d="M478.355 312.425H457.07C457.07 312.425 457.944 309.898 461.002 307.807C461.411 307.527 461.828 307.408 462.25 307.408C463.462 307.408 464.718 308.389 465.938 309.371C467.158 310.352 468.343 311.333 469.414 311.333C469.692 311.333 469.962 311.267 470.224 311.118C472.734 309.687 474.414 304.836 475.296 301.543L478.355 301.579V312.425ZM454.09 310.984V301.293L472.772 301.513C472.732 303.653 472.386 306.376 471.052 308.006C470.265 308.966 469.542 309.35 468.76 309.35C467.11 309.35 465.197 307.636 461.876 306.013C461.291 305.727 460.725 305.602 460.181 305.602C457.363 305.602 455.152 308.982 454.09 310.984Z" fill="#92B7E4"/>
<path d="M457.07 312.425H454.09V310.984C455.152 308.982 457.363 305.602 460.181 305.602C460.725 305.602 461.291 305.727 461.876 306.013C465.197 307.636 467.11 309.35 468.76 309.35C469.542 309.35 470.265 308.966 471.052 308.006C472.386 306.376 472.732 303.653 472.772 301.513L475.296 301.543C474.414 304.836 472.734 309.687 470.224 311.118C469.962 311.267 469.692 311.333 469.414 311.333C468.343 311.333 467.158 310.352 465.938 309.371C464.718 308.389 463.462 307.408 462.25 307.408C461.828 307.408 461.411 307.527 461.002 307.807C457.944 309.898 457.07 312.425 457.07 312.425Z" fill="#BBD4F0"/>
<path d="M529.947 312.425H526.597C526.597 312.425 529.133 305.602 532.788 305.602C533.285 305.602 533.801 305.727 534.335 306.013C537.367 307.636 539.114 309.35 540.621 309.35C541.335 309.35 541.995 308.966 542.713 308.006C543.927 306.38 544.245 303.667 544.283 301.531L546.584 301.558C545.778 304.851 544.245 309.689 541.957 311.118C541.718 311.267 541.471 311.333 541.218 311.333C540.239 311.333 539.158 310.352 538.044 309.371C536.93 308.389 535.784 307.408 534.677 307.408C534.291 307.408 533.911 307.527 533.538 307.807C530.745 309.898 529.947 312.425 529.947 312.425Z" fill="#BBD4F0"/>
<path d="M453.4 312.425H451.506V298.351H472.624C472.624 298.351 472.805 299.729 472.772 301.513L454.09 301.293V310.984C453.644 311.826 453.4 312.425 453.4 312.425ZM478.355 301.579L475.296 301.543C475.788 299.704 476.032 298.351 476.032 298.351H478.355V301.579Z" fill="#6480B7"/>
<path d="M454.09 312.425H453.399C453.399 312.425 453.643 311.826 454.09 310.984V312.425ZM475.296 301.543L472.772 301.513C472.805 299.729 472.624 298.351 472.624 298.351H476.032C476.032 298.351 475.788 299.704 475.296 301.543Z" fill="#7E90B1"/>
<path d="M513.381 312.425H489.117V301.293L513.381 301.579V312.425Z" fill="#92B7E4"/>
<path d="M489.117 312.425H486.533V298.351H513.381V301.579L489.117 301.293V312.425Z" fill="#6480B7"/>
<path d="M524.144 312.425H521.56V298.351H544.149C544.149 298.351 544.315 299.739 544.284 301.531L524.144 301.293V312.425ZM548.409 301.579L546.584 301.558C547.037 299.711 547.26 298.351 547.26 298.351H548.409V301.579Z" fill="#6480B7"/>
<path d="M546.584 301.558L544.283 301.531C544.314 299.738 544.148 298.351 544.148 298.351H547.26C547.26 298.351 547.036 299.711 546.584 301.558Z" fill="#7E90B1"/>
<path d="M579.59 312.425H555.326V301.293L579.59 301.579V312.425Z" fill="#92B7E4"/>
<path d="M555.326 312.425H552.741V298.351H579.59V301.579L555.326 301.293V312.425Z" fill="#6480B7"/>
<path d="M307.585 425.915H406.893V301.022H307.585V425.915Z" fill="#17282F"/>
<path d="M351.678 398.082H384.029V352.107H351.678V398.082Z" fill="#406FBF"/>
<path d="M354.384 398.156H355.893V398.082H354.384V398.156Z" fill="#0F191D"/>
<path d="M355.893 398.082H354.384V382.409C354.887 382.409 355.39 382.409 355.893 382.409V398.082ZM355.893 381.839C355.39 381.839 354.887 381.839 354.384 381.839V376.083C354.616 375.991 354.588 375.529 354.298 375.529V366.177C354.83 366.177 355.361 366.177 355.893 366.177V381.839ZM355.893 365.607C355.361 365.607 354.83 365.607 354.298 365.607V357.52H351.678V352.107H355.893V365.607Z" fill="#2D5BB2"/>
<path d="M371.293 373.346H368.359V365.892H371.293V373.346Z" fill="white"/>
<path d="M351.678 366.177C362.461 366.177 373.245 366.177 384.029 366.177C384.35 366.177 384.351 365.607 384.029 365.607C373.245 365.607 362.461 365.607 351.678 365.607C351.356 365.607 351.356 366.177 351.678 366.177Z" fill="#17282F"/>
<path d="M351.678 382.409C362.523 382.409 373.368 382.409 384.213 382.409C384.535 382.409 384.536 381.839 384.213 381.839C373.368 381.839 362.523 381.839 351.678 381.839C351.356 381.839 351.356 382.409 351.678 382.409Z" fill="#17282F"/>
<path d="M371.293 359.562H368.359V352.107H371.293V359.562Z" fill="white"/>
<path d="M381.094 386.933H374.534V383.641H381.094V386.933Z" fill="white"/>
<path d="M397.85 408.625H390.566V407.29H397.85V408.625ZM385.128 408.625H377.844V407.29H385.128V408.625ZM372.116 408.625H364.832V407.29H372.116V408.625ZM359.104 408.625H351.82V407.29H359.104V408.625ZM346.092 408.625H338.808V407.29H346.092V408.625ZM329.194 404.72V416.752L333.985 410.876H402.662L406.893 415.773V404.72H329.194Z" fill="#17282F"/>
<path d="M406.893 415.773L402.662 410.876H333.985L330.943 414.607V404.72H406.893V415.773ZM390.566 408.625H397.85V407.29H390.566V408.625ZM377.844 408.625H385.128V407.29H377.844V408.625ZM364.832 408.625H372.116V407.29H364.832V408.625ZM351.82 408.625H359.104V407.29H351.82V408.625ZM338.808 408.625H346.092V407.29H338.808V408.625Z" fill="#57666B"/>
<path d="M397.85 335.743H390.566V334.407H397.85V335.743ZM385.128 335.743H377.844V334.407H385.128V335.743ZM372.116 335.743H364.832V334.407H372.116V335.743ZM359.104 335.743H351.82V334.407H359.104V335.743ZM346.092 335.743H338.808V334.407H346.092V335.743ZM329.194 331.838V343.869L333.985 337.993H402.662L406.893 342.89V331.838H329.194Z" fill="#17282F"/>
<path d="M406.893 342.891L402.662 337.994H333.985L330.943 341.725V331.838H406.893V342.891ZM390.566 335.743H397.85V334.408H390.566V335.743ZM377.844 335.743H385.128V334.408H377.844V335.743ZM364.832 335.743H372.116V334.408H364.832V335.743ZM351.82 335.743H359.104V334.408H351.82V335.743ZM338.808 335.743H346.092V334.408H338.808V335.743Z" fill="#57666B"/>
<path d="M330.943 404.646H335.459V398.156H330.943V404.646Z" fill="#B5413C"/>
<path d="M351.678 404.646H356.194V398.156H351.678V404.646Z" fill="#B5413C"/>
<path d="M335.036 401.108H352.62V398.156H335.036V401.108Z" fill="#B5413C"/>
<path d="M360.338 404.646H355.822V398.156H360.338V404.646Z" fill="#B5413C"/>
<path d="M381.073 404.646H376.557V398.156H381.073V404.646Z" fill="#B5413C"/>
<path d="M359.915 401.108H377.5V398.156H359.915V401.108Z" fill="#B5413C"/>
<path d="M381.308 404.646H385.824V398.156H381.308V404.646Z" fill="#B5413C"/>
<path d="M406.559 404.646H402.042V398.156H406.559V404.646Z" fill="#B5413C"/>
<path d="M385.4 401.108H402.985V398.156H385.4V401.108Z" fill="#B5413C"/>
<path d="M331.227 398.156H354.384V375.709H331.227V398.156Z" fill="#406FBF"/>
<path d="M354.384 398.156H331.227V388.099C331.228 388.099 331.228 388.099 331.229 388.099C338.85 388.099 346.472 388.099 354.093 388.099C354.415 388.099 354.416 387.529 354.093 387.529C346.472 387.529 338.85 387.529 331.229 387.529C331.228 387.529 331.228 387.529 331.227 387.529V376.067C331.26 376.088 331.299 376.099 331.346 376.099C338.996 376.099 346.647 376.099 354.298 376.099C354.33 376.099 354.358 376.094 354.384 376.083V381.838V382.409V398.082V398.156Z" fill="#90B4E3"/>
<path d="M331.229 388.099C338.85 388.099 346.472 388.099 354.093 388.099C354.415 388.099 354.416 387.529 354.093 387.529C346.472 387.529 338.85 387.529 331.229 387.529C330.908 387.529 330.907 388.099 331.229 388.099Z" fill="#17282F"/>
<path d="M351.678 381.934H348.716V377.248H351.678V381.934Z" fill="white"/>
<path d="M340.355 393.845H337.394V389.16H340.355V393.845Z" fill="white"/>
<path d="M384.029 398.263H405.868V380.058H384.029V398.263Z" fill="#406FBF"/>
<path d="M384.029 398.263H388.363V380.058H384.029V398.263Z" fill="#2D5BB2"/>
<path d="M395.47 388.385H391.259V382.305H395.47V388.385Z" fill="white"/>
<path d="M384.029 379.979H405.868V361.774H384.029V379.979Z" fill="#406FBF"/>
<path d="M405.867 379.979H388.363V361.774H384.029H405.867V379.979Z" fill="#90B4E3"/>
<path d="M384.029 379.979H388.363V361.774H384.029V379.979Z" fill="#627FB7"/>
<path d="M395.47 370.102H391.259V364.022H395.47V370.102Z" fill="white"/>
<path d="M332.459 375.814H354.298V357.52H332.459V375.814Z" fill="#406FBF"/>
<path d="M336.794 375.529C335.349 375.529 333.904 375.529 332.459 375.529V357.52H336.794V375.529Z" fill="#2D5BB2"/>
<path d="M343.9 365.889H339.689V359.778H343.9V365.889Z" fill="white"/>
<path d="M331.346 376.1C338.996 376.1 346.647 376.1 354.298 376.1C354.62 376.1 354.62 375.53 354.298 375.53C346.647 375.53 338.996 375.53 331.346 375.53C331.024 375.53 331.023 376.1 331.346 376.1Z" fill="#17282F"/>
<path d="M327.446 425.741H330.943V319.017H327.446V425.741Z" fill="#17282F"/>
<path d="M330.943 425.741H327.446V319.017H330.943V398.156V404.646V425.741Z" fill="#57666B"/>
<path d="M405.673 379.684C398.648 379.684 391.622 379.684 384.596 379.684C384.275 379.684 384.274 380.254 384.596 380.254C391.622 380.254 398.648 380.254 405.673 380.254C405.995 380.254 405.995 379.684 405.673 379.684Z" fill="#17282F"/>
<path d="M307.585 319.017H406.893V301.022H307.585V319.017Z" fill="#DADBD8"/>
<path d="M307.585 425.305H311.383V319.017H307.585V425.305Z" fill="#0F191D"/>
<path d="M307.585 319.017H311.383V301.022H307.585V319.017Z" fill="#8F9192"/>
<path d="M307.81 317.166C320.583 317.166 333.357 317.166 346.131 317.166C358.905 317.166 371.679 317.166 384.453 317.166C391.673 317.166 398.893 317.166 406.113 317.166C406.435 317.166 406.436 316.596 406.113 316.596C393.34 316.596 380.566 316.596 367.792 316.596C355.018 316.596 342.244 316.596 329.47 316.596C322.25 316.596 315.03 316.596 307.81 316.596C307.488 316.596 307.487 317.166 307.81 317.166Z" fill="#17282F"/>
<path d="M307.81 314.293C320.583 314.293 333.357 314.293 346.131 314.293C358.905 314.293 371.679 314.293 384.453 314.293C391.673 314.293 398.893 314.293 406.113 314.293C406.435 314.293 406.436 313.723 406.113 313.723C393.34 313.723 380.566 313.723 367.792 313.723C355.018 313.723 342.244 313.723 329.47 313.723C322.25 313.723 315.03 313.723 307.81 313.723C307.488 313.723 307.487 314.293 307.81 314.293Z" fill="#17282F"/>
<path d="M307.81 311.419C320.583 311.419 333.357 311.419 346.131 311.419C358.905 311.419 371.679 311.419 384.453 311.419C391.673 311.419 398.893 311.419 406.113 311.419C406.435 311.419 406.436 310.849 406.113 310.849C393.34 310.849 380.566 310.849 367.792 310.849C355.018 310.849 342.244 310.849 329.47 310.849C322.25 310.849 315.03 310.849 307.81 310.849C307.488 310.849 307.487 311.419 307.81 311.419Z" fill="#17282F"/>
<path d="M307.81 308.546C320.583 308.546 333.357 308.546 346.131 308.546C358.905 308.546 371.679 308.546 384.453 308.546C391.673 308.546 398.893 308.546 406.113 308.546C406.435 308.546 406.436 307.976 406.113 307.976C393.34 307.976 380.566 307.976 367.792 307.976C355.018 307.976 342.244 307.976 329.47 307.976C322.25 307.976 315.03 307.976 307.81 307.976C307.488 307.976 307.487 308.546 307.81 308.546Z" fill="#17282F"/>
<path d="M307.81 305.673C320.583 305.673 333.357 305.673 346.131 305.673C358.905 305.673 371.679 305.673 384.453 305.673C391.673 305.673 398.893 305.673 406.113 305.673C406.435 305.673 406.436 305.103 406.113 305.103C393.34 305.103 380.566 305.103 367.792 305.103C355.018 305.103 342.244 305.103 329.47 305.103C322.25 305.103 315.03 305.103 307.81 305.103C307.488 305.103 307.487 305.673 307.81 305.673Z" fill="#17282F"/>
<path d="M307.81 302.8C320.583 302.8 333.357 302.8 346.131 302.8C358.905 302.8 371.679 302.8 384.453 302.8C391.673 302.8 398.893 302.8 406.113 302.8C406.435 302.8 406.436 302.23 406.113 302.23C393.34 302.23 380.566 302.23 367.792 302.23C355.018 302.23 342.244 302.23 329.47 302.23C322.25 302.23 315.03 302.23 307.81 302.23C307.488 302.23 307.487 302.8 307.81 302.8Z" fill="#17282F"/>
<path d="M302.312 286.981H324.523V277.002H302.312V286.981Z" fill="#D3E4F6"/>
<path d="M302.312 286.981H299.26V274.046H324.523V277.003H302.312V286.981Z" fill="#8C98AC"/>
<path d="M332.543 286.981H354.755V277.002H332.543V286.981Z" fill="#D3E4F6"/>
<path d="M332.544 286.981H329.492V274.046H354.755V277.003H332.544V286.981Z" fill="#8C98AC"/>
<path d="M362.775 286.981H384.988V277.002H362.775V286.981Z" fill="#D3E4F6"/>
<path d="M362.776 286.981H359.724V274.046H384.988V277.003H362.776V286.981Z" fill="#8C98AC"/>
<path d="M393.008 286.981H415.22V277.002H393.008V286.981Z" fill="#D3E4F6"/>
<path d="M393.008 286.981H389.956V274.046H415.22V277.003H393.008V286.981Z" fill="#8C98AC"/>
<path d="M297.495 387.814H287.481V368.35H297.495V387.814Z" fill="#406FBF"/>
<path d="M294.4 374.21C294.4 375.414 293.544 376.39 292.488 376.39C291.432 376.39 290.576 375.414 290.576 374.21C290.576 373.006 291.432 372.03 292.488 372.03C293.544 372.03 294.4 373.006 294.4 374.21Z" fill="#17282F"/>
<path d="M294.4 381.427C294.4 382.631 293.544 383.607 292.488 383.607C291.432 383.607 290.576 382.631 290.576 381.427C290.576 380.223 291.432 379.248 292.488 379.248C293.544 379.248 294.4 380.223 294.4 381.427Z" fill="white"/>
<path d="M545.851 416.292H669.319L673.137 412.114L668.597 399.272L651.76 395.737H543.228L545.851 416.292Z" fill="#040606"/>
<path d="M672.999 390.833L665.049 386.222C664.363 385.824 663.832 385.149 663.559 384.329L651.783 348.915C651.325 347.539 650.166 346.631 648.875 346.637L534.179 347.253C532.475 347.262 531.098 348.839 531.098 350.782V413.985C531.098 415.934 532.483 417.513 534.193 417.513H548.387C548.383 417.358 548.377 417.203 548.377 417.046C548.377 408.685 554.322 401.908 561.655 401.908C568.989 401.908 574.934 408.685 574.934 417.046C574.934 417.203 574.928 417.358 574.924 417.513H646.413H646.421C646.767 409.505 652.572 403.133 659.682 403.133C665.242 403.133 670.001 407.03 671.979 412.557C673.507 412.342 674.69 410.859 674.69 409.059V393.978C674.69 392.65 674.037 391.435 672.999 390.833Z" fill="#406FBF"/>
<path d="M646.413 417.513H645.186V363.948C645.186 361.482 643.433 359.483 641.269 359.483H626.913C625.759 359.483 624.721 360.052 624.005 360.958L620 348.915C619.659 347.889 618.928 347.124 618.043 346.803L648.875 346.637C648.88 346.637 648.885 346.637 648.889 346.637C650.175 346.637 651.327 347.544 651.783 348.915L663.559 384.329C663.832 385.149 664.363 385.824 665.049 386.222L672.999 390.833C674.037 391.435 674.69 392.65 674.69 393.978V401.275V401.368V406.333L668.29 406.747C665.973 404.494 662.967 403.133 659.682 403.133C652.937 403.133 647.367 408.867 646.517 416.292C646.471 416.694 646.438 417.101 646.421 417.513H646.413Z" fill="#3563B7"/>
<path d="M644.687 417.267H639.985C639.924 416.218 639.756 415.176 639.481 414.163L640.121 413.464C640.615 413.336 642.64 412.786 643.497 412.111C643.936 411.763 644.057 410.549 644.057 409.318C644.056 407.808 643.873 406.27 643.873 406.27L642.907 406.333V393.978C642.907 393.06 642.595 392.195 642.059 391.551C642.205 391.332 642.292 391.059 642.292 390.762V387.064C642.292 386.346 641.781 385.764 641.151 385.764C640.521 385.764 640.011 386.346 640.011 387.064V390.134L633.267 386.222C632.581 385.824 632.049 385.149 631.776 384.329L631.489 383.467H640.013C641.524 383.467 642.749 382.07 642.749 380.348V365.559C642.749 363.836 641.524 362.44 640.013 362.44H628.171C626.739 362.44 625.565 363.693 625.445 365.289L624.208 361.569C624.297 361.437 624.394 361.311 624.497 361.194C625.117 360.488 625.969 360.053 626.913 360.053H641.269C642.214 360.053 643.067 360.488 643.686 361.194C644.304 361.899 644.686 362.871 644.687 363.948V417.267Z" fill="#3563B7"/>
<path d="M648.542 362.556V381.879C648.542 382.756 649.193 383.467 649.996 383.467H661.808L654.706 361.486H649.522C648.981 361.486 648.542 361.965 648.542 362.556Z" fill="#17282F"/>
<path d="M570.06 426.463C565.418 431.743 557.892 431.743 553.251 426.463C548.609 421.183 548.609 412.622 553.251 407.343C557.892 402.063 565.418 402.063 570.06 407.343C574.701 412.622 574.701 421.183 570.06 426.463Z" fill="#17282F"/>
<path d="M561.656 425.192C559.791 425.192 557.926 424.382 556.503 422.764C555.217 421.301 554.512 419.427 554.388 417.513H559.539C559.499 417.527 559.46 417.547 559.422 417.572L556.19 419.707C555.911 419.89 555.815 420.294 555.975 420.611L555.976 420.612C556.084 420.826 556.281 420.945 556.483 420.945C556.582 420.945 556.683 420.917 556.776 420.857L560.008 418.721C560.288 418.537 560.384 418.13 560.222 417.812C560.146 417.663 560.027 417.562 559.894 417.513H560.836C561.012 417.816 561.313 418.016 561.656 418.016C561.998 418.016 562.3 417.816 562.476 417.513H563.474C563.319 417.55 563.177 417.66 563.09 417.828C562.928 418.146 563.022 418.553 563.3 418.738L566.536 420.873C566.628 420.934 566.728 420.962 566.827 420.962C567.028 420.962 567.224 420.843 567.332 420.631L567.332 420.63C567.493 420.313 567.398 419.909 567.12 419.725L567.118 419.725L563.886 417.589C563.83 417.552 563.772 417.527 563.712 417.513H568.923C568.799 419.427 568.094 421.301 566.808 422.764C565.386 424.382 563.52 425.192 561.656 425.192ZM561.652 418.785C561.331 418.785 561.07 419.082 561.07 419.447V423.696C561.07 424.062 561.331 424.358 561.652 424.358H561.656C561.977 424.358 562.238 424.062 562.238 423.696V419.447C562.238 419.082 561.977 418.785 561.656 418.785H561.652Z" fill="#6C7A7F"/>
<path d="M561.655 424.358H561.652C561.33 424.358 561.07 424.062 561.07 423.696V419.447C561.07 419.082 561.33 418.786 561.652 418.786H561.655C561.977 418.786 562.237 419.082 562.237 419.447V423.696C562.237 424.062 561.977 424.358 561.655 424.358Z" fill="#96A1A2"/>
<path d="M556.483 420.946C556.281 420.946 556.084 420.826 555.976 420.613L555.975 420.611C555.815 420.294 555.911 419.89 556.19 419.707L559.422 417.572C559.46 417.547 559.499 417.528 559.539 417.513H559.894C560.027 417.562 560.146 417.664 560.222 417.812C560.384 418.13 560.288 418.537 560.008 418.721L556.776 420.857C556.683 420.917 556.582 420.946 556.483 420.946Z" fill="#96A1A2"/>
<path d="M566.827 420.962C566.728 420.962 566.628 420.934 566.536 420.873L563.3 418.738C563.021 418.553 562.927 418.146 563.09 417.829C563.177 417.66 563.319 417.55 563.474 417.513H563.712C563.771 417.528 563.83 417.553 563.885 417.589L567.118 419.725L567.119 419.726C567.398 419.909 567.493 420.313 567.332 420.63L567.331 420.632C567.223 420.844 567.028 420.962 566.827 420.962Z" fill="#96A1A2"/>
<path d="M561.655 415.787C562.196 415.787 562.635 416.286 562.635 416.902C562.635 417.518 562.196 418.016 561.655 418.016C561.114 418.016 560.676 417.518 560.676 416.902C560.676 416.286 561.114 415.787 561.655 415.787Z" fill="#17282F"/>
<path d="M668.312 427.722C663.67 433.002 656.144 433.002 651.502 427.722C646.861 422.443 646.861 413.882 651.502 408.601C656.144 403.322 663.67 403.322 668.312 408.601C672.954 413.882 672.954 422.443 668.312 427.722Z" fill="#17282F"/>
<path d="M659.907 426.451C658.043 426.451 656.178 425.642 654.755 424.024C651.909 420.786 651.909 415.538 654.755 412.3C656.178 410.682 658.043 409.873 659.907 409.873C661.773 409.873 663.637 410.682 665.06 412.3C667.906 415.538 667.906 420.786 665.06 424.024C663.637 425.642 661.773 426.451 659.907 426.451ZM659.904 420.045C659.583 420.045 659.322 420.341 659.322 420.707V424.956C659.322 425.321 659.583 425.617 659.904 425.617H659.908C660.229 425.617 660.49 425.321 660.49 424.956V420.707C660.49 420.341 660.229 420.045 659.908 420.045H659.904ZM661.845 418.759C661.645 418.759 661.45 418.877 661.342 419.088C661.18 419.406 661.274 419.812 661.552 419.998L664.789 422.133C664.88 422.194 664.98 422.221 665.079 422.221C665.28 422.221 665.475 422.103 665.583 421.891L665.584 421.889C665.745 421.573 665.65 421.168 665.372 420.985L665.37 420.984L662.138 418.848C662.046 418.788 661.945 418.759 661.845 418.759ZM657.968 418.741C657.868 418.741 657.767 418.77 657.674 418.832L654.441 420.967C654.163 421.149 654.067 421.553 654.227 421.87L654.228 421.872C654.336 422.085 654.533 422.205 654.735 422.205C654.835 422.205 654.935 422.176 655.027 422.116L658.26 419.98C658.539 419.796 658.635 419.39 658.474 419.071C658.365 418.859 658.169 418.741 657.968 418.741ZM654.735 414.087C654.533 414.087 654.336 414.207 654.228 414.42C654.067 414.737 654.162 415.142 654.44 415.325L654.442 415.326L657.674 417.461C657.767 417.522 657.868 417.552 657.967 417.552C658.167 417.552 658.362 417.435 658.471 417.224L658.474 417.217C658.635 416.901 658.539 416.496 658.261 416.313L658.26 416.312L655.027 414.177C654.935 414.116 654.835 414.087 654.735 414.087ZM665.079 414.088C664.981 414.088 664.881 414.116 664.79 414.176L664.789 414.177L661.552 416.312C661.275 416.496 661.18 416.901 661.342 417.217C661.449 417.432 661.644 417.552 661.846 417.552C661.942 417.552 662.04 417.524 662.13 417.466L662.138 417.461L665.37 415.326C665.649 415.144 665.745 414.739 665.585 414.422L665.584 414.42C665.477 414.207 665.281 414.088 665.079 414.088ZM659.904 410.705C659.583 410.705 659.322 411.002 659.322 411.367V415.616C659.322 415.981 659.583 416.278 659.904 416.278H659.908C660.229 416.278 660.49 415.981 660.49 415.616V411.367C660.49 411.002 660.229 410.705 659.908 410.705H659.904Z" fill="#6C7A7F"/>
<path d="M659.908 416.278H659.904C659.583 416.278 659.322 415.982 659.322 415.616V411.367C659.322 411.002 659.583 410.705 659.904 410.705H659.908C660.23 410.705 660.49 411.002 660.49 411.367V415.616C660.49 415.982 660.23 416.278 659.908 416.278Z" fill="#96A1A2"/>
<path d="M659.908 425.618H659.904C659.583 425.618 659.322 425.321 659.322 424.956V420.707C659.322 420.341 659.583 420.045 659.904 420.045H659.908C660.23 420.045 660.49 420.341 660.49 420.707V424.956C660.49 425.321 660.23 425.618 659.908 425.618Z" fill="#96A1A2"/>
<path d="M661.846 417.552C661.644 417.552 661.449 417.432 661.342 417.217C661.18 416.901 661.275 416.496 661.552 416.312L664.789 414.177L664.79 414.177C664.881 414.117 664.981 414.088 665.079 414.088C665.281 414.088 665.477 414.208 665.584 414.421L665.585 414.422C665.745 414.739 665.649 415.144 665.37 415.326L662.138 417.461L662.13 417.466C662.04 417.525 661.942 417.552 661.846 417.552Z" fill="#96A1A2"/>
<path d="M654.735 422.205C654.533 422.205 654.336 422.086 654.228 421.872L654.227 421.871C654.067 421.554 654.163 421.149 654.441 420.967L657.674 418.832C657.767 418.77 657.868 418.741 657.968 418.741C658.169 418.741 658.365 418.859 658.474 419.071C658.635 419.39 658.539 419.796 658.26 419.98L655.027 422.116C654.935 422.176 654.835 422.205 654.735 422.205Z" fill="#96A1A2"/>
<path d="M665.079 422.222C664.98 422.222 664.88 422.194 664.789 422.133L661.552 419.998C661.274 419.812 661.18 419.406 661.342 419.088C661.45 418.877 661.645 418.759 661.845 418.759C661.945 418.759 662.046 418.788 662.138 418.849L665.37 420.985L665.372 420.985C665.65 421.168 665.745 421.574 665.584 421.89L665.583 421.891C665.475 422.103 665.28 422.222 665.079 422.222Z" fill="#96A1A2"/>
<path d="M657.967 417.552C657.868 417.552 657.767 417.522 657.674 417.461L654.442 415.326L654.44 415.325C654.162 415.142 654.067 414.737 654.228 414.421C654.336 414.207 654.533 414.087 654.735 414.087C654.835 414.087 654.935 414.117 655.027 414.177L658.26 416.312L658.261 416.313C658.539 416.496 658.635 416.901 658.474 417.217L658.471 417.224C658.362 417.435 658.167 417.552 657.967 417.552Z" fill="#96A1A2"/>
<path d="M659.908 417.046C660.449 417.046 660.888 417.546 660.888 418.161C660.888 418.777 660.449 419.276 659.908 419.276C659.366 419.276 658.928 418.777 658.928 418.161C658.928 417.546 659.366 417.046 659.908 417.046Z" fill="#17282F"/>
<path d="M640.013 383.467H628.171C626.659 383.467 625.435 382.07 625.435 380.348V365.559C625.435 363.836 626.659 362.44 628.171 362.44H640.013C641.524 362.44 642.749 363.836 642.749 365.559V380.348C642.749 382.07 641.524 383.467 640.013 383.467Z" fill="#17282F"/>
<path d="M641.151 392.063C640.521 392.063 640.011 391.481 640.011 390.762V387.064C640.011 386.346 640.521 385.764 641.151 385.764C641.781 385.764 642.292 386.346 642.292 387.064V390.762C642.292 391.481 641.781 392.063 641.151 392.063Z" fill="#17282F"/>
<path d="M671.793 413.492L668.289 406.748L675.656 406.27C675.656 406.27 676.258 411.338 675.279 412.111C674.3 412.884 671.793 413.492 671.793 413.492Z" fill="#17282F"/>
<path d="M671.793 413.492L668.289 406.748L675.656 406.27C675.656 406.27 675.838 407.808 675.839 409.318C675.84 410.55 675.719 411.763 675.279 412.111C674.3 412.884 671.793 413.492 671.793 413.492Z" fill="#405158"/>
<path d="M672.999 390.833C672.999 390.833 671.935 391.822 672.065 393.73L674.69 393.978C674.69 393.978 674.825 391.893 672.999 390.833Z" fill="#406FBF"/>
<path d="M629.2 376.582L626.631 368.855C626.63 367.391 626.63 366.042 626.629 365.068C626.628 364.217 627.233 363.53 627.979 363.53H640.488C641.234 363.53 641.838 364.219 641.838 365.069V368.328C641.838 368.908 641.553 369.438 641.099 369.7L629.2 376.582Z" fill="#405158"/>
<path d="M531.098 417.513H549.769V410.705H531.098V417.513Z" fill="#040606"/>
<path d="M574.17 417.513H623.246V410.705H574.17V417.513Z" fill="#040606"/>
<path d="M531.098 399.632H623.247V393.978H531.098V399.632Z" fill="#406FBF"/>
<path d="M644.937 417.552V417.267H623.497V363.948C623.497 362.871 623.879 361.899 624.497 361.194C625.117 360.488 625.969 360.053 626.913 360.053H641.269C642.214 360.053 643.067 360.488 643.686 361.194C644.304 361.899 644.686 362.871 644.687 363.948V417.552H644.937H645.186V363.948C645.186 361.482 643.433 359.483 641.269 359.483H626.913C624.751 359.483 622.997 361.482 622.997 363.948V417.837H645.186V417.552H644.937Z" fill="#040606"/>
<path d="M538.069 388.913H547.213V378.488H538.069V388.913Z" fill="#406FBF"/>
<path d="M549.77 388.062H559.624V385.479H549.77V388.062Z" fill="#406FBF"/>
<path d="M514.068 416.292H637.536L641.355 412.114L636.815 399.272L619.977 395.737H511.445L514.068 416.292Z" fill="#040606"/>
<path d="M641.215 390.833L633.267 386.222C632.581 385.824 632.049 385.149 631.776 384.329L620 348.915C619.543 347.539 618.383 346.631 617.092 346.637L502.396 347.253C500.692 347.262 499.315 348.839 499.315 350.782V413.985C499.315 415.934 500.701 417.513 502.41 417.513H516.605C516.601 417.358 516.594 417.203 516.594 417.046C516.594 408.685 522.539 401.908 529.873 401.908C537.206 401.908 543.151 408.685 543.151 417.046C543.151 417.203 543.145 417.358 543.141 417.513H614.629H614.637C614.985 409.505 620.789 403.133 627.899 403.133C633.459 403.133 638.218 407.03 640.196 412.557C641.724 412.342 642.907 410.859 642.907 409.059V393.978C642.907 392.65 642.253 391.435 641.215 390.833Z" fill="#406FBF"/>
<path d="M614.629 417.513H613.403V363.948C613.403 361.482 611.65 359.483 609.487 359.483H595.131C592.967 359.483 591.215 361.482 591.214 363.948V372.24L583.458 348.915C583.125 347.915 582.423 347.163 581.568 346.828L617.092 346.637C617.097 346.637 617.101 346.637 617.107 346.637C618.392 346.637 619.544 347.544 620 348.915L631.776 384.329C632.049 385.149 632.581 385.824 633.267 386.222L641.215 390.833C642.253 391.435 642.907 392.65 642.907 393.978V406.333L636.507 406.747C634.19 404.494 631.185 403.133 627.899 403.133C621.155 403.133 615.585 408.867 614.733 416.292C614.687 416.694 614.655 417.101 614.637 417.513H614.629ZM612.903 417.267H603.443C603.382 416.218 603.214 415.176 602.939 414.163L603.579 413.464C604.073 413.336 606.098 412.786 606.955 412.111C607.394 411.763 607.515 410.549 607.515 409.318C607.514 407.808 607.331 406.27 607.331 406.27L606.365 406.333V393.978C606.365 392.65 605.711 391.435 604.673 390.833L596.725 386.222C596.038 385.824 595.507 385.149 595.234 384.329L594.738 382.836C595.197 383.232 595.768 383.467 596.387 383.467H608.23C609.741 383.467 610.966 382.07 610.966 380.348V365.559C610.966 363.836 609.741 362.44 608.23 362.44H596.387C594.877 362.44 593.652 363.836 593.652 365.559V379.571L591.714 373.743V363.948C591.714 362.871 592.096 361.899 592.715 361.194C593.334 360.488 594.187 360.053 595.131 360.053H609.487C610.431 360.053 611.284 360.488 611.903 361.194C612.521 361.899 612.903 362.871 612.903 363.948V417.267Z" fill="#2251AA"/>
<path d="M616.76 362.556V381.879C616.76 382.756 617.41 383.467 618.213 383.467H630.024L622.922 361.486H617.739C617.198 361.486 616.76 361.965 616.76 362.556Z" fill="#17282F"/>
<path d="M538.277 426.463C533.635 431.743 526.109 431.743 521.468 426.463C516.826 421.183 516.826 412.622 521.468 407.343C526.109 402.063 533.635 402.063 538.277 407.343C542.919 412.622 542.919 421.183 538.277 426.463Z" fill="#17282F"/>
<path d="M529.873 425.192C528.007 425.192 526.143 424.382 524.72 422.764C523.433 421.301 522.729 419.427 522.605 417.513H527.755C527.716 417.527 527.677 417.547 527.639 417.572L524.407 419.707C524.128 419.89 524.032 420.294 524.192 420.611L524.193 420.612C524.301 420.826 524.498 420.945 524.7 420.945C524.799 420.945 524.9 420.917 524.992 420.857L528.225 418.721C528.505 418.537 528.6 418.13 528.439 417.812C528.363 417.663 528.244 417.562 528.111 417.513H529.053C529.229 417.816 529.53 418.016 529.873 418.016C530.215 418.016 530.517 417.816 530.692 417.513H531.691C531.535 417.55 531.393 417.66 531.307 417.828H531.307C531.145 418.146 531.239 418.553 531.517 418.738L534.753 420.873C534.845 420.934 534.945 420.962 535.044 420.962C535.245 420.962 535.441 420.843 535.548 420.631L535.549 420.63C535.71 420.313 535.615 419.909 535.337 419.725L535.335 419.725L532.103 417.589C532.047 417.552 531.989 417.527 531.929 417.513H537.14C537.016 419.427 536.311 421.301 535.025 422.764C533.602 424.382 531.737 425.192 529.873 425.192ZM529.869 418.785C529.547 418.785 529.287 419.082 529.287 419.447V423.696C529.287 424.062 529.547 424.358 529.869 424.358H529.873C530.194 424.358 530.455 424.062 530.455 423.696V419.447C530.455 419.082 530.194 418.785 529.873 418.785H529.869Z" fill="#6C7A7F"/>
<path d="M529.872 424.358H529.869C529.547 424.358 529.287 424.062 529.287 423.696V419.447C529.287 419.082 529.547 418.786 529.869 418.786H529.872C530.194 418.786 530.454 419.082 530.454 419.447V423.696C530.454 424.062 530.194 424.358 529.872 424.358Z" fill="#96A1A2"/>
<path d="M524.7 420.946C524.498 420.946 524.301 420.826 524.193 420.613L524.192 420.611C524.032 420.294 524.128 419.89 524.407 419.707L527.639 417.572C527.677 417.547 527.716 417.528 527.755 417.513H528.111C528.244 417.562 528.363 417.664 528.439 417.812C528.6 418.13 528.505 418.537 528.225 418.721L524.992 420.857C524.9 420.917 524.799 420.946 524.7 420.946Z" fill="#96A1A2"/>
<path d="M535.044 420.962C534.946 420.962 534.845 420.934 534.754 420.873L531.517 418.738C531.239 418.553 531.145 418.146 531.307 417.829H531.308C531.394 417.66 531.536 417.55 531.692 417.513H531.93C531.989 417.528 532.048 417.553 532.103 417.589L535.336 419.725L535.337 419.726C535.615 419.909 535.71 420.313 535.549 420.63L535.548 420.632C535.441 420.844 535.245 420.962 535.044 420.962Z" fill="#96A1A2"/>
<path d="M529.873 415.787C530.414 415.787 530.853 416.286 530.853 416.902C530.853 417.518 530.414 418.016 529.873 418.016C529.331 418.016 528.893 417.518 528.893 416.902C528.893 416.286 529.332 415.787 529.873 415.787Z" fill="#17282F"/>
<path d="M636.53 427.722C631.888 433.002 624.362 433.002 619.72 427.722C615.079 422.443 615.079 413.882 619.72 408.601C624.362 403.322 631.888 403.322 636.53 408.601C641.172 413.882 641.172 422.443 636.53 427.722Z" fill="#17282F"/>
<path d="M628.125 426.451C626.26 426.451 624.395 425.642 622.972 424.024C620.127 420.786 620.127 415.538 622.972 412.3C624.395 410.682 626.26 409.873 628.125 409.873C629.989 409.873 631.855 410.682 633.277 412.3C636.123 415.538 636.123 420.786 633.277 424.024C631.855 425.642 629.989 426.451 628.125 426.451ZM628.121 420.045C627.8 420.045 627.539 420.341 627.539 420.707V424.956C627.539 425.321 627.8 425.617 628.121 425.617H628.125C628.447 425.617 628.707 425.321 628.707 424.956V420.707C628.707 420.341 628.447 420.045 628.125 420.045H628.121ZM630.063 418.759C629.863 418.759 629.667 418.877 629.559 419.088C629.397 419.406 629.491 419.812 629.769 419.998L633.005 422.133C633.097 422.194 633.197 422.221 633.296 422.221C633.497 422.221 633.693 422.103 633.801 421.891L633.801 421.889C633.963 421.573 633.867 421.168 633.589 420.985L633.587 420.984L630.355 418.848C630.263 418.788 630.162 418.759 630.063 418.759ZM626.185 418.741C626.085 418.741 625.984 418.77 625.891 418.832L622.659 420.967C622.38 421.149 622.284 421.553 622.444 421.87L622.445 421.872C622.553 422.085 622.75 422.205 622.953 422.205C623.052 422.205 623.153 422.176 623.245 422.116L626.477 419.98C626.757 419.796 626.853 419.39 626.691 419.071C626.582 418.859 626.386 418.741 626.185 418.741ZM622.953 414.087C622.75 414.087 622.553 414.207 622.445 414.42C622.284 414.737 622.379 415.142 622.657 415.325L622.659 415.326L625.891 417.461C625.984 417.522 626.085 417.552 626.185 417.552C626.385 417.552 626.579 417.435 626.687 417.224L626.691 417.217C626.852 416.901 626.757 416.496 626.479 416.313L626.477 416.312L623.245 414.177C623.153 414.116 623.052 414.087 622.953 414.087ZM633.297 414.088C633.198 414.088 633.099 414.116 633.007 414.176L633.005 414.177L629.769 416.312C629.492 416.496 629.397 416.901 629.559 417.217C629.665 417.432 629.861 417.552 630.063 417.552C630.159 417.552 630.257 417.524 630.347 417.466L630.355 417.461L633.587 415.326C633.866 415.144 633.963 414.739 633.803 414.422L633.801 414.42C633.694 414.207 633.498 414.088 633.297 414.088ZM628.121 410.705C627.8 410.705 627.539 411.002 627.539 411.367V415.616C627.539 415.981 627.8 416.278 628.121 416.278H628.125C628.447 416.278 628.707 415.981 628.707 415.616V411.367C628.707 411.002 628.447 410.705 628.125 410.705H628.121Z" fill="#6C7A7F"/>
<path d="M628.125 416.278H628.121C627.8 416.278 627.539 415.982 627.539 415.616V411.367C627.539 411.002 627.8 410.705 628.121 410.705H628.125C628.446 410.705 628.707 411.002 628.707 411.367V415.616C628.707 415.982 628.446 416.278 628.125 416.278Z" fill="#96A1A2"/>
<path d="M628.125 425.618H628.121C627.8 425.618 627.539 425.321 627.539 424.956V420.707C627.539 420.341 627.8 420.045 628.121 420.045H628.125C628.446 420.045 628.707 420.341 628.707 420.707V424.956C628.707 425.321 628.446 425.618 628.125 425.618Z" fill="#96A1A2"/>
<path d="M630.063 417.552C629.861 417.552 629.665 417.432 629.559 417.217C629.397 416.901 629.492 416.496 629.769 416.312L633.005 414.177L633.007 414.177C633.098 414.117 633.198 414.088 633.297 414.088C633.498 414.088 633.694 414.208 633.801 414.421L633.802 414.422C633.962 414.739 633.866 415.144 633.587 415.326L630.355 417.461L630.347 417.466C630.257 417.525 630.159 417.552 630.063 417.552Z" fill="#96A1A2"/>
<path d="M622.953 422.205C622.75 422.205 622.553 422.086 622.445 421.872L622.444 421.871C622.284 421.554 622.38 421.149 622.659 420.967L625.891 418.832C625.984 418.77 626.085 418.741 626.185 418.741C626.386 418.741 626.582 418.859 626.691 419.071C626.853 419.39 626.757 419.796 626.477 419.98L623.245 422.116C623.153 422.176 623.052 422.205 622.953 422.205Z" fill="#96A1A2"/>
<path d="M633.296 422.222C633.197 422.222 633.097 422.194 633.005 422.133L629.769 419.998C629.491 419.812 629.397 419.406 629.559 419.088C629.667 418.877 629.863 418.759 630.063 418.759C630.162 418.759 630.263 418.788 630.355 418.849L633.587 420.985L633.589 420.985C633.867 421.168 633.963 421.574 633.801 421.89L633.801 421.891C633.693 422.103 633.497 422.222 633.296 422.222Z" fill="#96A1A2"/>
<path d="M626.185 417.552C626.085 417.552 625.984 417.522 625.891 417.461L622.659 415.326L622.657 415.325C622.379 415.142 622.284 414.737 622.445 414.421C622.553 414.207 622.75 414.087 622.953 414.087C623.052 414.087 623.153 414.117 623.245 414.177L626.477 416.312L626.479 416.313C626.757 416.496 626.852 416.901 626.691 417.217L626.687 417.224C626.579 417.435 626.385 417.552 626.185 417.552Z" fill="#96A1A2"/>
<path d="M628.125 417.046C628.666 417.046 629.105 417.546 629.105 418.161C629.105 418.777 628.666 419.276 628.125 419.276C627.584 419.276 627.146 418.777 627.146 418.161C627.146 417.546 627.584 417.046 628.125 417.046Z" fill="#17282F"/>
<path d="M608.23 383.467H596.387C594.877 383.467 593.652 382.07 593.652 380.348V365.559C593.652 363.836 594.877 362.44 596.387 362.44H608.23C609.741 362.44 610.966 363.836 610.966 365.559V380.348C610.966 382.07 609.741 383.467 608.23 383.467Z" fill="#17282F"/>
<path d="M609.369 392.063C608.739 392.063 608.228 391.481 608.228 390.762V387.064C608.228 386.346 608.739 385.763 609.369 385.763C609.999 385.763 610.509 386.346 610.509 387.064V390.762C610.509 391.481 609.999 392.063 609.369 392.063Z" fill="#17282F"/>
<path d="M640.011 413.492L636.507 406.748L643.874 406.27C643.874 406.27 644.476 411.338 643.497 412.111C642.518 412.884 640.011 413.492 640.011 413.492Z" fill="#17282F"/>
<path d="M640.011 413.492L636.507 406.748L643.874 406.27C643.874 406.27 644.056 407.808 644.057 409.318C644.057 410.55 643.936 411.763 643.497 412.111C642.518 412.884 640.011 413.492 640.011 413.492Z" fill="#405158"/>
<path d="M641.215 390.833C641.215 390.833 640.152 391.822 640.281 393.73L642.907 393.978C642.907 393.978 643.042 391.893 641.215 390.833Z" fill="#406FBF"/>
<path d="M596.198 377.101C595.491 377.101 594.849 376.454 594.849 375.562C594.85 372.543 594.848 367.57 594.846 365.068C594.846 364.217 595.45 363.529 596.196 363.529H608.706C609.451 363.529 610.056 364.219 610.056 365.069V368.328C610.056 368.908 609.77 369.438 609.316 369.7L596.81 376.932C596.61 377.048 596.402 377.101 596.198 377.101Z" fill="#405158"/>
<path d="M499.315 417.513H517.987V410.705H499.315V417.513Z" fill="#040606"/>
<path d="M542.387 417.513H591.464V410.705H542.387V417.513Z" fill="#040606"/>
<path d="M499.315 399.632H591.464V393.978H499.315V399.632Z" fill="#406FBF"/>
<path d="M613.153 417.552V417.267H591.714V363.948C591.714 362.871 592.096 361.899 592.715 361.194C593.334 360.488 594.187 360.053 595.131 360.053H609.487C610.431 360.053 611.284 360.488 611.903 361.194C612.521 361.899 612.903 362.871 612.903 363.948V417.552H613.153H613.403V363.948C613.403 361.482 611.65 359.483 609.487 359.483H595.131C592.967 359.483 591.215 361.482 591.214 363.948V417.837H613.403V417.552H613.153Z" fill="#040606"/>
<path d="M506.287 388.913H515.431V378.488H506.287V388.913Z" fill="#406FBF"/>
<path d="M517.987 388.062H527.842V385.479H517.987V388.062Z" fill="#406FBF"/>
<path d="M477.526 416.292H600.995L604.813 412.114L600.273 399.272L583.436 395.737H474.904L477.526 416.292Z" fill="#040606"/>
<path d="M604.673 390.833L596.725 386.222C596.038 385.824 595.507 385.149 595.234 384.329L583.458 348.915C583.001 347.539 581.841 346.631 580.55 346.637L465.854 347.253C464.15 347.262 462.773 348.839 462.773 350.782V413.985C462.773 415.934 464.159 417.513 465.868 417.513H480.063C480.059 417.358 480.052 417.203 480.052 417.046C480.052 408.685 485.997 401.908 493.331 401.908C500.664 401.908 506.609 408.685 506.609 417.046C506.609 417.203 506.603 417.358 506.599 417.513H578.087H578.095C578.443 409.505 584.247 403.133 591.357 403.133C596.917 403.133 601.676 407.03 603.654 412.557C605.182 412.342 606.365 410.859 606.365 409.059V393.978C606.365 392.65 605.711 391.435 604.673 390.833Z" fill="#406FBF"/>
<path d="M578.087 417.513H506.599C506.603 417.358 506.609 417.203 506.609 417.046C506.609 416.793 506.604 416.542 506.593 416.292C506.248 408.282 500.442 401.908 493.331 401.908C486.219 401.908 480.413 408.282 480.069 416.292C480.058 416.542 480.052 416.793 480.052 417.046C480.052 417.203 480.059 417.358 480.063 417.513H465.868C464.159 417.513 462.773 415.934 462.773 413.985V350.782C462.773 348.839 464.15 347.262 465.854 347.253L580.55 346.637C580.555 346.637 580.559 346.637 580.565 346.637C581.85 346.637 583.002 347.544 583.458 348.915L595.234 384.329C595.507 385.149 596.038 385.824 596.725 386.222L604.673 390.833C605.711 391.435 606.365 392.65 606.365 393.978V406.333L599.965 406.747C597.648 404.494 594.642 403.133 591.357 403.133C584.613 403.133 579.043 408.867 578.191 416.292C578.145 416.694 578.113 417.101 578.095 417.513H578.087ZM559.845 362.44C558.335 362.44 557.11 363.836 557.11 365.559V380.348C557.11 382.07 558.335 383.467 559.845 383.467H571.688C573.199 383.467 574.424 382.07 574.424 380.348V365.559C574.424 363.836 573.199 362.44 571.688 362.44H559.845Z" fill="#3563B7"/>
<path d="M580.218 362.556V381.879C580.218 382.756 580.868 383.467 581.671 383.467H593.482L586.38 361.486H581.197C580.656 361.486 580.218 361.965 580.218 362.556Z" fill="#17282F"/>
<path d="M501.735 426.463C497.093 431.743 489.567 431.743 484.926 426.463C480.284 421.183 480.284 412.622 484.926 407.343C489.567 402.063 497.093 402.063 501.735 407.343C506.376 412.622 506.376 421.183 501.735 426.463Z" fill="#17282F"/>
<path d="M493.331 425.192C491.465 425.192 489.601 424.382 488.178 422.764C485.332 419.527 485.332 414.278 488.178 411.042C489.601 409.423 491.465 408.613 493.331 408.613C495.195 408.613 497.06 409.423 498.483 411.042C501.329 414.278 501.329 419.527 498.483 422.764C497.06 424.382 495.195 425.192 493.331 425.192ZM493.327 418.785C493.006 418.785 492.745 419.082 492.745 419.447V423.696C492.745 424.062 493.006 424.358 493.327 424.358H493.331C493.652 424.358 493.913 424.062 493.913 423.696V419.447C493.913 419.082 493.652 418.785 493.331 418.785H493.327ZM495.269 417.499C495.068 417.499 494.873 417.617 494.765 417.828H494.765C494.603 418.146 494.697 418.553 494.975 418.738L498.211 420.873C498.303 420.934 498.403 420.962 498.502 420.962C498.703 420.962 498.899 420.843 499.006 420.631L499.007 420.63C499.168 420.313 499.073 419.909 498.795 419.725L498.793 419.725L495.561 417.589C495.469 417.528 495.368 417.499 495.269 417.499ZM491.391 417.482C491.291 417.482 491.189 417.511 491.097 417.572L487.865 419.707C487.586 419.89 487.49 420.294 487.65 420.611L487.651 420.612C487.759 420.826 487.956 420.945 488.158 420.945C488.257 420.945 488.358 420.917 488.45 420.857L491.683 418.721C491.963 418.537 492.058 418.13 491.897 417.812C491.787 417.6 491.592 417.482 491.391 417.482ZM488.158 412.828C487.956 412.828 487.759 412.947 487.651 413.161C487.49 413.477 487.585 413.882 487.863 414.065L487.865 414.066L491.097 416.201C491.189 416.263 491.291 416.292 491.391 416.292C491.591 416.292 491.785 416.175 491.893 415.965L491.897 415.958C492.057 415.641 491.963 415.237 491.684 415.053L491.683 415.053L488.45 412.917C488.358 412.857 488.257 412.828 488.158 412.828ZM498.502 412.829C498.404 412.829 498.304 412.857 498.213 412.916L498.211 412.917L494.975 415.053C494.697 415.237 494.603 415.641 494.765 415.958C494.871 416.172 495.067 416.292 495.269 416.292C495.365 416.292 495.463 416.264 495.553 416.207L495.561 416.201L498.793 414.066C499.072 413.884 499.168 413.479 499.008 413.162L499.007 413.161C498.899 412.948 498.703 412.829 498.502 412.829ZM493.327 409.445C493.006 409.445 492.745 409.742 492.745 410.108V414.357C492.745 414.722 493.006 415.018 493.327 415.018H493.331C493.652 415.018 493.913 414.722 493.913 414.357V410.108C493.913 409.742 493.652 409.445 493.331 409.445H493.327Z" fill="#6C7A7F"/>
<path d="M493.331 415.018H493.327C493.006 415.018 492.746 414.722 492.746 414.357V410.108C492.746 409.742 493.006 409.445 493.327 409.445H493.331C493.652 409.445 493.913 409.742 493.913 410.108V414.357C493.913 414.722 493.652 415.018 493.331 415.018Z" fill="#96A1A2"/>
<path d="M493.331 424.358H493.327C493.006 424.358 492.746 424.062 492.746 423.696V419.447C492.746 419.082 493.006 418.786 493.327 418.786H493.331C493.652 418.786 493.913 419.082 493.913 419.447V423.696C493.913 424.062 493.652 424.358 493.331 424.358Z" fill="#96A1A2"/>
<path d="M495.269 416.292C495.067 416.292 494.872 416.172 494.765 415.958C494.604 415.642 494.698 415.237 494.976 415.053L498.212 412.918L498.213 412.916C498.304 412.857 498.404 412.829 498.502 412.829C498.704 412.829 498.9 412.948 499.008 413.161L499.008 413.163C499.168 413.479 499.072 413.885 498.794 414.066L495.561 416.201L495.553 416.207C495.463 416.264 495.366 416.292 495.269 416.292Z" fill="#96A1A2"/>
<path d="M488.158 420.946C487.956 420.946 487.759 420.826 487.651 420.613L487.65 420.611C487.49 420.294 487.586 419.89 487.865 419.707L491.097 417.572C491.19 417.511 491.291 417.482 491.391 417.482C491.592 417.482 491.788 417.6 491.897 417.812C492.058 418.13 491.963 418.537 491.683 418.721L488.45 420.857C488.358 420.917 488.257 420.946 488.158 420.946Z" fill="#96A1A2"/>
<path d="M498.502 420.962C498.404 420.962 498.303 420.934 498.212 420.873L494.976 418.738C494.697 418.553 494.603 418.146 494.765 417.829H494.766C494.874 417.617 495.068 417.499 495.269 417.499C495.368 417.499 495.469 417.528 495.561 417.589L498.794 419.725L498.795 419.726C499.073 419.909 499.168 420.313 499.008 420.63L499.006 420.632C498.899 420.844 498.703 420.962 498.502 420.962Z" fill="#96A1A2"/>
<path d="M491.39 416.292C491.29 416.292 491.189 416.263 491.096 416.201L487.864 414.066L487.863 414.065C487.584 413.882 487.49 413.477 487.65 413.161C487.759 412.947 487.956 412.828 488.158 412.828C488.257 412.828 488.358 412.857 488.45 412.918L491.682 415.053L491.684 415.054C491.962 415.237 492.057 415.642 491.896 415.958L491.893 415.965C491.784 416.176 491.59 416.292 491.39 416.292Z" fill="#96A1A2"/>
<path d="M493.331 415.787C493.872 415.787 494.311 416.286 494.311 416.902C494.311 417.518 493.872 418.016 493.331 418.016C492.789 418.016 492.351 417.518 492.351 416.902C492.351 416.286 492.789 415.787 493.331 415.787Z" fill="#17282F"/>
<path d="M599.987 427.722C595.345 433.002 587.82 433.002 583.178 427.722C578.536 422.443 578.536 413.882 583.178 408.601C587.82 403.322 595.345 403.322 599.987 408.601C604.629 413.882 604.629 422.443 599.987 427.722Z" fill="#17282F"/>
<path d="M591.583 426.451C589.718 426.451 587.853 425.642 586.43 424.024C583.584 420.786 583.584 415.538 586.43 412.3C587.853 410.682 589.718 409.873 591.583 409.873C593.447 409.873 595.313 410.682 596.735 412.3C599.581 415.538 599.581 420.786 596.735 424.024C595.313 425.642 593.447 426.451 591.583 426.451ZM591.579 420.045C591.258 420.045 590.997 420.341 590.997 420.707V424.956C590.997 425.321 591.258 425.617 591.579 425.617H591.583C591.905 425.617 592.165 425.321 592.165 424.956V420.707C592.165 420.341 591.905 420.045 591.583 420.045H591.579ZM593.521 418.759C593.321 418.759 593.125 418.877 593.017 419.088C592.855 419.406 592.949 419.812 593.227 419.998L596.463 422.133C596.555 422.194 596.655 422.221 596.754 422.221C596.955 422.221 597.151 422.103 597.259 421.891L597.259 421.889C597.42 421.573 597.325 421.168 597.047 420.985L597.045 420.984L593.813 418.848C593.721 418.788 593.62 418.759 593.521 418.759ZM589.643 418.741C589.543 418.741 589.442 418.77 589.349 418.832L586.117 420.967C585.838 421.149 585.742 421.553 585.902 421.87L585.903 421.872C586.011 422.085 586.208 422.205 586.411 422.205C586.51 422.205 586.611 422.176 586.703 422.116L589.935 419.98C590.215 419.796 590.311 419.39 590.149 419.071C590.04 418.859 589.844 418.741 589.643 418.741ZM586.411 414.087C586.208 414.087 586.011 414.207 585.903 414.42C585.742 414.737 585.837 415.142 586.115 415.325L586.117 415.326L589.349 417.461C589.441 417.522 589.543 417.552 589.643 417.552C589.843 417.552 590.037 417.435 590.145 417.224L590.149 417.217C590.31 416.901 590.215 416.496 589.937 416.313L589.935 416.312L586.703 414.177C586.61 414.116 586.51 414.087 586.411 414.087ZM596.755 414.088C596.656 414.088 596.557 414.116 596.465 414.176L596.463 414.177L593.227 416.312C592.949 416.496 592.855 416.901 593.017 417.217C593.123 417.432 593.319 417.552 593.521 417.552C593.617 417.552 593.715 417.524 593.805 417.466L593.813 417.461L597.045 415.326C597.324 415.144 597.42 414.739 597.261 414.422L597.259 414.42C597.152 414.207 596.956 414.088 596.755 414.088ZM591.579 410.705C591.258 410.705 590.997 411.002 590.997 411.367V415.616C590.997 415.981 591.258 416.278 591.579 416.278H591.583C591.905 416.278 592.165 415.981 592.165 415.616V411.367C592.165 411.002 591.905 410.705 591.583 410.705H591.579Z" fill="#6C7A7F"/>
<path d="M591.583 416.278H591.579C591.258 416.278 590.997 415.982 590.997 415.616V411.367C590.997 411.002 591.258 410.705 591.579 410.705H591.583C591.904 410.705 592.164 411.002 592.164 411.367V415.616C592.164 415.982 591.904 416.278 591.583 416.278Z" fill="#96A1A2"/>
<path d="M591.583 425.618H591.579C591.258 425.618 590.997 425.321 590.997 424.956V420.707C590.997 420.341 591.258 420.045 591.579 420.045H591.583C591.904 420.045 592.164 420.341 592.164 420.707V424.956C592.164 425.321 591.904 425.618 591.583 425.618Z" fill="#96A1A2"/>
<path d="M593.521 417.552C593.319 417.552 593.123 417.432 593.017 417.217C592.855 416.901 592.949 416.496 593.227 416.312L596.463 414.177L596.465 414.177C596.557 414.117 596.656 414.088 596.755 414.088C596.956 414.088 597.152 414.208 597.259 414.421L597.261 414.422C597.42 414.739 597.324 415.144 597.045 415.326L593.813 417.461L593.805 417.466C593.715 417.525 593.617 417.552 593.521 417.552Z" fill="#96A1A2"/>
<path d="M586.411 422.205C586.208 422.205 586.011 422.086 585.903 421.872L585.902 421.871C585.742 421.554 585.838 421.149 586.117 420.967L589.349 418.832C589.442 418.77 589.543 418.741 589.643 418.741C589.844 418.741 590.04 418.859 590.149 419.071C590.311 419.39 590.215 419.796 589.935 419.98L586.703 422.116C586.611 422.176 586.51 422.205 586.411 422.205Z" fill="#96A1A2"/>
<path d="M596.754 422.222C596.655 422.222 596.555 422.194 596.463 422.133L593.227 419.998C592.949 419.812 592.855 419.406 593.017 419.088C593.125 418.877 593.321 418.759 593.521 418.759C593.62 418.759 593.721 418.788 593.813 418.849L597.045 420.985L597.047 420.985C597.325 421.168 597.42 421.574 597.259 421.89L597.259 421.891C597.151 422.103 596.955 422.222 596.754 422.222Z" fill="#96A1A2"/>
<path d="M589.643 417.552C589.543 417.552 589.441 417.522 589.349 417.461L586.117 415.326L586.115 415.325C585.837 415.142 585.742 414.737 585.903 414.421C586.011 414.207 586.208 414.087 586.411 414.087C586.51 414.087 586.61 414.117 586.703 414.177L589.935 416.312L589.937 416.313C590.215 416.496 590.31 416.901 590.149 417.217L590.145 417.224C590.037 417.435 589.843 417.552 589.643 417.552Z" fill="#96A1A2"/>
<path d="M591.584 417.046C592.124 417.046 592.563 417.546 592.563 418.161C592.563 418.777 592.124 419.276 591.584 419.276C591.042 419.276 590.604 418.777 590.604 418.161C590.604 417.546 591.042 417.046 591.584 417.046Z" fill="#17282F"/>
<path d="M571.688 383.467H559.845C558.335 383.467 557.11 382.07 557.11 380.348V365.559C557.11 363.836 558.335 362.44 559.845 362.44H571.688C573.199 362.44 574.424 363.836 574.424 365.559V380.348C574.424 382.07 573.199 383.467 571.688 383.467Z" fill="#17282F"/>
<path d="M572.827 392.063C572.197 392.063 571.686 391.481 571.686 390.762V387.064C571.686 386.346 572.197 385.763 572.827 385.763C573.456 385.763 573.967 386.346 573.967 387.064V390.762C573.967 391.481 573.456 392.063 572.827 392.063Z" fill="#17282F"/>
<path d="M603.469 413.492L599.965 406.748L607.331 406.27C607.331 406.27 607.934 411.338 606.955 412.111C605.975 412.884 603.469 413.492 603.469 413.492Z" fill="#17282F"/>
<path d="M603.469 413.492L599.965 406.748L607.331 406.27C607.331 406.27 607.514 407.808 607.515 409.318C607.515 410.55 607.394 411.763 606.955 412.111C605.975 412.884 603.469 413.492 603.469 413.492Z" fill="#405158"/>
<path d="M604.673 390.833C604.673 390.833 603.61 391.822 603.739 393.73L606.365 393.978C606.365 393.978 606.5 391.893 604.673 390.833Z" fill="#406FBF"/>
<path d="M559.656 377.101C558.949 377.101 558.307 376.454 558.307 375.562C558.308 372.543 558.306 367.57 558.304 365.068C558.304 364.217 558.908 363.529 559.654 363.529H572.164C572.909 363.529 573.514 364.219 573.514 365.069V368.328C573.514 368.908 573.228 369.438 572.774 369.7L560.268 376.932C560.068 377.048 559.86 377.101 559.656 377.101Z" fill="#405158"/>
<path d="M481.445 417.513H462.773V410.705H481.445V417.513Z" fill="#040606"/>
<path d="M554.922 417.513H505.845V410.705H554.922V417.513Z" fill="#040606"/>
<path d="M554.922 399.632H462.773V393.978H554.922V399.632Z" fill="#406FBF"/>
<path d="M576.611 417.552V417.267H555.172V363.948C555.172 362.871 555.554 361.899 556.173 361.194C556.792 360.488 557.645 360.053 558.589 360.053H572.945C573.889 360.053 574.742 360.488 575.361 361.194C575.979 361.899 576.361 362.871 576.361 363.948V417.552H576.611H576.861V363.948C576.861 361.482 575.108 359.483 572.945 359.483H558.589C556.425 359.483 554.672 361.482 554.672 363.948V417.837H576.861V417.552H576.611Z" fill="#040606"/>
<path d="M478.889 388.913H469.745V378.488H478.889V388.913Z" fill="#406FBF"/>
<path d="M491.299 388.062H481.445V385.479H491.299V388.062Z" fill="#406FBF"/>
<path d="M269.497 387.663H273.571V381.808H269.497V387.663Z" fill="#B5413C"/>
<path d="M241.13 387.839H245.204V381.984H241.13V387.839Z" fill="#B5413C"/>
<path d="M241.635 384.472H269.879V381.808H241.635V384.472Z" fill="#B5413C"/>
<path d="M214.933 387.663H219.007V381.808H214.933V387.663Z" fill="#B5413C"/>
<path d="M218.157 384.472H244.093V381.808H218.157V384.472Z" fill="#B5413C"/>
<path d="M215.556 381.905H235.259V365.48H215.556V381.905Z" fill="#406FBF"/>
<path d="M234.712 381.905H231.348V365.48H234.655C234.665 365.526 234.684 365.569 234.712 365.604V381.905Z" fill="#2D5BB2"/>
<path d="M224.937 372.993H228.736V367.507H224.937V372.993Z" fill="white"/>
<path d="M215.556 365.41H235.259V348.985H215.556V365.41Z" fill="#406FBF"/>
<path d="M231.348 365.41H215.556V348.985H235.259H231.348V365.41Z" fill="#90B4E3"/>
<path d="M234.647 365.41H231.348V348.985H235.259H234.712V365.198C234.667 365.254 234.645 365.332 234.647 365.41Z" fill="#627FB7"/>
<path d="M224.937 356.499H228.736V351.013H224.937V356.499Z" fill="white"/>
<path d="M215.732 365.686C222.07 365.686 228.408 365.686 234.747 365.686C235.068 365.686 235.069 365.115 234.747 365.115C228.408 365.115 222.07 365.115 215.732 365.115C215.41 365.115 215.41 365.686 215.732 365.686Z" fill="#17282F"/>
<path d="M234.712 381.905H254.415V365.48H234.712V381.905Z" fill="#406FBF"/>
<path d="M253.869 381.905H250.504V365.686C251.626 365.686 252.747 365.686 253.869 365.686V381.905Z" fill="#2D5BB2"/>
<path d="M244.092 372.993H247.892V367.507H244.092V372.993Z" fill="white"/>
<path d="M234.712 365.41H254.415V348.985H234.712V365.41Z" fill="#406FBF"/>
<path d="M253.869 365.115C252.747 365.115 251.626 365.115 250.504 365.115V348.985H254.415H253.869V365.115Z" fill="#2D5BB2"/>
<path d="M244.092 356.499H247.892V351.013H244.092V356.499Z" fill="white"/>
<path d="M234.888 365.686C241.226 365.686 247.564 365.686 253.903 365.686C254.225 365.686 254.225 365.115 253.903 365.115C247.564 365.115 241.226 365.115 234.888 365.115C234.566 365.115 234.566 365.686 234.888 365.686Z" fill="#17282F"/>
<path d="M253.869 381.905H273.571V365.48H253.869V381.905Z" fill="#406FBF"/>
<path d="M273.571 381.905H269.66V365.48H273.571V381.905Z" fill="#2D5BB2"/>
<path d="M263.249 372.993H267.049V367.507H263.249V372.993Z" fill="white"/>
<path d="M253.869 365.41H273.571V348.985H253.869V365.41Z" fill="#406FBF"/>
<path d="M269.66 365.41H253.869V348.985H273.571H269.66V365.41Z" fill="#90B4E3"/>
<path d="M269.66 365.41H273.571V348.985H269.66V365.41Z" fill="#627FB7"/>
<path d="M263.249 356.499H267.049V351.013H263.249V356.499Z" fill="white"/>
<path d="M254.044 365.686C260.382 365.686 266.72 365.686 273.059 365.686C273.38 365.686 273.381 365.115 273.059 365.115C266.72 365.115 260.382 365.115 254.044 365.115C253.723 365.115 253.722 365.686 254.044 365.686Z" fill="#17282F"/>
<path d="M269.497 425.614H273.571V419.759H269.497V425.614Z" fill="#B5413C"/>
<path d="M241.13 425.791H245.204V419.935H241.13V425.791Z" fill="#B5413C"/>
<path d="M241.635 422.422H269.879V419.759H241.635V422.422Z" fill="#B5413C"/>
<path d="M214.933 425.614H219.007V419.759H214.933V425.614Z" fill="#B5413C"/>
<path d="M218.157 422.422H244.093V419.759H218.157V422.422Z" fill="#B5413C"/>
<path d="M215.556 419.855H235.259V403.431H215.556V419.855Z" fill="#406FBF"/>
<path d="M234.712 419.855H231.348V403.636C232.47 403.636 233.591 403.636 234.712 403.636V419.855Z" fill="#2D5BB2"/>
<path d="M224.937 410.944H228.736V405.459H224.937V410.944Z" fill="white"/>
<path d="M215.556 403.361H235.259V386.936H215.556V403.361Z" fill="#406FBF"/>
<path d="M234.712 403.067C233.591 403.067 232.47 403.067 231.348 403.067V386.937H235.259H234.712V403.067Z" fill="#2D5BB2"/>
<path d="M224.937 394.45H228.736V388.964H224.937V394.45Z" fill="white"/>
<path d="M215.732 403.637C222.07 403.637 228.408 403.637 234.747 403.637C235.068 403.637 235.069 403.067 234.747 403.067C228.408 403.067 222.07 403.067 215.732 403.067C215.41 403.067 215.41 403.637 215.732 403.637Z" fill="#17282F"/>
<path d="M234.712 419.855H254.415V403.431H234.712V419.855Z" fill="#406FBF"/>
<path d="M253.869 419.855H250.504V403.431H254.415H253.869V419.855Z" fill="#2D5BB2"/>
<path d="M244.092 410.944H247.892V405.459H244.092V410.944Z" fill="white"/>
<path d="M234.712 403.361H254.415V386.936H234.712V403.361Z" fill="#406FBF"/>
<path d="M250.504 403.361H234.712V386.936H254.415H250.504V403.361Z" fill="#90B4E3"/>
<path d="M253.869 403.361H250.504V386.936H254.415H253.869V403.361Z" fill="#627FB7"/>
<path d="M244.092 394.45H247.892V388.964H244.092V394.45Z" fill="white"/>
<path d="M234.888 403.637C241.226 403.637 247.564 403.637 253.903 403.637C254.225 403.637 254.225 403.067 253.903 403.067C247.564 403.067 241.226 403.067 234.888 403.067C234.566 403.067 234.566 403.637 234.888 403.637Z" fill="#17282F"/>
<path d="M253.869 419.855H273.571V403.431H253.869V419.855Z" fill="#406FBF"/>
<path d="M273.571 419.855H269.66V403.431H273.571V419.855Z" fill="#2D5BB2"/>
<path d="M263.249 410.944H267.049V405.459H263.249V410.944Z" fill="white"/>
<path d="M253.869 403.361H273.571V386.936H253.869V403.361Z" fill="#406FBF"/>
<path d="M269.66 403.361H273.571V386.936H269.66V403.361Z" fill="#2D5BB2"/>
<path d="M263.249 394.45H267.049V388.964H263.249V394.45Z" fill="white"/>
<path d="M254.044 403.637C260.382 403.637 266.72 403.637 273.059 403.637C273.38 403.637 273.381 403.067 273.059 403.067C266.72 403.067 260.382 403.067 254.044 403.067C253.723 403.067 253.722 403.637 254.044 403.637Z" fill="#17282F"/>
</svg>
