<?xml version="1.0" standalone="no"?>
<!DOCTYPE svg PUBLIC "-//W3C//DTD SVG 20010904//EN"
 "http://www.w3.org/TR/2001/REC-SVG-20010904/DTD/svg10.dtd">
<svg version="1.0" xmlns="http://www.w3.org/2000/svg"
 width="58.000000pt" height="58.000000pt" viewBox="0 0 58.000000 58.000000"
 preserveAspectRatio="xMidYMid meet">
<metadata>
Created by potrace 1.10, written by Peter Selinger 2001-2011
</metadata>
<g transform="translate(0.000000,58.000000) scale(0.100000,-0.100000)"
fill="#000000" stroke="none">
<path d="M230 571 c-80 -26 -136 -79 -165 -155 -36 -93 -1 -182 129 -322 99
-108 93 -107 175 -23 81 81 146 174 161 229 23 84 -28 195 -113 244 -47 28
-143 42 -187 27z m124 -15 c66 -20 110 -57 140 -118 53 -106 25 -187 -116
-332 l-88 -91 -80 84 c-97 103 -140 179 -140 247 1 93 55 168 146 204 60 23
78 24 138 6z"/>
<path d="M225 496 c-43 -18 -93 -79 -101 -121 -20 -109 61 -207 171 -207 139
0 220 166 134 276 -45 58 -137 81 -204 52z m147 -22 c63 -33 98 -139 65 -200
l-16 -29 -1 31 c0 26 -5 33 -26 38 -23 6 -26 11 -22 46 2 28 0 40 -9 40 -7 0
-13 9 -13 20 0 18 -7 20 -55 20 -48 0 -55 -2 -55 -20 0 -11 -7 -20 -15 -20
-11 0 -15 -11 -15 -40 0 -34 -4 -42 -25 -50 -16 -6 -25 -17 -25 -31 0 -31 -10
-18 -20 26 -29 128 111 231 232 169z m-37 -59 c0 -5 -19 -11 -42 -13 -34 -3
-43 0 -43 13 0 13 9 16 43 13 23 -2 42 -7 42 -13z m25 -124 c0 -110 -1 -111
-69 -111 -59 0 -72 16 -67 80 2 30 4 72 5 93 l1 37 65 0 65 0 0 -99z m50 -30
c0 -15 -9 -36 -20 -46 -20 -18 -20 -17 -20 39 0 54 1 56 20 46 13 -7 20 -21
20 -39z m-200 -13 c0 -49 -1 -50 -18 -35 -22 20 -18 87 4 87 10 0 14 -14 14
-52z"/>
<path d="M247 364 c-4 -4 -7 -22 -7 -41 0 -29 3 -33 26 -33 23 0 25 3 22 37
-3 36 -23 54 -41 37z"/>
<path d="M300 330 c0 -33 3 -40 20 -40 17 0 20 7 20 40 0 33 -3 40 -20 40 -17
0 -20 -7 -20 -40z"/>
<path d="M242 243 c2 -30 7 -38 23 -38 16 0 21 8 23 38 3 34 1 37 -23 37 -24
0 -26 -3 -23 -37z m38 2 c0 -14 -6 -25 -14 -25 -9 0 -12 8 -8 25 2 14 8 25 13
25 5 0 9 -11 9 -25z"/>
<path d="M300 240 c0 -33 3 -40 20 -40 17 0 20 7 20 40 0 33 -3 40 -20 40 -17
0 -20 -7 -20 -40z"/>
<path d="M474 126 c-12 -31 0 -51 31 -51 27 0 30 3 30 30 0 25 -4 30 -28 33
-17 2 -29 -2 -33 -12z m54 -19 c4 -20 -25 -34 -40 -19 -15 15 -1 44 19 40 10
-2 19 -11 21 -21z"/>
<path d="M51 116 c-38 -46 25 -111 69 -71 25 23 26 47 2 68 -23 21 -56 22 -71
3z m53 -2 c9 -3 16 -16 16 -29 0 -46 -52 -56 -66 -12 -4 14 -1 25 12 34 21 15
18 15 38 7z"/>
</g>
</svg>
